<?xml version="1.0" standalone="no"?>
<!DOCTYPE svg PUBLIC "-//W3C//DTD SVG 1.1//EN" "http://www.w3.org/Graphics/SVG/1.1/DTD/svg11.dtd" >
<svg xmlns="http://www.w3.org/2000/svg" xmlns:xlink="http://www.w3.org/1999/xlink" version="1.1">
<metadata>
Created by FontForge 20170731 at Thu Nov  3 16:00:24 2016
 By Aleksey,,,
Copyright (c) 2015 by Colophon Foundry. All rights reserved.
</metadata>
<defs>
<font id="BasisGrotesquePro-Bold" horiz-adv-x="594" >
  <font-face 
    font-family="Basis Grotesque Pro"
    font-weight="700"
    font-stretch="normal"
    units-per-em="1000"
    panose-1="2 0 8 3 3 0 0 2 0 4"
    ascent="800"
    descent="-200"
    x-height="496"
    cap-height="700"
    bbox="-52 -314 1118 934"
    underline-thickness="50"
    underline-position="-200"
    unicode-range="U+000D-FB04"
  />
<missing-glyph horiz-adv-x="500" 
 />
    <glyph glyph-name="ff" unicode="ff" horiz-adv-x="626" 
d="M217 394v-394h-126v394h-72v102h72v70q0 89 48.5 136.5t127.5 47.5q34 0 63 -11l-22 -111q-18 6 -35 6q-56 0 -56 -65v-73h158v70q0 89 48.5 136.5t127.5 47.5q34 0 63 -11l-22 -111q-18 6 -35 6q-56 0 -56 -65v-73h108v-102h-108v-394h-126v394h-158z" />
    <glyph glyph-name="fi" unicode="fi" horiz-adv-x="592" 
d="M404 0v394h-187v-394h-126v394h-72v102h72v70q0 89 48.5 136.5t127.5 47.5q34 0 63 -11l-22 -111q-18 6 -35 6q-56 0 -56 -65v-73h313v-496h-126zM398 568v132h138v-132h-138z" />
    <glyph glyph-name="fl" unicode="fl" horiz-adv-x="593" 
d="M19 394v102h72v70q0 89 48.5 136.5t127.5 47.5q34 0 63 -11l-22 -111q-18 6 -35 6q-56 0 -56 -65v-73h108v-102h-108v-394h-126v394h-72zM404 0v700h126v-700h-126z" />
    <glyph glyph-name="f_f_i" unicode="ffi" horiz-adv-x="876" 
d="M688 0v394h-187v-394h-126v394h-158v-394h-126v394h-72v102h72v70q0 89 48.5 136.5t127.5 47.5q34 0 63 -11l-22 -111q-18 6 -35 6q-56 0 -56 -65v-73h158v70q0 89 48.5 136.5t127.5 47.5q34 0 63 -11l-22 -111q-18 6 -35 6q-56 0 -56 -65v-73h313v-496h-126zM682 568
v132h138v-132h-138z" />
    <glyph glyph-name="f_f_l" unicode="ffl" horiz-adv-x="877" 
d="M19 394v102h72v70q0 89 48.5 136.5t127.5 47.5q34 0 63 -11l-22 -111q-18 6 -35 6q-56 0 -56 -65v-73h158v70q0 89 48.5 136.5t127.5 47.5q34 0 63 -11l-22 -111q-18 6 -35 6q-56 0 -56 -65v-73h108v-102h-108v-394h-126v394h-158v-394h-126v394h-72zM688 0v700h126v-700
h-126z" />
    <glyph glyph-name="f_j" unicode="fj" horiz-adv-x="592" 
d="M293 -201l16 114q19 -8 39 -8q30 0 43 17.5t13 53.5v418h-187v-394h-126v394h-72v102h72v70q0 89 48.5 136.5t127.5 47.5q34 0 63 -11l-22 -111q-18 6 -35 6q-56 0 -56 -65v-73h313v-534q0 -84 -40.5 -128.5t-121.5 -44.5q-39 0 -75 10zM398 568v132h138v-132h-138z" />
    <glyph glyph-name="f_f_j" unicode="ffj" horiz-adv-x="876" 
d="M19 394v102h72v70q0 89 48.5 136.5t127.5 47.5q34 0 63 -11l-22 -111q-18 6 -35 6q-56 0 -56 -65v-73h158v70q0 89 48.5 136.5t127.5 47.5q34 0 63 -11l-22 -111q-18 6 -35 6q-56 0 -56 -65v-73h313v-534q0 -84 -40.5 -128.5t-121.5 -44.5q-39 0 -75 10l16 114
q19 -8 39 -8q30 0 43 17.5t13 53.5v418h-187v-394h-126v394h-158v-394h-126v394h-72zM682 568v132h138v-132h-138z" />
    <glyph glyph-name=".notdef" horiz-adv-x="500" 
 />
    <glyph glyph-name=".null" horiz-adv-x="0" 
 />
    <glyph glyph-name="nonmarkingreturn" horiz-adv-x="333" 
 />
    <glyph glyph-name="NULL" horiz-adv-x="0" 
 />
    <glyph glyph-name="NULL" horiz-adv-x="0" 
 />
    <glyph glyph-name="CR" unicode="&#xd;" horiz-adv-x="289" 
 />
    <glyph glyph-name="space" unicode=" " horiz-adv-x="276" 
 />
    <glyph glyph-name="exclam" unicode="!" horiz-adv-x="278" 
d="M73 457v243h132v-243l-16 -249h-100zM73 0v138h132v-138h-132z" />
    <glyph glyph-name="quotedbl" unicode="&#x22;" horiz-adv-x="394" 
d="M51 621v79h120v-79l-13 -167h-94zM223 621v79h120v-79l-13 -167h-94z" />
    <glyph glyph-name="numbersign" unicode="#" horiz-adv-x="666" 
d="M574 700l-38 -204h89v-94h-106l-19 -104h105v-94h-122l-37 -204h-110l37 204h-129l-38 -204h-110l38 204h-89v94h106l19 104h-105v94h122l37 204h110l-37 -204h129l38 204h110zM280 402l-19 -104h129l19 104h-129z" />
    <glyph glyph-name="dollar" unicode="$" horiz-adv-x="652" 
d="M280 -100v90q-99 14 -158.5 72.5t-77.5 147.5l116 59q24 -132 120 -160v206q-95 21 -150.5 73t-55.5 134q0 78 56 129t150 61v88h104v-92q148 -26 203 -174l-104 -60q-29 87 -99 116v-177q109 -25 162 -76.5t53 -135.5q0 -80 -58 -140t-157 -72v-89h-104zM467 196
q0 61 -83 92v-181q39 9 61 32.5t22 56.5zM200 525q0 -54 80 -85v159q-80 -13 -80 -74z" />
    <glyph glyph-name="percent" unicode="%" horiz-adv-x="875" 
d="M43 539q0 75 49 125t125 50t125 -50t49 -125t-49 -125t-125 -50t-125 50t-49 125zM135 539q0 -39 23.5 -64t58.5 -25t58.5 25t23.5 64t-23.5 64t-58.5 25t-58.5 -25t-23.5 -64zM484 161q0 75 49 125t125 50t125 -50t49 -125t-49 -125t-125 -50t-125 50t-49 125zM576 161
q0 -39 23.5 -64t58.5 -25t58.5 25t23.5 64t-23.5 64t-58.5 25t-58.5 -25t-23.5 -64zM256 -7l-72 49l435 665l72 -49z" />
    <glyph glyph-name="ampersand" unicode="&#x26;" horiz-adv-x="663" 
d="M628 0h-144l-31 41q-74 -55 -177 -55q-99 0 -162 60.5t-63 157.5q0 125 131 205q-44 72 -44 134q0 76 50.5 123.5t125.5 47.5q76 0 123.5 -39.5t47.5 -105.5q0 -109 -149 -185l128 -168q28 58 42 140l98 -56q-24 -103 -71 -175zM295 96q52 0 96 29l-151 203
q-63 -49 -63 -118q0 -51 33.5 -82.5t84.5 -31.5zM248 547q0 -41 32 -89q55 27 77 49.5t22 50.5t-19 44t-46 16q-28 0 -47 -18.5t-19 -52.5z" />
    <glyph glyph-name="quotesingle" unicode="'" horiz-adv-x="222" 
d="M51 621v79h120v-79l-13 -167h-94z" />
    <glyph glyph-name="parenleft" unicode="(" horiz-adv-x="360" 
d="M284 -148h-113q-108 192 -108 424t108 424h113q-40 -73 -66.5 -196t-26.5 -228t26.5 -228t66.5 -196z" />
    <glyph glyph-name="parenright" unicode=")" horiz-adv-x="360" 
d="M189 -148h-113q40 73 66.5 196t26.5 228t-26.5 228t-66.5 196h113q108 -192 108 -424t-108 -424z" />
    <glyph glyph-name="asterisk" unicode="*" horiz-adv-x="438" 
d="M273 700l-20 -110l85 73l54 -94l-106 -37l106 -37l-54 -94l-85 73l20 -110h-108l20 110l-85 -73l-54 94l106 37l-106 37l54 94l85 -73l-20 110h108z" />
    <glyph glyph-name="plus" unicode="+" horiz-adv-x="564" 
d="M40 314v102h191v191h102v-191h191v-102h-191v-191h-102v191h-191z" />
    <glyph glyph-name="comma" unicode="," horiz-adv-x="214" 
d="M40 0v134h134v-134l-98 -151l-29 11l38 140h-45z" />
    <glyph glyph-name="hyphen" unicode="-" horiz-adv-x="468" 
d="M40 260v102h388v-102h-388z" />
    <glyph glyph-name="period" unicode="." horiz-adv-x="214" 
d="M40 0v134h134v-134h-134z" />
    <glyph glyph-name="slash" unicode="/" horiz-adv-x="538" 
d="M5 -30l400 760h128l-400 -760h-128z" />
    <glyph glyph-name="zero" unicode="0" horiz-adv-x="722" 
d="M677 350q0 -164 -88.5 -264t-227.5 -100t-227.5 100t-88.5 264t88.5 264t227.5 100t227.5 -100t88.5 -264zM361 108q82 0 133 65t51 177t-51 177t-133 65t-133 -65t-51 -177t51 -177t133 -65z" />
    <glyph glyph-name="one" unicode="1" horiz-adv-x="394" 
d="M46 490v122q59 0 95.5 21.5t59.5 66.5h124v-700h-132v537q-48 -47 -147 -47z" />
    <glyph glyph-name="two" unicode="2" horiz-adv-x="586" 
d="M47 94l266 261q45 44 63.5 75t18.5 68q0 45 -29 72.5t-78 27.5t-79 -26.5t-30 -72.5q0 -25 9 -48l-128 -24q-13 33 -13 79q0 85 66.5 146.5t174.5 61.5q112 0 173.5 -56t61.5 -145q0 -69 -26.5 -120.5t-95.5 -117.5l-157 -153h279v-122h-476v94z" />
    <glyph glyph-name="three" unicode="3" horiz-adv-x="602" 
d="M61 262l125 -30q-4 -12 -4 -29q0 -48 33 -76.5t86 -28.5q56 0 89.5 29t33.5 82q0 60 -48.5 88t-130.5 28v98q72 0 111 26.5t39 74.5q0 37 -26.5 59.5t-71.5 22.5q-44 0 -73 -22t-29 -59q0 -20 6 -34l-122 -27q-10 30 -10 55q0 80 63 137.5t166 57.5q110 0 167.5 -47.5
t57.5 -124.5q0 -54 -29 -95.5t-74 -61.5q60 -20 98 -64.5t38 -111.5q0 -102 -71 -162.5t-184 -60.5q-118 0 -184.5 62t-66.5 152q0 35 11 62z" />
    <glyph glyph-name="four" unicode="4" horiz-adv-x="614" 
d="M41 116v122l341 462h132v-462h71v-122h-71v-116h-132v116h-341zM382 514l-201 -276h201v276z" />
    <glyph glyph-name="five" unicode="5" horiz-adv-x="609" 
d="M55 318l33 382h434v-122h-342l-17 -161q28 30 71 45.5t85 15.5q118 0 182.5 -64.5t64.5 -173.5t-74.5 -181.5t-193.5 -72.5q-114 0 -181.5 59t-67.5 141q0 27 10 55l126 -30q-4 -14 -4 -26q0 -42 32.5 -64.5t85.5 -22.5q61 0 98 37.5t37 104.5q0 63 -37 99.5t-98 36.5
q-42 0 -79 -22.5t-62 -62.5z" />
    <glyph glyph-name="six" unicode="6" horiz-adv-x="619" 
d="M539 484l-122 26q7 18 7 33q0 34 -25.5 51.5t-66.5 17.5q-70 0 -112 -65t-50 -162q70 73 169 73q105 0 172 -65.5t67 -167.5t-74 -170.5t-186 -68.5q-125 0 -199 85.5t-74 237.5q0 130 41 230q36 84 99 129.5t147 45.5q100 0 159 -48t59 -126q0 -31 -11 -56zM316 350
q-57 0 -95 -34.5t-38 -93.5t38 -93.5t95 -34.5t95.5 34.5t38.5 93.5t-38.5 93.5t-95.5 34.5z" />
    <glyph glyph-name="seven" unicode="7" horiz-adv-x="545" 
d="M508 584l-262 -584h-132l260 578h-338v122h472v-116z" />
    <glyph glyph-name="eight" unicode="8" 
d="M297 -14q-115 0 -183 57t-68 151q0 63 32 110t88 71q-99 50 -99 155q0 81 64 132.5t166 51.5t166 -51.5t64 -132.5q0 -105 -99 -155q56 -24 88 -71t32 -110q0 -94 -68 -151t-183 -57zM297 94q53 0 88 31.5t35 79.5t-35 79.5t-88 31.5t-88 -31.5t-35 -79.5t35 -79.5
t88 -31.5zM193 521q0 -45 30.5 -71t73.5 -26t73.5 26t30.5 71t-30.5 70t-73.5 25t-73.5 -25t-30.5 -70z" />
    <glyph glyph-name="nine" unicode="9" horiz-adv-x="629" 
d="M85 216l124 -27q-7 -18 -7 -32q0 -33 28 -51t70 -18q66 0 108 60t50 167q-56 -73 -161 -73q-109 0 -178 65.5t-69 167.5q0 103 73 171t187 68q132 0 202.5 -84t70.5 -239q0 -128 -42 -235q-32 -82 -95.5 -126t-149.5 -44q-104 0 -162 50t-58 127q0 28 9 53zM313 350
q55 0 93.5 34.5t38.5 93.5t-38.5 93.5t-93.5 34.5t-95 -35t-40 -93t40 -93t95 -35z" />
    <glyph glyph-name="colon" unicode=":" horiz-adv-x="214" 
d="M40 350v134h134v-134h-134zM40 0v134h134v-134h-134z" />
    <glyph glyph-name="semicolon" unicode=";" horiz-adv-x="214" 
d="M40 350v134h134v-134h-134zM40 0v134h134v-134l-101 -162l-29 11l41 151h-45z" />
    <glyph glyph-name="less" unicode="&#x3c;" horiz-adv-x="526" 
d="M40 261v98l437 214v-124l-299 -139l299 -139v-125z" />
    <glyph glyph-name="equal" unicode="=" horiz-adv-x="564" 
d="M40 194v102h484v-102h-484zM40 394v102h484v-102h-484z" />
    <glyph glyph-name="greater" unicode="&#x3e;" horiz-adv-x="526" 
d="M486 359v-98l-437 -215v125l299 139l-299 139v124z" />
    <glyph glyph-name="question" unicode="?" horiz-adv-x="549" 
d="M328 208h-126v16q0 46 18.5 79.5t67.5 72.5q51 41 71.5 71.5t20.5 67.5q0 39 -29 62t-75 23q-48 0 -80.5 -27t-32.5 -72q0 -19 7 -37l-115 -24q-14 30 -14 72q0 79 64.5 140.5t167.5 61.5q107 0 169 -52t62 -138q0 -60 -27 -105.5t-102 -109.5q-27 -23 -37 -45.5
t-10 -55.5zM199 0v138h132v-138h-132z" />
    <glyph glyph-name="at" unicode="@" horiz-adv-x="958" 
d="M652 -5l48 -81q-104 -66 -242 -66q-82 0 -154.5 25t-131.5 75t-93 132.5t-34 188.5q0 187 129.5 316t327.5 129q64 0 122.5 -14t110.5 -44.5t90.5 -73.5t60.5 -105t22 -136q0 -134 -72 -224t-176 -90q-44 0 -71 21t-27 55q0 5 1 12q-23 -38 -63 -63t-90 -25
q-83 0 -132.5 59t-49.5 155q0 69 23 127t59.5 95t79.5 57t86 20q92 0 126 -65l8 49h96l-56 -362q-1 -9 -1 -16q0 -34 31 -34q46 0 84 61.5t38 166.5q0 127 -78 204.5t-229 77.5q-144 0 -244 -102t-100 -258q0 -152 89 -237t222 -85q110 0 190 55zM425 112q62 0 107.5 63
t45.5 161q0 117 -89 117q-61 0 -108 -63t-47 -155q0 -59 25.5 -91t65.5 -32z" />
    <glyph glyph-name="A" unicode="A" horiz-adv-x="702" 
d="M5 0l283 700h126l283 -700h-141l-70 183h-270l-70 -183h-141zM325 469l-64 -168h180l-64 168q-13 34 -26 76z" />
    <glyph glyph-name="B" unicode="B" horiz-adv-x="660" 
d="M73 0v700h288q107 0 165.5 -45t58.5 -126q0 -51 -27.5 -89.5t-69.5 -59.5q126 -50 126 -170q0 -96 -71.5 -153t-176.5 -57h-293zM205 312v-194h153q124 0 124 97t-124 97h-153zM205 584v-156h146q55 0 80.5 19t25.5 59t-25.5 59t-80.5 19h-146z" />
    <glyph glyph-name="C" unicode="C" horiz-adv-x="768" 
d="M617 248l103 -74q-66 -101 -136 -144.5t-180 -43.5q-156 0 -257 101t-101 263q0 161 103.5 262.5t259.5 101.5q107 0 189 -50.5t118 -132.5l-107 -77q-65 138 -204 138q-95 0 -160 -66.5t-65 -175.5q0 -106 65 -174t160 -68q137 0 212 140z" />
    <glyph glyph-name="D" unicode="D" horiz-adv-x="711" 
d="M73 0v700h211q171 0 276 -90t105 -260t-105 -260t-276 -90h-211zM293 122q110 0 174 58.5t64 169.5t-64 169.5t-174 58.5h-88v-456h88z" />
    <glyph glyph-name="E" unicode="E" horiz-adv-x="615" 
d="M73 0v700h483v-118h-351v-161h323v-118h-323v-185h354v-118h-486z" />
    <glyph glyph-name="F" unicode="F" horiz-adv-x="618" 
d="M73 0v700h495v-118h-363v-181h333v-118h-333v-283h-132z" />
    <glyph glyph-name="G" unicode="G" horiz-adv-x="780" 
d="M634 0l-28 96q-70 -110 -213 -110q-148 0 -247.5 103t-99.5 261t105.5 261t257.5 103q103 0 184.5 -46.5t121.5 -124.5l-99 -72q-66 127 -209 127q-95 0 -161 -68t-66 -180q0 -106 61.5 -174t155.5 -68q85 0 133 44.5t59 113.5h-226v108h358v-374h-87z" />
    <glyph glyph-name="H" unicode="H" horiz-adv-x="716" 
d="M73 0v700h132v-282h306v282h132v-700h-132v296h-306v-296h-132z" />
    <glyph glyph-name="I" unicode="I" horiz-adv-x="278" 
d="M73 0v700h132v-700h-132z" />
    <glyph glyph-name="J" unicode="J" horiz-adv-x="555" 
d="M500 700v-486q0 -102 -60.5 -165t-168.5 -63t-168.5 62.5t-60.5 175.5l132 -14q2 -102 97 -102q47 0 72 29.5t25 78.5v484h132z" />
    <glyph glyph-name="K" unicode="K" horiz-adv-x="658" 
d="M623 700l-248 -260l264 -440h-154l-205 342l-75 -79v-263h-132v700h132v-270l55 62l196 208h167z" />
    <glyph glyph-name="L" unicode="L" horiz-adv-x="597" 
d="M73 0v700h132v-578h351v-122h-483z" />
    <glyph glyph-name="M" unicode="M" horiz-adv-x="870" 
d="M73 0v700h139l223 -556l223 556h139v-700h-128v428l-34 -107l-137 -321h-126l-137 321q-28 89 -34 107v-428h-128z" />
    <glyph glyph-name="N" unicode="N" horiz-adv-x="730" 
d="M73 0v700h134l292 -445q24 -40 30 -55v500h128v-700h-134l-292 448q-24 40 -30 55v-503h-128z" />
    <glyph glyph-name="O" unicode="O" horiz-adv-x="812" 
d="M766 350q0 -157 -102.5 -260.5t-257.5 -103.5t-257.5 103.5t-102.5 260.5t102.5 260.5t257.5 103.5t257.5 -103.5t102.5 -260.5zM406 108q98 0 162 65.5t64 176.5t-64 176.5t-162 65.5t-162 -65.5t-64 -176.5t64 -176.5t162 -65.5z" />
    <glyph glyph-name="P" unicode="P" horiz-adv-x="698" 
d="M73 0v700h318q121 0 191.5 -59.5t70.5 -168.5t-70.5 -168.5t-191.5 -59.5h-186v-244h-132zM205 582v-220h182q67 0 100.5 29.5t33.5 80.5t-33.5 80.5t-100.5 29.5h-182z" />
    <glyph glyph-name="Q" unicode="Q" horiz-adv-x="812" 
d="M766 350q0 -116 -59 -206t-159 -131q22 -37 86 -95l-95 -85q-69 69 -118 153h-15q-155 0 -257.5 103.5t-102.5 260.5t102.5 260.5t257.5 103.5t257.5 -103.5t102.5 -260.5zM406 108q98 0 162 65.5t64 176.5t-64 176.5t-162 65.5t-162 -65.5t-64 -176.5t64 -176.5
t162 -65.5z" />
    <glyph glyph-name="R" unicode="R" horiz-adv-x="667" 
d="M479 0l-162 284h-112v-284h-132v700h299q115 0 182 -53.5t67 -144.5q0 -149 -160 -206l169 -296h-151zM205 584v-184h167q117 0 117 92t-117 92h-167z" />
    <glyph glyph-name="S" unicode="S" horiz-adv-x="652" 
d="M201 525q0 -40 40 -65.5t129 -43.5q116 -24 172.5 -76t56.5 -139q0 -89 -71.5 -152t-189.5 -63q-125 0 -199 61t-95 163l116 59q31 -167 177 -167q59 0 94.5 26t35.5 68q0 46 -41.5 72t-131.5 44q-101 20 -160 72.5t-59 137.5q0 87 68 139.5t178 52.5q200 0 266 -180
l-104 -60q-42 124 -165 124q-50 0 -83.5 -18.5t-33.5 -54.5z" />
    <glyph glyph-name="T" unicode="T" horiz-adv-x="592" 
d="M16 578v122h560v-122h-214v-578h-132v578h-214z" />
    <glyph glyph-name="U" unicode="U" horiz-adv-x="700" 
d="M637 700v-435q0 -131 -80 -205t-207 -74t-207 74t-80 205v435h132v-422q0 -81 41.5 -125.5t113.5 -44.5t113.5 44.5t41.5 125.5v422h132z" />
    <glyph glyph-name="V" unicode="V" horiz-adv-x="658" 
d="M262 0l-260 700h143l158 -447q15 -52 26 -89l26 89l158 447h143l-260 -700h-134z" />
    <glyph glyph-name="W" unicode="W" horiz-adv-x="942" 
d="M198 0l-193 700h139l111 -442q12 -51 17 -76l17 77l114 441h136l114 -441q12 -52 17 -77l17 76l111 442h139l-193 -700h-142l-131 508l-131 -508h-142z" />
    <glyph glyph-name="X" unicode="X" horiz-adv-x="617" 
d="M175 700l133 -222l140 222h134l-200 -319l231 -381h-141l-164 270l-163 -270h-142l234 376l-203 324h141z" />
    <glyph glyph-name="Y" unicode="Y" horiz-adv-x="602" 
d="M367 274v-274h-132v274l-231 426h145l130 -249q13 -27 22 -51l22 51l130 249h145z" />
    <glyph glyph-name="Z" unicode="Z" horiz-adv-x="614" 
d="M48 578v122h512v-122l-366 -456h383v-122h-542v120l368 458h-355z" />
    <glyph glyph-name="bracketleft" unicode="[" horiz-adv-x="347" 
d="M73 -150v850h229v-118h-103v-614h103v-118h-229z" />
    <glyph glyph-name="backslash" unicode="\" horiz-adv-x="538" 
d="M133 730l400 -760h-128l-400 760h128z" />
    <glyph glyph-name="bracketright" unicode="]" horiz-adv-x="347" 
d="M274 700v-850h-229v118h103v614h-103v118h229z" />
    <glyph glyph-name="asciicircum" unicode="^" horiz-adv-x="498" 
d="M194 700h110l176 -270h-120l-111 172l-111 -172h-120z" />
    <glyph glyph-name="underscore" unicode="_" horiz-adv-x="512" 
d="M7 -109v102h498v-102h-498z" />
    <glyph glyph-name="grave" unicode="`" horiz-adv-x="325" 
d="M205 708l68 -158h-97l-124 158h153z" />
    <glyph glyph-name="a" unicode="a" horiz-adv-x="567" 
d="M528 0h-128q-24 30 -24 79q-52 -93 -166 -93q-74 0 -120.5 42.5t-46.5 112.5q0 71 49.5 111.5t127.5 52.5l149 23v19q0 75 -91 75q-42 0 -65.5 -16t-23.5 -40q0 -6 2 -12l-113 -38q-9 20 -9 42q0 61 57 106.5t152 45.5q106 0 161.5 -45t55.5 -135v-207q0 -75 33 -123z
M240 88q57 0 93 37.5t36 106.5v9l-120 -20q-83 -14 -83 -73q0 -29 20 -44.5t54 -15.5z" />
    <glyph glyph-name="b" unicode="b" horiz-adv-x="624" 
d="M63 0v700h126v-265q59 75 163 75q103 0 170 -70.5t67 -191.5q0 -120 -69 -191t-170 -71q-106 0 -161 75v-61h-126zM321 104q61 0 100.5 40.5t39.5 103.5t-39.5 103.5t-100.5 40.5t-100.5 -40.5t-39.5 -103.5t39.5 -103.5t100.5 -40.5z" />
    <glyph glyph-name="c" unicode="c" horiz-adv-x="560" 
d="M426 195l102 -66q-72 -143 -232 -143q-112 0 -186.5 72.5t-74.5 189.5q0 116 76 189t185 73q82 0 141.5 -35.5t85.5 -99.5l-103 -68q-39 85 -125 85q-57 0 -94.5 -39.5t-37.5 -104.5q0 -66 37 -105t95 -39q48 0 78.5 22.5t52.5 68.5z" />
    <glyph glyph-name="d" unicode="d" horiz-adv-x="624" 
d="M561 700v-700h-126v70q-21 -37 -61.5 -60.5t-94.5 -23.5q-105 0 -174.5 71t-69.5 191q0 118 73.5 190t170.5 72q110 0 156 -75v265h126zM303 104q60 0 100 40.5t40 103.5t-40 103.5t-100 40.5t-100 -40.5t-40 -103.5t40 -103.5t100 -40.5z" />
    <glyph glyph-name="e" unicode="e" horiz-adv-x="575" 
d="M538 218h-382q6 -57 43 -90.5t93 -33.5q92 0 137 91l94 -54q-70 -145 -233 -145q-106 0 -180.5 73.5t-74.5 188.5q0 116 75.5 189t185.5 73q106 0 174 -69.5t68 -178.5v-44zM292 414q-49 0 -85.5 -29.5t-50.5 -74.5h266q-9 49 -43 76.5t-87 27.5z" />
    <glyph glyph-name="f" unicode="f" horiz-adv-x="342" 
d="M19 394v102h72v70q0 89 48.5 136.5t127.5 47.5q34 0 63 -11l-22 -111q-18 6 -35 6q-56 0 -56 -65v-73h108v-102h-108v-394h-126v394h-72z" />
    <glyph glyph-name="g" unicode="g" horiz-adv-x="597" 
d="M69 9l120 -37q-6 -17 -6 -34q0 -25 29 -40.5t81 -15.5q122 0 122 136v64q-45 -74 -141 -74q-100 0 -169.5 71t-69.5 180t71 180t169 71q94 0 140 -68v54h126v-462q0 -123 -67 -187.5t-181 -64.5q-111 0 -174.5 45.5t-63.5 124.5q0 32 14 57zM288 400q-55 0 -93 -37.5
t-38 -103.5t38 -103.5t93 -37.5q56 0 95 38t39 103t-39 103t-95 38z" />
    <glyph glyph-name="h" unicode="h" horiz-adv-x="600" 
d="M537 335v-335h-126v286q0 50 -25.5 78t-74.5 28q-53 0 -87.5 -39t-34.5 -101v-252h-126v700h126v-282q59 92 172 92q81 0 128.5 -47.5t47.5 -127.5z" />
    <glyph glyph-name="i" unicode="i" horiz-adv-x="250" 
d="M62 0v496h126v-496h-126zM56 568v132h138v-132h-138z" />
    <glyph glyph-name="j" unicode="j" horiz-adv-x="250" 
d="M-49 -201l16 114q19 -8 39 -8q30 0 43 17.5t13 53.5v520h126v-534q0 -84 -40.5 -128.5t-121.5 -44.5q-39 0 -75 10zM56 568v132h138v-132h-138z" />
    <glyph glyph-name="k" unicode="k" horiz-adv-x="541" 
d="M189 700v-354l151 150h156l-181 -177l205 -319h-145l-148 232l-38 -37v-195h-126v700h126z" />
    <glyph glyph-name="l" unicode="l" horiz-adv-x="252" 
d="M63 0v700h126v-700h-126z" />
    <glyph glyph-name="m" unicode="m" horiz-adv-x="852" 
d="M789 347v-347h-126v307q0 93 -78 93q-43 0 -69.5 -32t-26.5 -92v-276h-126v305q0 95 -80 95q-39 0 -66.5 -32.5t-27.5 -89.5v-278h-126v496h126v-66q52 80 144 80q104 0 138 -85q53 85 158 85q76 0 118 -44t42 -119z" />
    <glyph glyph-name="n" unicode="n" 
d="M531 338v-338h-126v286q0 106 -101 106q-50 0 -82.5 -39t-32.5 -101v-252h-126v496h126v-80q61 94 168 94q79 0 126.5 -47t47.5 -125z" />
    <glyph glyph-name="o" unicode="o" horiz-adv-x="612" 
d="M577 248q0 -123 -80.5 -192.5t-190.5 -69.5t-190.5 69.5t-80.5 192.5t80.5 192.5t190.5 69.5t190.5 -69.5t80.5 -192.5zM306 104q58 0 100.5 39.5t42.5 104.5t-42.5 104.5t-100.5 39.5t-100.5 -39.5t-42.5 -104.5t42.5 -104.5t100.5 -39.5z" />
    <glyph glyph-name="p" unicode="p" horiz-adv-x="624" 
d="M63 -204v700h126v-71q26 38 72 61.5t100 23.5q97 0 162.5 -71t65.5 -191q0 -117 -69 -189.5t-170 -72.5t-161 75v-265h-126zM321 392q-60 0 -100 -41.5t-40 -102.5t40 -102.5t100 -41.5t100 41.5t40 102.5t-40 102.5t-100 41.5z" />
    <glyph glyph-name="q" unicode="q" horiz-adv-x="624" 
d="M561 496v-700h-126v270q-50 -80 -160 -80q-98 0 -169 73t-71 189q0 118 72 190t168 72q56 0 98 -22.5t62 -62.5v71h126zM303 392q-60 0 -100 -41.5t-40 -102.5t40 -102.5t100 -41.5t100 41.5t40 102.5t-40 102.5t-100 41.5z" />
    <glyph glyph-name="r" unicode="r" horiz-adv-x="384" 
d="M370 504l-20 -119q-19 7 -41 7q-55 0 -87.5 -41.5t-32.5 -105.5v-245h-126v496h126v-79q46 93 138 93q23 0 43 -6z" />
    <glyph glyph-name="s" unicode="s" horiz-adv-x="500" 
d="M180 374q0 -46 117 -70q87 -18 126.5 -54.5t39.5 -98.5q0 -72 -53 -118.5t-143 -46.5q-86 0 -142.5 42t-84.5 107l101 64q17 -49 49.5 -78t78.5 -29q31 0 54.5 14.5t23.5 40.5q0 24 -25 38.5t-81 25.5q-173 34 -173 155q0 67 54 105.5t131 38.5q79 0 126.5 -30t78.5 -95
l-91 -54q-34 87 -112 87q-75 0 -75 -44z" />
    <glyph glyph-name="t" unicode="t" horiz-adv-x="374" 
d="M24 394v102h77v134h126v-134h108v-102h-108v-226q0 -70 63 -70q22 0 42 6l12 -104q-38 -14 -84 -14q-159 0 -159 158v250h-77z" />
    <glyph glyph-name="u" unicode="u" 
d="M63 188v308h126v-279q0 -113 101 -113q52 0 83.5 38t31.5 98v256h126v-496h-126v78q-50 -92 -158 -92q-81 0 -132.5 53t-51.5 149z" />
    <glyph glyph-name="v" unicode="v" horiz-adv-x="534" 
d="M527 496l-201 -496h-118l-201 496h134l126 -336l126 336h134z" />
    <glyph glyph-name="w" unicode="w" horiz-adv-x="714" 
d="M417 496l89 -332l80 332h122l-138 -496h-122l-91 341l-91 -341h-122l-138 496h122l80 -332l89 332h120z" />
    <glyph glyph-name="x" unicode="x" horiz-adv-x="497" 
d="M164 496l83 -133l84 133h146l-155 -231l174 -265h-147l-102 163l-103 -163h-145l181 262l-160 234h144z" />
    <glyph glyph-name="y" unicode="y" horiz-adv-x="546" 
d="M72 -200l20 117q22 -12 45 -12q39 0 56 47l16 44l-204 500h143l128 -322l122 322h143l-236 -586q-26 -64 -65.5 -92.5t-98.5 -28.5q-41 0 -69 11z" />
    <glyph glyph-name="z" unicode="z" horiz-adv-x="496" 
d="M181 102h279v-102h-424v102l261 292h-250v102h396v-102z" />
    <glyph glyph-name="braceleft" unicode="{" horiz-adv-x="395" 
d="M48 224v102q38 0 56.5 17t18.5 62v108q0 99 45 143t134 44h48v-118h-25q-76 0 -76 -87v-107q0 -49 -17 -74t-52 -39q35 -14 52 -39t17 -74v-107q0 -87 76 -87h25v-118h-48q-89 0 -134 44t-45 143v108q0 45 -18.5 62t-56.5 17z" />
    <glyph glyph-name="bar" unicode="|" horiz-adv-x="268" 
d="M73 -110v850h122v-850h-122z" />
    <glyph glyph-name="braceright" unicode="}" horiz-adv-x="395" 
d="M347 326v-102q-38 0 -56.5 -17t-18.5 -62v-108q0 -99 -45 -143t-134 -44h-48v118h25q76 0 76 87v107q0 49 17 74t52 39q-35 14 -52 39t-17 74v107q0 87 -76 87h-25v118h48q89 0 134 -44t45 -143v-108q0 -45 18.5 -62t56.5 -17z" />
    <glyph glyph-name="asciitilde" unicode="~" horiz-adv-x="461" 
d="M163 317q-27 0 -27 -25q0 -11 7 -23l-88 -16q-15 23 -15 53q0 48 30 76t76 28q41 0 70.5 -16t48 -31.5t33.5 -15.5q27 0 27 25q0 11 -7 23l88 16q15 -23 15 -55q0 -47 -30 -74.5t-76 -27.5q-41 0 -70.5 16t-48 31.5t-33.5 15.5z" />
    <glyph glyph-name="uni00A0" unicode="&#xa0;" horiz-adv-x="276" 
 />
    <glyph glyph-name="exclamdown" unicode="&#xa1;" horiz-adv-x="278" 
d="M205 39v-243h-132v243l16 249h100zM205 496v-138h-132v138h132z" />
    <glyph glyph-name="cent" unicode="&#xa2;" horiz-adv-x="569" 
d="M249 -110v101q-93 17 -150.5 86t-57.5 171q0 100 59 169.5t149 86.5v116h100v-114q133 -19 180 -131l-103 -68q-28 59 -77 77v-273q49 17 83 84l102 -66q-60 -121 -185 -139v-100h-100zM169 248q0 -102 80 -135v269q-37 -15 -58.5 -50.5t-21.5 -83.5z" />
    <glyph glyph-name="sterling" unicode="&#xa3;" horiz-adv-x="575" 
d="M28 397h63q-15 64 -15 104q0 98 66.5 155.5t171.5 57.5q106 0 164.5 -52.5t58.5 -130.5q0 -37 -15 -71l-116 20q9 24 9 48q0 35 -27.5 57.5t-76.5 22.5t-79 -28t-30 -81q0 -42 15 -102h189v-98h-169q3 -24 3 -51q0 -76 -40 -138h330v-110h-470v94q34 36 47.5 68t13.5 81
q0 27 -6 56h-87v98z" />
    <glyph glyph-name="currency" unicode="&#xa4;" horiz-adv-x="652" 
d="M548 350q0 -66 -32 -119l78 -77l-72 -72l-78 78q-54 -33 -118 -33t-118 33l-78 -78l-72 72l78 77q-32 53 -32 119t32 119l-78 77l72 72l78 -78q54 33 118 33t118 -33l78 78l72 -72l-78 -77q32 -53 32 -119zM326 224q53 0 86.5 35t33.5 91t-33.5 91t-86.5 35t-86.5 -35
t-33.5 -91t33.5 -91t86.5 -35z" />
    <glyph glyph-name="yen" unicode="&#xa5;" horiz-adv-x="606" 
d="M91 112v102h146v60h-146v102h93l-170 324h142l123 -249q15 -30 24 -54l24 54l123 249h142l-170 -324h93v-102h-146v-60h146v-102h-146v-112h-132v112h-146z" />
    <glyph glyph-name="brokenbar" unicode="&#xa6;" horiz-adv-x="268" 
d="M195 386h-122v354h122v-354zM73 244h122v-354h-122v354z" />
    <glyph glyph-name="section" unicode="&#xa7;" horiz-adv-x="525" 
d="M56 335q0 57 46 98q-42 42 -42 110q0 78 57 124.5t141 46.5q78 0 134 -37.5t86 -101.5l-85 -62q-43 105 -136 105q-40 0 -65.5 -19t-25.5 -52q0 -69 136 -98q88 -19 127.5 -54.5t39.5 -99.5q0 -63 -45 -105q41 -42 41 -112q0 -78 -57 -124.5t-141 -46.5q-156 0 -220 139
l85 62q44 -105 136 -105q40 0 65.5 19t25.5 52q0 70 -136 98q-79 16 -123 58t-44 105zM283 256q37 -9 66 -21q20 18 20 42q0 29 -29 50t-98 38q-36 9 -66 21q-20 -18 -20 -42q0 -29 29 -50t98 -38z" />
    <glyph glyph-name="dieresis" unicode="&#xa8;" horiz-adv-x="414" 
d="M238 576v124h118v-124h-118zM58 576v124h118v-124h-118z" />
    <glyph glyph-name="copyright" unicode="&#xa9;" horiz-adv-x="828" 
d="M50 350q0 151 107 257.5t257 106.5t257 -106.5t107 -257.5t-107 -257.5t-257 -106.5t-257 106.5t-107 257.5zM138 350q0 -116 80.5 -197t195.5 -81t195.5 81t80.5 197t-80.5 197t-195.5 81t-195.5 -81t-80.5 -197zM517 309l79 -52q-55 -111 -180 -111q-88 0 -146 56.5
t-58 147.5q0 90 59.5 147t144.5 57q64 0 110 -27.5t66 -77.5l-80 -53q-30 66 -97 66q-44 0 -73.5 -30.5t-29.5 -81.5t29 -81.5t74 -30.5q67 0 102 71z" />
    <glyph glyph-name="ordfeminine" unicode="&#xaa;" horiz-adv-x="396" 
d="M378 300h-90q-15 18 -15 55q-39 -62 -115 -62q-51 0 -84 30t-33 78q0 50 38.5 79t97.5 38l92 15v9q0 52 -64 52q-30 0 -47.5 -10.5t-17.5 -26.5q0 -5 1 -9l-80 -29q-6 13 -6 29q0 43 40 76t110 33q151 0 151 -125v-144q0 -56 22 -88zM180 365q40 0 64.5 26t24.5 70v9
l-84 -13q-58 -9 -58 -49q0 -20 14.5 -31.5t38.5 -11.5z" />
    <glyph glyph-name="guillemotleft" unicode="&#xab;" 
d="M423 488h141l-166 -213l166 -213h-141l-167 213zM207 488h141l-166 -213l166 -213h-141l-167 213z" />
    <glyph glyph-name="logicalnot" unicode="&#xac;" horiz-adv-x="549" 
d="M486 174h-118v140h-328v102h446v-242z" />
    <glyph glyph-name="registered" unicode="&#xae;" horiz-adv-x="828" 
d="M473 151l-91 153h-27v-153h-88v398h163q71 0 107.5 -33.5t36.5 -89.5q0 -44 -27 -76t-72 -43l95 -156h-97zM355 475v-99h72q62 0 62 50q0 49 -62 49h-72zM50 350q0 151 107 257.5t257 106.5t257 -106.5t107 -257.5t-107 -257.5t-257 -106.5t-257 106.5t-107 257.5z
M138 350q0 -116 80.5 -197t195.5 -81t195.5 81t80.5 197t-80.5 197t-195.5 81t-195.5 -81t-80.5 -197z" />
    <glyph glyph-name="macron" unicode="&#xaf;" horiz-adv-x="328" 
d="M40 588v94h248v-94h-248z" />
    <glyph glyph-name="degree" unicode="&#xb0;" horiz-adv-x="354" 
d="M37 575q0 58 40 98.5t100 40.5t100 -40.5t40 -98.5t-40 -98.5t-100 -40.5t-100 40.5t-40 98.5zM117 575q0 -27 16.5 -44t43.5 -17t43.5 17t16.5 44t-16.5 44t-43.5 17t-43.5 -17t-16.5 -44z" />
    <glyph glyph-name="plusminus" unicode="&#xb1;" horiz-adv-x="575" 
d="M45 374v102h191v191h102v-191h191v-102h-191v-191h-102v191h-191zM45 0v102h484v-102h-484z" />
    <glyph glyph-name="twosuperior" unicode="&#xb2;" horiz-adv-x="339" 
d="M53 403l132 127q35 32 35 65q0 41 -43 41q-20 0 -33.5 -11t-13.5 -31q0 -10 4 -24l-76 -11q-7 17 -7 40q0 43 35 75.5t91 32.5q58 0 91.5 -27.5t33.5 -75.5q0 -36 -13.5 -62t-47.5 -60l-65 -63h129v-69h-252v53z" />
    <glyph glyph-name="threesuperior" unicode="&#xb3;" horiz-adv-x="347" 
d="M50 484l79 -17q-2 -6 -2 -15q0 -20 14 -30t34 -10q22 0 36.5 11.5t14.5 32.5q0 49 -82 49v60q32 0 50.5 11t18.5 30q0 35 -41 35q-18 0 -31 -8.5t-13 -24.5q0 -11 3 -17l-73 -10q-5 12 -5 27q0 40 32 69.5t87 29.5q59 0 89.5 -23.5t30.5 -63.5q0 -44 -45 -75
q63 -24 63 -91q0 -51 -37.5 -81t-99.5 -30q-59 0 -94.5 29.5t-35.5 75.5q0 22 7 36z" />
    <glyph glyph-name="acute" unicode="&#xb4;" horiz-adv-x="325" 
d="M52 550l68 158h153l-124 -158h-97z" />
    <glyph glyph-name="mu" unicode="&#xb5;" 
d="M63 -204v700h126v-279q0 -113 101 -113q52 0 83.5 38t31.5 98v256h126v-496h-126v78q-50 -92 -158 -92q-33 0 -61 9q3 -57 3 -68v-131h-126z" />
    <glyph glyph-name="paragraph" unicode="&#xb6;" horiz-adv-x="655" 
d="M375 598v-718h-112v432h-9q-94 0 -155.5 53t-61.5 141t61.5 141t155.5 53h370v-102h-65v-718h-112v718h-72z" />
    <glyph glyph-name="periodcentered" unicode="&#xb7;" horiz-adv-x="214" 
d="M40 290v134h134v-134h-134z" />
    <glyph glyph-name="cedilla" unicode="&#xb8;" horiz-adv-x="295" 
d="M99 -112l-37 33l33 95h70l-41 -69q16 9 40 9q34 0 56 -22t22 -56q0 -38 -27.5 -60t-67.5 -22q-78 0 -94 61l66 17q4 -22 28 -22q25 0 25 25q0 29 -28 29q-24 0 -45 -18z" />
    <glyph glyph-name="onesuperior" unicode="&#xb9;" horiz-adv-x="254" 
d="M38 580v77q57 0 78 43h80v-350h-84v254q-21 -24 -74 -24z" />
    <glyph glyph-name="ordmasculine" unicode="&#xba;" horiz-adv-x="458" 
d="M417 475q0 -86 -56 -134t-132 -48q-77 0 -132.5 48t-55.5 134t55.5 134t132.5 48q76 0 132 -48t56 -134zM229 380q40 0 66.5 26t26.5 69t-26 69t-67 26t-67.5 -26t-26.5 -69t26.5 -69t67.5 -26z" />
    <glyph glyph-name="guillemotright" unicode="&#xbb;" 
d="M171 62h-141l166 213l-166 213h141l167 -213zM387 62h-141l166 213l-166 213h141l167 -213z" />
    <glyph glyph-name="onequarter" unicode="&#xbc;" horiz-adv-x="726" 
d="M38 580v77q57 0 78 43h80v-350h-84v254q-21 -24 -74 -24zM182 -7l-72 49l435 665l72 -49zM395 58v66l162 226h84v-226h36v-66h-36v-58h-84v58h-162zM557 240l-83 -116h83v116z" />
    <glyph glyph-name="onehalf" unicode="&#xbd;" horiz-adv-x="753" 
d="M38 580v77q57 0 78 43h80v-350h-84v254q-21 -24 -74 -24zM182 -7l-72 49l435 665l72 -49zM455 53l132 127q35 32 35 65q0 41 -43 41q-20 0 -33.5 -11t-13.5 -31q0 -10 4 -24l-76 -11q-7 17 -7 40q0 43 35 75.5t91 32.5q58 0 91.5 -27.5t33.5 -75.5q0 -36 -13.5 -62
t-47.5 -60l-65 -63h129v-69h-252v53z" />
    <glyph glyph-name="threequarters" unicode="&#xbe;" horiz-adv-x="795" 
d="M241 -7l-72 49l435 665l72 -49zM464 58v66l162 226h84v-226h36v-66h-36v-58h-84v58h-162zM626 240l-83 -116h83v116zM50 484l79 -17q-2 -6 -2 -15q0 -20 14 -30t34 -10q22 0 36.5 11.5t14.5 32.5q0 49 -82 49v60q32 0 50.5 11t18.5 30q0 35 -41 35q-18 0 -31 -8.5
t-13 -24.5q0 -11 3 -17l-73 -10q-5 12 -5 27q0 40 32 69.5t87 29.5q59 0 89.5 -23.5t30.5 -63.5q0 -44 -45 -75q63 -24 63 -91q0 -51 -37.5 -81t-99.5 -30q-59 0 -94.5 29.5t-35.5 75.5q0 22 7 36z" />
    <glyph glyph-name="questiondown" unicode="&#xbf;" horiz-adv-x="549" 
d="M221 288h126v-16q0 -46 -18.5 -79.5t-67.5 -72.5q-51 -41 -71.5 -71.5t-20.5 -67.5q0 -39 29 -62t75 -23q48 0 80.5 27t32.5 72q0 20 -7 37l115 24q14 -30 14 -72q0 -79 -64.5 -140.5t-167.5 -61.5q-107 0 -169 52t-62 138q0 60 27 105.5t102 109.5q27 23 37 45.5
t10 55.5zM350 496v-138h-132v138h132z" />
    <glyph glyph-name="Agrave" unicode="&#xc0;" horiz-adv-x="702" 
d="M5 0l283 700h126l283 -700h-141l-70 183h-270l-70 -183h-141zM325 469l-64 -168h180l-64 168q-13 34 -26 76zM329 912l68 -158h-97l-124 158h153z" />
    <glyph glyph-name="Aacute" unicode="&#xc1;" horiz-adv-x="702" 
d="M5 0l283 700h126l283 -700h-141l-70 183h-270l-70 -183h-141zM325 469l-64 -168h180l-64 168q-13 34 -26 76zM306 754l68 158h153l-124 -158h-97z" />
    <glyph glyph-name="Acircumflex" unicode="&#xc2;" horiz-adv-x="702" 
d="M5 0l283 700h126l283 -700h-141l-70 183h-270l-70 -183h-141zM325 469l-64 -168h180l-64 168q-13 34 -26 76zM193 754l113 157h90l113 -157h-99l-59 60l-59 -60h-99z" />
    <glyph glyph-name="Atilde" unicode="&#xc3;" horiz-adv-x="702" 
d="M5 0l283 700h126l283 -700h-141l-70 183h-270l-70 -183h-141zM325 469l-64 -168h180l-64 168q-13 34 -26 76zM278 820q-10 0 -16.5 -6t-6.5 -16q0 -12 7 -26l-74 -15q-14 21 -14 53q0 43 30 67t68 24q32 0 56.5 -10.5t37.5 -22.5t28 -22.5t30 -10.5q10 0 16.5 6t6.5 16
q0 12 -7 26l74 15q14 -21 14 -53q0 -43 -30 -67t-68 -24q-31 0 -56 10.5t-38 22.5t-28.5 22.5t-29.5 10.5z" />
    <glyph glyph-name="Adieresis" unicode="&#xc4;" horiz-adv-x="702" 
d="M5 0l283 700h126l283 -700h-141l-70 183h-270l-70 -183h-141zM325 469l-64 -168h180l-64 168q-13 34 -26 76zM382 780v124h118v-124h-118zM202 780v124h118v-124h-118z" />
    <glyph glyph-name="Aring" unicode="&#xc5;" horiz-adv-x="702" 
d="M5 0l283 700h126l283 -700h-141l-70 183h-270l-70 -183h-141zM325 469l-64 -168h180l-64 168q-13 34 -26 76zM255 839q0 40 28 67.5t68 27.5t68 -27.5t28 -67.5t-28 -67.5t-68 -27.5t-68 27.5t-28 67.5zM318 839q0 -16 9 -25t24 -9t24 9t9 25t-9 25t-24 9t-24 -9t-9 -25z
" />
    <glyph glyph-name="AE" unicode="&#xc6;" horiz-adv-x="985" 
d="M443 0v183h-219l-81 -183h-138l320 700h601v-118h-351v-161h323v-118h-323v-185h354v-118h-486zM401 582l-125 -281h167v281h-42z" />
    <glyph glyph-name="Ccedilla" unicode="&#xc7;" horiz-adv-x="768" 
d="M355 -114l-37 33l25 72q-133 19 -215 116.5t-82 242.5q0 161 103.5 262.5t259.5 101.5q107 0 189 -50.5t118 -132.5l-107 -77q-65 138 -204 138q-95 0 -160 -66.5t-65 -175.5q0 -106 65 -174t160 -68q137 0 212 140l103 -74q-66 -101 -136 -144.5t-180 -43.5l-24 -41
q16 9 40 9q34 0 56 -22t22 -56q0 -38 -27.5 -60t-67.5 -22q-78 0 -94 61l66 17q4 -22 28 -22q25 0 25 25q0 29 -28 29q-24 0 -45 -18z" />
    <glyph glyph-name="Egrave" unicode="&#xc8;" horiz-adv-x="615" 
d="M73 0v700h483v-118h-351v-161h323v-118h-323v-185h354v-118h-486zM333 912l68 -158h-97l-124 158h153z" />
    <glyph glyph-name="Eacute" unicode="&#xc9;" horiz-adv-x="615" 
d="M73 0v700h483v-118h-351v-161h323v-118h-323v-185h354v-118h-486zM239 754l68 158h153l-124 -158h-97z" />
    <glyph glyph-name="Ecircumflex" unicode="&#xca;" horiz-adv-x="615" 
d="M73 0v700h483v-118h-351v-161h323v-118h-323v-185h354v-118h-486zM161 754l113 157h90l113 -157h-99l-59 60l-59 -60h-99z" />
    <glyph glyph-name="Edieresis" unicode="&#xcb;" horiz-adv-x="615" 
d="M73 0v700h483v-118h-351v-161h323v-118h-323v-185h354v-118h-486zM350 780v124h118v-124h-118zM170 780v124h118v-124h-118z" />
    <glyph glyph-name="Igrave" unicode="&#xcc;" horiz-adv-x="278" 
d="M73 0v700h132v-700h-132zM137 912l68 -158h-97l-124 158h153z" />
    <glyph glyph-name="Iacute" unicode="&#xcd;" horiz-adv-x="278" 
d="M73 0v700h132v-700h-132zM73 754l68 158h153l-124 -158h-97z" />
    <glyph glyph-name="Icircumflex" unicode="&#xce;" horiz-adv-x="278" 
d="M73 0v700h132v-700h-132zM-19 754l113 157h90l113 -157h-99l-59 60l-59 -60h-99z" />
    <glyph glyph-name="Idieresis" unicode="&#xcf;" horiz-adv-x="278" 
d="M73 0v700h132v-700h-132zM170 780v124h118v-124h-118zM-10 780v124h118v-124h-118z" />
    <glyph glyph-name="Eth" unicode="&#xd0;" horiz-adv-x="749" 
d="M33 295v110h78v295h211q171 0 276 -90t105 -260t-105 -260t-276 -90h-211v295h-78zM331 122q110 0 174 58.5t64 169.5t-64 169.5t-174 58.5h-88v-173h155v-110h-155v-173h88z" />
    <glyph glyph-name="Ntilde" unicode="&#xd1;" horiz-adv-x="730" 
d="M73 0v700h134l292 -445q24 -40 30 -55v500h128v-700h-134l-292 448q-24 40 -30 55v-503h-128zM292 820q-10 0 -16.5 -6t-6.5 -16q0 -12 7 -26l-74 -15q-14 21 -14 53q0 43 30 67t68 24q32 0 56.5 -10.5t37.5 -22.5t28.5 -22.5t29.5 -10.5q10 0 16.5 6t6.5 16q0 12 -7 26
l74 15q14 -21 14 -53q0 -43 -30 -67t-68 -24q-32 0 -56.5 10.5t-37.5 22.5t-28.5 22.5t-29.5 10.5z" />
    <glyph glyph-name="Ograve" unicode="&#xd2;" horiz-adv-x="812" 
d="M766 350q0 -157 -102.5 -260.5t-257.5 -103.5t-257.5 103.5t-102.5 260.5t102.5 260.5t257.5 103.5t257.5 -103.5t102.5 -260.5zM406 108q98 0 162 65.5t64 176.5t-64 176.5t-162 65.5t-162 -65.5t-64 -176.5t64 -176.5t162 -65.5zM419 912l68 -158h-97l-124 158h153z
" />
    <glyph glyph-name="Oacute" unicode="&#xd3;" horiz-adv-x="812" 
d="M766 350q0 -157 -102.5 -260.5t-257.5 -103.5t-257.5 103.5t-102.5 260.5t102.5 260.5t257.5 103.5t257.5 -103.5t102.5 -260.5zM406 108q98 0 162 65.5t64 176.5t-64 176.5t-162 65.5t-162 -65.5t-64 -176.5t64 -176.5t162 -65.5zM326 754l68 158h153l-124 -158h-97z
" />
    <glyph glyph-name="Ocircumflex" unicode="&#xd4;" horiz-adv-x="812" 
d="M766 350q0 -157 -102.5 -260.5t-257.5 -103.5t-257.5 103.5t-102.5 260.5t102.5 260.5t257.5 103.5t257.5 -103.5t102.5 -260.5zM406 108q98 0 162 65.5t64 176.5t-64 176.5t-162 65.5t-162 -65.5t-64 -176.5t64 -176.5t162 -65.5zM248 754l113 157h90l113 -157h-99
l-59 60l-59 -60h-99z" />
    <glyph glyph-name="Otilde" unicode="&#xd5;" horiz-adv-x="812" 
d="M766 350q0 -157 -102.5 -260.5t-257.5 -103.5t-257.5 103.5t-102.5 260.5t102.5 260.5t257.5 103.5t257.5 -103.5t102.5 -260.5zM406 108q98 0 162 65.5t64 176.5t-64 176.5t-162 65.5t-162 -65.5t-64 -176.5t64 -176.5t162 -65.5zM333 820q-10 0 -16.5 -6t-6.5 -16
q0 -12 7 -26l-74 -15q-14 21 -14 53q0 43 30 67t68 24q31 0 56 -10.5t38 -22.5t28 -22.5t30 -10.5q10 0 16.5 6t6.5 16q0 12 -7 26l74 15q14 -21 14 -53q0 -43 -30 -67t-68 -24q-31 0 -56 10.5t-38 22.5t-28 22.5t-30 10.5z" />
    <glyph glyph-name="Odieresis" unicode="&#xd6;" horiz-adv-x="812" 
d="M766 350q0 -157 -102.5 -260.5t-257.5 -103.5t-257.5 103.5t-102.5 260.5t102.5 260.5t257.5 103.5t257.5 -103.5t102.5 -260.5zM406 108q98 0 162 65.5t64 176.5t-64 176.5t-162 65.5t-162 -65.5t-64 -176.5t64 -176.5t162 -65.5zM437 780v124h118v-124h-118zM257 780
v124h118v-124h-118z" />
    <glyph glyph-name="multiply" unicode="&#xd7;" horiz-adv-x="556" 
d="M143 158l-72 72l135 135l-135 135l72 72l135 -135l135 135l72 -72l-135 -135l135 -135l-72 -72l-135 135z" />
    <glyph glyph-name="Oslash" unicode="&#xd8;" horiz-adv-x="812" 
d="M766 350q0 -157 -102.5 -260.5t-257.5 -103.5q-59 0 -118 18l-35 -66l-98 56l32 62q-66 50 -103.5 126t-37.5 168q0 157 102.5 260.5t257.5 103.5q59 0 118 -18l35 66l98 -56l-32 -62q66 -50 103.5 -126t37.5 -168zM406 108q98 0 162 65.5t64 176.5q0 113 -67 180
l-219 -415q27 -7 60 -7zM180 350q0 -113 67 -180l219 415q-27 7 -60 7q-98 0 -162 -65.5t-64 -176.5z" />
    <glyph glyph-name="Ugrave" unicode="&#xd9;" horiz-adv-x="700" 
d="M637 700v-435q0 -131 -80 -205t-207 -74t-207 74t-80 205v435h132v-422q0 -81 41.5 -125.5t113.5 -44.5t113.5 44.5t41.5 125.5v422h132zM363 912l68 -158h-97l-124 158h153z" />
    <glyph glyph-name="Uacute" unicode="&#xda;" horiz-adv-x="700" 
d="M637 700v-435q0 -131 -80 -205t-207 -74t-207 74t-80 205v435h132v-422q0 -81 41.5 -125.5t113.5 -44.5t113.5 44.5t41.5 125.5v422h132zM270 754l68 158h153l-124 -158h-97z" />
    <glyph glyph-name="Ucircumflex" unicode="&#xdb;" horiz-adv-x="700" 
d="M637 700v-435q0 -131 -80 -205t-207 -74t-207 74t-80 205v435h132v-422q0 -81 41.5 -125.5t113.5 -44.5t113.5 44.5t41.5 125.5v422h132zM192 754l113 157h90l113 -157h-99l-59 60l-59 -60h-99z" />
    <glyph glyph-name="Udieresis" unicode="&#xdc;" horiz-adv-x="700" 
d="M637 700v-435q0 -131 -80 -205t-207 -74t-207 74t-80 205v435h132v-422q0 -81 41.5 -125.5t113.5 -44.5t113.5 44.5t41.5 125.5v422h132zM381 780v124h118v-124h-118zM201 780v124h118v-124h-118z" />
    <glyph glyph-name="Yacute" unicode="&#xdd;" horiz-adv-x="602" 
d="M367 274v-274h-132v274l-231 426h145l130 -249q13 -27 22 -51l22 51l130 249h145zM211 754l68 158h153l-124 -158h-97z" />
    <glyph glyph-name="Thorn" unicode="&#xde;" horiz-adv-x="698" 
d="M73 0v700h132v-122h186q121 0 191.5 -59.5t70.5 -168.5t-70.5 -168.5t-191.5 -59.5h-186v-122h-132zM205 460v-220h182q67 0 100.5 29.5t33.5 80.5t-33.5 80.5t-100.5 29.5h-182z" />
    <glyph glyph-name="germandbls" unicode="&#xdf;" horiz-adv-x="602" 
d="M246 326v110h35q47 0 76 24.5t29 67.5q0 35 -23.5 55.5t-64.5 20.5q-40 0 -67.5 -27.5t-27.5 -79.5v-497h-126v394h-56v102h56v7q0 101 65 156t159 55q95 0 151.5 -46t56.5 -120q0 -107 -101 -156q153 -59 153 -209q0 -88 -54 -142.5t-141 -54.5q-88 0 -145 45l55 98
q33 -33 77 -33q34 0 58 24t24 70q0 62 -45.5 99t-112.5 37h-31z" />
    <glyph glyph-name="agrave" unicode="&#xe0;" horiz-adv-x="567" 
d="M528 0h-128q-24 30 -24 79q-52 -93 -166 -93q-74 0 -120.5 42.5t-46.5 112.5q0 71 49.5 111.5t127.5 52.5l149 23v19q0 75 -91 75q-42 0 -65.5 -16t-23.5 -40q0 -6 2 -12l-113 -38q-9 20 -9 42q0 61 57 106.5t152 45.5q106 0 161.5 -45t55.5 -135v-207q0 -75 33 -123z
M240 88q57 0 93 37.5t36 106.5v9l-120 -20q-83 -14 -83 -73q0 -29 20 -44.5t54 -15.5zM286 710l68 -158h-97l-124 158h153z" />
    <glyph glyph-name="aacute" unicode="&#xe1;" horiz-adv-x="567" 
d="M528 0h-128q-24 30 -24 79q-52 -93 -166 -93q-74 0 -120.5 42.5t-46.5 112.5q0 71 49.5 111.5t127.5 52.5l149 23v19q0 75 -91 75q-42 0 -65.5 -16t-23.5 -40q0 -6 2 -12l-113 -38q-9 20 -9 42q0 61 57 106.5t152 45.5q106 0 161.5 -45t55.5 -135v-207q0 -75 33 -123z
M240 88q57 0 93 37.5t36 106.5v9l-120 -20q-83 -14 -83 -73q0 -29 20 -44.5t54 -15.5zM203 552l68 158h153l-124 -158h-97z" />
    <glyph glyph-name="acircumflex" unicode="&#xe2;" horiz-adv-x="567" 
d="M528 0h-128q-24 30 -24 79q-52 -93 -166 -93q-74 0 -120.5 42.5t-46.5 112.5q0 71 49.5 111.5t127.5 52.5l149 23v19q0 75 -91 75q-42 0 -65.5 -16t-23.5 -40q0 -6 2 -12l-113 -38q-9 20 -9 42q0 61 57 106.5t152 45.5q106 0 161.5 -45t55.5 -135v-207q0 -75 33 -123z
M240 88q57 0 93 37.5t36 106.5v9l-120 -20q-83 -14 -83 -73q0 -29 20 -44.5t54 -15.5zM125 553l113 157h90l113 -157h-99l-59 60l-59 -60h-99z" />
    <glyph glyph-name="atilde" unicode="&#xe3;" horiz-adv-x="567" 
d="M528 0h-128q-24 30 -24 79q-52 -93 -166 -93q-74 0 -120.5 42.5t-46.5 112.5q0 71 49.5 111.5t127.5 52.5l149 23v19q0 75 -91 75q-42 0 -65.5 -16t-23.5 -40q0 -6 2 -12l-113 -38q-9 20 -9 42q0 61 57 106.5t152 45.5q106 0 161.5 -45t55.5 -135v-207q0 -75 33 -123z
M240 88q57 0 93 37.5t36 106.5v9l-120 -20q-83 -14 -83 -73q0 -29 20 -44.5t54 -15.5zM204 619q-10 0 -16.5 -6t-6.5 -16q0 -12 7 -26l-74 -15q-14 21 -14 53q0 43 30 67t68 24q31 0 56 -10.5t38 -22.5t28.5 -22.5t29.5 -10.5q10 0 16.5 6t6.5 16q0 12 -7 26l74 15
q14 -21 14 -53q0 -43 -30 -67t-68 -24q-32 0 -56.5 10.5t-37.5 22.5t-28.5 22.5t-29.5 10.5z" />
    <glyph glyph-name="adieresis" unicode="&#xe4;" horiz-adv-x="567" 
d="M528 0h-128q-24 30 -24 79q-52 -93 -166 -93q-74 0 -120.5 42.5t-46.5 112.5q0 71 49.5 111.5t127.5 52.5l149 23v19q0 75 -91 75q-42 0 -65.5 -16t-23.5 -40q0 -6 2 -12l-113 -38q-9 20 -9 42q0 61 57 106.5t152 45.5q106 0 161.5 -45t55.5 -135v-207q0 -75 33 -123z
M240 88q57 0 93 37.5t36 106.5v9l-120 -20q-83 -14 -83 -73q0 -29 20 -44.5t54 -15.5zM314 579v124h118v-124h-118zM134 579v124h118v-124h-118z" />
    <glyph glyph-name="aring" unicode="&#xe5;" horiz-adv-x="567" 
d="M528 0h-128q-24 30 -24 79q-52 -93 -166 -93q-74 0 -120.5 42.5t-46.5 112.5q0 71 49.5 111.5t127.5 52.5l149 23v19q0 75 -91 75q-42 0 -65.5 -16t-23.5 -40q0 -6 2 -12l-113 -38q-9 20 -9 42q0 61 57 106.5t152 45.5q106 0 161.5 -45t55.5 -135v-207q0 -75 33 -123z
M240 88q57 0 93 37.5t36 106.5v9l-120 -20q-83 -14 -83 -73q0 -29 20 -44.5t54 -15.5zM187 635q0 40 28 67.5t68 27.5t68 -27.5t28 -67.5t-28 -67.5t-68 -27.5t-68 27.5t-28 67.5zM250 635q0 -16 9 -25t24 -9t24 9t9 25t-9 25t-24 9t-24 -9t-9 -25z" />
    <glyph glyph-name="ae" unicode="&#xe6;" horiz-adv-x="915" 
d="M878 218h-382q6 -57 43 -90.5t93 -33.5q92 0 137 91l94 -54q-70 -145 -233 -145q-65 0 -120.5 30t-90.5 83q-28 -57 -80.5 -85t-111.5 -28q-82 0 -133 42.5t-51 112.5q0 78 61.5 123.5t168.5 45.5h97v13q0 51 -19 75t-72 24q-43 0 -66 -16t-23 -40q0 -6 2 -12l-113 -38
q-9 20 -9 42q0 61 54 106.5t144 45.5q131 0 185 -71q74 71 183 71q106 0 174 -69.5t68 -178.5v-44zM239 88q55 0 93 34.5t38 90.5v5h-105q-47 0 -73 -20.5t-26 -51.5q0 -27 20 -42.5t53 -15.5zM632 414q-49 0 -85.5 -29.5t-50.5 -74.5h266q-9 49 -43 76.5t-87 27.5z" />
    <glyph glyph-name="ccedilla" unicode="&#xe7;" horiz-adv-x="560" 
d="M248 -114l-37 33l25 73q-90 18 -145.5 87t-55.5 169q0 116 76 189t185 73q82 0 141.5 -35.5t85.5 -99.5l-103 -68q-39 85 -125 85q-57 0 -94.5 -39.5t-37.5 -104.5q0 -66 37 -105t95 -39q48 0 78.5 22.5t52.5 68.5l102 -66q-71 -141 -231 -143l-24 -41q17 9 40 9
q35 0 56.5 -22t21.5 -56q0 -38 -27.5 -60t-67.5 -22q-78 0 -94 61l66 17q4 -22 28 -22q25 0 25 25q0 29 -28 29q-24 0 -45 -18z" />
    <glyph glyph-name="egrave" unicode="&#xe8;" horiz-adv-x="575" 
d="M538 218h-382q6 -57 43 -90.5t93 -33.5q92 0 137 91l94 -54q-70 -145 -233 -145q-106 0 -180.5 73.5t-74.5 188.5q0 116 75.5 189t185.5 73q106 0 174 -69.5t68 -178.5v-44zM292 414q-49 0 -85.5 -29.5t-50.5 -74.5h266q-9 49 -43 76.5t-87 27.5zM300 708l68 -158h-97
l-124 158h153z" />
    <glyph glyph-name="eacute" unicode="&#xe9;" horiz-adv-x="575" 
d="M538 218h-382q6 -57 43 -90.5t93 -33.5q92 0 137 91l94 -54q-70 -145 -233 -145q-106 0 -180.5 73.5t-74.5 188.5q0 116 75.5 189t185.5 73q106 0 174 -69.5t68 -178.5v-44zM292 414q-49 0 -85.5 -29.5t-50.5 -74.5h266q-9 49 -43 76.5t-87 27.5zM207 550l68 158h153
l-124 -158h-97z" />
    <glyph glyph-name="ecircumflex" unicode="&#xea;" horiz-adv-x="575" 
d="M538 218h-382q6 -57 43 -90.5t93 -33.5q92 0 137 91l94 -54q-70 -145 -233 -145q-106 0 -180.5 73.5t-74.5 188.5q0 116 75.5 189t185.5 73q106 0 174 -69.5t68 -178.5v-44zM292 414q-49 0 -85.5 -29.5t-50.5 -74.5h266q-9 49 -43 76.5t-87 27.5zM129 550l113 157h90
l113 -157h-99l-59 60l-59 -60h-99z" />
    <glyph glyph-name="edieresis" unicode="&#xeb;" horiz-adv-x="575" 
d="M538 218h-382q6 -57 43 -90.5t93 -33.5q92 0 137 91l94 -54q-70 -145 -233 -145q-106 0 -180.5 73.5t-74.5 188.5q0 116 75.5 189t185.5 73q106 0 174 -69.5t68 -178.5v-44zM292 414q-49 0 -85.5 -29.5t-50.5 -74.5h266q-9 49 -43 76.5t-87 27.5zM318 576v124h118v-124
h-118zM138 576v124h118v-124h-118z" />
    <glyph glyph-name="igrave" unicode="&#xec;" horiz-adv-x="250" 
d="M62 0v496h126v-496h-126zM120 708l68 -158h-97l-124 158h153z" />
    <glyph glyph-name="iacute" unicode="&#xed;" horiz-adv-x="250" 
d="M62 0v496h126v-496h-126zM62 550l68 158h153l-124 -158h-97z" />
    <glyph glyph-name="icircumflex" unicode="&#xee;" horiz-adv-x="250" 
d="M62 0v496h126v-496h-126zM-33 550l113 157h90l113 -157h-99l-59 60l-59 -60h-99z" />
    <glyph glyph-name="idieresis" unicode="&#xef;" horiz-adv-x="250" 
d="M62 0v496h126v-496h-126zM156 576v124h118v-124h-118zM-24 576v124h118v-124h-118z" />
    <glyph glyph-name="eth" unicode="&#xf0;" horiz-adv-x="590" 
d="M227 496l-31 83l53 20q-52 34 -107 57l58 94q98 -44 171 -103l106 41l32 -83l-67 -26q107 -127 107 -296q0 -137 -67.5 -217t-188.5 -80q-112 0 -182 67.5t-70 173.5q0 103 69.5 169t169.5 66q92 0 139 -53q-28 71 -88 127zM296 356q-54 0 -92.5 -36t-38.5 -96t38.5 -96
t92.5 -36t92.5 36t38.5 96t-38.5 96t-92.5 36z" />
    <glyph glyph-name="ntilde" unicode="&#xf1;" 
d="M531 338v-338h-126v286q0 106 -101 106q-50 0 -82.5 -39t-32.5 -101v-252h-126v496h126v-80q61 94 168 94q79 0 126.5 -47t47.5 -125zM224 616q-10 0 -16.5 -6t-6.5 -16q0 -12 7 -26l-74 -15q-14 21 -14 53q0 43 30 67t68 24q32 0 56.5 -10.5t37.5 -22.5t28.5 -22.5
t29.5 -10.5q10 0 16.5 6t6.5 16q0 12 -7 26l74 15q14 -21 14 -53q0 -43 -30 -67t-68 -24q-32 0 -56.5 10.5t-37.5 22.5t-28.5 22.5t-29.5 10.5z" />
    <glyph glyph-name="ograve" unicode="&#xf2;" horiz-adv-x="612" 
d="M577 248q0 -123 -80.5 -192.5t-190.5 -69.5t-190.5 69.5t-80.5 192.5t80.5 192.5t190.5 69.5t190.5 -69.5t80.5 -192.5zM306 104q58 0 100.5 39.5t42.5 104.5t-42.5 104.5t-100.5 39.5t-100.5 -39.5t-42.5 -104.5t42.5 -104.5t100.5 -39.5zM297 708l68 -158h-97l-124 158
h153z" />
    <glyph glyph-name="oacute" unicode="&#xf3;" horiz-adv-x="612" 
d="M577 248q0 -123 -80.5 -192.5t-190.5 -69.5t-190.5 69.5t-80.5 192.5t80.5 192.5t190.5 69.5t190.5 -69.5t80.5 -192.5zM306 104q58 0 100.5 39.5t42.5 104.5t-42.5 104.5t-100.5 39.5t-100.5 -39.5t-42.5 -104.5t42.5 -104.5t100.5 -39.5zM248 550l68 158h153l-124 -158
h-97z" />
    <glyph glyph-name="ocircumflex" unicode="&#xf4;" horiz-adv-x="612" 
d="M577 248q0 -123 -80.5 -192.5t-190.5 -69.5t-190.5 69.5t-80.5 192.5t80.5 192.5t190.5 69.5t190.5 -69.5t80.5 -192.5zM306 104q58 0 100.5 39.5t42.5 104.5t-42.5 104.5t-100.5 39.5t-100.5 -39.5t-42.5 -104.5t42.5 -104.5t100.5 -39.5zM148 550l113 157h90l113 -157
h-99l-59 60l-59 -60h-99z" />
    <glyph glyph-name="otilde" unicode="&#xf5;" horiz-adv-x="612" 
d="M577 248q0 -123 -80.5 -192.5t-190.5 -69.5t-190.5 69.5t-80.5 192.5t80.5 192.5t190.5 69.5t190.5 -69.5t80.5 -192.5zM306 104q58 0 100.5 39.5t42.5 104.5t-42.5 104.5t-100.5 39.5t-100.5 -39.5t-42.5 -104.5t42.5 -104.5t100.5 -39.5zM233 616q-10 0 -16.5 -6
t-6.5 -16q0 -12 7 -26l-74 -15q-14 21 -14 53q0 43 30 67t68 24q31 0 56 -10.5t38 -22.5t28 -22.5t30 -10.5q10 0 16.5 6t6.5 16q0 12 -7 26l74 15q14 -21 14 -53q0 -43 -30 -67t-68 -24q-31 0 -56 10.5t-38 22.5t-28.5 22.5t-29.5 10.5z" />
    <glyph glyph-name="odieresis" unicode="&#xf6;" horiz-adv-x="612" 
d="M577 248q0 -123 -80.5 -192.5t-190.5 -69.5t-190.5 69.5t-80.5 192.5t80.5 192.5t190.5 69.5t190.5 -69.5t80.5 -192.5zM306 104q58 0 100.5 39.5t42.5 104.5t-42.5 104.5t-100.5 39.5t-100.5 -39.5t-42.5 -104.5t42.5 -104.5t100.5 -39.5zM337 576v124h118v-124h-118z
M157 576v124h118v-124h-118z" />
    <glyph glyph-name="divide" unicode="&#xf7;" horiz-adv-x="575" 
d="M220 350v134h134v-134h-134zM220 0v134h134v-134h-134zM45 191v102h484v-102h-484z" />
    <glyph glyph-name="oslash" unicode="&#xf8;" horiz-adv-x="612" 
d="M577 248q0 -123 -80.5 -192.5t-190.5 -69.5q-45 0 -90 13l-24 -41l-83 51l21 35q-95 72 -95 204q0 123 80.5 192.5t190.5 69.5q45 0 90 -13l24 41l83 -51l-21 -35q95 -72 95 -204zM163 248q0 -56 32 -93l138 235q-18 2 -27 2q-58 0 -100.5 -39.5t-42.5 -104.5zM306 104
q58 0 100.5 39.5t42.5 104.5q0 56 -32 93l-138 -235q18 -2 27 -2z" />
    <glyph glyph-name="ugrave" unicode="&#xf9;" 
d="M63 188v308h126v-279q0 -113 101 -113q52 0 83.5 38t31.5 98v256h126v-496h-126v78q-50 -92 -158 -92q-81 0 -132.5 53t-51.5 149zM310 708l68 -158h-97l-124 158h153z" />
    <glyph glyph-name="uacute" unicode="&#xfa;" 
d="M63 188v308h126v-279q0 -113 101 -113q52 0 83.5 38t31.5 98v256h126v-496h-126v78q-50 -92 -158 -92q-81 0 -132.5 53t-51.5 149zM217 550l68 158h153l-124 -158h-97z" />
    <glyph glyph-name="ucircumflex" unicode="&#xfb;" 
d="M63 188v308h126v-279q0 -113 101 -113q52 0 83.5 38t31.5 98v256h126v-496h-126v78q-50 -92 -158 -92q-81 0 -132.5 53t-51.5 149zM139 550l113 157h90l113 -157h-99l-59 60l-59 -60h-99z" />
    <glyph glyph-name="udieresis" unicode="&#xfc;" 
d="M63 188v308h126v-279q0 -113 101 -113q52 0 83.5 38t31.5 98v256h126v-496h-126v78q-50 -92 -158 -92q-81 0 -132.5 53t-51.5 149zM328 576v124h118v-124h-118zM148 576v124h118v-124h-118z" />
    <glyph glyph-name="yacute" unicode="&#xfd;" horiz-adv-x="546" 
d="M72 -200l20 117q22 -12 45 -12q39 0 56 47l16 44l-204 500h143l128 -322l122 322h143l-236 -586q-26 -64 -65.5 -92.5t-98.5 -28.5q-41 0 -69 11zM193 550l68 158h153l-124 -158h-97z" />
    <glyph glyph-name="thorn" unicode="&#xfe;" horiz-adv-x="624" 
d="M63 -204v904h126v-275q26 37 73 61t102 24q94 0 159.5 -71.5t65.5 -190.5q0 -117 -68 -189.5t-169 -72.5q-103 0 -163 75v-265h-126zM321 392q-60 0 -100 -41.5t-40 -102.5t40 -102.5t100 -41.5t100 41.5t40 102.5t-40 102.5t-100 41.5z" />
    <glyph glyph-name="ydieresis" unicode="&#xff;" horiz-adv-x="546" 
d="M72 -200l20 117q22 -12 45 -12q39 0 56 47l16 44l-204 500h143l128 -322l122 322h143l-236 -586q-26 -64 -65.5 -92.5t-98.5 -28.5q-41 0 -69 11zM304 576v124h118v-124h-118zM124 576v124h118v-124h-118z" />
    <glyph glyph-name="Amacron" unicode="&#x100;" horiz-adv-x="702" 
d="M5 0l283 700h126l283 -700h-141l-70 183h-270l-70 -183h-141zM325 469l-64 -168h180l-64 168q-13 34 -26 76zM227 792v94h248v-94h-248z" />
    <glyph glyph-name="amacron" unicode="&#x101;" horiz-adv-x="567" 
d="M528 0h-128q-24 30 -24 79q-52 -93 -166 -93q-74 0 -120.5 42.5t-46.5 112.5q0 71 49.5 111.5t127.5 52.5l149 23v19q0 75 -91 75q-42 0 -65.5 -16t-23.5 -40q0 -6 2 -12l-113 -38q-9 20 -9 42q0 61 57 106.5t152 45.5q106 0 161.5 -45t55.5 -135v-207q0 -75 33 -123z
M240 88q57 0 93 37.5t36 106.5v9l-120 -20q-83 -14 -83 -73q0 -29 20 -44.5t54 -15.5zM159 588v94h248v-94h-248z" />
    <glyph glyph-name="Abreve" unicode="&#x102;" horiz-adv-x="702" 
d="M5 0l283 700h126l283 -700h-141l-70 183h-270l-70 -183h-141zM325 469l-64 -168h180l-64 168q-13 34 -26 76zM389 881h76q0 -49 -31.5 -81t-82.5 -32t-82.5 32t-31.5 81h76q0 -19 10 -31t28 -12t28 12t10 31z" />
    <glyph glyph-name="abreve" unicode="&#x103;" horiz-adv-x="567" 
d="M528 0h-128q-24 30 -24 79q-52 -93 -166 -93q-74 0 -120.5 42.5t-46.5 112.5q0 71 49.5 111.5t127.5 52.5l149 23v19q0 75 -91 75q-42 0 -65.5 -16t-23.5 -40q0 -6 2 -12l-113 -38q-9 20 -9 42q0 61 57 106.5t152 45.5q106 0 161.5 -45t55.5 -135v-207q0 -75 33 -123z
M240 88q57 0 93 37.5t36 106.5v9l-120 -20q-83 -14 -83 -73q0 -29 20 -44.5t54 -15.5zM321 677h76q0 -49 -31.5 -81t-82.5 -32t-82.5 32t-31.5 81h76q0 -19 10 -31t28 -12t28 12t10 31z" />
    <glyph glyph-name="Aogonek" unicode="&#x104;" horiz-adv-x="702" 
d="M525 -104q0 61 59 104h-28l-70 183h-270l-70 -183h-141l283 700h126l283 -700q-72 -40 -72 -78q0 -18 11.5 -28t29.5 -10q9 0 22 2l11 -77q-26 -7 -60 -7q-45 0 -79.5 25t-34.5 69zM325 469l-64 -168h180l-64 168q-13 34 -26 76z" />
    <glyph glyph-name="aogonek" unicode="&#x105;" horiz-adv-x="567" 
d="M356 -104q0 61 59 104h-15q-24 30 -24 79q-52 -93 -166 -93q-74 0 -120.5 42.5t-46.5 112.5q0 71 49.5 111.5t127.5 52.5l149 23v19q0 75 -91 75q-42 0 -65.5 -16t-23.5 -40q0 -6 2 -12l-113 -38q-9 20 -9 42q0 61 57 106.5t152 45.5q106 0 161.5 -45t55.5 -135v-207
q0 -75 33 -123q-72 -40 -72 -78q0 -18 11.5 -28t29.5 -10q9 0 22 2l11 -77q-26 -7 -60 -7q-45 0 -79.5 25t-34.5 69zM240 88q57 0 93 37.5t36 106.5v9l-120 -20q-83 -14 -83 -73q0 -29 20 -44.5t54 -15.5z" />
    <glyph glyph-name="Cacute" unicode="&#x106;" horiz-adv-x="768" 
d="M617 248l103 -74q-66 -101 -136 -144.5t-180 -43.5q-156 0 -257 101t-101 263q0 161 103.5 262.5t259.5 101.5q107 0 189 -50.5t118 -132.5l-107 -77q-65 138 -204 138q-95 0 -160 -66.5t-65 -175.5q0 -106 65 -174t160 -68q137 0 212 140zM324 754l68 158h153l-124 -158
h-97z" />
    <glyph glyph-name="cacute" unicode="&#x107;" horiz-adv-x="560" 
d="M426 195l102 -66q-72 -143 -232 -143q-112 0 -186.5 72.5t-74.5 189.5q0 116 76 189t185 73q82 0 141.5 -35.5t85.5 -99.5l-103 -68q-39 85 -125 85q-57 0 -94.5 -39.5t-37.5 -104.5q0 -66 37 -105t95 -39q48 0 78.5 22.5t52.5 68.5zM209 550l68 158h153l-124 -158h-97z
" />
    <glyph glyph-name="Ccircumflex" unicode="&#x108;" horiz-adv-x="768" 
d="M617 248l103 -74q-66 -101 -136 -144.5t-180 -43.5q-156 0 -257 101t-101 263q0 161 103.5 262.5t259.5 101.5q107 0 189 -50.5t118 -132.5l-107 -77q-65 138 -204 138q-95 0 -160 -66.5t-65 -175.5q0 -106 65 -174t160 -68q137 0 212 140zM246 754l113 157h90l113 -157
h-99l-59 60l-59 -60h-99z" />
    <glyph glyph-name="ccircumflex" unicode="&#x109;" horiz-adv-x="560" 
d="M426 195l102 -66q-72 -143 -232 -143q-112 0 -186.5 72.5t-74.5 189.5q0 116 76 189t185 73q82 0 141.5 -35.5t85.5 -99.5l-103 -68q-39 85 -125 85q-57 0 -94.5 -39.5t-37.5 -104.5q0 -66 37 -105t95 -39q48 0 78.5 22.5t52.5 68.5zM137 550l113 157h90l113 -157h-99
l-59 60l-59 -60h-99z" />
    <glyph glyph-name="Cdotaccent" unicode="&#x10a;" horiz-adv-x="768" 
d="M617 248l103 -74q-66 -101 -136 -144.5t-180 -43.5q-156 0 -257 101t-101 263q0 161 103.5 262.5t259.5 101.5q107 0 189 -50.5t118 -132.5l-107 -77q-65 138 -204 138q-95 0 -160 -66.5t-65 -175.5q0 -106 65 -174t160 -68q137 0 212 140zM335 772v132h138v-132h-138z
" />
    <glyph glyph-name="cdotaccent" unicode="&#x10b;" horiz-adv-x="560" 
d="M426 195l102 -66q-72 -143 -232 -143q-112 0 -186.5 72.5t-74.5 189.5q0 116 76 189t185 73q82 0 141.5 -35.5t85.5 -99.5l-103 -68q-39 85 -125 85q-57 0 -94.5 -39.5t-37.5 -104.5q0 -66 37 -105t95 -39q48 0 78.5 22.5t52.5 68.5zM226 568v132h138v-132h-138z" />
    <glyph glyph-name="Ccaron" unicode="&#x10c;" horiz-adv-x="768" 
d="M617 248l103 -74q-66 -101 -136 -144.5t-180 -43.5q-156 0 -257 101t-101 263q0 161 103.5 262.5t259.5 101.5q107 0 189 -50.5t118 -132.5l-107 -77q-65 138 -204 138q-95 0 -160 -66.5t-65 -175.5q0 -106 65 -174t160 -68q137 0 212 140zM359 754l-113 157h99l59 -60
l59 60h99l-113 -157h-90z" />
    <glyph glyph-name="ccaron" unicode="&#x10d;" horiz-adv-x="560" 
d="M426 195l102 -66q-72 -143 -232 -143q-112 0 -186.5 72.5t-74.5 189.5q0 116 76 189t185 73q82 0 141.5 -35.5t85.5 -99.5l-103 -68q-39 85 -125 85q-57 0 -94.5 -39.5t-37.5 -104.5q0 -66 37 -105t95 -39q48 0 78.5 22.5t52.5 68.5zM250 550l-113 157h99l59 -60l59 60
h99l-113 -157h-90z" />
    <glyph glyph-name="Dcaron" unicode="&#x10e;" horiz-adv-x="711" 
d="M73 0v700h211q171 0 276 -90t105 -260t-105 -260t-276 -90h-211zM293 122q110 0 174 58.5t64 169.5t-64 169.5t-174 58.5h-88v-456h88zM220 754l-113 157h99l59 -60l59 60h99l-113 -157h-90z" />
    <glyph glyph-name="dcaron" unicode="&#x10f;" horiz-adv-x="730" 
d="M624 594v106h106v-108l-74 -108l-26 15l39 95h-45zM561 700v-700h-126v70q-21 -37 -61.5 -60.5t-94.5 -23.5q-105 0 -174.5 71t-69.5 191q0 118 73.5 190t170.5 72q110 0 156 -75v265h126zM303 104q60 0 100 40.5t40 103.5t-40 103.5t-100 40.5t-100 -40.5t-40 -103.5
t40 -103.5t100 -40.5z" />
    <glyph glyph-name="Dcroat" unicode="&#x110;" horiz-adv-x="749" 
d="M33 295v110h78v295h211q171 0 276 -90t105 -260t-105 -260t-276 -90h-211v295h-78zM331 122q110 0 174 58.5t64 169.5t-64 169.5t-174 58.5h-88v-173h155v-110h-155v-173h88z" />
    <glyph glyph-name="dcroat" unicode="&#x111;" horiz-adv-x="630" 
d="M561 700v-52h62v-96h-62v-552h-126v70q-21 -37 -61.5 -60.5t-94.5 -23.5q-105 0 -174.5 71t-69.5 191q0 118 73.5 190t170.5 72q110 0 156 -75v117h-160v96h160v52h126zM303 104q60 0 100 40.5t40 103.5t-40 103.5t-100 40.5t-100 -40.5t-40 -103.5t40 -103.5t100 -40.5z
" />
    <glyph glyph-name="Emacron" unicode="&#x112;" horiz-adv-x="615" 
d="M73 0v700h483v-118h-351v-161h323v-118h-323v-185h354v-118h-486zM193 792v94h248v-94h-248z" />
    <glyph glyph-name="emacron" unicode="&#x113;" horiz-adv-x="575" 
d="M538 218h-382q6 -57 43 -90.5t93 -33.5q92 0 137 91l94 -54q-70 -145 -233 -145q-106 0 -180.5 73.5t-74.5 188.5q0 116 75.5 189t185.5 73q106 0 174 -69.5t68 -178.5v-44zM292 414q-49 0 -85.5 -29.5t-50.5 -74.5h266q-9 49 -43 76.5t-87 27.5zM165 588v94h248v-94
h-248z" />
    <glyph glyph-name="Ebreve" unicode="&#x114;" horiz-adv-x="615" 
d="M73 0v700h483v-118h-351v-161h323v-118h-323v-185h354v-118h-486zM355 881h76q0 -49 -31.5 -81t-82.5 -32t-82.5 32t-31.5 81h76q0 -19 10 -31t28 -12t28 12t10 31z" />
    <glyph glyph-name="ebreve" unicode="&#x115;" horiz-adv-x="575" 
d="M538 218h-382q6 -57 43 -90.5t93 -33.5q92 0 137 91l94 -54q-70 -145 -233 -145q-106 0 -180.5 73.5t-74.5 188.5q0 116 75.5 189t185.5 73q106 0 174 -69.5t68 -178.5v-44zM292 414q-49 0 -85.5 -29.5t-50.5 -74.5h266q-9 49 -43 76.5t-87 27.5zM327 677h76
q0 -49 -31.5 -81t-82.5 -32t-82.5 32t-31.5 81h76q0 -19 10 -31t28 -12t28 12t10 31z" />
    <glyph glyph-name="Edotaccent" unicode="&#x116;" horiz-adv-x="615" 
d="M73 0v700h483v-118h-351v-161h323v-118h-323v-185h354v-118h-486zM248 772v132h138v-132h-138z" />
    <glyph glyph-name="edotaccent" unicode="&#x117;" horiz-adv-x="575" 
d="M538 218h-382q6 -57 43 -90.5t93 -33.5q92 0 137 91l94 -54q-70 -145 -233 -145q-106 0 -180.5 73.5t-74.5 188.5q0 116 75.5 189t185.5 73q106 0 174 -69.5t68 -178.5v-44zM292 414q-49 0 -85.5 -29.5t-50.5 -74.5h266q-9 49 -43 76.5t-87 27.5zM220 568v132h138v-132
h-138z" />
    <glyph glyph-name="Eogonek" unicode="&#x118;" horiz-adv-x="615" 
d="M73 0v700h483v-118h-351v-161h323v-118h-323v-185h354v-118q-72 -40 -72 -78q0 -18 11.5 -28t29.5 -10q9 0 22 2l11 -77q-26 -7 -60 -7q-45 0 -79.5 25t-34.5 69q0 61 59 104h-373z" />
    <glyph glyph-name="eogonek" unicode="&#x119;" horiz-adv-x="575" 
d="M212 -104q0 51 44 92q-95 12 -158 83t-63 177q0 116 75.5 189t185.5 73q106 0 174 -69.5t68 -178.5v-44h-382q6 -57 43 -90.5t93 -33.5q92 0 137 91l94 -54q-49 -99 -139 -131q-33 -11 -52.5 -31.5t-19.5 -43.5q0 -20 11.5 -30.5t29.5 -10.5q9 0 22 2l11 -77
q-26 -7 -60 -7q-45 0 -79.5 25t-34.5 69zM292 414q-49 0 -85.5 -29.5t-50.5 -74.5h266q-9 49 -43 76.5t-87 27.5z" />
    <glyph glyph-name="Ecaron" unicode="&#x11a;" horiz-adv-x="615" 
d="M73 0v700h483v-118h-351v-161h323v-118h-323v-185h354v-118h-486zM272 754l-113 157h99l59 -60l59 60h99l-113 -157h-90z" />
    <glyph glyph-name="ecaron" unicode="&#x11b;" horiz-adv-x="575" 
d="M538 218h-382q6 -57 43 -90.5t93 -33.5q92 0 137 91l94 -54q-70 -145 -233 -145q-106 0 -180.5 73.5t-74.5 188.5q0 116 75.5 189t185.5 73q106 0 174 -69.5t68 -178.5v-44zM292 414q-49 0 -85.5 -29.5t-50.5 -74.5h266q-9 49 -43 76.5t-87 27.5zM244 550l-113 157h99
l59 -60l59 60h99l-113 -157h-90z" />
    <glyph glyph-name="Gcircumflex" unicode="&#x11c;" horiz-adv-x="780" 
d="M634 0l-28 96q-70 -110 -213 -110q-148 0 -247.5 103t-99.5 261t105.5 261t257.5 103q103 0 184.5 -46.5t121.5 -124.5l-99 -72q-66 127 -209 127q-95 0 -161 -68t-66 -180q0 -106 61.5 -174t155.5 -68q85 0 133 44.5t59 113.5h-226v108h358v-374h-87zM242 754l113 157
h90l113 -157h-99l-59 60l-59 -60h-99z" />
    <glyph glyph-name="gcircumflex" unicode="&#x11d;" horiz-adv-x="597" 
d="M69 9l120 -37q-6 -17 -6 -34q0 -25 29 -40.5t81 -15.5q122 0 122 136v64q-45 -74 -141 -74q-100 0 -169.5 71t-69.5 180t71 180t169 71q94 0 140 -68v54h126v-462q0 -123 -67 -187.5t-181 -64.5q-111 0 -174.5 45.5t-63.5 124.5q0 32 14 57zM288 400q-55 0 -93 -37.5
t-38 -103.5t38 -103.5t93 -37.5q56 0 95 38t39 103t-39 103t-95 38zM150 550l113 157h90l113 -157h-99l-59 60l-59 -60h-99z" />
    <glyph glyph-name="Gbreve" unicode="&#x11e;" horiz-adv-x="780" 
d="M634 0l-28 96q-70 -110 -213 -110q-148 0 -247.5 103t-99.5 261t105.5 261t257.5 103q103 0 184.5 -46.5t121.5 -124.5l-99 -72q-66 127 -209 127q-95 0 -161 -68t-66 -180q0 -106 61.5 -174t155.5 -68q85 0 133 44.5t59 113.5h-226v108h358v-374h-87zM443 881h76
q0 -49 -31.5 -81t-82.5 -32t-82.5 32t-31.5 81h76q0 -19 10 -31t28 -12t28 12t10 31z" />
    <glyph glyph-name="gbreve" unicode="&#x11f;" horiz-adv-x="597" 
d="M69 9l120 -37q-6 -17 -6 -34q0 -25 29 -40.5t81 -15.5q122 0 122 136v64q-45 -74 -141 -74q-100 0 -169.5 71t-69.5 180t71 180t169 71q94 0 140 -68v54h126v-462q0 -123 -67 -187.5t-181 -64.5q-111 0 -174.5 45.5t-63.5 124.5q0 32 14 57zM288 400q-55 0 -93 -37.5
t-38 -103.5t38 -103.5t93 -37.5q56 0 95 38t39 103t-39 103t-95 38zM336 677h76q0 -49 -31.5 -81t-82.5 -32t-82.5 32t-31.5 81h76q0 -19 10 -31t28 -12t28 12t10 31z" />
    <glyph glyph-name="Gdotaccent" unicode="&#x120;" horiz-adv-x="780" 
d="M634 0l-28 96q-70 -110 -213 -110q-148 0 -247.5 103t-99.5 261t105.5 261t257.5 103q103 0 184.5 -46.5t121.5 -124.5l-99 -72q-66 127 -209 127q-95 0 -161 -68t-66 -180q0 -106 61.5 -174t155.5 -68q85 0 133 44.5t59 113.5h-226v108h358v-374h-87zM336 772v132h138
v-132h-138z" />
    <glyph glyph-name="gdotaccent" unicode="&#x121;" horiz-adv-x="597" 
d="M69 9l120 -37q-6 -17 -6 -34q0 -25 29 -40.5t81 -15.5q122 0 122 136v64q-45 -74 -141 -74q-100 0 -169.5 71t-69.5 180t71 180t169 71q94 0 140 -68v54h126v-462q0 -123 -67 -187.5t-181 -64.5q-111 0 -174.5 45.5t-63.5 124.5q0 32 14 57zM288 400q-55 0 -93 -37.5
t-38 -103.5t38 -103.5t93 -37.5q56 0 95 38t39 103t-39 103t-95 38zM229 568v132h138v-132h-138z" />
    <glyph glyph-name="uni0122" unicode="&#x122;" horiz-adv-x="780" 
d="M338 -182v122h126v-122l-90 -132l-29 11l37 121h-44zM634 0l-28 96q-70 -110 -213 -110q-148 0 -247.5 103t-99.5 261t105.5 261t257.5 103q103 0 184.5 -46.5t121.5 -124.5l-99 -72q-66 127 -209 127q-95 0 -161 -68t-66 -180q0 -106 61.5 -174t155.5 -68q85 0 133 44.5
t59 113.5h-226v108h358v-374h-87z" />
    <glyph glyph-name="uni0123" unicode="&#x123;" horiz-adv-x="597" 
d="M343 686v-123h-126v123l111 136l25 -18l-61 -118h51zM69 9l120 -37q-6 -17 -6 -34q0 -25 29 -40.5t81 -15.5q122 0 122 136v64q-45 -74 -141 -74q-100 0 -169.5 71t-69.5 180t71 180t169 71q94 0 140 -68v54h126v-462q0 -123 -67 -187.5t-181 -64.5q-111 0 -174.5 45.5
t-63.5 124.5q0 32 14 57zM288 400q-55 0 -93 -37.5t-38 -103.5t38 -103.5t93 -37.5q56 0 95 38t39 103t-39 103t-95 38z" />
    <glyph glyph-name="Hcircumflex" unicode="&#x124;" horiz-adv-x="716" 
d="M73 0v700h132v-282h306v282h132v-700h-132v296h-306v-296h-132zM200 754l113 157h90l113 -157h-99l-59 60l-59 -60h-99z" />
    <glyph glyph-name="hcircumflex" unicode="&#x125;" horiz-adv-x="600" 
d="M537 335v-335h-126v286q0 50 -25.5 78t-74.5 28q-53 0 -87.5 -39t-34.5 -101v-252h-126v700h126v-282q59 92 172 92q81 0 128.5 -47.5t47.5 -127.5zM43 764l113 157h90l113 -157h-99l-59 60l-59 -60h-99z" />
    <glyph glyph-name="Hbar" unicode="&#x126;" horiz-adv-x="762" 
d="M10 484v94h86v122h132v-122h306v122h132v-122h86v-94h-86v-484h-132v296h-306v-296h-132v484h-86zM228 418h306v66h-306v-66z" />
    <glyph glyph-name="hbar" unicode="&#x127;" horiz-adv-x="608" 
d="M9 552v96h62v52h126v-52h160v-96h-160v-134q59 92 172 92q81 0 128.5 -47.5t47.5 -127.5v-335h-126v286q0 50 -25.5 78t-74.5 28q-53 0 -87.5 -39t-34.5 -101v-252h-126v552h-62z" />
    <glyph glyph-name="Itilde" unicode="&#x128;" horiz-adv-x="278" 
d="M73 0v700h132v-700h-132zM66 820q-10 0 -16.5 -6t-6.5 -16q0 -12 7 -26l-74 -15q-14 21 -14 53q0 43 30 67t68 24q32 0 56.5 -10.5t37.5 -22.5t28.5 -22.5t29.5 -10.5q10 0 16.5 6t6.5 16q0 12 -7 26l74 15q14 -21 14 -53q0 -43 -30 -67t-68 -24q-32 0 -56.5 10.5
t-37.5 22.5t-28 22.5t-30 10.5z" />
    <glyph glyph-name="itilde" unicode="&#x129;" horiz-adv-x="250" 
d="M62 0v496h126v-496h-126zM52 616q-10 0 -16.5 -6t-6.5 -16q0 -12 7 -26l-74 -15q-14 21 -14 53q0 43 30 67t68 24q32 0 56.5 -10.5t37.5 -22.5t28.5 -22.5t29.5 -10.5q10 0 16.5 6t6.5 16q0 12 -7 26l74 15q14 -21 14 -53q0 -43 -30 -67t-68 -24q-31 0 -56 10.5t-38 22.5
t-28.5 22.5t-29.5 10.5z" />
    <glyph glyph-name="Imacron" unicode="&#x12a;" horiz-adv-x="278" 
d="M73 0v700h132v-700h-132zM15 792v94h248v-94h-248z" />
    <glyph glyph-name="imacron" unicode="&#x12b;" horiz-adv-x="250" 
d="M62 0v496h126v-496h-126zM1 588v94h248v-94h-248z" />
    <glyph glyph-name="Ibreve" unicode="&#x12c;" horiz-adv-x="278" 
d="M73 0v700h132v-700h-132zM177 881h76q0 -49 -31.5 -81t-82.5 -32t-82.5 32t-31.5 81h76q0 -19 10 -31t28 -12t28 12t10 31z" />
    <glyph glyph-name="ibreve" unicode="&#x12d;" horiz-adv-x="250" 
d="M62 0v496h126v-496h-126zM163 677h76q0 -49 -31.5 -81t-82.5 -32t-82.5 32t-31.5 81h76q0 -19 10 -31t28 -12t28 12t10 31z" />
    <glyph glyph-name="Iogonek" unicode="&#x12e;" horiz-adv-x="278" 
d="M73 0v700h132v-700q-72 -40 -72 -78q0 -18 11.5 -28t29.5 -10q9 0 22 2l11 -77q-26 -7 -60 -7q-45 0 -79.5 25t-34.5 69q0 61 59 104h-19z" />
    <glyph glyph-name="iogonek" unicode="&#x12f;" horiz-adv-x="250" 
d="M62 0v496h126v-496q-72 -40 -72 -78q0 -18 11.5 -28t29.5 -10q9 0 22 2l11 -77q-26 -7 -60 -7q-45 0 -79.5 25t-34.5 69q0 61 59 104h-13zM56 568v132h138v-132h-138z" />
    <glyph glyph-name="Idotaccent" unicode="&#x130;" horiz-adv-x="278" 
d="M73 0v700h132v-700h-132zM70 772v132h138v-132h-138z" />
    <glyph glyph-name="dotlessi" unicode="&#x131;" horiz-adv-x="250" 
d="M63 0v496h126v-496h-126z" />
    <glyph glyph-name="IJ" unicode="&#x132;" horiz-adv-x="800" 
d="M73 0v700h132v-700h-132zM745 700v-486q0 -102 -60.5 -165t-168.5 -63t-168.5 62.5t-60.5 175.5l132 -14q1 -102 97 -102q47 0 72 29.5t25 78.5v484h132z" />
    <glyph glyph-name="ij" unicode="&#x133;" horiz-adv-x="490" 
d="M62 0v496h126v-496h-126zM56 568v132h138v-132h-138zM191 -201l16 114q19 -8 39 -8q30 0 43 17.5t13 53.5v520h126v-534q0 -84 -40.5 -128.5t-121.5 -44.5q-39 0 -75 10zM296 568v132h138v-132h-138z" />
    <glyph glyph-name="Jcircumflex" unicode="&#x134;" horiz-adv-x="555" 
d="M500 700v-486q0 -102 -60.5 -165t-168.5 -63t-168.5 62.5t-60.5 175.5l132 -14q2 -102 97 -102q47 0 72 29.5t25 78.5v484h132zM224 754l113 157h90l113 -157h-99l-59 60l-59 -60h-99z" />
    <glyph glyph-name="jcircumflex" unicode="&#x135;" horiz-adv-x="250" 
d="M-49 -201l16 114q19 -8 39 -8q30 0 43 17.5t13 53.5v520h126v-534q0 -84 -40.5 -128.5t-121.5 -44.5q-39 0 -75 10zM-35 550l113 157h90l113 -157h-99l-59 60l-59 -60h-99z" />
    <glyph glyph-name="uni0136" unicode="&#x136;" horiz-adv-x="658" 
d="M275 -182v122h126v-122l-90 -132l-29 11l37 121h-44zM623 700l-248 -260l264 -440h-154l-205 342l-75 -79v-263h-132v700h132v-270l55 62l196 208h167z" />
    <glyph glyph-name="uni0137" unicode="&#x137;" horiz-adv-x="541" 
d="M215 -182v122h126v-122l-90 -132l-29 11l37 121h-44zM189 700v-354l151 150h156l-181 -177l205 -319h-145l-148 232l-38 -37v-195h-126v700h126z" />
    <glyph glyph-name="kgreenlandic" unicode="&#x138;" horiz-adv-x="541" 
d="M189 496v-158l151 158h156l-186 -190l210 -306h-145l-152 217l-34 -35v-182h-126v496h126z" />
    <glyph glyph-name="Lacute" unicode="&#x139;" horiz-adv-x="597" 
d="M73 0v700h132v-578h351v-122h-483zM73 754l68 158h153l-124 -158h-97z" />
    <glyph glyph-name="lacute" unicode="&#x13a;" horiz-adv-x="252" 
d="M63 0v700h126v-700h-126zM63 754l68 158h153l-124 -158h-97z" />
    <glyph glyph-name="uni013B" unicode="&#x13b;" horiz-adv-x="597" 
d="M257 -182v122h126v-122l-90 -132l-29 11l37 121h-44zM73 0v700h132v-578h351v-122h-483z" />
    <glyph glyph-name="uni013C" unicode="&#x13c;" horiz-adv-x="252" 
d="M63 -182v122h126v-122l-90 -132l-29 11l37 121h-44zM63 0v700h126v-700h-126z" />
    <glyph glyph-name="Lcaron" unicode="&#x13d;" horiz-adv-x="597" 
d="M417 582v118h119v-118l-113 -135l-20 16l60 119h-46zM73 0v700h132v-578h351v-122h-483z" />
    <glyph glyph-name="lcaron" unicode="&#x13e;" horiz-adv-x="358" 
d="M252 594v106h106v-108l-74 -108l-26 15l39 95h-45zM63 0v700h126v-700h-126z" />
    <glyph glyph-name="Ldot" unicode="&#x13f;" horiz-adv-x="597" 
d="M73 0v700h132v-578h351v-122h-483zM361 283v134h134v-134h-134z" />
    <glyph glyph-name="ldot" unicode="&#x140;" horiz-adv-x="386" 
d="M63 0v700h126v-700h-126zM252 283v134h134v-134h-134z" />
    <glyph glyph-name="Lslash" unicode="&#x141;" horiz-adv-x="610" 
d="M10 128v122l76 48v402h132v-318l155 99v-122l-155 -99v-138h351v-122h-483v176z" />
    <glyph glyph-name="lslash" unicode="&#x142;" horiz-adv-x="286" 
d="M15 138v110l65 41v411h126v-331l65 42v-110l-65 -42v-259h-126v179z" />
    <glyph glyph-name="Nacute" unicode="&#x143;" horiz-adv-x="730" 
d="M73 0v700h134l292 -445q24 -40 30 -55v500h128v-700h-134l-292 448q-24 40 -30 55v-503h-128zM285 754l68 158h153l-124 -158h-97z" />
    <glyph glyph-name="nacute" unicode="&#x144;" 
d="M531 338v-338h-126v286q0 106 -101 106q-50 0 -82.5 -39t-32.5 -101v-252h-126v496h126v-80q61 94 168 94q79 0 126.5 -47t47.5 -125zM217 550l68 158h153l-124 -158h-97z" />
    <glyph glyph-name="uni0145" unicode="&#x145;" horiz-adv-x="730" 
d="M302 -182v122h126v-122l-90 -132l-29 11l37 121h-44zM73 0v700h134l292 -445q24 -40 30 -55v500h128v-700h-134l-292 448q-24 40 -30 55v-503h-128z" />
    <glyph glyph-name="uni0146" unicode="&#x146;" 
d="M234 -182v122h126v-122l-90 -132l-29 11l37 121h-44zM531 338v-338h-126v286q0 106 -101 106q-50 0 -82.5 -39t-32.5 -101v-252h-126v496h126v-80q61 94 168 94q79 0 126.5 -47t47.5 -125z" />
    <glyph glyph-name="Ncaron" unicode="&#x147;" horiz-adv-x="730" 
d="M73 0v700h134l292 -445q24 -40 30 -55v500h128v-700h-134l-292 448q-24 40 -30 55v-503h-128zM320 754l-113 157h99l59 -60l59 60h99l-113 -157h-90z" />
    <glyph glyph-name="ncaron" unicode="&#x148;" 
d="M531 338v-338h-126v286q0 106 -101 106q-50 0 -82.5 -39t-32.5 -101v-252h-126v496h126v-80q61 94 168 94q79 0 126.5 -47t47.5 -125zM262 550l-113 157h99l59 -60l59 60h99l-113 -157h-90z" />
    <glyph glyph-name="napostrophe" unicode="&#x149;" horiz-adv-x="669" 
d="M49 614v116h116v-116l-96 -110l-24 17l53 93h-49zM606 338v-338h-126v286q0 106 -101 106q-50 0 -82.5 -39t-32.5 -101v-252h-126v496h126v-80q61 94 168 94q79 0 126.5 -47t47.5 -125z" />
    <glyph glyph-name="Eng" unicode="&#x14a;" horiz-adv-x="730" 
d="M73 0v700h134l292 -445q24 -40 30 -55v500h128v-690q0 -109 -49.5 -168.5t-152.5 -59.5q-57 0 -105 19l47 116q21 -13 49 -13q41 0 59 23t18 73l-292 448q-24 40 -30 55v-503h-128z" />
    <glyph glyph-name="eng" unicode="&#x14b;" 
d="M294 -201l16 114q19 -8 39 -8q30 0 43 17.5t13 53.5v310q0 106 -101 106q-50 0 -82.5 -39t-32.5 -101v-252h-126v496h126v-80q63 94 167 94q79 0 127 -47.5t48 -124.5v-376q0 -84 -40.5 -128.5t-121.5 -44.5q-39 0 -75 10z" />
    <glyph glyph-name="Omacron" unicode="&#x14c;" horiz-adv-x="812" 
d="M766 350q0 -157 -102.5 -260.5t-257.5 -103.5t-257.5 103.5t-102.5 260.5t102.5 260.5t257.5 103.5t257.5 -103.5t102.5 -260.5zM406 108q98 0 162 65.5t64 176.5t-64 176.5t-162 65.5t-162 -65.5t-64 -176.5t64 -176.5t162 -65.5zM282 792v94h248v-94h-248z" />
    <glyph glyph-name="omacron" unicode="&#x14d;" horiz-adv-x="612" 
d="M577 248q0 -123 -80.5 -192.5t-190.5 -69.5t-190.5 69.5t-80.5 192.5t80.5 192.5t190.5 69.5t190.5 -69.5t80.5 -192.5zM306 104q58 0 100.5 39.5t42.5 104.5t-42.5 104.5t-100.5 39.5t-100.5 -39.5t-42.5 -104.5t42.5 -104.5t100.5 -39.5zM182 588v94h248v-94h-248z" />
    <glyph glyph-name="Obreve" unicode="&#x14e;" horiz-adv-x="812" 
d="M766 350q0 -157 -102.5 -260.5t-257.5 -103.5t-257.5 103.5t-102.5 260.5t102.5 260.5t257.5 103.5t257.5 -103.5t102.5 -260.5zM406 108q98 0 162 65.5t64 176.5t-64 176.5t-162 65.5t-162 -65.5t-64 -176.5t64 -176.5t162 -65.5zM444 881h76q0 -49 -31.5 -81t-82.5 -32
t-82.5 32t-31.5 81h76q0 -19 10 -31t28 -12t28 12t10 31z" />
    <glyph glyph-name="obreve" unicode="&#x14f;" horiz-adv-x="612" 
d="M577 248q0 -123 -80.5 -192.5t-190.5 -69.5t-190.5 69.5t-80.5 192.5t80.5 192.5t190.5 69.5t190.5 -69.5t80.5 -192.5zM306 104q58 0 100.5 39.5t42.5 104.5t-42.5 104.5t-100.5 39.5t-100.5 -39.5t-42.5 -104.5t42.5 -104.5t100.5 -39.5zM344 677h76q0 -49 -31.5 -81
t-82.5 -32t-82.5 32t-31.5 81h76q0 -19 10 -31t28 -12t28 12t10 31z" />
    <glyph glyph-name="Ohungarumlaut" unicode="&#x150;" horiz-adv-x="812" 
d="M766 350q0 -157 -102.5 -260.5t-257.5 -103.5t-257.5 103.5t-102.5 260.5t102.5 260.5t257.5 103.5t257.5 -103.5t102.5 -260.5zM406 108q98 0 162 65.5t64 176.5t-64 176.5t-162 65.5t-162 -65.5t-64 -176.5t64 -176.5t162 -65.5zM236 754l68 158h153l-124 -158h-97z
M425 754l68 158h153l-124 -158h-97z" />
    <glyph glyph-name="ohungarumlaut" unicode="&#x151;" horiz-adv-x="612" 
d="M577 248q0 -123 -80.5 -192.5t-190.5 -69.5t-190.5 69.5t-80.5 192.5t80.5 192.5t190.5 69.5t190.5 -69.5t80.5 -192.5zM306 104q58 0 100.5 39.5t42.5 104.5t-42.5 104.5t-100.5 39.5t-100.5 -39.5t-42.5 -104.5t42.5 -104.5t100.5 -39.5zM135 550l68 158h153l-124 -158
h-97zM324 550l68 158h153l-124 -158h-97z" />
    <glyph glyph-name="OE" unicode="&#x152;" horiz-adv-x="1174" 
d="M632 0v87q-89 -101 -226 -101q-155 0 -257.5 103.5t-102.5 260.5t102.5 260.5t257.5 103.5q145 0 226 -93v79h483v-118h-351v-161h323v-118h-323v-185h354v-118h-486zM406 108q97 0 161.5 67t64.5 175q0 111 -64 176.5t-162 65.5t-162 -65.5t-64 -176.5t64 -176.5
t162 -65.5z" />
    <glyph glyph-name="oe" unicode="&#x153;" horiz-adv-x="999" 
d="M959 218h-382q6 -57 43 -90.5t93 -33.5q91 0 137 91l94 -54q-70 -145 -233 -145q-119 0 -195 90q-38 -43 -94 -66.5t-116 -23.5q-110 0 -190.5 69.5t-80.5 192.5t80.5 192.5t190.5 69.5q60 0 115.5 -24t94.5 -68q79 92 201 92q106 0 174 -69.5t68 -178.5v-44zM306 104
q58 0 100.5 39.5t42.5 104.5t-42.5 104.5t-100.5 39.5t-100.5 -39.5t-42.5 -104.5t42.5 -104.5t100.5 -39.5zM713 414q-49 0 -85.5 -29.5t-50.5 -74.5h266q-9 49 -43 76.5t-87 27.5z" />
    <glyph glyph-name="Racute" unicode="&#x154;" horiz-adv-x="667" 
d="M479 0l-162 284h-112v-284h-132v700h299q115 0 182 -53.5t67 -144.5q0 -149 -160 -206l169 -296h-151zM205 584v-184h167q117 0 117 92t-117 92h-167zM233 754l68 158h153l-124 -158h-97z" />
    <glyph glyph-name="racute" unicode="&#x155;" horiz-adv-x="384" 
d="M370 504l-20 -119q-19 7 -41 7q-55 0 -87.5 -41.5t-32.5 -105.5v-245h-126v496h126v-79q46 93 138 93q23 0 43 -6zM132 550l68 158h153l-124 -158h-97z" />
    <glyph glyph-name="uni0156" unicode="&#x156;" horiz-adv-x="667" 
d="M273 -182v122h126v-122l-90 -132l-29 11l37 121h-44zM479 0l-162 284h-112v-284h-132v700h299q115 0 182 -53.5t67 -144.5q0 -149 -160 -206l169 -296h-151zM205 584v-184h167q117 0 117 92t-117 92h-167z" />
    <glyph glyph-name="uni0157" unicode="&#x157;" horiz-adv-x="384" 
d="M63 -182v122h126v-122l-90 -132l-29 11l37 121h-44zM370 504l-20 -119q-19 7 -41 7q-55 0 -87.5 -41.5t-32.5 -105.5v-245h-126v496h126v-79q46 93 138 93q23 0 43 -6z" />
    <glyph glyph-name="Rcaron" unicode="&#x158;" horiz-adv-x="667" 
d="M479 0l-162 284h-112v-284h-132v700h299q115 0 182 -53.5t67 -144.5q0 -149 -160 -206l169 -296h-151zM205 584v-184h167q117 0 117 92t-117 92h-167zM278 754l-113 157h99l59 -60l59 60h99l-113 -157h-90z" />
    <glyph glyph-name="rcaron" unicode="&#x159;" horiz-adv-x="384" 
d="M370 504l-20 -119q-19 7 -41 7q-55 0 -87.5 -41.5t-32.5 -105.5v-245h-126v496h126v-79q46 93 138 93q23 0 43 -6zM157 550l-113 157h99l59 -60l59 60h99l-113 -157h-90z" />
    <glyph glyph-name="Sacute" unicode="&#x15a;" horiz-adv-x="652" 
d="M201 525q0 -40 40 -65.5t129 -43.5q116 -24 172.5 -76t56.5 -139q0 -89 -71.5 -152t-189.5 -63q-125 0 -199 61t-95 163l116 59q31 -167 177 -167q59 0 94.5 26t35.5 68q0 46 -41.5 72t-131.5 44q-101 20 -160 72.5t-59 137.5q0 87 68 139.5t178 52.5q200 0 266 -180
l-104 -60q-42 124 -165 124q-50 0 -83.5 -18.5t-33.5 -54.5zM241 754l68 158h153l-124 -158h-97z" />
    <glyph glyph-name="sacute" unicode="&#x15b;" horiz-adv-x="500" 
d="M180 374q0 -46 117 -70q87 -18 126.5 -54.5t39.5 -98.5q0 -72 -53 -118.5t-143 -46.5q-86 0 -142.5 42t-84.5 107l101 64q17 -49 49.5 -78t78.5 -29q31 0 54.5 14.5t23.5 40.5q0 24 -25 38.5t-81 25.5q-173 34 -173 155q0 67 54 105.5t131 38.5q79 0 126.5 -30t78.5 -95
l-91 -54q-34 87 -112 87q-75 0 -75 -44zM170 550l68 158h153l-124 -158h-97z" />
    <glyph glyph-name="Scircumflex" unicode="&#x15c;" horiz-adv-x="652" 
d="M201 525q0 -40 40 -65.5t129 -43.5q116 -24 172.5 -76t56.5 -139q0 -89 -71.5 -152t-189.5 -63q-125 0 -199 61t-95 163l116 59q31 -167 177 -167q59 0 94.5 26t35.5 68q0 46 -41.5 72t-131.5 44q-101 20 -160 72.5t-59 137.5q0 87 68 139.5t178 52.5q200 0 266 -180
l-104 -60q-42 124 -165 124q-50 0 -83.5 -18.5t-33.5 -54.5zM168 754l113 157h90l113 -157h-99l-59 60l-59 -60h-99z" />
    <glyph glyph-name="scircumflex" unicode="&#x15d;" horiz-adv-x="500" 
d="M180 374q0 -46 117 -70q87 -18 126.5 -54.5t39.5 -98.5q0 -72 -53 -118.5t-143 -46.5q-86 0 -142.5 42t-84.5 107l101 64q17 -49 49.5 -78t78.5 -29q31 0 54.5 14.5t23.5 40.5q0 24 -25 38.5t-81 25.5q-173 34 -173 155q0 67 54 105.5t131 38.5q79 0 126.5 -30t78.5 -95
l-91 -54q-34 87 -112 87q-75 0 -75 -44zM92 550l113 157h90l113 -157h-99l-59 60l-59 -60h-99z" />
    <glyph glyph-name="Scedilla" unicode="&#x15e;" horiz-adv-x="652" 
d="M295 -114l-37 33l24 71q-100 13 -160 71.5t-78 148.5l116 59q31 -167 177 -167q59 0 94.5 26t35.5 68q0 46 -41.5 72t-131.5 44q-101 20 -160 72.5t-59 137.5q0 87 68 139.5t178 52.5q200 0 266 -180l-104 -60q-42 124 -165 124q-50 0 -83.5 -18.5t-33.5 -54.5
q0 -40 40 -65.5t129 -43.5q116 -24 172.5 -76t56.5 -139q0 -88 -69.5 -150.5t-185.5 -64.5l-24 -41q16 9 40 9q34 0 56 -22t22 -56q0 -38 -27.5 -60t-67.5 -22q-78 0 -94 61l66 17q4 -22 28 -22q25 0 25 25q0 29 -28 29q-24 0 -45 -18z" />
    <glyph glyph-name="scedilla" unicode="&#x15f;" horiz-adv-x="500" 
d="M226 -112l-37 33l24 70q-121 23 -173 144l101 64q17 -49 49.5 -78t78.5 -29q31 0 54.5 14.5t23.5 40.5q0 24 -25 38.5t-81 25.5q-173 34 -173 155q0 67 54 105.5t131 38.5q79 0 126.5 -30t78.5 -95l-91 -54q-34 87 -112 87q-75 0 -75 -44q0 -46 117 -70
q87 -18 126.5 -54.5t39.5 -98.5q0 -70 -51 -116.5t-138 -48.5l-23 -39q17 9 40 9q35 0 56.5 -22t21.5 -56q0 -38 -27.5 -60t-67.5 -22q-78 0 -94 61l66 17q4 -22 28 -22q25 0 25 25q0 29 -28 29q-24 0 -45 -18z" />
    <glyph glyph-name="Scaron" unicode="&#x160;" horiz-adv-x="652" 
d="M201 525q0 -40 40 -65.5t129 -43.5q116 -24 172.5 -76t56.5 -139q0 -89 -71.5 -152t-189.5 -63q-125 0 -199 61t-95 163l116 59q31 -167 177 -167q59 0 94.5 26t35.5 68q0 46 -41.5 72t-131.5 44q-101 20 -160 72.5t-59 137.5q0 87 68 139.5t178 52.5q200 0 266 -180
l-104 -60q-42 124 -165 124q-50 0 -83.5 -18.5t-33.5 -54.5zM281 754l-113 157h99l59 -60l59 60h99l-113 -157h-90z" />
    <glyph glyph-name="scaron" unicode="&#x161;" horiz-adv-x="500" 
d="M180 374q0 -46 117 -70q87 -18 126.5 -54.5t39.5 -98.5q0 -72 -53 -118.5t-143 -46.5q-86 0 -142.5 42t-84.5 107l101 64q17 -49 49.5 -78t78.5 -29q31 0 54.5 14.5t23.5 40.5q0 24 -25 38.5t-81 25.5q-173 34 -173 155q0 67 54 105.5t131 38.5q79 0 126.5 -30t78.5 -95
l-91 -54q-34 87 -112 87q-75 0 -75 -44zM205 550l-113 157h99l59 -60l59 60h99l-113 -157h-90z" />
    <glyph glyph-name="uni0162" unicode="&#x162;" horiz-adv-x="592" 
d="M273 -112l-37 33l27 79h-33v578h-214v122h560v-122h-214v-578h-33l-31 -53q16 9 40 9q34 0 56 -22t22 -56q0 -38 -27.5 -60t-67.5 -22q-78 0 -94 61l66 17q4 -22 28 -22q25 0 25 25q0 29 -28 29q-24 0 -45 -18z" />
    <glyph glyph-name="uni0163" unicode="&#x163;" horiz-adv-x="374" 
d="M179 -112l-37 33l29 83q-70 37 -70 140v250h-77v102h77v134h126v-134h108v-102h-108v-226q0 -70 63 -70q22 0 42 6l12 -104q-38 -14 -84 -14q-12 0 -32 2l-24 -41q16 9 40 9q34 0 56 -22t22 -56q0 -38 -27.5 -60t-67.5 -22q-78 0 -94 61l66 17q4 -22 28 -22q25 0 25 25
q0 29 -28 29q-24 0 -45 -18z" />
    <glyph glyph-name="Tcaron" unicode="&#x164;" horiz-adv-x="592" 
d="M16 578v122h560v-122h-214v-578h-132v578h-214zM251 754l-113 157h99l59 -60l59 60h99l-113 -157h-90z" />
    <glyph glyph-name="tcaron" unicode="&#x165;" horiz-adv-x="374" 
d="M288 656v106h106v-108l-74 -108l-26 15l39 95h-45zM24 394v102h77v134h126v-134h108v-102h-108v-226q0 -70 63 -70q22 0 42 6l12 -104q-38 -14 -84 -14q-159 0 -159 158v250h-77z" />
    <glyph glyph-name="Tbar" unicode="&#x166;" horiz-adv-x="592" 
d="M16 578v122h560v-122h-214v-140h138v-94h-138v-344h-132v344h-138v94h138v140h-214z" />
    <glyph glyph-name="tbar" unicode="&#x167;" horiz-adv-x="374" 
d="M24 394v102h77v134h126v-134h108v-102h-108v-86h95v-96h-95v-44q0 -70 63 -70q22 0 42 6l12 -104q-38 -14 -84 -14q-159 0 -159 158v68h-65v96h65v86h-77z" />
    <glyph glyph-name="Utilde" unicode="&#x168;" horiz-adv-x="700" 
d="M637 700v-435q0 -131 -80 -205t-207 -74t-207 74t-80 205v435h132v-422q0 -81 41.5 -125.5t113.5 -44.5t113.5 44.5t41.5 125.5v422h132zM277 820q-10 0 -16.5 -6t-6.5 -16q0 -12 7 -26l-74 -15q-14 21 -14 53q0 43 30 67t68 24q31 0 56 -10.5t38 -22.5t28 -22.5
t30 -10.5q10 0 16.5 6t6.5 16q0 12 -7 26l74 15q14 -21 14 -53q0 -43 -30 -67t-68 -24q-32 0 -56.5 10.5t-37.5 22.5t-28 22.5t-30 10.5z" />
    <glyph glyph-name="utilde" unicode="&#x169;" 
d="M63 188v308h126v-279q0 -113 101 -113q52 0 83.5 38t31.5 98v256h126v-496h-126v78q-50 -92 -158 -92q-81 0 -132.5 53t-51.5 149zM224 616q-10 0 -16.5 -6t-6.5 -16q0 -12 7 -26l-74 -15q-14 21 -14 53q0 43 30 67t68 24q32 0 56.5 -10.5t37.5 -22.5t28.5 -22.5
t29.5 -10.5q10 0 16.5 6t6.5 16q0 12 -7 26l74 15q14 -21 14 -53q0 -43 -30 -67t-68 -24q-32 0 -56.5 10.5t-37.5 22.5t-28.5 22.5t-29.5 10.5z" />
    <glyph glyph-name="Umacron" unicode="&#x16a;" horiz-adv-x="700" 
d="M637 700v-435q0 -131 -80 -205t-207 -74t-207 74t-80 205v435h132v-422q0 -81 41.5 -125.5t113.5 -44.5t113.5 44.5t41.5 125.5v422h132zM226 792v94h248v-94h-248z" />
    <glyph glyph-name="umacron" unicode="&#x16b;" 
d="M63 188v308h126v-279q0 -113 101 -113q52 0 83.5 38t31.5 98v256h126v-496h-126v78q-50 -92 -158 -92q-81 0 -132.5 53t-51.5 149zM173 588v94h248v-94h-248z" />
    <glyph glyph-name="Ubreve" unicode="&#x16c;" horiz-adv-x="700" 
d="M637 700v-435q0 -131 -80 -205t-207 -74t-207 74t-80 205v435h132v-422q0 -81 41.5 -125.5t113.5 -44.5t113.5 44.5t41.5 125.5v422h132zM388 881h76q0 -49 -31.5 -81t-82.5 -32t-82.5 32t-31.5 81h76q0 -19 10 -31t28 -12t28 12t10 31z" />
    <glyph glyph-name="ubreve" unicode="&#x16d;" 
d="M63 188v308h126v-279q0 -113 101 -113q52 0 83.5 38t31.5 98v256h126v-496h-126v78q-50 -92 -158 -92q-81 0 -132.5 53t-51.5 149zM335 677h76q0 -49 -31.5 -81t-82.5 -32t-82.5 32t-31.5 81h76q0 -19 10 -31t28 -12t28 12t10 31z" />
    <glyph glyph-name="Uring" unicode="&#x16e;" horiz-adv-x="700" 
d="M637 700v-435q0 -131 -80 -205t-207 -74t-207 74t-80 205v435h132v-422q0 -81 41.5 -125.5t113.5 -44.5t113.5 44.5t41.5 125.5v422h132zM254 839q0 40 28 67.5t68 27.5t68 -27.5t28 -67.5t-28 -67.5t-68 -27.5t-68 27.5t-28 67.5zM317 839q0 -16 9 -25t24 -9t24 9t9 25
t-9 25t-24 9t-24 -9t-9 -25z" />
    <glyph glyph-name="uring" unicode="&#x16f;" 
d="M63 188v308h126v-279q0 -113 101 -113q52 0 83.5 38t31.5 98v256h126v-496h-126v78q-50 -92 -158 -92q-81 0 -132.5 53t-51.5 149zM201 635q0 40 28 67.5t68 27.5t68 -27.5t28 -67.5t-28 -67.5t-68 -27.5t-68 27.5t-28 67.5zM264 635q0 -16 9 -25t24 -9t24 9t9 25t-9 25
t-24 9t-24 -9t-9 -25z" />
    <glyph glyph-name="Uhungarumlaut" unicode="&#x170;" horiz-adv-x="700" 
d="M637 700v-435q0 -131 -80 -205t-207 -74t-207 74t-80 205v435h132v-422q0 -81 41.5 -125.5t113.5 -44.5t113.5 44.5t41.5 125.5v422h132zM188 754l68 158h153l-124 -158h-97zM377 754l68 158h153l-124 -158h-97z" />
    <glyph glyph-name="uhungarumlaut" unicode="&#x171;" 
d="M63 188v308h126v-279q0 -113 101 -113q52 0 83.5 38t31.5 98v256h126v-496h-126v78q-50 -92 -158 -92q-81 0 -132.5 53t-51.5 149zM130 550l68 158h153l-124 -158h-97zM319 550l68 158h153l-124 -158h-97z" />
    <glyph glyph-name="Uogonek" unicode="&#x172;" horiz-adv-x="700" 
d="M278 -104q0 50 43 90q-115 9 -186.5 82.5t-71.5 196.5v435h132v-422q0 -81 41.5 -125.5t113.5 -44.5t113.5 44.5t41.5 125.5v422h132v-435q0 -102 -50.5 -170.5t-136.5 -94.5q-72 -21 -72 -73q0 -19 10.5 -31t30.5 -12q9 0 22 2l11 -77q-26 -7 -60 -7q-45 0 -79.5 25
t-34.5 69z" />
    <glyph glyph-name="uogonek" unicode="&#x173;" 
d="M359 -104q0 61 59 104h-13v78q-50 -92 -158 -92q-81 0 -132.5 53t-51.5 149v308h126v-279q0 -113 101 -113q52 0 83.5 38t31.5 98v256h126v-496q-72 -40 -72 -78q0 -18 11.5 -28t29.5 -10q9 0 22 2l11 -77q-26 -7 -60 -7q-45 0 -79.5 25t-34.5 69z" />
    <glyph glyph-name="Wcircumflex" unicode="&#x174;" horiz-adv-x="942" 
d="M198 0l-193 700h139l111 -442q12 -51 17 -76l17 77l114 441h136l114 -441q12 -52 17 -77l17 76l111 442h139l-193 -700h-142l-131 508l-131 -508h-142zM313 754l113 157h90l113 -157h-99l-59 60l-59 -60h-99z" />
    <glyph glyph-name="wcircumflex" unicode="&#x175;" horiz-adv-x="714" 
d="M417 496l89 -332l80 332h122l-138 -496h-122l-91 341l-91 -341h-122l-138 496h122l80 -332l89 332h120zM199 550l113 157h90l113 -157h-99l-59 60l-59 -60h-99z" />
    <glyph glyph-name="Ycircumflex" unicode="&#x176;" horiz-adv-x="602" 
d="M367 0v274l231 426h-145l-130 -249q-13 -27 -22 -51l-22 51l-130 249h-145l231 -426v-274h132zM143 754l113 157h90l113 -157h-99l-59 60l-59 -60h-99z" />
    <glyph glyph-name="ycircumflex" unicode="&#x177;" horiz-adv-x="546" 
d="M72 -200l20 117q22 -12 45 -12q39 0 56 47l16 44l-204 500h143l128 -322l122 322h143l-236 -586q-26 -64 -65.5 -92.5t-98.5 -28.5q-41 0 -69 11zM115 550l113 157h90l113 -157h-99l-59 60l-59 -60h-99z" />
    <glyph glyph-name="Ydieresis" unicode="&#x178;" horiz-adv-x="602" 
d="M367 0v274l231 426h-145l-130 -249q-13 -27 -22 -51l-22 51l-130 249h-145l231 -426v-274h132zM332 780v124h118v-124h-118zM152 780v124h118v-124h-118z" />
    <glyph glyph-name="Zacute" unicode="&#x179;" horiz-adv-x="614" 
d="M48 578v122h512v-122l-366 -456h383v-122h-542v120l368 458h-355zM217 754l68 158h153l-124 -158h-97z" />
    <glyph glyph-name="zacute" unicode="&#x17a;" horiz-adv-x="496" 
d="M181 102h279v-102h-424v102l261 292h-250v102h396v-102zM158 550l68 158h153l-124 -158h-97z" />
    <glyph glyph-name="Zdotaccent" unicode="&#x17b;" horiz-adv-x="614" 
d="M48 578v122h512v-122l-366 -456h383v-122h-542v120l368 458h-355zM238 772v132h138v-132h-138z" />
    <glyph glyph-name="zdotaccent" unicode="&#x17c;" horiz-adv-x="496" 
d="M181 102h279v-102h-424v102l261 292h-250v102h396v-102zM179 568v132h138v-132h-138z" />
    <glyph glyph-name="Zcaron" unicode="&#x17d;" horiz-adv-x="614" 
d="M48 578v122h512v-122l-366 -456h383v-122h-542v120l368 458h-355zM262 754l-113 157h99l59 -60l59 60h99l-113 -157h-90z" />
    <glyph glyph-name="zcaron" unicode="&#x17e;" horiz-adv-x="496" 
d="M181 102h279v-102h-424v102l261 292h-250v102h396v-102zM203 550l-113 157h99l59 -60l59 60h99l-113 -157h-90z" />
    <glyph glyph-name="longs" unicode="&#x17f;" horiz-adv-x="342" 
d="M19 394v102h72v70q0 89 48.5 136.5t127.5 47.5q34 0 63 -11l-22 -111q-18 6 -35 6q-56 0 -56 -65v-569h-126v394h-72z" />
    <glyph glyph-name="uni018E" unicode="&#x18e;" horiz-adv-x="615" 
d="M542 700v-700h-483v118h351v161h-323v118h323v185h-354v118h486z" />
    <glyph glyph-name="uni018F" unicode="&#x18f;" horiz-adv-x="575" 
d="M37 278h382q-6 57 -43 90.5t-93 33.5q-91 0 -137 -91l-94 54q70 145 233 145q106 0 180.5 -73.5t74.5 -188.5q0 -116 -75.5 -189t-185.5 -73q-106 0 -174 69.5t-68 178.5v44zM283 82q49 0 85.5 29.5t50.5 74.5h-266q9 -49 43 -76.5t87 -27.5z" />
    <glyph glyph-name="florin" unicode="&#x192;" horiz-adv-x="353" 
d="M30 394v102h72v70q0 89 48.5 136.5t127.5 47.5q34 0 63 -11l-22 -111q-18 6 -35 6q-56 0 -56 -65v-73h108v-102h-108v-428q0 -90 -44.5 -137t-125.5 -47q-34 0 -63 11l22 113q17 -8 35 -8q50 0 50 62v434h-72z" />
    <glyph glyph-name="uni01B5" unicode="&#x1b5;" horiz-adv-x="614" 
d="M48 578v122h512v-122l-142 -177h127v-94h-203l-148 -185h383v-122h-542v120l150 187h-122v94h198l142 177h-355z" />
    <glyph glyph-name="uni01B6" unicode="&#x1b6;" horiz-adv-x="496" 
d="M64 210v96h154l79 88h-250v102h396v-102l-79 -88h68v-96h-154l-97 -108h279v-102h-424v102l96 108h-68z" />
    <glyph glyph-name="AEacute" unicode="&#x1fc;" horiz-adv-x="985" 
d="M443 0v183h-219l-81 -183h-138l320 700h601v-118h-351v-161h323v-118h-323v-185h354v-118h-486zM401 582l-125 -281h167v281h-42zM522 754l68 158h153l-124 -158h-97z" />
    <glyph glyph-name="aeacute" unicode="&#x1fd;" horiz-adv-x="915" 
d="M392 550l68 158h153l-124 -158h-97zM878 218h-382q6 -57 43 -90.5t93 -33.5q92 0 137 91l94 -54q-70 -145 -233 -145q-65 0 -120.5 30t-90.5 83q-28 -57 -80.5 -85t-111.5 -28q-82 0 -133 42.5t-51 112.5q0 78 61.5 123.5t168.5 45.5h97v13q0 51 -19 75t-72 24
q-43 0 -66 -16t-23 -40q0 -6 2 -12l-113 -38q-9 20 -9 42q0 61 54 106.5t144 45.5q131 0 185 -71q74 71 183 71q106 0 174 -69.5t68 -178.5v-44zM239 88q55 0 93 34.5t38 90.5v5h-105q-47 0 -73 -20.5t-26 -51.5q0 -27 20 -42.5t53 -15.5zM632 414q-49 0 -85.5 -29.5
t-50.5 -74.5h266q-9 49 -43 76.5t-87 27.5z" />
    <glyph glyph-name="Scommaaccent" unicode="&#x218;" horiz-adv-x="652" 
d="M272 -182v122h126v-122l-90 -132l-29 11l37 121h-44zM201 525q0 -40 40 -65.5t129 -43.5q116 -24 172.5 -76t56.5 -139q0 -89 -71.5 -152t-189.5 -63q-125 0 -199 61t-95 163l116 59q31 -167 177 -167q59 0 94.5 26t35.5 68q0 46 -41.5 72t-131.5 44q-101 20 -160 72.5
t-59 137.5q0 87 68 139.5t178 52.5q200 0 266 -180l-104 -60q-42 124 -165 124q-50 0 -83.5 -18.5t-33.5 -54.5z" />
    <glyph glyph-name="scommaaccent" unicode="&#x219;" horiz-adv-x="500" 
d="M205 -182v122h126v-122l-90 -132l-29 11l37 121h-44zM180 374q0 -46 117 -70q87 -18 126.5 -54.5t39.5 -98.5q0 -72 -53 -118.5t-143 -46.5q-86 0 -142.5 42t-84.5 107l101 64q17 -49 49.5 -78t78.5 -29q31 0 54.5 14.5t23.5 40.5q0 24 -25 38.5t-81 25.5
q-173 34 -173 155q0 67 54 105.5t131 38.5q79 0 126.5 -30t78.5 -95l-91 -54q-34 87 -112 87q-75 0 -75 -44z" />
    <glyph glyph-name="uni021A" unicode="&#x21a;" horiz-adv-x="592" 
d="M231 -182v122h126v-122l-90 -132l-29 11l37 121h-44zM16 578v122h560v-122h-214v-578h-132v578h-214z" />
    <glyph glyph-name="uni021B" unicode="&#x21b;" horiz-adv-x="374" 
d="M165 -182v122h126v-122l-90 -132l-29 11l37 121h-44zM24 394v102h77v134h126v-134h108v-102h-108v-226q0 -70 63 -70q22 0 42 6l12 -104q-38 -14 -84 -14q-159 0 -159 158v250h-77z" />
    <glyph glyph-name="circumflex" unicode="&#x2c6;" horiz-adv-x="408" 
d="M46 550l113 157h90l113 -157h-99l-59 60l-59 -60h-99z" />
    <glyph glyph-name="caron" unicode="&#x2c7;" horiz-adv-x="408" 
d="M159 550l-113 157h99l59 -60l59 60h99l-113 -157h-90z" />
    <glyph glyph-name="breve" unicode="&#x2d8;" horiz-adv-x="294" 
d="M185 677h76q0 -49 -31.5 -81t-82.5 -32t-82.5 32t-31.5 81h76q0 -19 10 -31t28 -12t28 12t10 31z" />
    <glyph glyph-name="dotaccent" unicode="&#x2d9;" horiz-adv-x="250" 
d="M56 568v132h138v-132h-138z" />
    <glyph glyph-name="ring" unicode="&#x2da;" horiz-adv-x="274" 
d="M41 635q0 40 28 67.5t68 27.5t68 -27.5t28 -67.5t-28 -67.5t-68 -27.5t-68 27.5t-28 67.5zM104 635q0 -16 9 -25t24 -9t24 9t9 25t-9 25t-24 9t-24 -9t-9 -25z" />
    <glyph glyph-name="ogonek" unicode="&#x2db;" horiz-adv-x="224" 
d="M28 -104q0 69 77 116l95 -12q-72 -40 -72 -78q0 -18 11.5 -28t29.5 -10q9 0 22 2l11 -77q-26 -7 -60 -7q-45 0 -79.5 25t-34.5 69z" />
    <glyph glyph-name="tilde" unicode="&#x2dc;" horiz-adv-x="470" 
d="M162 616q-10 0 -16.5 -6t-6.5 -16q0 -12 7 -26l-74 -15q-14 21 -14 53q0 43 30 67t68 24q32 0 56.5 -10.5t37.5 -22.5t28.5 -22.5t29.5 -10.5q10 0 16.5 6t6.5 16q0 12 -7 26l74 15q14 -21 14 -53q0 -43 -30 -67t-68 -24q-32 0 -56.5 10.5t-37.5 22.5t-28.5 22.5
t-29.5 10.5z" />
    <glyph glyph-name="hungarumlaut" unicode="&#x2dd;" horiz-adv-x="516" 
d="M53 550l68 158h153l-124 -158h-97zM242 550l68 158h153l-124 -158h-97z" />
    <glyph glyph-name="uni0374" unicode="&#x374;" horiz-adv-x="309" 
d="M50 420l63 288h146l-119 -288h-90z" />
    <glyph glyph-name="uni0375" unicode="&#x375;" horiz-adv-x="309" 
d="M259 130l-63 -288h-146l119 288h90z" />
    <glyph glyph-name="uni037A" unicode="&#x37a;" horiz-adv-x="235" 
d="M36 -73v53h106v-30q0 -53 45 -53q17 0 27 3v-89q-23 -9 -58 -9q-53 0 -86.5 30t-33.5 95z" />
    <glyph glyph-name="uni037E" unicode="&#x37e;" horiz-adv-x="214" 
d="M40 350v134h134v-134h-134zM40 0v134h134v-134l-101 -162l-29 11l41 151h-45z" />
    <glyph glyph-name="tonos" unicode="&#x384;" horiz-adv-x="300" 
d="M55 542l46 158h144l-102 -158h-88z" />
    <glyph glyph-name="dieresistonos" unicode="&#x385;" horiz-adv-x="494" 
d="M359 576v124h118v-124h-118zM17 576v124h118v-124h-118zM151 550l46 158h144l-102 -158h-88z" />
    <glyph glyph-name="Alphatonos" unicode="&#x386;" horiz-adv-x="702" 
d="M5 0l283 700h126l283 -700h-141l-70 183h-270l-70 -183h-141zM325 469l-64 -168h180l-64 168q-13 34 -26 76zM83 700l-46 -158h88l102 158h-144z" />
    <glyph glyph-name="anoteleia" unicode="&#x387;" horiz-adv-x="214" 
d="M40 300v134h134v-134h-134z" />
    <glyph glyph-name="Epsilontonos" unicode="&#x388;" horiz-adv-x="772" 
d="M230 0v700h483v-118h-351v-161h323v-118h-323v-185h354v-118h-486zM46 700l-46 -158h88l102 158h-144z" />
    <glyph glyph-name="Etatonos" unicode="&#x389;" horiz-adv-x="873" 
d="M230 0v700h132v-282h306v282h132v-700h-132v296h-306v-296h-132zM46 700l-46 -158h88l102 158h-144z" />
    <glyph glyph-name="Iotatonos" unicode="&#x38a;" horiz-adv-x="435" 
d="M230 0v700h132v-700h-132zM46 700l-46 -158h88l102 158h-144z" />
    <glyph glyph-name="Omicrontonos" unicode="&#x38c;" horiz-adv-x="864" 
d="M818 350q0 -157 -102.5 -260.5t-257.5 -103.5t-257.5 103.5t-102.5 260.5t102.5 260.5t257.5 103.5t257.5 -103.5t102.5 -260.5zM458 108q97 0 161.5 67t64.5 175q0 111 -64 176.5t-162 65.5t-162 -65.5t-64 -176.5t64 -176.5t162 -65.5zM46 700l-46 -158h88l102 158
h-144z" />
    <glyph glyph-name="Upsilontonos" unicode="&#x38e;" horiz-adv-x="808" 
d="M573 274v-274h-132v274l-231 426h145l130 -249q13 -27 22 -51l22 51l130 249h145zM0 542l46 158h144l-102 -158h-88z" />
    <glyph glyph-name="Omegatonos" unicode="&#x38f;" horiz-adv-x="850" 
d="M792 96v-96h-288v110q72 43 120 114.5t48 159.5q0 91 -59.5 149.5t-154.5 58.5t-154.5 -58.5t-59.5 -149.5q0 -88 48 -159.5t120 -114.5v-110h-288v96h138q-63 49 -106.5 124t-43.5 171q0 140 99 231.5t247 91.5t247 -91.5t99 -231.5q0 -96 -43.5 -171t-106.5 -124h138z
M46 700l-46 -158h88l102 158h-144z" />
    <glyph glyph-name="iotadieresistonos" unicode="&#x390;" horiz-adv-x="390" 
d="M82 144v352h126v-330q0 -68 60 -68q18 0 38 6l12 -104q-44 -14 -80 -14q-156 0 -156 158zM307 576v124h118v-124h-118zM-35 576v124h118v-124h-118zM99 550l46 158h144l-102 -158h-88z" />
    <glyph glyph-name="Alpha" unicode="&#x391;" horiz-adv-x="702" 
d="M5 0l283 700h126l283 -700h-141l-70 183h-270l-70 -183h-141zM325 469l-64 -168h180l-64 168q-13 34 -26 76z" />
    <glyph glyph-name="Beta" unicode="&#x392;" horiz-adv-x="660" 
d="M73 0v700h288q107 0 165.5 -45t58.5 -126q0 -51 -27.5 -89.5t-69.5 -59.5q126 -50 126 -170q0 -96 -71.5 -153t-176.5 -57h-293zM205 312v-194h153q124 0 124 97t-124 97h-153zM205 584v-156h146q55 0 80.5 19t25.5 59t-25.5 59t-80.5 19h-146z" />
    <glyph glyph-name="Gamma" unicode="&#x393;" horiz-adv-x="572" 
d="M73 0v700h483v-118h-351v-582h-132z" />
    <glyph glyph-name="uni0394" unicode="&#x394;" horiz-adv-x="702" 
d="M5 0l283 700h126l283 -700h-692zM325 469l-134 -351h320l-134 351q-13 34 -26 76z" />
    <glyph glyph-name="Epsilon" unicode="&#x395;" horiz-adv-x="615" 
d="M73 0v700h483v-118h-351v-161h323v-118h-323v-185h354v-118h-486z" />
    <glyph glyph-name="Zeta" unicode="&#x396;" horiz-adv-x="614" 
d="M48 578v122h512v-122l-366 -456h383v-122h-542v120l368 458h-355z" />
    <glyph glyph-name="Eta" unicode="&#x397;" horiz-adv-x="716" 
d="M73 0v700h132v-282h306v282h132v-700h-132v296h-306v-296h-132z" />
    <glyph glyph-name="Theta" unicode="&#x398;" horiz-adv-x="704" 
d="M658 350q0 -159 -81.5 -261.5t-224.5 -102.5t-224.5 102.5t-81.5 261.5t81.5 261.5t224.5 102.5t224.5 -102.5t81.5 -261.5zM352 108q72 0 115 48t54 136h-338q11 -88 53.5 -136t115.5 -48zM352 592q-73 0 -115.5 -48t-53.5 -136h338q-11 88 -54 136t-115 48z" />
    <glyph glyph-name="Iota" unicode="&#x399;" horiz-adv-x="278" 
d="M73 0v700h132v-700h-132z" />
    <glyph glyph-name="Kappa" unicode="&#x39a;" horiz-adv-x="658" 
d="M623 700l-248 -260l264 -440h-154l-205 342l-75 -79v-263h-132v700h132v-275l55 62l202 213h161z" />
    <glyph glyph-name="Lambda" unicode="&#x39b;" horiz-adv-x="665" 
d="M5 0l261 700h134l260 -700h-147l-154 448q-15 52 -26 89l-26 -89l-155 -448h-147z" />
    <glyph glyph-name="Mu" unicode="&#x39c;" horiz-adv-x="870" 
d="M73 0v700h139l223 -556l223 556h139v-700h-128v428l-34 -107l-137 -321h-126l-137 321q-28 89 -34 107v-428h-128z" />
    <glyph glyph-name="Nu" unicode="&#x39d;" horiz-adv-x="730" 
d="M73 0v700h134l292 -445q24 -40 30 -55v500h128v-700h-134l-292 448q-24 40 -30 55v-503h-128z" />
    <glyph glyph-name="Xi" unicode="&#x39e;" horiz-adv-x="612" 
d="M553 582h-494v118h494v-118zM56 118h500v-118h-500v118zM525 303h-438v118h438v-118z" />
    <glyph glyph-name="Omicron" unicode="&#x39f;" horiz-adv-x="812" 
d="M766 350q0 -157 -102.5 -260.5t-257.5 -103.5t-257.5 103.5t-102.5 260.5t102.5 260.5t257.5 103.5t257.5 -103.5t102.5 -260.5zM406 108q97 0 161.5 67t64.5 175q0 111 -64 176.5t-162 65.5t-162 -65.5t-64 -176.5t64 -176.5t162 -65.5z" />
    <glyph glyph-name="Pi" unicode="&#x3a0;" horiz-adv-x="691" 
d="M73 0v700h545v-700h-132v578h-281v-578h-132z" />
    <glyph glyph-name="Rho" unicode="&#x3a1;" horiz-adv-x="698" 
d="M73 0v700h318q121 0 191.5 -59.5t70.5 -168.5t-70.5 -168.5t-191.5 -59.5h-186v-244h-132zM205 582v-220h182q67 0 100.5 29.5t33.5 80.5t-33.5 80.5t-100.5 29.5h-182z" />
    <glyph glyph-name="Sigma" unicode="&#x3a3;" horiz-adv-x="596" 
d="M233 350l-185 228v122h502v-122h-346l181 -228l-189 -228h365v-122h-521v122z" />
    <glyph glyph-name="Tau" unicode="&#x3a4;" horiz-adv-x="592" 
d="M16 578v122h560v-122h-214v-578h-132v578h-214z" />
    <glyph glyph-name="Upsilon" unicode="&#x3a5;" horiz-adv-x="602" 
d="M367 274v-274h-132v274l-231 426h145l130 -249q13 -27 22 -51l22 51l130 249h145z" />
    <glyph glyph-name="Phi" unicode="&#x3a6;" horiz-adv-x="814" 
d="M475 58v-58h-136v58h-4q-117 0 -205.5 78.5t-88.5 213.5t88.5 213.5t205.5 78.5h4v58h136v-58h4q117 0 205.5 -78.5t88.5 -213.5t-88.5 -213.5t-205.5 -78.5h-4zM475 530v-360h9q67 0 115 48.5t48 131.5t-48 131.5t-115 48.5h-9zM339 170v360h-9q-67 0 -115 -48.5
t-48 -131.5t48 -131.5t115 -48.5h9z" />
    <glyph glyph-name="Chi" unicode="&#x3a7;" horiz-adv-x="617" 
d="M177 700l131 -218l138 218h134l-199 -319l232 -381h-141l-164 270l-163 -270h-142l234 376l-201 324h141z" />
    <glyph glyph-name="Psi" unicode="&#x3a8;" horiz-adv-x="794" 
d="M331 0v160q-131 0 -200.5 72.5t-69.5 213.5v254h132v-250q0 -84 36 -129t102 -45v424h132v-424q66 0 102 45t36 129v250h132v-254q0 -141 -69.5 -213.5t-200.5 -72.5v-160h-132z" />
    <glyph glyph-name="uni03A9" unicode="&#x3a9;" horiz-adv-x="784" 
d="M726 96v-96h-288v110q72 43 120 114.5t48 159.5q0 91 -59.5 149.5t-154.5 58.5t-154.5 -58.5t-59.5 -149.5q0 -88 48 -159.5t120 -114.5v-110h-288v96h138q-63 49 -106.5 124t-43.5 171q0 140 99 231.5t247 91.5t247 -91.5t99 -231.5q0 -96 -43.5 -171t-106.5 -124h138z
" />
    <glyph glyph-name="Iotadieresis" unicode="&#x3aa;" horiz-adv-x="278" 
d="M73 0v700h132v-700h-132zM170 780v124h118v-124h-118zM-10 780v124h118v-124h-118z" />
    <glyph glyph-name="Upsilondieresis" unicode="&#x3ab;" horiz-adv-x="602" 
d="M367 0v274l231 426h-145l-130 -249q-13 -27 -22 -51l-22 51l-130 249h-145l231 -426v-274h132zM332 780v124h118v-124h-118zM152 780v124h118v-124h-118z" />
    <glyph glyph-name="alphatonos" unicode="&#x3ac;" horiz-adv-x="687" 
d="M604 96q19 0 38 13l26 -109q-40 -14 -75 -14q-95 0 -133 88q-59 -88 -168 -88q-110 0 -183.5 72.5t-73.5 189.5q0 118 72 190t168 72q120 0 185 -84l13 70h128l-55 -287q10 -113 58 -113zM299 392q-60 0 -98 -41t-38 -103t38 -103t98 -41t98 41t38 103t-38 103t-98 41z
M249 542l46 158h144l-102 -158h-88z" />
    <glyph glyph-name="epsilontonos" unicode="&#x3ad;" horiz-adv-x="487" 
d="M276 308v-87q-52 0 -82.5 -18t-30.5 -52q0 -31 24 -49t61 -18t58.5 16t21.5 45q0 14 -5 27l108 36q16 -25 16 -61q0 -80 -52.5 -120.5t-149.5 -40.5t-150.5 45t-53.5 115q0 86 95 122q-73 36 -73 112q0 57 51.5 93.5t137.5 36.5q87 0 132.5 -37.5t45.5 -98.5
q0 -32 -15 -58l-99 36q3 8 3 18q0 24 -21 37t-48 13q-33 0 -54 -14t-21 -38q0 -60 101 -60zM188 542l46 158h144l-102 -158h-88z" />
    <glyph glyph-name="etatonos" unicode="&#x3ae;" 
d="M531 338v-542h-126v490q0 106 -101 106q-50 0 -82.5 -39t-32.5 -101v-252h-126v496h126v-80q61 94 168 94q79 0 126.5 -47t47.5 -125zM243 542l46 158h144l-102 -158h-88z" />
    <glyph glyph-name="iotatonos" unicode="&#x3af;" horiz-adv-x="323" 
d="M62 144v352h126v-330q0 -68 60 -68q18 0 38 6l12 -104q-44 -14 -80 -14q-156 0 -156 158zM80 542l46 158h144l-102 -158h-88z" />
    <glyph glyph-name="upsilondieresistonos" unicode="&#x3b0;" horiz-adv-x="582" 
d="M63 215v281h126v-279q0 -54 26.5 -83.5t75.5 -29.5t75.5 29.5t26.5 83.5v279h126v-281q0 -112 -62 -170.5t-166 -58.5t-166 58.5t-62 170.5zM403 576v124h118v-124h-118zM61 576v124h118v-124h-118zM195 550l46 158h144l-102 -158h-88z" />
    <glyph glyph-name="alpha" unicode="&#x3b1;" horiz-adv-x="687" 
d="M604 96q19 0 38 13l26 -109q-40 -14 -75 -14q-95 0 -133 88q-59 -88 -168 -88q-110 0 -183.5 72.5t-73.5 189.5q0 118 72 190t168 72q120 0 185 -84l13 70h128l-55 -287q10 -113 58 -113zM299 392q-60 0 -98 -41t-38 -103t38 -103t98 -41t98 41t38 103t-38 103t-98 41z
" />
    <glyph glyph-name="beta" unicode="&#x3b2;" horiz-adv-x="588" 
d="M337 -14q-98 0 -148 67v-257h-126v700q0 106 63 162t155 56q97 0 154.5 -47.5t57.5 -125.5q0 -101 -99 -149q67 -24 110 -72t43 -122q0 -92 -59.5 -152t-150.5 -60zM232 326v110h30q51 0 79.5 23t28.5 67q0 34 -23 56t-64 22t-67.5 -27.5t-26.5 -79.5v-266
q0 -65 35.5 -100t87.5 -35q48 0 78.5 28t30.5 80q0 62 -45 92t-113 30h-31z" />
    <glyph glyph-name="gamma" unicode="&#x3b3;" horiz-adv-x="548" 
d="M211 -204v214l-197 486h137l123 -336l123 336h137l-197 -486v-214h-126z" />
    <glyph glyph-name="delta" unicode="&#x3b4;" horiz-adv-x="578" 
d="M255 602l165 -146q59 -52 88 -103.5t29 -128.5q0 -105 -73.5 -171.5t-175.5 -66.5q-104 0 -175.5 63t-71.5 175q0 97 65 161t160 71l-191 168v76h370v-98h-190zM288 94q56 0 92.5 35.5t36.5 94.5q0 58 -37.5 94t-91.5 36t-91.5 -36t-37.5 -94q0 -59 36.5 -94.5
t92.5 -35.5z" />
    <glyph glyph-name="epsilon" unicode="&#x3b5;" horiz-adv-x="487" 
d="M276 308v-87q-52 0 -82.5 -18t-30.5 -52q0 -31 24 -49t61 -18t58.5 16t21.5 45q0 14 -5 27l108 36q16 -25 16 -61q0 -80 -52.5 -120.5t-149.5 -40.5t-150.5 45t-53.5 115q0 86 95 122q-73 36 -73 112q0 57 51.5 93.5t137.5 36.5q87 0 132.5 -37.5t45.5 -98.5
q0 -32 -15 -58l-99 36q3 8 3 18q0 24 -21 37t-48 13q-33 0 -54 -14t-21 -38q0 -60 101 -60z" />
    <glyph glyph-name="zeta" unicode="&#x3b6;" horiz-adv-x="511" 
d="M437 -144l-89 71q16 20 16 36q0 37 -53 37q-270 0 -270 239q0 113 72.5 207.5t175.5 151.5h-236v102h368v-102q-110 -57 -182 -148.5t-72 -180.5q0 -151 169 -153q76 -1 116 -37.5t40 -102.5q0 -58 -55 -120z" />
    <glyph glyph-name="eta" unicode="&#x3b7;" 
d="M531 338v-542h-126v490q0 106 -101 106q-50 0 -82.5 -39t-32.5 -101v-252h-126v496h126v-80q61 94 168 94q79 0 126.5 -47t47.5 -125z" />
    <glyph glyph-name="theta" unicode="&#x3b8;" horiz-adv-x="640" 
d="M599 350q0 -173 -75.5 -268.5t-203.5 -95.5t-203.5 95.5t-75.5 268.5q0 171 78 267.5t201 96.5t201 -96.5t78 -267.5zM320 596q-130 0 -147 -188h294q-17 188 -147 188zM320 104q130 0 147 188h-294q17 -188 147 -188z" />
    <glyph glyph-name="iota" unicode="&#x3b9;" horiz-adv-x="323" 
d="M63 144v352h126v-330q0 -68 60 -68q18 0 38 6l12 -104q-44 -14 -80 -14q-156 0 -156 158z" />
    <glyph glyph-name="kappa" unicode="&#x3ba;" horiz-adv-x="541" 
d="M189 496v-158l151 158h156l-186 -190l210 -306h-145l-152 217l-34 -35v-182h-126v496h126z" />
    <glyph glyph-name="lambda" unicode="&#x3bb;" horiz-adv-x="546" 
d="M92 580l-20 115q31 12 69 12q59 0 98.5 -28.5t65.5 -92.5l236 -586h-143l-122 322l-128 -322h-143l204 500l-16 44q-17 48 -56 48q-23 0 -45 -12z" />
    <glyph glyph-name="uni03BC" unicode="&#x3bc;" 
d="M63 -204v700h126v-279q0 -113 101 -113q52 0 83.5 38t31.5 98v256h126v-496h-126v78q-50 -92 -158 -92q-33 0 -61 9q3 -57 3 -68v-131h-126z" />
    <glyph glyph-name="nu" unicode="&#x3bd;" horiz-adv-x="534" 
d="M527 496l-201 -496h-118l-201 496h134l126 -336l126 336h134z" />
    <glyph glyph-name="xi" unicode="&#x3be;" horiz-adv-x="548" 
d="M497 -20q0 -45 -18.5 -75t-55.5 -62l-76 69q18 20 18 37q0 20 -14 28.5t-46 8.5q-117 0 -190 58t-73 151q0 74 39.5 120t96.5 69q-43 22 -73 62t-30 93q0 77 60.5 126t163.5 49q110 0 164 -46.5t54 -124.5q0 -34 -13 -64l-119 26q6 16 6 34q0 32 -24 49.5t-69 17.5
q-43 0 -69 -22.5t-26 -61.5q0 -46 39 -72.5t111 -26.5v-98q-80 0 -129.5 -29.5t-49.5 -85.5q0 -53 44 -82.5t127 -29.5q70 0 111 -32t41 -86z" />
    <glyph glyph-name="omicron" unicode="&#x3bf;" horiz-adv-x="612" 
d="M577 248q0 -123 -80.5 -192.5t-190.5 -69.5t-190.5 69.5t-80.5 192.5t80.5 192.5t190.5 69.5t190.5 -69.5t80.5 -192.5zM306 104q58 0 100.5 39.5t42.5 104.5t-42.5 104.5t-100.5 39.5t-100.5 -39.5t-42.5 -104.5t42.5 -104.5t100.5 -39.5z" />
    <glyph glyph-name="pi" unicode="&#x3c0;" horiz-adv-x="682" 
d="M255 0h-126v394h-104v102h627v-102h-104v-230q0 -66 54 -66q19 0 37 6l12 -104q-39 -14 -85 -14q-66 0 -105 40.5t-39 117.5v250h-167v-394z" />
    <glyph glyph-name="rho" unicode="&#x3c1;" horiz-adv-x="624" 
d="M63 -204v452q0 122 72.5 192t189.5 70q118 0 191 -70t73 -192q0 -117 -69 -189.5t-174 -72.5q-47 0 -89.5 20t-67.5 52v-262h-126zM325 392q-60 0 -98 -41t-38 -103t38 -103t98 -41t98 41t38 103t-38 103t-98 41z" />
    <glyph glyph-name="sigma1" unicode="&#x3c2;" horiz-adv-x="555" 
d="M325 96q76 -15 111 -44t35 -88q0 -74 -88 -136l-79 79q24 21 24 44q0 30 -39 36q-107 15 -180.5 83.5t-73.5 184.5q0 111 76.5 183t184.5 72q88 0 145 -38t82 -100l-103 -68q-41 88 -129 88q-55 0 -91.5 -38t-36.5 -97q0 -65 43.5 -105.5t118.5 -55.5z" />
    <glyph glyph-name="sigma" unicode="&#x3c3;" horiz-adv-x="639" 
d="M577 248q0 -123 -80.5 -192.5t-190.5 -69.5t-190.5 69.5t-80.5 192.5q0 124 82 193t199 69h298v-94h-110q73 -67 73 -168zM306 104q58 0 100.5 39.5t42.5 104.5t-42.5 104.5t-100.5 39.5t-100.5 -39.5t-42.5 -104.5t42.5 -104.5t100.5 -39.5z" />
    <glyph glyph-name="tau" unicode="&#x3c4;" horiz-adv-x="459" 
d="M18 394v102h412v-102h-143v-226q0 -70 67 -70q24 0 47 7l13 -105q-39 -14 -85 -14q-73 0 -120.5 36.5t-47.5 121.5v250h-143z" />
    <glyph glyph-name="upsilon" unicode="&#x3c5;" horiz-adv-x="582" 
d="M63 215v281h126v-279q0 -54 26.5 -83.5t75.5 -29.5t75.5 29.5t26.5 83.5v279h126v-281q0 -112 -62 -170.5t-166 -58.5t-166 58.5t-62 170.5z" />
    <glyph glyph-name="phi" unicode="&#x3c6;" horiz-adv-x="736" 
d="M431 0v-204h-126v204h-11q-105 0 -182 68t-77 180q0 116 73.5 182t196.5 66h126q123 0 196.5 -66t73.5 -182q0 -112 -77 -180t-182 -68h-11zM161 248q0 -70 41.5 -106t102.5 -36v284q-61 0 -102.5 -36t-41.5 -106zM575 248q0 70 -41.5 106t-102.5 36v-284q61 0 102.5 36
t41.5 106z" />
    <glyph glyph-name="chi" unicode="&#x3c7;" horiz-adv-x="567" 
d="M41 -204l191 370l-91 195q-15 32 -38 32q-21 0 -41 -15l-40 86q43 39 102 39q87 0 121 -77l54 -121l90 191h132l-161 -328l103 -221q11 -25 22 -35t30 -10q18 0 38 13l28 -103q-35 -23 -86 -23q-54 0 -86.5 23t-56.5 79l-60 139l-114 -234h-137z" />
    <glyph glyph-name="psi" unicode="&#x3c8;" horiz-adv-x="702" 
d="M414 -14v-190h-126v190q-105 0 -165 57t-60 165v288h126v-288q0 -109 99 -109v397h126v-397q99 0 99 109v288h126v-288q0 -108 -60 -165t-165 -57z" />
    <glyph glyph-name="omega" unicode="&#x3c9;" horiz-adv-x="818" 
d="M571 457l112 53q79 -116 79 -282q0 -110 -52 -176t-145 -66q-116 0 -156 104q-40 -104 -156 -104q-93 0 -145 66t-52 176q0 166 79 282l112 -53q-34 -64 -49.5 -116t-15.5 -117t22 -96.5t59 -31.5q38 0 60.5 28.5t22.5 82.5v153h126v-153q0 -54 22.5 -82.5t60.5 -28.5
q37 0 59 31.5t22 96.5t-15.5 117t-49.5 116z" />
    <glyph glyph-name="iotadieresis" unicode="&#x3ca;" horiz-adv-x="323" 
d="M63 144v352h126v-330q0 -68 60 -68q18 0 38 6l12 -104q-44 -14 -80 -14q-156 0 -156 158zM158 576v124h118v-124h-118zM-22 576v124h118v-124h-118z" />
    <glyph glyph-name="upsilondieresis" unicode="&#x3cb;" horiz-adv-x="582" 
d="M63 215v281h126v-279q0 -54 26.5 -83.5t75.5 -29.5t75.5 29.5t26.5 83.5v279h126v-281q0 -112 -62 -170.5t-166 -58.5t-166 58.5t-62 170.5zM322 576v124h118v-124h-118zM142 576v124h118v-124h-118z" />
    <glyph glyph-name="omicrontonos" unicode="&#x3cc;" horiz-adv-x="612" 
d="M577 248q0 -123 -80.5 -192.5t-190.5 -69.5t-190.5 69.5t-80.5 192.5t80.5 192.5t190.5 69.5t190.5 -69.5t80.5 -192.5zM306 104q58 0 100.5 39.5t42.5 104.5t-42.5 104.5t-100.5 39.5t-100.5 -39.5t-42.5 -104.5t42.5 -104.5t100.5 -39.5zM251 542l46 158h144l-102 -158
h-88z" />
    <glyph glyph-name="upsilontonos" unicode="&#x3cd;" horiz-adv-x="582" 
d="M63 215v281h126v-279q0 -54 26.5 -83.5t75.5 -29.5t75.5 29.5t26.5 83.5v279h126v-281q0 -112 -62 -170.5t-166 -58.5t-166 58.5t-62 170.5zM236 542l46 158h144l-102 -158h-88z" />
    <glyph glyph-name="omegatonos" unicode="&#x3ce;" horiz-adv-x="818" 
d="M571 457l112 53q79 -116 79 -282q0 -110 -52 -176t-145 -66q-116 0 -156 104q-40 -104 -156 -104q-93 0 -145 66t-52 176q0 166 79 282l112 -53q-34 -64 -49.5 -116t-15.5 -117t22 -96.5t59 -31.5q38 0 60.5 28.5t22.5 82.5v153h126v-153q0 -54 22.5 -82.5t60.5 -28.5
q37 0 59 31.5t22 96.5t-15.5 117t-49.5 116zM354 542l46 158h144l-102 -158h-88z" />
    <glyph glyph-name="uni0400" unicode="&#x400;" horiz-adv-x="615" 
d="M73 0v700h483v-118h-351v-161h323v-118h-323v-185h354v-118h-486zM330 912l68 -158h-97l-124 158h153z" />
    <glyph glyph-name="uni0401" unicode="&#x401;" horiz-adv-x="615" 
d="M73 0v700h483v-118h-351v-161h323v-118h-323v-185h354v-118h-486zM348 780v124h118v-124h-118zM168 780v124h118v-124h-118z" />
    <glyph glyph-name="uni0402" unicode="&#x402;" horiz-adv-x="762" 
d="M16 578v122h544v-122h-214v-166h126q118 0 183.5 -54t65.5 -157q0 -98 -63 -153t-165 -55q-49 0 -92 12l18 107q31 -13 70 -13q50 0 80 25t30 78q0 49 -38.5 74.5t-110.5 25.5h-104v-302h-132v578h-198z" />
    <glyph glyph-name="uni0403" unicode="&#x403;" horiz-adv-x="572" 
d="M73 0v700h483v-118h-351v-582h-132zM244 754l68 158h153l-124 -158h-97z" />
    <glyph glyph-name="uni0404" unicode="&#x404;" horiz-adv-x="753" 
d="M556 412v-110h-373q13 -92 70.5 -143t142.5 -51q133 0 204 147l105 -68q-99 -201 -313 -201q-154 0 -250 100.5t-96 263.5q0 162 97.5 263t249.5 101q119 0 193.5 -49t117.5 -146l-114 -67q-62 140 -195 140q-79 0 -135.5 -47.5t-73.5 -132.5h370z" />
    <glyph glyph-name="uni0405" unicode="&#x405;" horiz-adv-x="652" 
d="M201 525q0 -40 40 -65.5t129 -43.5q116 -24 172.5 -76t56.5 -139q0 -89 -71.5 -152t-189.5 -63q-125 0 -199 61t-95 163l116 59q31 -167 177 -167q59 0 94.5 26t35.5 68q0 46 -41.5 72t-131.5 44q-101 20 -160 72.5t-59 137.5q0 87 68 139.5t178 52.5q200 0 266 -180
l-104 -60q-42 124 -165 124q-50 0 -83.5 -18.5t-33.5 -54.5z" />
    <glyph glyph-name="uni0406" unicode="&#x406;" horiz-adv-x="278" 
d="M73 0v700h132v-700h-132z" />
    <glyph glyph-name="uni0407" unicode="&#x407;" horiz-adv-x="278" 
d="M73 0v700h132v-700h-132zM170 780v124h118v-124h-118zM-10 780v124h118v-124h-118z" />
    <glyph glyph-name="uni0408" unicode="&#x408;" horiz-adv-x="555" 
d="M500 700v-486q0 -102 -60.5 -165t-168.5 -63t-168.5 62.5t-60.5 175.5l132 -14q2 -102 97 -102q47 0 72 29.5t25 78.5v484h132z" />
    <glyph glyph-name="uni0409" unicode="&#x409;" horiz-adv-x="1062" 
d="M475 0v582h-153l-51 -457q-7 -62 -46 -97t-96 -35q-59 0 -97 14l24 121q20 -11 43 -11q40 0 45 42l61 541h402v-272h163q110 0 178 -56.5t68 -156.5q0 -101 -68 -158t-178 -57h-295zM607 312v-194h153q124 0 124 97t-124 97h-153z" />
    <glyph glyph-name="uni040A" unicode="&#x40a;" horiz-adv-x="1058" 
d="M73 0v700h132v-282h266v282h132v-282h163q110 0 178 -55.5t68 -155.5q0 -99 -67.5 -153t-178.5 -54h-295v296h-266v-296h-132zM603 296v-178h153q124 0 124 89t-124 89h-153z" />
    <glyph glyph-name="uni040B" unicode="&#x40b;" horiz-adv-x="754" 
d="M691 293v-293h-126v244q0 50 -25.5 78t-74.5 28q-53 0 -87.5 -39t-34.5 -101v-210h-132v578h-195v122h560v-122h-233v-202q59 92 172 92q81 0 128.5 -47.5t47.5 -127.5z" />
    <glyph glyph-name="uni040C" unicode="&#x40c;" horiz-adv-x="658" 
d="M623 700l-248 -260l264 -440h-154l-205 342l-75 -79v-263h-132v700h132v-270l55 62l196 208h167zM249 754l68 158h153l-124 -158h-97z" />
    <glyph glyph-name="uni040D" unicode="&#x40d;" horiz-adv-x="730" 
d="M657 700v-700h-128v503l-30 -55l-292 -448h-134v700h128v-500l30 55l292 445h134zM370 912l68 -158h-97l-124 158h153z" />
    <glyph glyph-name="uni040E" unicode="&#x40e;" horiz-adv-x="570" 
d="M86 0l26 134q18 -12 39 -12q34 0 49 35l33 83l-224 460h151l138 -298l119 298h138l-247 -609q-42 -105 -143 -105q-39 0 -79 14zM332 881h76q0 -49 -31.5 -81t-82.5 -32t-82.5 32t-31.5 81h76q0 -19 10 -31t28 -12t28 12t10 31z" />
    <glyph glyph-name="uni040F" unicode="&#x40f;" horiz-adv-x="691" 
d="M73 0v700h132v-578h281v578h132v-700h-211v-116h-123v116h-211z" />
    <glyph glyph-name="uni0410" unicode="&#x410;" horiz-adv-x="702" 
d="M5 0l283 700h126l283 -700h-141l-70 183h-270l-70 -183h-141zM325 469l-64 -168h180l-64 168q-13 34 -26 76z" />
    <glyph glyph-name="uni0411" unicode="&#x411;" horiz-adv-x="660" 
d="M205 312v-194h153q124 0 124 97t-124 97h-153zM368 428q110 0 178 -56.5t68 -156.5q0 -101 -68 -158t-178 -57h-295v700h458v-116h-326v-156h163z" />
    <glyph glyph-name="uni0412" unicode="&#x412;" horiz-adv-x="660" 
d="M73 0v700h288q107 0 165.5 -45t58.5 -126q0 -51 -27.5 -89.5t-69.5 -59.5q126 -50 126 -170q0 -96 -71.5 -153t-176.5 -57h-293zM205 312v-194h153q124 0 124 97t-124 97h-153zM205 584v-156h146q55 0 80.5 19t25.5 59t-25.5 59t-80.5 19h-146z" />
    <glyph glyph-name="uni0413" unicode="&#x413;" horiz-adv-x="572" 
d="M73 0v700h483v-118h-351v-582h-132z" />
    <glyph glyph-name="uni0414" unicode="&#x414;" horiz-adv-x="711" 
d="M138 0v-116h-123v234h59q31 64 48 130.5t29 170.5l33 281h440v-582h50v-234h-123v116h-413zM492 118v464h-188l-19 -160q-14 -114 -28 -173.5t-42 -130.5h277z" />
    <glyph glyph-name="uni0415" unicode="&#x415;" horiz-adv-x="615" 
d="M73 0v700h483v-118h-351v-161h323v-118h-323v-185h354v-118h-486z" />
    <glyph glyph-name="uni0416" unicode="&#x416;" horiz-adv-x="1020" 
d="M982 700l-244 -261l263 -439h-154l-201 341l-70 -75v-266h-132v266l-70 75l-201 -341h-154l263 439l-244 261h163l188 -206q33 -37 55 -62v268h132v-268l55 62l188 206h163z" />
    <glyph glyph-name="uni0417" unicode="&#x417;" horiz-adv-x="591" 
d="M61 262l125 -30q-4 -12 -4 -29q0 -48 31.5 -74.5t86.5 -26.5q51 0 82 28t31 81q0 58 -46.5 86t-126.5 28v98q71 0 107.5 26.5t36.5 74.5q0 37 -24.5 58.5t-68.5 21.5t-70 -21.5t-26 -57.5q0 -20 6 -34l-122 -27q-10 27 -10 55q0 81 59.5 138t162.5 57q105 0 163 -48
t58 -124q0 -54 -29 -95.5t-74 -61.5q60 -20 98 -64.5t38 -111.5q0 -102 -67.5 -162.5t-177.5 -60.5q-118 0 -184 61.5t-66 149.5q0 38 11 65z" />
    <glyph glyph-name="uni0418" unicode="&#x418;" horiz-adv-x="730" 
d="M657 700v-700h-128v503l-30 -55l-292 -448h-134v700h128v-500l30 55l292 445h134z" />
    <glyph glyph-name="uni0419" unicode="&#x419;" horiz-adv-x="730" 
d="M657 700v-700h-128v503l-30 -55l-292 -448h-134v700h128v-500l30 55l292 445h134zM403 881h76q0 -49 -31.5 -81t-82.5 -32t-82.5 32t-31.5 81h76q0 -19 10 -31t28 -12t28 12t10 31z" />
    <glyph glyph-name="uni041A" unicode="&#x41a;" horiz-adv-x="658" 
d="M623 700l-248 -260l264 -440h-154l-205 342l-75 -79v-263h-132v700h132v-270l55 62l196 208h167z" />
    <glyph glyph-name="uni041B" unicode="&#x41b;" horiz-adv-x="722" 
d="M32 7l24 121q20 -11 43 -11q40 0 45 42l61 541h444v-700h-132v582h-195l-51 -457q-7 -62 -46 -97t-96 -35q-59 0 -97 14z" />
    <glyph glyph-name="uni041C" unicode="&#x41c;" horiz-adv-x="870" 
d="M73 0v700h139l223 -556l223 556h139v-700h-128v428l-34 -107l-137 -321h-126l-137 321q-28 89 -34 107v-428h-128z" />
    <glyph glyph-name="uni041D" unicode="&#x41d;" horiz-adv-x="716" 
d="M73 0v700h132v-282h306v282h132v-700h-132v296h-306v-296h-132z" />
    <glyph glyph-name="uni041E" unicode="&#x41e;" horiz-adv-x="812" 
d="M766 350q0 -157 -102.5 -260.5t-257.5 -103.5t-257.5 103.5t-102.5 260.5t102.5 260.5t257.5 103.5t257.5 -103.5t102.5 -260.5zM406 108q98 0 162 65.5t64 176.5t-64 176.5t-162 65.5t-162 -65.5t-64 -176.5t64 -176.5t162 -65.5z" />
    <glyph glyph-name="uni041F" unicode="&#x41f;" horiz-adv-x="691" 
d="M73 0v700h545v-700h-132v578h-281v-578h-132z" />
    <glyph glyph-name="uni0420" unicode="&#x420;" horiz-adv-x="698" 
d="M73 0v700h318q121 0 191.5 -59.5t70.5 -168.5t-70.5 -168.5t-191.5 -59.5h-186v-244h-132zM205 582v-220h182q67 0 100.5 29.5t33.5 80.5t-33.5 80.5t-100.5 29.5h-182z" />
    <glyph glyph-name="uni0421" unicode="&#x421;" horiz-adv-x="768" 
d="M617 248l103 -74q-66 -101 -136 -144.5t-180 -43.5q-156 0 -257 101t-101 263q0 161 103.5 262.5t259.5 101.5q107 0 189 -50.5t118 -132.5l-107 -77q-65 138 -204 138q-95 0 -160 -66.5t-65 -175.5q0 -106 65 -174t160 -68q137 0 212 140z" />
    <glyph glyph-name="uni0422" unicode="&#x422;" horiz-adv-x="592" 
d="M16 578v122h560v-122h-214v-578h-132v578h-214z" />
    <glyph glyph-name="uni0423" unicode="&#x423;" horiz-adv-x="570" 
d="M86 0l26 134q18 -12 39 -12q34 0 49 35l33 83l-224 460h151l138 -298l119 298h138l-247 -609q-42 -105 -143 -105q-39 0 -79 14z" />
    <glyph glyph-name="uni0424" unicode="&#x424;" horiz-adv-x="814" 
d="M475 58v-58h-136v58h-4q-117 0 -205.5 78.5t-88.5 213.5t88.5 213.5t205.5 78.5h4v58h136v-58h4q117 0 205.5 -78.5t88.5 -213.5t-88.5 -213.5t-205.5 -78.5h-4zM475 530v-360h9q67 0 115 48.5t48 131.5t-48 131.5t-115 48.5h-9zM339 170v360h-9q-67 0 -115 -48.5
t-48 -131.5t48 -131.5t115 -48.5h9z" />
    <glyph glyph-name="uni0425" unicode="&#x425;" horiz-adv-x="617" 
d="M175 700l133 -222l140 222h134l-200 -319l231 -381h-141l-164 270l-163 -270h-142l234 376l-203 324h141z" />
    <glyph glyph-name="uni0426" unicode="&#x426;" horiz-adv-x="705" 
d="M73 0v700h132v-578h281v578h132v-578h50v-238h-123v116h-472z" />
    <glyph glyph-name="uni0427" unicode="&#x427;" horiz-adv-x="645" 
d="M440 501v199h132v-700h-132v302q-47 -66 -151 -66q-96 0 -160.5 64t-64.5 184v216h132v-204q0 -70 33 -106t87 -36q58 0 91 36t33 111z" />
    <glyph glyph-name="uni0428" unicode="&#x428;" horiz-adv-x="876" 
d="M73 0v700h132v-578h167v578h132v-578h167v578h132v-700h-730z" />
    <glyph glyph-name="uni0429" unicode="&#x429;" horiz-adv-x="890" 
d="M73 0v700h132v-578h167v578h132v-578h167v578h132v-578h50v-238h-123v116h-657z" />
    <glyph glyph-name="uni042A" unicode="&#x42a;" horiz-adv-x="731" 
d="M144 0v584h-120v116h252v-272h163q110 0 178 -56.5t68 -156.5q0 -101 -68 -158t-178 -57h-295zM276 312v-194h153q124 0 124 97t-124 97h-153z" />
    <glyph glyph-name="uni042B" unicode="&#x42b;" horiz-adv-x="908" 
d="M73 0v700h132v-272h163q110 0 178 -56.5t68 -156.5q0 -101 -68 -158t-178 -57h-295zM205 312v-194h153q124 0 124 97t-124 97h-153zM703 0v700h132v-700h-132z" />
    <glyph glyph-name="uni042C" unicode="&#x42c;" horiz-adv-x="660" 
d="M73 0v700h132v-272h163q110 0 178 -56.5t68 -156.5q0 -101 -68 -158t-178 -57h-295zM205 312v-194h153q124 0 124 97t-124 97h-153z" />
    <glyph glyph-name="uni042D" unicode="&#x42d;" horiz-adv-x="759" 
d="M203 302v110h370q-17 85 -74 132.5t-135 47.5q-65 0 -117.5 -34.5t-84.5 -99.5l-107 61q41 86 121 140.5t191 54.5q154 0 250 -100.5t96 -263.5t-96.5 -263.5t-249.5 -100.5q-219 0 -319 199l110 71q71 -148 205 -148q85 0 142.5 51t70.5 143h-373z" />
    <glyph glyph-name="uni042E" unicode="&#x42e;" horiz-adv-x="1020" 
d="M974 350q0 -157 -102.5 -260.5t-257.5 -103.5q-139 0 -237.5 84.5t-118.5 218.5h-53v-289h-132v700h132v-289h53q20 134 118.5 218.5t237.5 84.5q155 0 257.5 -103.5t102.5 -260.5zM614 108q98 0 162 65.5t64 176.5t-64 176.5t-162 65.5t-162 -65.5t-64 -176.5t64 -176.5
t162 -65.5z" />
    <glyph glyph-name="uni042F" unicode="&#x42f;" horiz-adv-x="667" 
d="M350 284l-162 -284h-151l169 296q-160 57 -160 206q0 91 67 144.5t182 53.5h299v-700h-132v284h-112zM462 400v184h-167q-117 0 -117 -92t117 -92h167z" />
    <glyph glyph-name="uni0430" unicode="&#x430;" horiz-adv-x="567" 
d="M528 0h-128q-24 30 -24 79q-52 -93 -166 -93q-74 0 -120.5 42.5t-46.5 112.5q0 71 49.5 111.5t127.5 52.5l149 23v19q0 75 -91 75q-42 0 -65.5 -16t-23.5 -40q0 -6 2 -12l-113 -38q-9 20 -9 42q0 61 57 106.5t152 45.5q106 0 161.5 -45t55.5 -135v-207q0 -75 33 -123z
M240 88q57 0 93 37.5t36 106.5v9l-120 -20q-83 -14 -83 -73q0 -29 20 -44.5t54 -15.5z" />
    <glyph glyph-name="uni0431" unicode="&#x431;" horiz-adv-x="599" 
d="M456 722l36 -96q-45 -31 -117 -32q-89 -2 -140.5 -43.5t-70.5 -142.5q24 36 68.5 57t97.5 21q96 0 162 -67.5t66 -179.5q0 -113 -71.5 -183t-179.5 -70q-124 0 -195 90.5t-71 244.5q0 119 50 221q41 82 113 120t161 38q56 0 91 22zM307 376q-58 0 -96 -38.5t-38 -101.5
t38 -101.5t96 -38.5t96.5 38.5t38.5 101.5t-38.5 101.5t-96.5 38.5z" />
    <glyph glyph-name="uni0432" unicode="&#x432;" horiz-adv-x="528" 
d="M63 0v496h231q81 0 125.5 -35t44.5 -88q0 -72 -73 -111q91 -37 91 -117q0 -65 -49.5 -105t-127.5 -40h-242zM185 400v-94h98q65 0 65 47t-65 47h-98zM185 210v-114h103q72 0 72 58q0 56 -72 56h-103z" />
    <glyph glyph-name="uni0433" unicode="&#x433;" horiz-adv-x="434" 
d="M63 0v496h339v-114h-213v-382h-126z" />
    <glyph glyph-name="uni0434" unicode="&#x434;" horiz-adv-x="625" 
d="M137 0v-106h-100v220h60q33 59 40 135l22 247h369v-382h54v-220h-100v106h-345zM268 390l-13 -151q-6 -72 -35 -125h188v276h-140z" />
    <glyph glyph-name="uni0435" unicode="&#x435;" horiz-adv-x="575" 
d="M538 218h-382q6 -57 43 -90.5t93 -33.5q92 0 137 91l94 -54q-70 -145 -233 -145q-106 0 -180.5 73.5t-74.5 188.5q0 116 75.5 189t185.5 73q106 0 174 -69.5t68 -178.5v-44zM292 414q-49 0 -85.5 -29.5t-50.5 -74.5h266q-9 49 -43 76.5t-87 27.5z" />
    <glyph glyph-name="uni0436" unicode="&#x436;" horiz-adv-x="804" 
d="M343 496h118v-172q14 22 27 37l114 135h145l-182 -202l218 -294h-145l-147 211l-30 -33v-178h-118v178l-30 33l-147 -211h-145l218 294l-182 202h145l114 -135l27 -37v172z" />
    <glyph glyph-name="uni0437" unicode="&#x437;" horiz-adv-x="493" 
d="M210 221v87q104 0 104 60q0 52 -75 52q-28 0 -49.5 -13t-21.5 -37q0 -10 3 -18l-101 -37q-11 22 -11 50q0 63 48.5 104t131.5 41q92 0 137.5 -36t45.5 -94q0 -40 -20 -69t-52 -43q94 -35 94 -124q0 -68 -53.5 -113t-146.5 -45q-96 0 -148.5 45t-52.5 117q0 33 12 60
l110 -36q-5 -13 -5 -27q0 -28 24.5 -44.5t60.5 -16.5q33 0 55 18.5t22 48.5q0 34 -30.5 52t-81.5 18z" />
    <glyph glyph-name="uni0438" unicode="&#x438;" horiz-adv-x="582" 
d="M183 496v-323l206 323h130v-496h-120v323l-206 -323h-130v496h120z" />
    <glyph glyph-name="uni0439" unicode="&#x439;" horiz-adv-x="582" 
d="M183 496v-323l206 323h130v-496h-120v323l-206 -323h-130v496h120zM329 677h76q0 -49 -31.5 -81t-82.5 -32t-82.5 32t-31.5 81h76q0 -19 10 -31t28 -12t28 12t10 31z" />
    <glyph glyph-name="uni043A" unicode="&#x43a;" horiz-adv-x="532" 
d="M63 496h126v-162q19 27 34 44l104 118h148l-180 -202l216 -294h-147l-149 204l-26 -29v-175h-126v496z" />
    <glyph glyph-name="uni043B" unicode="&#x43b;" horiz-adv-x="579" 
d="M516 496v-496h-122v382h-158l-23 -242q-7 -78 -38.5 -112.5t-87.5 -34.5q-36 0 -70 7l17 111q15 -6 26 -6q31 0 35 40l34 351h387z" />
    <glyph glyph-name="uni043C" unicode="&#x43c;" horiz-adv-x="669" 
d="M390 0h-111l-102 281v-281h-114v496h134l137 -364l138 364h134v-496h-114v281z" />
    <glyph glyph-name="uni043D" unicode="&#x43d;" horiz-adv-x="568" 
d="M183 496v-179h202v179h120v-496h-120v207h-202v-207h-120v496h120z" />
    <glyph glyph-name="uni043E" unicode="&#x43e;" horiz-adv-x="612" 
d="M577 248q0 -123 -80.5 -192.5t-190.5 -69.5t-190.5 69.5t-80.5 192.5t80.5 192.5t190.5 69.5t190.5 -69.5t80.5 -192.5zM306 104q58 0 100.5 39.5t42.5 104.5t-42.5 104.5t-100.5 39.5t-100.5 -39.5t-42.5 -104.5t42.5 -104.5t100.5 -39.5z" />
    <glyph glyph-name="uni043F" unicode="&#x43f;" horiz-adv-x="566" 
d="M185 0h-122v496h440v-496h-122v382h-196v-382z" />
    <glyph glyph-name="uni0440" unicode="&#x440;" horiz-adv-x="624" 
d="M63 -204v700h126v-71q26 38 72 61.5t100 23.5q97 0 162.5 -71t65.5 -191q0 -117 -69 -189.5t-170 -72.5t-161 75v-265h-126zM321 392q-60 0 -100 -41.5t-40 -102.5t40 -102.5t100 -41.5t100 41.5t40 102.5t-40 102.5t-100 41.5z" />
    <glyph glyph-name="uni0441" unicode="&#x441;" horiz-adv-x="560" 
d="M426 195l102 -66q-72 -143 -232 -143q-112 0 -186.5 72.5t-74.5 189.5q0 116 76 189t185 73q82 0 141.5 -35.5t85.5 -99.5l-103 -68q-39 85 -125 85q-57 0 -94.5 -39.5t-37.5 -104.5q0 -66 37 -105t95 -39q48 0 78.5 22.5t52.5 68.5z" />
    <glyph glyph-name="uni0442" unicode="&#x442;" horiz-adv-x="460" 
d="M433 496v-110h-142v-386h-122v386h-142v110h406z" />
    <glyph glyph-name="uni0443" unicode="&#x443;" horiz-adv-x="546" 
d="M72 -200l20 117q22 -12 45 -12q39 0 56 47l16 44l-204 500h143l128 -322l122 322h143l-236 -586q-26 -64 -65.5 -92.5t-98.5 -28.5q-41 0 -69 11z" />
    <glyph glyph-name="uni0444" unicode="&#x444;" horiz-adv-x="928" 
d="M527 700v-267q50 77 157 77q91 0 150 -72.5t59 -189.5q0 -118 -60 -190t-157 -72q-99 0 -149 71v-261h-126v264q-22 -32 -60 -53t-85 -21q-100 0 -160.5 72t-60.5 190q0 116 64 189t156 73q110 0 146 -77v267h126zM642 400q-57 0 -90 -44t-33 -108t33 -108t90 -44t91 44
t34 108t-34 108t-91 44zM286 400q-57 0 -91 -44t-34 -108t34 -108t91 -44t90 44t33 108t-33 108t-90 44z" />
    <glyph glyph-name="uni0445" unicode="&#x445;" horiz-adv-x="497" 
d="M164 496l83 -133l84 133h146l-155 -231l174 -265h-147l-102 163l-103 -163h-145l181 262l-160 234h144z" />
    <glyph glyph-name="uni0446" unicode="&#x446;" horiz-adv-x="591" 
d="M503 496v-382h45v-220h-104v106h-381v496h126v-382h187v382h127z" />
    <glyph glyph-name="uni0447" unicode="&#x447;" horiz-adv-x="550" 
d="M63 334v162h118v-147q0 -50 23.5 -76t67.5 -26q46 0 71.5 33t25.5 88v128h118v-496h-118v197q-44 -60 -122 -60q-85 0 -134.5 52t-49.5 145z" />
    <glyph glyph-name="uni0448" unicode="&#x448;" horiz-adv-x="766" 
d="M443 496v-382h140v382h120v-496h-640v496h120v-382h140v382h120z" />
    <glyph glyph-name="uni0449" unicode="&#x449;" horiz-adv-x="791" 
d="M703 496v-382h45v-220h-104v106h-581v496h120v-382h140v382h120v-382h140v382h120z" />
    <glyph glyph-name="uni044A" unicode="&#x44a;" horiz-adv-x="571" 
d="M15 402v94h218v-190h120q80 0 128.5 -39.5t48.5 -112.5t-48.5 -113.5t-128.5 -40.5h-242v402h-96zM233 210v-114h103q72 0 72 58q0 56 -72 56h-103z" />
    <glyph glyph-name="uni044B" unicode="&#x44b;" horiz-adv-x="741" 
d="M552 0v496h126v-496h-126zM305 306q80 0 128.5 -39.5t48.5 -112.5t-48.5 -113.5t-128.5 -40.5h-242v496h122v-190h120zM185 210v-114h103q72 0 72 58q0 56 -72 56h-103z" />
    <glyph glyph-name="uni044C" unicode="&#x44c;" horiz-adv-x="523" 
d="M305 306q80 0 128.5 -39.5t48.5 -112.5t-48.5 -113.5t-128.5 -40.5h-242v496h122v-190h120zM185 210v-114h103q72 0 72 58q0 56 -72 56h-103z" />
    <glyph glyph-name="uni044D" unicode="&#x44d;" horiz-adv-x="559" 
d="M167 199v98h231q-13 50 -47 76.5t-83 26.5q-89 0 -136 -85l-96 57q78 138 232 138q114 0 185 -70.5t71 -191.5t-70 -191.5t-182 -70.5q-159 0 -240 146l96 65q42 -101 146 -101q48 0 80.5 26t43.5 77h-231z" />
    <glyph glyph-name="uni044E" unicode="&#x44e;" horiz-adv-x="790" 
d="M755 248q0 -124 -78 -193t-187 -69q-96 0 -170 54.5t-91 153.5h-46v-194h-120v496h120v-194h46q17 99 91 153.5t170 54.5q109 0 187 -69t78 -193zM490 104q58 0 97.5 39t39.5 105t-39.5 105t-97.5 39t-97.5 -39t-39.5 -105t39.5 -105t97.5 -39z" />
    <glyph glyph-name="uni044F" unicode="&#x44f;" horiz-adv-x="531" 
d="M283 190l-110 -190h-132l117 203q-44 18 -71.5 55.5t-27.5 85.5q0 70 48.5 111t132.5 41h228v-496h-122v190h-63zM346 290v106h-94q-71 0 -71 -53t71 -53h94z" />
    <glyph glyph-name="uni0450" unicode="&#x450;" horiz-adv-x="575" 
d="M538 218h-382q6 -57 43 -90.5t93 -33.5q92 0 137 91l94 -54q-70 -145 -233 -145q-106 0 -180.5 73.5t-74.5 188.5q0 116 75.5 189t185.5 73q106 0 174 -69.5t68 -178.5v-44zM292 414q-49 0 -85.5 -29.5t-50.5 -74.5h266q-9 49 -43 76.5t-87 27.5zM300 708l68 -158h-97
l-124 158h153z" />
    <glyph glyph-name="uni0451" unicode="&#x451;" horiz-adv-x="575" 
d="M538 218h-382q6 -57 43 -90.5t93 -33.5q92 0 137 91l94 -54q-70 -145 -233 -145q-106 0 -180.5 73.5t-74.5 188.5q0 116 75.5 189t185.5 73q106 0 174 -69.5t68 -178.5v-44zM292 414q-49 0 -85.5 -29.5t-50.5 -74.5h266q-9 49 -43 76.5t-87 27.5zM318 576v124h118v-124
h-118zM138 576v124h118v-124h-118z" />
    <glyph glyph-name="uni0452" unicode="&#x452;" horiz-adv-x="608" 
d="M9 552v96h62v52h126v-52h160v-96h-160v-134q59 92 172 92q81 0 128.5 -47.5t47.5 -127.5v-373q0 -84 -40.5 -128.5t-121.5 -44.5q-39 0 -75 10l16 114q19 -8 39 -8q30 0 43 17.5t13 53.5v310q0 50 -25.5 78t-74.5 28q-53 0 -87.5 -39t-34.5 -101v-252h-126v552h-62z" />
    <glyph glyph-name="uni0453" unicode="&#x453;" horiz-adv-x="434" 
d="M63 0v496h339v-114h-213v-382h-126zM147 550l68 158h153l-124 -158h-97z" />
    <glyph glyph-name="uni0454" unicode="&#x454;" horiz-adv-x="559" 
d="M393 297v-98h-232q9 -48 44 -75.5t88 -27.5q94 0 137 96l97 -60q-41 -72 -98 -109t-142 -37q-112 0 -182 70.5t-70 191.5q0 120 72 191t184 71q167 0 230 -136l-94 -59q-42 85 -136 85q-49 0 -84.5 -27.5t-45.5 -75.5h232z" />
    <glyph glyph-name="uni0455" unicode="&#x455;" horiz-adv-x="500" 
d="M180 374q0 -46 117 -70q87 -18 126.5 -54.5t39.5 -98.5q0 -72 -53 -118.5t-143 -46.5q-86 0 -142.5 42t-84.5 107l101 64q17 -49 49.5 -78t78.5 -29q31 0 54.5 14.5t23.5 40.5q0 24 -25 38.5t-81 25.5q-173 34 -173 155q0 67 54 105.5t131 38.5q79 0 126.5 -30t78.5 -95
l-91 -54q-34 87 -112 87q-75 0 -75 -44z" />
    <glyph glyph-name="uni0456" unicode="&#x456;" horiz-adv-x="250" 
d="M62 0v496h126v-496h-126zM56 568v132h138v-132h-138z" />
    <glyph glyph-name="uni0457" unicode="&#x457;" horiz-adv-x="250" 
d="M62 0v496h126v-496h-126zM156 576v124h118v-124h-118zM-24 576v124h118v-124h-118z" />
    <glyph glyph-name="uni0458" unicode="&#x458;" horiz-adv-x="250" 
d="M-49 -201l16 114q19 -8 39 -8q30 0 43 17.5t13 53.5v520h126v-534q0 -84 -40.5 -128.5t-121.5 -44.5q-39 0 -75 10zM56 568v132h138v-132h-138z" />
    <glyph glyph-name="uni0459" unicode="&#x459;" horiz-adv-x="817" 
d="M599 306q80 0 128.5 -39.5t48.5 -112.5t-48.5 -113.5t-128.5 -40.5h-242v382h-121l-23 -242q-7 -78 -38.5 -112.5t-87.5 -34.5q-36 0 -70 7l17 111q15 -6 31 -6q27 0 30 37l34 354h350v-190h120zM479 210v-114h103q72 0 72 58q0 56 -72 56h-103z" />
    <glyph glyph-name="uni045A" unicode="&#x45a;" horiz-adv-x="845" 
d="M627 311q80 0 128.5 -41.5t48.5 -114.5t-48.5 -114t-128.5 -41h-242v208h-202v-208h-120v496h120v-185h202v185h120v-185h122zM505 208v-112h105q72 0 72 56t-72 56h-105z" />
    <glyph glyph-name="uni045B" unicode="&#x45b;" horiz-adv-x="608" 
d="M9 552v96h62v52h126v-52h160v-96h-160v-134q59 92 172 92q81 0 128.5 -47.5t47.5 -127.5v-335h-126v286q0 50 -25.5 78t-74.5 28q-53 0 -87.5 -39t-34.5 -101v-252h-126v552h-62z" />
    <glyph glyph-name="uni045C" unicode="&#x45c;" horiz-adv-x="532" 
d="M63 496h126v-162q19 27 34 44l104 118h148l-180 -202l216 -294h-147l-149 204l-26 -29v-175h-126v496zM185 550l68 158h153l-124 -158h-97z" />
    <glyph glyph-name="uni045D" unicode="&#x45d;" horiz-adv-x="582" 
d="M183 496v-323l206 323h130v-496h-120v323l-206 -323h-130v496h120zM304 708l68 -158h-97l-124 158h153z" />
    <glyph glyph-name="uni045E" unicode="&#x45e;" horiz-adv-x="546" 
d="M72 -200l20 117q22 -12 45 -12q39 0 56 47l16 44l-204 500h143l128 -322l122 322h143l-236 -586q-26 -64 -65.5 -92.5t-98.5 -28.5q-41 0 -69 11zM311 677h76q0 -49 -31.5 -81t-82.5 -32t-82.5 32t-31.5 81h76q0 -19 10 -31t28 -12t28 12t10 31z" />
    <glyph glyph-name="uni045F" unicode="&#x45f;" horiz-adv-x="566" 
d="M503 0h-170v-106h-100v106h-170v496h126v-382h188v382h126v-496z" />
    <glyph glyph-name="endash" unicode="&#x2013;" horiz-adv-x="578" 
d="M40 260v102h498v-102h-498z" />
    <glyph glyph-name="emdash" unicode="&#x2014;" horiz-adv-x="848" 
d="M40 260v102h768v-102h-768z" />
    <glyph glyph-name="quoteleft" unicode="&#x2018;" horiz-adv-x="214" 
d="M171 553v-134h-134v134l123 154l26 -18l-68 -136h53z" />
    <glyph glyph-name="quoteright" unicode="&#x2019;" horiz-adv-x="214" 
d="M43 566v134h134v-134l-123 -154l-26 18l68 136h-53z" />
    <glyph glyph-name="quotesinglbase" unicode="&#x201a;" horiz-adv-x="214" 
d="M43 0v134h134v-134l-123 -154l-26 18l68 136h-53z" />
    <glyph glyph-name="quotedblleft" unicode="&#x201c;" horiz-adv-x="382" 
d="M339 553v-134h-134v134l123 154l26 -18l-68 -136h53zM171 553v-134h-134v134l123 154l26 -18l-68 -136h53z" />
    <glyph glyph-name="quotedblright" unicode="&#x201d;" horiz-adv-x="382" 
d="M43 566v134h134v-134l-123 -154l-26 18l68 136h-53zM211 566v134h134v-134l-123 -154l-26 18l68 136h-53z" />
    <glyph glyph-name="quotedblbase" unicode="&#x201e;" horiz-adv-x="382" 
d="M43 0v134h134v-134l-123 -154l-26 18l68 136h-53zM211 0v134h134v-134l-123 -154l-26 18l68 136h-53z" />
    <glyph glyph-name="dagger" unicode="&#x2020;" horiz-adv-x="468" 
d="M40 394v102h132v244h122v-244h134v-102h-134v-504h-122v504h-132z" />
    <glyph glyph-name="daggerdbl" unicode="&#x2021;" horiz-adv-x="468" 
d="M40 394v102h132v244h122v-244h134v-102h-134v-158h134v-102h-134v-244h-122v244h-132v102h132v158h-132z" />
    <glyph glyph-name="bullet" unicode="&#x2022;" horiz-adv-x="326" 
d="M43 275q0 50 35 85t85 35t85 -35t35 -85t-35 -85t-85 -35t-85 35t-35 85z" />
    <glyph glyph-name="ellipsis" unicode="&#x2026;" 
d="M40 0v134h134v-134h-134zM230 0v134h134v-134h-134zM420 0v134h134v-134h-134z" />
    <glyph glyph-name="perthousand" unicode="&#x2030;" horiz-adv-x="1131" 
d="M484 161q0 75 49 125t125 50q78 0 128 -53q50 53 128 53q76 0 125 -50t49 -125t-49 -125t-125 -50q-78 0 -128 53q-50 -53 -128 -53q-76 0 -125 50t-49 125zM43 539q0 75 49 125t125 50t125 -50t49 -125t-49 -125t-125 -50t-125 50t-49 125zM135 539q0 -39 23.5 -64
t58.5 -25t58.5 25t23.5 64t-23.5 64t-58.5 25t-58.5 -25t-23.5 -64zM576 161q0 -39 23.5 -64t58.5 -25t58.5 25t23.5 64t-23.5 64t-58.5 25t-58.5 -25t-23.5 -64zM832 161q0 -39 23.5 -64t58.5 -25t58.5 25t23.5 64t-23.5 64t-58.5 25t-58.5 -25t-23.5 -64zM248 -7l-72 49
l435 665l72 -49z" />
    <glyph glyph-name="guilsinglleft" unicode="&#x2039;" horiz-adv-x="378" 
d="M207 489h141l-166 -214l166 -212h-141l-167 212z" />
    <glyph glyph-name="guilsinglright" unicode="&#x203a;" horiz-adv-x="378" 
d="M30 489h141l167 -214l-167 -212h-141l166 212z" />
    <glyph glyph-name="fraction" unicode="&#x2044;" horiz-adv-x="541" 
d="M89 -7l-72 49l435 665l72 -49z" />
    <glyph glyph-name="zerosuperior" unicode="&#x2070;" horiz-adv-x="388" 
d="M355 525q0 -81 -46 -131.5t-115 -50.5t-115 50.5t-46 131.5t46 131.5t115 50.5t115 -50.5t46 -131.5zM194 419q35 0 56 27.5t21 78.5t-21 78.5t-56 27.5t-56 -27.5t-21 -78.5t21 -78.5t56 -27.5z" />
    <glyph glyph-name="foursuperior" unicode="&#x2074;" horiz-adv-x="374" 
d="M47 408v66l162 226h84v-226h36v-66h-36v-58h-84v58h-162zM209 590l-83 -116h83v116z" />
    <glyph glyph-name="fivesuperior" unicode="&#x2075;" horiz-adv-x="354" 
d="M54 512l18 188h230v-66h-168l-10 -72q27 27 75 27q56 0 89 -32.5t33 -86.5q0 -58 -38 -92.5t-100 -34.5q-63 0 -99 31t-36 74q0 17 5 29l81 -15q-2 -6 -2 -13q0 -18 14.5 -28.5t37.5 -10.5q28 0 42 16.5t14 43.5q0 25 -14.5 41.5t-43.5 16.5q-41 0 -66 -34z" />
    <glyph glyph-name="sixsuperior" unicode="&#x2076;" horiz-adv-x="354" 
d="M306 587l-72 15q4 10 4 18q0 11 -11.5 18.5t-30.5 7.5q-33 0 -53 -29t-24 -76q29 37 82 37q51 0 84.5 -32t33.5 -84t-36.5 -85.5t-94.5 -33.5q-63 0 -102.5 44t-39.5 119q0 95 46 152q41 49 106 49q53 0 84 -26t31 -64q0 -16 -7 -30zM188 516q-24 0 -40 -15.5t-16 -39.5
t16 -39.5t40 -15.5t40 15.5t16 39.5t-16 39.5t-40 15.5z" />
    <glyph glyph-name="sevensuperior" unicode="&#x2077;" horiz-adv-x="309" 
d="M281 637l-135 -287h-79l134 284h-158v66h238v-63z" />
    <glyph glyph-name="eightsuperior" unicode="&#x2078;" horiz-adv-x="334" 
d="M167 343q-56 0 -93 30.5t-37 76.5q0 59 57 88q-46 26 -46 74q0 42 32.5 68.5t86.5 26.5t86.5 -26.5t32.5 -68.5q0 -48 -46 -74q57 -29 57 -88q0 -46 -37 -76.5t-93 -30.5zM167 403q24 0 38 13.5t14 37.5t-14 37.5t-38 13.5t-38 -13.5t-14 -37.5t14 -37.5t38 -13.5z
M122 609q0 -21 13 -32.5t32 -11.5t32 11.5t13 32.5t-13 32.5t-32 11.5t-32 -11.5t-13 -32.5z" />
    <glyph glyph-name="ninesuperior" unicode="&#x2079;" horiz-adv-x="340" 
d="M54 463l72 -15q-4 -10 -4 -18q0 -11 11.5 -18.5t30.5 -7.5q68 0 77 105q-29 -37 -82 -37q-51 0 -84.5 32t-33.5 84t36.5 85.5t94.5 33.5q63 0 102.5 -44t39.5 -119q0 -95 -45 -151q-42 -50 -107 -50q-52 0 -83.5 26.5t-31.5 63.5q0 16 7 30zM172 534q24 0 40 15.5
t16 39.5t-16 39.5t-40 15.5t-40 -15.5t-16 -39.5t16 -39.5t40 -15.5z" />
    <glyph glyph-name="zeroinferior" unicode="&#x2080;" horiz-adv-x="388" 
d="M355 -29q0 -81 -46 -131.5t-115 -50.5t-115 50.5t-46 131.5t46 131.5t115 50.5t115 -50.5t46 -131.5zM194 -135q35 0 56 27.5t21 78.5t-21 78.5t-56 27.5t-56 -27.5t-21 -78.5t21 -78.5t56 -27.5z" />
    <glyph glyph-name="oneinferior" unicode="&#x2081;" horiz-adv-x="254" 
d="M38 26v77q57 0 78 43h80v-350h-84v254q-21 -24 -74 -24z" />
    <glyph glyph-name="twoinferior" unicode="&#x2082;" horiz-adv-x="339" 
d="M53 -151l132 127q35 32 35 65q0 41 -43 41q-20 0 -33.5 -11t-13.5 -31q0 -10 4 -24l-76 -11q-7 17 -7 40q0 43 35 75.5t91 32.5q58 0 91.5 -27.5t33.5 -75.5q0 -36 -13.5 -62t-47.5 -60l-65 -63h129v-69h-252v53z" />
    <glyph glyph-name="threeinferior" unicode="&#x2083;" horiz-adv-x="347" 
d="M50 -70l79 -17q-2 -6 -2 -15q0 -20 14 -30t34 -10q22 0 36.5 11.5t14.5 32.5q0 49 -82 49v60q32 0 50.5 11t18.5 30q0 35 -41 35q-18 0 -31 -8.5t-13 -24.5q0 -11 3 -17l-73 -10q-5 12 -5 27q0 40 32 69.5t87 29.5q59 0 89.5 -23.5t30.5 -63.5q0 -44 -45 -75
q63 -24 63 -91q0 -51 -37.5 -81t-99.5 -30q-59 0 -94.5 29.5t-35.5 75.5q0 22 7 36z" />
    <glyph glyph-name="fourinferior" unicode="&#x2084;" horiz-adv-x="374" 
d="M47 -146v66l162 226h84v-226h36v-66h-36v-58h-84v58h-162zM209 36l-83 -116h83v116z" />
    <glyph glyph-name="fiveinferior" unicode="&#x2085;" horiz-adv-x="354" 
d="M54 -42l18 188h230v-66h-168l-10 -72q27 27 75 27q56 0 89 -32.5t33 -86.5q0 -58 -38 -92.5t-100 -34.5q-63 0 -99 31t-36 74q0 17 5 29l81 -15q-2 -6 -2 -13q0 -18 14.5 -28.5t37.5 -10.5q28 0 42 16.5t14 43.5q0 25 -14.5 41.5t-43.5 16.5q-41 0 -66 -34z" />
    <glyph glyph-name="sixinferior" unicode="&#x2086;" horiz-adv-x="354" 
d="M306 33l-72 15q4 10 4 18q0 11 -11.5 18.5t-30.5 7.5q-33 0 -53 -29t-24 -76q29 37 82 37q51 0 84.5 -32t33.5 -84t-36.5 -85.5t-94.5 -33.5q-63 0 -102.5 44t-39.5 119q0 95 46 152q41 49 106 49q53 0 84 -26t31 -64q0 -16 -7 -30zM188 -38q-24 0 -40 -15.5t-16 -39.5
t16 -39.5t40 -15.5t40 15.5t16 39.5t-16 39.5t-40 15.5z" />
    <glyph glyph-name="seveninferior" unicode="&#x2087;" horiz-adv-x="309" 
d="M281 83l-135 -287h-79l134 284h-158v66h238v-63z" />
    <glyph glyph-name="eightinferior" unicode="&#x2088;" horiz-adv-x="334" 
d="M167 -211q-56 0 -93 30.5t-37 76.5q0 59 57 88q-46 26 -46 74q0 42 32.5 68.5t86.5 26.5t86.5 -26.5t32.5 -68.5q0 -48 -46 -74q57 -29 57 -88q0 -46 -37 -76.5t-93 -30.5zM167 -151q24 0 38 13.5t14 37.5t-14 37.5t-38 13.5t-38 -13.5t-14 -37.5t14 -37.5t38 -13.5z
M122 55q0 -21 13 -32.5t32 -11.5t32 11.5t13 32.5t-13 32.5t-32 11.5t-32 -11.5t-13 -32.5z" />
    <glyph glyph-name="nineinferior" unicode="&#x2089;" horiz-adv-x="340" 
d="M54 -91l72 -15q-4 -10 -4 -18q0 -11 11.5 -18.5t30.5 -7.5q68 0 77 105q-29 -37 -82 -37q-51 0 -84.5 32t-33.5 84t36.5 85.5t94.5 33.5q63 0 102.5 -44t39.5 -119q0 -95 -45 -151q-42 -50 -107 -50q-52 0 -83.5 26.5t-31.5 63.5q0 16 7 30zM172 -20q24 0 40 15.5
t16 39.5t-16 39.5t-40 15.5t-40 -15.5t-16 -39.5t16 -39.5t40 -15.5z" />
    <glyph glyph-name="Euro" unicode="&#x20ac;" horiz-adv-x="788" 
d="M626 254l116 -42q-77 -226 -306 -226q-118 0 -200.5 64.5t-112.5 178.5h-88l42 92h30q-1 9 -1 29q0 19 1 29h-72l42 92h46q33 111 119 177t197 66q228 0 300 -201l-119 -53q-44 132 -185 132q-63 0 -110 -31.5t-70 -89.5h278l-42 -92h-254q-1 -10 -1 -29q0 -5 0.5 -15
t0.5 -14h296l-42 -92h-236q24 -57 71.5 -89t109.5 -32q141 0 190 146z" />
    <glyph glyph-name="trademark" unicode="&#x2122;" horiz-adv-x="860" 
d="M32 626v74h320v-74h-119v-326h-82v326h-119zM391 300v400h91l121 -302l121 302h91v-400h-82v224l-90 -224h-80l-90 224v-224h-82z" />
    <glyph glyph-name="Omega" unicode="&#x2126;" horiz-adv-x="784" 
d="M726 96v-96h-288v110q72 43 120 114.5t48 159.5q0 91 -59.5 149.5t-154.5 58.5t-154.5 -58.5t-59.5 -149.5q0 -88 48 -159.5t120 -114.5v-110h-288v96h138q-63 49 -106.5 124t-43.5 171q0 140 99 231.5t247 91.5t247 -91.5t99 -231.5q0 -96 -43.5 -171t-106.5 -124h138z
" />
    <glyph glyph-name="onethird" unicode="&#x2153;" horiz-adv-x="756" 
d="M452 134l79 -17q-2 -6 -2 -15q0 -20 14 -30t34 -10q22 0 36.5 11.5t14.5 32.5q0 49 -82 49v60q32 0 50.5 11t18.5 30q0 35 -41 35q-18 0 -31 -8.5t-13 -24.5q0 -11 3 -17l-73 -10q-5 12 -5 27q0 40 32 69.5t87 29.5q59 0 89.5 -23.5t30.5 -63.5q0 -44 -45 -75
q63 -24 63 -91q0 -51 -37.5 -81t-99.5 -30q-59 0 -94.5 29.5t-35.5 75.5q0 22 7 36zM181 -7l-72 49l435 665l72 -49zM38 580v77q57 0 78 43h80v-350h-84v254q-21 -24 -74 -24z" />
    <glyph glyph-name="twothirds" unicode="&#x2154;" horiz-adv-x="832" 
d="M528 134l79 -17q-2 -6 -2 -15q0 -20 14 -30t34 -10q22 0 36.5 11.5t14.5 32.5q0 49 -82 49v60q32 0 50.5 11t18.5 30q0 35 -41 35q-18 0 -31 -8.5t-13 -24.5q0 -11 3 -17l-73 -10q-5 12 -5 27q0 40 32 69.5t87 29.5q59 0 89.5 -23.5t30.5 -63.5q0 -44 -45 -75
q63 -24 63 -91q0 -51 -37.5 -81t-99.5 -30q-59 0 -94.5 29.5t-35.5 75.5q0 22 7 36zM258 -7l-72 49l435 665l72 -49zM52 403l132 127q35 32 35 65q0 41 -43 41q-20 0 -33.5 -11t-13.5 -31q0 -10 4 -24l-76 -11q-7 17 -7 40q0 43 35 75.5t91 32.5q58 0 91.5 -27.5t33.5 -75.5
q0 -36 -13.5 -62t-47.5 -60l-65 -63h129v-69h-252v53z" />
    <glyph glyph-name="oneeighth" unicode="&#x215b;" horiz-adv-x="755" 
d="M38 580v77q57 0 78 43h80v-350h-84v254q-21 -24 -74 -24zM182 -7l-72 49l435 665l72 -49zM574 -7q-56 0 -93 30.5t-37 76.5q0 59 57 88q-46 26 -46 74q0 42 32.5 68.5t86.5 26.5t86.5 -26.5t32.5 -68.5q0 -48 -46 -74q57 -29 57 -88q0 -46 -37 -76.5t-93 -30.5zM574 53
q24 0 38 13.5t14 37.5t-14 37.5t-38 13.5t-38 -13.5t-14 -37.5t14 -37.5t38 -13.5zM529 259q0 -21 13 -32.5t32 -11.5t32 11.5t13 32.5t-13 32.5t-32 11.5t-32 -11.5t-13 -32.5z" />
    <glyph glyph-name="threeeighths" unicode="&#x215c;" horiz-adv-x="814" 
d="M633 -7q-56 0 -93 30.5t-37 76.5q0 59 57 88q-46 26 -46 74q0 42 32.5 68.5t86.5 26.5t86.5 -26.5t32.5 -68.5q0 -48 -46 -74q57 -29 57 -88q0 -46 -37 -76.5t-93 -30.5zM633 53q24 0 38 13.5t14 37.5t-14 37.5t-38 13.5t-38 -13.5t-14 -37.5t14 -37.5t38 -13.5zM588 259
q0 -21 13 -32.5t32 -11.5t32 11.5t13 32.5t-13 32.5t-32 11.5t-32 -11.5t-13 -32.5zM241 -7l-72 49l435 665l72 -49zM50 484l79 -17q-2 -6 -2 -15q0 -20 14 -30t34 -10q22 0 36.5 11.5t14.5 32.5q0 49 -82 49v60q32 0 50.5 11t18.5 30q0 35 -41 35q-18 0 -31 -8.5t-13 -24.5
q0 -11 3 -17l-73 -10q-5 12 -5 27q0 40 32 69.5t87 29.5q59 0 89.5 -23.5t30.5 -63.5q0 -44 -45 -75q63 -24 63 -91q0 -51 -37.5 -81t-99.5 -30q-59 0 -94.5 29.5t-35.5 75.5q0 22 7 36z" />
    <glyph glyph-name="fiveeighths" unicode="&#x215d;" horiz-adv-x="816" 
d="M233 -7l-72 49l435 665l72 -49zM635 -7q-56 0 -93 30.5t-37 76.5q0 59 57 88q-46 26 -46 74q0 42 32.5 68.5t86.5 26.5t86.5 -26.5t32.5 -68.5q0 -48 -46 -74q57 -29 57 -88q0 -46 -37 -76.5t-93 -30.5zM635 53q24 0 38 13.5t14 37.5t-14 37.5t-38 13.5t-38 -13.5
t-14 -37.5t14 -37.5t38 -13.5zM590 259q0 -21 13 -32.5t32 -11.5t32 11.5t13 32.5t-13 32.5t-32 11.5t-32 -11.5t-13 -32.5zM48 512l18 188h230v-66h-168l-10 -72q27 27 75 27q56 0 89 -32.5t33 -86.5q0 -58 -38 -92.5t-100 -34.5q-63 0 -99 31t-36 74q0 17 5 29l81 -15
q-2 -6 -2 -13q0 -18 14.5 -28.5t37.5 -10.5q28 0 42 16.5t14 43.5q0 25 -14.5 41.5t-43.5 16.5q-41 0 -66 -34z" />
    <glyph glyph-name="seveneighths" unicode="&#x215e;" horiz-adv-x="755" 
d="M172 -7l-72 49l435 665l72 -49zM574 -7q-56 0 -93 30.5t-37 76.5q0 59 57 88q-46 26 -46 74q0 42 32.5 68.5t86.5 26.5t86.5 -26.5t32.5 -68.5q0 -48 -46 -74q57 -29 57 -88q0 -46 -37 -76.5t-93 -30.5zM574 53q24 0 38 13.5t14 37.5t-14 37.5t-38 13.5t-38 -13.5
t-14 -37.5t14 -37.5t38 -13.5zM529 259q0 -21 13 -32.5t32 -11.5t32 11.5t13 32.5t-13 32.5t-32 11.5t-32 -11.5t-13 -32.5zM290 637l-135 -287h-79l134 284h-158v66h238v-63z" />
    <glyph glyph-name="arrowleft" unicode="&#x2190;" horiz-adv-x="595" 
d="M352 155l-75 -75l-231 231l231 231l75 -75l-105 -105h307v-102h-307z" />
    <glyph glyph-name="arrowup" unicode="&#x2191;" horiz-adv-x="538" 
d="M500 393l-75 -75l-105 105v-307h-102v307l-105 -105l-75 75l231 231z" />
    <glyph glyph-name="arrowright" unicode="&#x2192;" horiz-adv-x="595" 
d="M318 80l-75 75l105 105h-307v102h307l-105 105l75 75l231 -231z" />
    <glyph glyph-name="arrowdown" unicode="&#x2193;" horiz-adv-x="538" 
d="M425 422l75 -75l-231 -231l-231 231l75 75l105 -105v307h102v-307z" />
    <glyph glyph-name="arrowboth" unicode="&#x2194;" horiz-adv-x="800" 
d="M352 155l-75 -75l-231 231l231 231l75 -75l-105 -105h306l-105 105l75 75l231 -231l-231 -231l-75 75l105 105h-306z" />
    <glyph glyph-name="arrowupdn" unicode="&#x2195;" horiz-adv-x="538" 
d="M425 302l75 -75l-231 -231l-231 231l75 75l105 -105v306l-105 -105l-75 75l231 231l231 -231l-75 -75l-105 105v-306z" />
    <glyph glyph-name="uni2196" unicode="&#x2196;" horiz-adv-x="541" 
d="M183 162h-106v327h327v-106h-148l217 -218l-72 -72l-218 217v-148z" />
    <glyph glyph-name="uni2197" unicode="&#x2197;" horiz-adv-x="541" 
d="M464 162h-106v148l-218 -217l-72 72l217 218h-148v106h327v-327z" />
    <glyph glyph-name="uni2198" unicode="&#x2198;" horiz-adv-x="541" 
d="M358 435h106v-327h-327v106h148l-217 218l72 72l218 -217v148z" />
    <glyph glyph-name="uni2199" unicode="&#x2199;" horiz-adv-x="541" 
d="M77 435h106v-148l218 217l72 -72l-217 -218h148v-106h-327v327z" />
    <glyph glyph-name="partialdiff" unicode="&#x2202;" horiz-adv-x="591" 
d="M267 614q-37 0 -58.5 -17t-21.5 -41q0 -6 2 -12l-107 -45q-14 23 -14 56q0 61 48.5 110t145.5 49q140 0 214 -110.5t74 -295.5q0 -144 -68 -233t-191 -89q-110 0 -180 64t-70 169q0 104 69 173.5t171 69.5q103 0 155 -61q-12 94 -59 153.5t-110 59.5zM300 356
q-60 0 -97.5 -38.5t-37.5 -97.5q0 -57 37.5 -92.5t89.5 -35.5q55 0 95 36t40 99q0 59 -37 94t-90 35z" />
    <glyph glyph-name="Delta" unicode="&#x2206;" horiz-adv-x="702" 
d="M5 0l283 700h126l283 -700h-692zM325 469l-134 -351h320l-134 351q-13 34 -26 76z" />
    <glyph glyph-name="product" unicode="&#x220f;" horiz-adv-x="686" 
d="M73 -204v904h540v-904h-132v782h-276v-782h-132z" />
    <glyph glyph-name="summation" unicode="&#x2211;" horiz-adv-x="585" 
d="M225 290l-185 288v122h506v-122h-350l181 -288l-191 -288h367v-122h-523v122z" />
    <glyph glyph-name="minus" unicode="&#x2212;" horiz-adv-x="564" 
d="M40 314v102h484v-102h-484z" />
    <glyph glyph-name="radical" unicode="&#x221a;" horiz-adv-x="628" 
d="M349 0h-126l-93 256h-103v100h202l60 -178l194 522h126z" />
    <glyph glyph-name="infinity" unicode="&#x221e;" horiz-adv-x="774" 
d="M41 300q0 75 46.5 122t121.5 47q95 0 178 -100q83 100 178 100q75 0 121.5 -47t46.5 -122t-46.5 -122t-121.5 -47q-95 0 -178 100q-83 -100 -178 -100q-75 0 -121.5 47t-46.5 122zM139 300q0 -34 23 -57.5t58 -23.5q31 0 57 20.5t57 60.5q-32 40 -57.5 60.5t-56.5 20.5
q-35 0 -58 -23.5t-23 -57.5zM554 381q-31 0 -57.5 -21t-56.5 -60q61 -81 114 -81q35 0 58 23.5t23 57.5t-23 57.5t-58 23.5z" />
    <glyph glyph-name="integral" unicode="&#x222b;" horiz-adv-x="346" 
d="M102 -40v606q0 89 48.5 136.5t127.5 47.5q34 0 63 -11l-22 -111q-18 6 -35 6q-56 0 -56 -65v-603q0 -90 -44.5 -137t-125.5 -47q-34 0 -63 11l22 113q17 -8 35 -8q50 0 50 62z" />
    <glyph glyph-name="approxequal" unicode="&#x2248;" horiz-adv-x="461" 
d="M163 429q-27 0 -27 -25q0 -11 7 -23l-88 -16q-15 23 -15 53q0 48 30 76t76 28q41 0 70.5 -16t48 -31.5t33.5 -15.5q27 0 27 25q0 11 -7 23l88 16q15 -23 15 -55q0 -47 -30 -74.5t-76 -27.5q-41 0 -70.5 16t-48 31.5t-33.5 15.5zM163 239q-27 0 -27 -25q0 -11 7 -23
l-88 -16q-15 23 -15 53q0 48 30 76t76 28q41 0 70.5 -16t48 -31.5t33.5 -15.5q27 0 27 25q0 11 -7 23l88 16q15 -23 15 -55q0 -47 -30 -74.5t-76 -27.5q-41 0 -70.5 16t-48 31.5t-33.5 15.5z" />
    <glyph glyph-name="notequal" unicode="&#x2260;" horiz-adv-x="564" 
d="M40 394v102h270l84 145l88 -52l-54 -93h96v-102h-154l-57 -98h211v-102h-270l-84 -145l-88 52l54 93h-96v102h154l57 98h-211z" />
    <glyph glyph-name="lessequal" unicode="&#x2264;" horiz-adv-x="564" 
d="M64 361v98l437 214v-124l-299 -139l299 -139v-125zM40 0v102h484v-102h-484z" />
    <glyph glyph-name="greaterequal" unicode="&#x2265;" horiz-adv-x="564" 
d="M501 459v-98l-437 -215v125l299 139l-299 139v124zM40 0v102h484v-102h-484z" />
    <glyph glyph-name="lozenge" unicode="&#x25ca;" horiz-adv-x="606" 
d="M583 350l-216 -350h-128l-216 350l216 350h128zM303 110l148 240l-148 240l-148 -240z" />
    <glyph glyph-name="apple" unicode="&#xf8ff;" horiz-adv-x="748" 
d="M670 617v-595q0 -9 -6.5 -15.5t-15.5 -6.5q-3 0 -7 1l-267 77l-267 -77q-4 -1 -7 -1q-9 0 -15.5 6.5t-6.5 15.5v595q0 17 16 22l270 78q6 2 10 2t10 -2l270 -78q16 -5 16 -22zM352 366v303l-230 -67q6 -94 71.5 -161t158.5 -75zM396 669v-303q93 8 158.5 75t71.5 161z
M121 463v-412l231 67v204q-73 6 -134 43.5t-97 97.5zM627 51v412q-37 -60 -97.5 -97.5t-133.5 -43.5v-204z" />
    <glyph glyph-name="a.alt" horiz-adv-x="618" 
d="M555 496v-496h-126v64q-47 -78 -153 -78q-104 0 -172.5 70.5t-68.5 191.5q0 118 71.5 190t165.5 72q108 0 157 -70v56h126zM300 104q60 0 98.5 40.5t38.5 103.5t-38.5 103.5t-98.5 40.5t-98.5 -40.5t-38.5 -103.5t38.5 -103.5t98.5 -40.5z" />
    <glyph glyph-name="aacute.alt" horiz-adv-x="618" 
d="M555 496v-496h-126v64q-47 -78 -153 -78q-104 0 -172.5 70.5t-68.5 191.5q0 118 71.5 190t165.5 72q108 0 157 -70v56h126zM300 104q60 0 98.5 40.5t38.5 103.5t-38.5 103.5t-98.5 40.5t-98.5 -40.5t-38.5 -103.5t38.5 -103.5t98.5 -40.5zM219 550l68 158h153l-124 -158
h-97z" />
    <glyph glyph-name="acircumflex.alt" horiz-adv-x="618" 
d="M555 496v-496h-126v64q-47 -78 -153 -78q-104 0 -172.5 70.5t-68.5 191.5q0 118 71.5 190t165.5 72q108 0 157 -70v56h126zM300 104q60 0 98.5 40.5t38.5 103.5t-38.5 103.5t-98.5 40.5t-98.5 -40.5t-38.5 -103.5t38.5 -103.5t98.5 -40.5zM151 550l113 157h90l113 -157
h-99l-59 60l-59 -60h-99z" />
    <glyph glyph-name="adieresis.alt" horiz-adv-x="618" 
d="M555 496v-496h-126v64q-47 -78 -153 -78q-104 0 -172.5 70.5t-68.5 191.5q0 118 71.5 190t165.5 72q108 0 157 -70v56h126zM300 104q60 0 98.5 40.5t38.5 103.5t-38.5 103.5t-98.5 40.5t-98.5 -40.5t-38.5 -103.5t38.5 -103.5t98.5 -40.5zM340 576v124h118v-124h-118z
M160 576v124h118v-124h-118z" />
    <glyph glyph-name="atilde.alt" horiz-adv-x="618" 
d="M555 496v-496h-126v64q-47 -78 -153 -78q-104 0 -172.5 70.5t-68.5 191.5q0 118 71.5 190t165.5 72q108 0 157 -70v56h126zM300 104q60 0 98.5 40.5t38.5 103.5t-38.5 103.5t-98.5 40.5t-98.5 -40.5t-38.5 -103.5t38.5 -103.5t98.5 -40.5zM226 616q-10 0 -16.5 -6
t-6.5 -16q0 -12 7 -26l-74 -15q-14 21 -14 53q0 43 30 67t68 24q32 0 56.5 -10.5t37.5 -22.5t28.5 -22.5t29.5 -10.5q10 0 16.5 6t6.5 16q0 12 -7 26l74 15q14 -21 14 -53q0 -43 -30 -67t-68 -24q-32 0 -56.5 10.5t-37.5 22.5t-28 22.5t-30 10.5z" />
    <glyph glyph-name="agrave.alt" horiz-adv-x="618" 
d="M555 496v-496h-126v64q-47 -78 -153 -78q-104 0 -172.5 70.5t-68.5 191.5q0 118 71.5 190t165.5 72q108 0 157 -70v56h126zM300 104q60 0 98.5 40.5t38.5 103.5t-38.5 103.5t-98.5 40.5t-98.5 -40.5t-38.5 -103.5t38.5 -103.5t98.5 -40.5zM312 708l68 -158h-97l-124 158
h153z" />
    <glyph glyph-name="abreve.alt" horiz-adv-x="618" 
d="M555 496v-496h-126v64q-47 -78 -153 -78q-104 0 -172.5 70.5t-68.5 191.5q0 118 71.5 190t165.5 72q108 0 157 -70v56h126zM300 104q60 0 98.5 40.5t38.5 103.5t-38.5 103.5t-98.5 40.5t-98.5 -40.5t-38.5 -103.5t38.5 -103.5t98.5 -40.5zM347 677h76q0 -49 -31.5 -81
t-82.5 -32t-82.5 32t-31.5 81h76q0 -19 10 -31t28 -12t28 12t10 31z" />
    <glyph glyph-name="aogonek.alt" horiz-adv-x="618" 
d="M383 -104q0 61 59 104h-13v64q-47 -78 -153 -78q-104 0 -172.5 70.5t-68.5 191.5q0 118 71.5 190t165.5 72q108 0 157 -70v56h126v-496q-72 -40 -72 -78q0 -18 11.5 -28t29.5 -10q9 0 22 2l11 -77q-26 -7 -60 -7q-45 0 -79.5 25t-34.5 69zM300 104q60 0 98.5 40.5
t38.5 103.5t-38.5 103.5t-98.5 40.5t-98.5 -40.5t-38.5 -103.5t38.5 -103.5t98.5 -40.5z" />
    <glyph glyph-name="amacron.alt" horiz-adv-x="618" 
d="M555 496v-496h-126v64q-47 -78 -153 -78q-104 0 -172.5 70.5t-68.5 191.5q0 118 71.5 190t165.5 72q108 0 157 -70v56h126zM300 104q60 0 98.5 40.5t38.5 103.5t-38.5 103.5t-98.5 40.5t-98.5 -40.5t-38.5 -103.5t38.5 -103.5t98.5 -40.5zM175 588v94h248v-94h-248z" />
    <glyph glyph-name="aring.alt" horiz-adv-x="618" 
d="M555 496v-496h-126v64q-47 -78 -153 -78q-104 0 -172.5 70.5t-68.5 191.5q0 118 71.5 190t165.5 72q108 0 157 -70v56h126zM300 104q60 0 98.5 40.5t38.5 103.5t-38.5 103.5t-98.5 40.5t-98.5 -40.5t-38.5 -103.5t38.5 -103.5t98.5 -40.5zM199 635q0 40 28 67.5t68 27.5
t68 -27.5t28 -67.5t-28 -67.5t-68 -27.5t-68 27.5t-28 67.5zM262 635q0 -16 9 -25t24 -9t24 9t9 25t-9 25t-24 9t-24 -9t-9 -25z" />
    <glyph glyph-name="ae.alt" horiz-adv-x="977" 
d="M555 496v-46q20 24 59 42t84 18q106 0 174 -69.5t68 -178.5v-44h-382q6 -57 43 -90.5t93 -33.5q92 0 137 91l94 -54q-70 -145 -233 -145q-38 0 -76 16.5t-61 45.5v-48h-126v64q-47 -78 -153 -78q-104 0 -172.5 70.5t-68.5 191.5q0 118 71.5 190t165.5 72q108 0 157 -70
v56h126zM300 104q60 0 98.5 40.5t38.5 103.5t-38.5 103.5t-98.5 40.5t-98.5 -40.5t-38.5 -103.5t38.5 -103.5t98.5 -40.5zM694 414q-49 0 -85.5 -29.5t-50.5 -74.5h266q-9 49 -43 76.5t-87 27.5z" />
    <glyph glyph-name="aeacute.alt" horiz-adv-x="977" 
d="M555 496v-46q20 24 59 42t84 18q106 0 174 -69.5t68 -178.5v-44h-382q6 -57 43 -90.5t93 -33.5q92 0 137 91l94 -54q-70 -145 -233 -145q-38 0 -76 16.5t-61 45.5v-48h-126v64q-47 -78 -153 -78q-104 0 -172.5 70.5t-68.5 191.5q0 118 71.5 190t165.5 72q108 0 157 -70
v56h126zM300 104q60 0 98.5 40.5t38.5 103.5t-38.5 103.5t-98.5 40.5t-98.5 -40.5t-38.5 -103.5t38.5 -103.5t98.5 -40.5zM694 414q-49 0 -85.5 -29.5t-50.5 -74.5h266q-9 49 -43 76.5t-87 27.5zM442 550l68 158h153l-124 -158h-97z" />
    <glyph glyph-name="alpha.alt" horiz-adv-x="648" 
d="M555 496v-348q0 -44 32 -44q7 0 15 2l20 -106q-34 -14 -71 -14q-96 0 -110 89q-58 -89 -165 -89q-104 0 -172.5 70.5t-68.5 191.5q0 118 71.5 190t165.5 72q108 0 157 -70v56h126zM300 104q60 0 98.5 40.5t38.5 103.5t-38.5 103.5t-98.5 40.5t-98.5 -40.5t-38.5 -103.5
t38.5 -103.5t98.5 -40.5z" />
    <glyph glyph-name="alphatonos.alt" horiz-adv-x="648" 
d="M555 496v-348q0 -44 32 -44q7 0 15 2l20 -106q-34 -14 -71 -14q-96 0 -110 89q-58 -89 -165 -89q-104 0 -172.5 70.5t-68.5 191.5q0 118 71.5 190t165.5 72q108 0 157 -70v56h126zM300 104q60 0 98.5 40.5t38.5 103.5t-38.5 103.5t-98.5 40.5t-98.5 -40.5t-38.5 -103.5
t38.5 -103.5t98.5 -40.5zM238 542l46 158h144l-102 -158h-88z" />
    <glyph glyph-name="delta.alt" horiz-adv-x="578" 
d="M193 563q0 -30 35 -51.5t129 -49.5q180 -54 180 -238q0 -105 -73.5 -171.5t-175.5 -66.5q-104 0 -175.5 63t-71.5 175q0 88 51.5 144.5t102.5 68.5q-52 13 -85.5 50.5t-33.5 76.5q0 71 58 110.5t154 39.5q82 0 143 -32t61 -91q0 -40 -20 -69l-111 38q3 6 3 13
q0 18 -21 30.5t-58 12.5q-40 0 -66 -13.5t-26 -39.5zM288 96q56 0 92.5 35t36.5 94q0 58 -37.5 93.5t-91.5 35.5t-91.5 -35.5t-37.5 -93.5q0 -59 36.5 -94t92.5 -35z" />
    <glyph glyph-name="zero.slash" horiz-adv-x="722" 
d="M677 350q0 -164 -88.5 -264t-227.5 -100t-227.5 100t-88.5 264t88.5 264t227.5 100t227.5 -100t88.5 -264zM361 108q82 0 133 65t51 177q0 84 -29 142l-219 -372q30 -12 64 -12zM177 350q0 -84 29 -142l219 372q-30 12 -64 12q-82 0 -133 -65t-51 -177z" />
    <glyph glyph-name="zerosuperior.slash" horiz-adv-x="388" 
d="M355 525q0 -81 -46 -131.5t-115 -50.5t-115 50.5t-46 131.5t46 131.5t115 50.5t115 -50.5t46 -131.5zM194 419q35 0 56 27.5t21 78.5q0 35 -9 58l-82 -163q5 -1 14 -1zM117 525q0 -35 9 -58l82 163q-5 1 -14 1q-35 0 -56 -27.5t-21 -78.5z" />
    <glyph glyph-name="zeroinferior.slash" horiz-adv-x="388" 
d="M355 -29q0 -81 -46 -131.5t-115 -50.5t-115 50.5t-46 131.5t46 131.5t115 50.5t115 -50.5t46 -131.5zM194 -135q35 0 56 27.5t21 78.5q0 36 -9 58l-82 -163q5 -1 14 -1zM117 -29q0 -35 9 -58l82 163q-5 1 -14 1q-35 0 -56 -27.5t-21 -78.5z" />
    <glyph glyph-name="zero.posn" horiz-adv-x="676" 
d="M635 282q0 -96 -43 -165t-108.5 -100t-145.5 -31t-145.5 31t-108.5 100t-43 165t43 165t108.5 100t145.5 31t145.5 -31t108.5 -100t43 -165zM338 104q70 0 119.5 47.5t49.5 130.5t-49.5 130.5t-119.5 47.5t-119.5 -47.5t-49.5 -130.5t49.5 -130.5t119.5 -47.5z" />
    <glyph glyph-name="one.posn" horiz-adv-x="375" 
d="M32 354v122q61 0 94 21t56 67h120v-564h-128v401q-27 -27 -58.5 -37t-83.5 -10z" />
    <glyph glyph-name="two.posn" horiz-adv-x="526" 
d="M63 81l230 193q63 53 63 117q0 33 -21.5 55t-58.5 22q-40 0 -65.5 -23.5t-25.5 -61.5q0 -22 9 -45l-116 -23q-19 36 -19 78q0 79 59.5 132t153.5 53q98 0 154 -50t56 -131q0 -98 -102 -189l-102 -90h202v-118h-417v81z" />
    <glyph glyph-name="three.posn" 
d="M59 176l121 -30q-4 -12 -4 -29q0 -47 31 -72t88 -25q112 0 112 96q0 99 -176 99v98q148 0 148 88q0 35 -26 53t-69 18q-44 0 -72.5 -22t-28.5 -59q0 -20 6 -34l-119 -20q-9 25 -9 55q0 78 61.5 132t160.5 54q102 0 162 -42t60 -118q0 -50 -28 -86.5t-73 -56.5
q55 -20 93 -60t38 -99q0 -96 -66.5 -151t-173.5 -55q-117 0 -182 57t-65 147q0 35 11 62z" />
    <glyph glyph-name="four.posn" horiz-adv-x="604" 
d="M46 40v114l318 410h128v-410h76v-114h-76v-116h-128v116h-318zM364 383l-178 -229h178v229z" />
    <glyph glyph-name="five.posn" horiz-adv-x="608" 
d="M63 220l32 344h413v-106h-317l-17 -142q59 61 156 61q103 0 163.5 -61t60.5 -167q0 -102 -69.5 -170.5t-189.5 -68.5q-110 0 -175.5 57t-65.5 139q0 34 10 55l119 -32q-3 -10 -3 -26q0 -36 33.5 -59.5t82.5 -23.5q60 0 96 34.5t36 97.5q0 59 -35.5 93t-92.5 34
q-44 0 -81.5 -22.5t-58.5 -61.5z" />
    <glyph glyph-name="six.posn" horiz-adv-x="592" 
d="M506 428l-119 26q8 19 8 33q0 33 -21.5 51t-57.5 18q-63 0 -103.5 -61t-45.5 -142q57 65 152 65q97 0 159.5 -56.5t62.5 -156.5q0 -103 -66 -161t-177 -58q-115 0 -186 80t-71 232q0 149 75 252.5t203 103.5q91 0 146.5 -43t55.5 -116q0 -37 -15 -67zM297 312
q-51 0 -84.5 -30t-33.5 -81t33.5 -81t84.5 -30t84.5 30t33.5 81t-33.5 81t-84.5 30z" />
    <glyph glyph-name="seven.posn" horiz-adv-x="527" 
d="M472 452l-199 -528h-128l197 522h-305v118h435v-112z" />
    <glyph glyph-name="eight.posn" horiz-adv-x="586" 
d="M293 -14q-109 0 -174.5 50.5t-65.5 146.5q0 56 32.5 97.5t83.5 63.5q-93 49 -93 139q0 76 57.5 123.5t159.5 47.5t159.5 -47.5t57.5 -123.5q0 -90 -93 -139q51 -22 83.5 -63.5t32.5 -97.5q0 -96 -65.5 -146.5t-174.5 -50.5zM293 88q52 0 84.5 27.5t32.5 72.5t-32.5 71.5
t-84.5 26.5t-84.5 -26.5t-32.5 -71.5t32.5 -72.5t84.5 -27.5zM195 473q0 -40 28 -63.5t70 -23.5t70 23.5t28 63.5t-28 63.5t-70 23.5t-70 -23.5t-28 -63.5z" />
    <glyph glyph-name="nine.posn" horiz-adv-x="593" 
d="M88 132l119 -26q-8 -19 -8 -33q0 -65 90 -65q62 0 100 58.5t38 144.5q-57 -65 -152 -65q-97 0 -159.5 56.5t-62.5 156.5q0 102 67 160.5t176 58.5q122 0 189.5 -78t67.5 -234q0 -155 -70.5 -255.5t-193.5 -100.5q-100 0 -158 41t-58 114q0 37 15 67zM296 250
q53 0 86 30.5t33 81.5t-33 81.5t-86 30.5t-85 -30.5t-32 -81.5t32 -81.5t85 -30.5z" />
    <glyph glyph-name="zero.posn.slash" horiz-adv-x="676" 
d="M635 282q0 -96 -43 -165t-108.5 -100t-145.5 -31t-145.5 31t-108.5 100t-43 165t43 165t108.5 100t145.5 31t145.5 -31t108.5 -100t43 -165zM338 104q70 0 119.5 47.5t49.5 130.5q0 60 -27 103l-195 -273q23 -8 53 -8zM169 282q0 -60 27 -103l195 273q-23 8 -53 8
q-70 0 -119.5 -47.5t-49.5 -130.5z" />
    <glyph glyph-name="zero.tn" horiz-adv-x="610" 
d="M591 350q0 -169 -77 -266.5t-209 -97.5t-209 97.5t-77 266.5t77 266.5t209 97.5t209 -97.5t77 -266.5zM305 108q72 0 113 65.5t41 176.5t-41 176.5t-113 65.5t-113 -65.5t-41 -176.5t41 -176.5t113 -65.5z" />
    <glyph glyph-name="one.tn" horiz-adv-x="610" 
d="M77 483v121q131 0 185 96h124v-578h177v-122h-496v122h187v416q-56 -55 -177 -55z" />
    <glyph glyph-name="two.tn" horiz-adv-x="610" 
d="M69 94l266 261q45 44 63.5 75t18.5 68q0 45 -29 72.5t-78 27.5t-79 -26.5t-30 -72.5q0 -25 9 -48l-128 -24q-13 33 -13 79q0 85 66.5 146.5t174.5 61.5q112 0 173.5 -56t61.5 -145q0 -69 -26.5 -120.5t-95.5 -117.5l-157 -153h279v-122h-476v94z" />
    <glyph glyph-name="three.tn" horiz-adv-x="610" 
d="M59 263l125 -30q-4 -12 -4 -29q0 -48 33 -76.5t86 -28.5q56 0 89.5 29t33.5 82q0 60 -48.5 88t-130.5 28v98q72 0 111 26.5t39 74.5q0 37 -26.5 59.5t-71.5 22.5q-44 0 -73 -22t-29 -59q0 -20 6 -34l-122 -27q-10 30 -10 55q0 80 63 137.5t166 57.5q110 0 167.5 -47.5
t57.5 -124.5q0 -54 -29 -95.5t-74 -61.5q60 -20 98 -64.5t38 -111.5q0 -102 -71 -162.5t-184 -60.5q-118 0 -184.5 62t-66.5 152q0 35 11 62z" />
    <glyph glyph-name="four.tn" horiz-adv-x="610" 
d="M38 116v114l329 470h134v-462h71v-122h-71v-116h-132v116h-331zM369 514l-196 -276h196v276z" />
    <glyph glyph-name="five.tn" horiz-adv-x="610" 
d="M59 318l33 382h434v-122h-342l-17 -161q28 30 71 45.5t85 15.5q118 0 182.5 -64.5t64.5 -173.5t-74.5 -181.5t-193.5 -72.5q-114 0 -181.5 59t-67.5 141q0 27 10 55l126 -30q-4 -14 -4 -26q0 -42 32.5 -64.5t85.5 -22.5q61 0 98 37.5t37 104.5q0 63 -37 99.5t-98 36.5
q-42 0 -79 -22.5t-62 -62.5z" />
    <glyph glyph-name="six.tn" horiz-adv-x="610" 
d="M533 484l-122 26q7 18 7 33q0 34 -25.5 51.5t-66.5 17.5q-70 0 -112 -65t-50 -162q70 73 169 73q105 0 172 -65.5t67 -167.5t-74 -170.5t-186 -68.5q-125 0 -199 85.5t-74 237.5q0 130 41 230q36 84 99 129.5t147 45.5q100 0 159 -48t59 -126q0 -31 -11 -56zM310 350
q-57 0 -95 -34.5t-38 -93.5t38 -93.5t95 -34.5t95.5 34.5t38.5 93.5t-38.5 93.5t-95.5 34.5z" />
    <glyph glyph-name="seven.tn" horiz-adv-x="610" 
d="M541 584l-262 -584h-132l260 578h-338v122h472v-116z" />
    <glyph glyph-name="eight.tn" horiz-adv-x="610" 
d="M305 -14q-115 0 -183 57t-68 151q0 63 32 110t88 71q-99 50 -99 155q0 81 64 132.5t166 51.5t166 -51.5t64 -132.5q0 -105 -99 -155q56 -24 88 -71t32 -110q0 -94 -68 -151t-183 -57zM305 94q53 0 88 31.5t35 79.5t-35 79.5t-88 31.5t-88 -31.5t-35 -79.5t35 -79.5
t88 -31.5zM201 521q0 -45 30.5 -71t73.5 -26t73.5 26t30.5 71t-30.5 70t-73.5 25t-73.5 -25t-30.5 -70z" />
    <glyph glyph-name="nine.tn" horiz-adv-x="610" 
d="M72 216l124 -27q-7 -18 -7 -32q0 -33 28 -51t70 -18q66 0 108 60t50 167q-56 -73 -161 -73q-109 0 -178 65.5t-69 167.5q0 103 73 171t187 68q132 0 202.5 -84t70.5 -239q0 -128 -42 -235q-32 -82 -95.5 -126t-149.5 -44q-104 0 -162 50t-58 127q0 28 9 53zM300 350
q55 0 93.5 34.5t38.5 93.5t-38.5 93.5t-93.5 34.5t-95 -35t-40 -93t40 -93t95 -35z" />
    <glyph glyph-name="zero.tn.slash" horiz-adv-x="610" 
d="M591 350q0 -169 -77 -266.5t-209 -97.5t-209 97.5t-77 266.5t77 266.5t209 97.5t209 -97.5t77 -266.5zM151 350q0 -72 16 -121l204 345q-29 18 -66 18q-72 0 -113 -65.5t-41 -176.5zM305 108q72 0 113 65.5t41 176.5q0 72 -16 121l-204 -345q28 -18 66 -18z" />
    <glyph glyph-name="zero.tosn" horiz-adv-x="610" 
d="M602 282q0 -96 -43 -165t-108.5 -100t-145.5 -31t-145.5 31t-108.5 100t-43 165t43 165t108.5 100t145.5 31t145.5 -31t108.5 -100t43 -165zM305 104q70 0 119.5 47.5t49.5 130.5t-49.5 130.5t-119.5 47.5t-119.5 -47.5t-49.5 -130.5t49.5 -130.5t119.5 -47.5z" />
    <glyph glyph-name="one.tosn" horiz-adv-x="610" 
d="M86 0v118h180v283q-47 -47 -162 -47v122q126 0 170 88h120v-446h148v-118h-456z" />
    <glyph glyph-name="two.tosn" horiz-adv-x="610" 
d="M109 81l230 193q63 53 63 117q0 33 -21.5 55t-58.5 22q-40 0 -65.5 -23.5t-25.5 -61.5q0 -22 9 -45l-116 -23q-19 36 -19 78q0 79 59.5 132t153.5 53q98 0 154 -50t56 -131q0 -98 -102 -189l-102 -90h202v-118h-417v81z" />
    <glyph glyph-name="three.tosn" horiz-adv-x="610" 
d="M75 176l121 -30q-4 -12 -4 -29q0 -47 31 -72t88 -25q112 0 112 96q0 99 -176 99v98q148 0 148 88q0 35 -26 53t-69 18q-44 0 -72.5 -22t-28.5 -59q0 -20 6 -34l-119 -20q-9 25 -9 55q0 78 61.5 132t160.5 54q102 0 162 -42t60 -118q0 -50 -28 -86.5t-73 -56.5
q55 -20 93 -60t38 -99q0 -96 -66.5 -151t-173.5 -55q-117 0 -182 57t-65 147q0 35 11 62z" />
    <glyph glyph-name="four.tosn" horiz-adv-x="610" 
d="M49 40v114l318 410h128v-410h76v-114h-76v-116h-128v116h-318zM367 383l-178 -229h178v229z" />
    <glyph glyph-name="five.tosn" horiz-adv-x="610" 
d="M73 220l32 344h413v-106h-317l-17 -142q59 61 156 61q103 0 163.5 -61t60.5 -167q0 -102 -69.5 -170.5t-189.5 -68.5q-110 0 -175.5 57t-65.5 139q0 34 10 55l119 -32q-3 -10 -3 -26q0 -36 33.5 -59.5t82.5 -23.5q60 0 96 34.5t36 97.5q0 59 -35.5 93t-92.5 34
q-44 0 -81.5 -22.5t-58.5 -61.5z" />
    <glyph glyph-name="six.tosn" horiz-adv-x="610" 
d="M525 428l-119 26q8 19 8 33q0 33 -21.5 51t-57.5 18q-63 0 -103.5 -61t-45.5 -142q57 65 152 65q97 0 159.5 -56.5t62.5 -156.5q0 -103 -66 -161t-177 -58q-115 0 -186 80t-71 232q0 149 75 252.5t203 103.5q91 0 146.5 -43t55.5 -116q0 -37 -15 -67zM316 312
q-51 0 -84.5 -30t-33.5 -81t33.5 -81t84.5 -30t84.5 30t33.5 81t-33.5 81t-84.5 30z" />
    <glyph glyph-name="seven.tosn" horiz-adv-x="610" 
d="M514 452l-199 -528h-128l197 522h-305v118h435v-112z" />
    <glyph glyph-name="eight.tosn" horiz-adv-x="610" 
d="M305 -14q-109 0 -174.5 50.5t-65.5 146.5q0 56 32.5 97.5t83.5 63.5q-93 49 -93 139q0 76 57.5 123.5t159.5 47.5t159.5 -47.5t57.5 -123.5q0 -90 -93 -139q51 -22 83.5 -63.5t32.5 -97.5q0 -96 -65.5 -146.5t-174.5 -50.5zM305 88q52 0 84.5 27.5t32.5 72.5t-32.5 71.5
t-84.5 26.5t-84.5 -26.5t-32.5 -71.5t32.5 -72.5t84.5 -27.5zM207 473q0 -40 28 -63.5t70 -23.5t70 23.5t28 63.5t-28 63.5t-70 23.5t-70 -23.5t-28 -63.5z" />
    <glyph glyph-name="nine.tosn" horiz-adv-x="610" 
d="M100 132l119 -26q-8 -19 -8 -33q0 -65 90 -65q62 0 100 58.5t38 144.5q-57 -65 -152 -65q-97 0 -159.5 56.5t-62.5 156.5q0 102 67 160.5t176 58.5q122 0 189.5 -78t67.5 -234q0 -155 -70.5 -255.5t-193.5 -100.5q-100 0 -158 41t-58 114q0 37 15 67zM308 250
q53 0 86 30.5t33 81.5t-33 81.5t-86 30.5t-85 -30.5t-32 -81.5t32 -81.5t85 -30.5z" />
    <glyph glyph-name="zero.tosn.slash" horiz-adv-x="610" 
d="M602 282q0 -96 -43 -165t-108.5 -100t-145.5 -31t-145.5 31t-108.5 100t-43 165t43 165t108.5 100t145.5 31t145.5 -31t108.5 -100t43 -165zM305 104q70 0 119.5 47.5t49.5 130.5q0 60 -27 103l-195 -273q23 -8 53 -8zM136 282q0 -60 27 -103l195 273q-23 8 -53 8
q-70 0 -119.5 -47.5t-49.5 -130.5z" />
    <glyph glyph-name="at.case" horiz-adv-x="958" 
d="M652 64l48 -81q-104 -66 -242 -66q-82 0 -154.5 25t-131.5 75t-93 132.5t-34 188.5q0 187 129.5 316t327.5 129q64 0 122.5 -14t110.5 -44.5t90.5 -73.5t60.5 -105t22 -136q0 -134 -72 -224t-176 -90q-44 0 -71 21t-27 55q0 5 1 12q-23 -38 -63 -63t-90 -25
q-83 0 -132.5 59t-49.5 155q0 69 23 127t59.5 95t79.5 57t86 20q92 0 126 -65l8 49h96l-56 -362q-1 -9 -1 -16q0 -34 31 -34q46 0 84 61.5t38 166.5q0 127 -78 204.5t-229 77.5q-144 0 -244 -102t-100 -258q0 -152 89 -237t222 -85q110 0 190 55zM425 181q62 0 107.5 63
t45.5 161q0 117 -89 117q-61 0 -108 -63t-47 -155q0 -59 25.5 -91t65.5 -32z" />
    <glyph glyph-name="braceleft.case" horiz-adv-x="395" 
d="M48 299v102q38 0 56.5 17t18.5 62v108q0 99 45 143t134 44h48v-118h-25q-76 0 -76 -87v-107q0 -49 -17 -74t-52 -39q35 -14 52 -39t17 -74v-107q0 -87 76 -87h25v-118h-48q-89 0 -134 44t-45 143v108q0 45 -18.5 62t-56.5 17z" />
    <glyph glyph-name="braceright.case" horiz-adv-x="395" 
d="M347 401v-102q-38 0 -56.5 -17t-18.5 -62v-108q0 -99 -45 -143t-134 -44h-48v118h25q76 0 76 87v107q0 49 17 74t52 39q-35 14 -52 39t-17 74v107q0 87 -76 87h-25v118h48q89 0 134 -44t45 -143v-108q0 -45 18.5 -62t56.5 -17z" />
    <glyph glyph-name="bracketleft.case" horiz-adv-x="347" 
d="M73 -75v850h229v-118h-103v-614h103v-118h-229z" />
    <glyph glyph-name="bracketright.case" horiz-adv-x="347" 
d="M274 775v-850h-229v118h103v614h-103v118h229z" />
    <glyph glyph-name="bullet.case" horiz-adv-x="326" 
d="M43 350q0 50 35 85t85 35t85 -35t35 -85t-35 -85t-85 -35t-85 35t-35 85z" />
    <glyph glyph-name="exclamdown.case" horiz-adv-x="278" 
d="M205 244v-243h-132v243l16 249h100zM205 701v-138h-132v138h132z" />
    <glyph glyph-name="guillemotleft.case" 
d="M423 563h141l-166 -213l166 -213h-141l-167 213zM207 563h141l-166 -213l166 -213h-141l-167 213z" />
    <glyph glyph-name="guillemotright.case" 
d="M171 137h-141l166 213l-166 213h141l167 -213zM387 137h-141l166 213l-166 213h141l167 -213z" />
    <glyph glyph-name="guilsinglleft.case" horiz-adv-x="378" 
d="M207 564h141l-166 -214l166 -212h-141l-167 212z" />
    <glyph glyph-name="guilsinglright.case" horiz-adv-x="378" 
d="M30 564h141l167 -214l-167 -212h-141l166 212z" />
    <glyph glyph-name="parenleft.case" horiz-adv-x="360" 
d="M284 -74h-113q-108 192 -108 424t108 424h113q-40 -73 -66.5 -196t-26.5 -228t26.5 -228t66.5 -196z" />
    <glyph glyph-name="parenright.case" horiz-adv-x="360" 
d="M189 -74h-113q40 73 66.5 196t26.5 228t-26.5 228t-66.5 196h113q108 -192 108 -424t-108 -424z" />
    <glyph glyph-name="questiondown.case" horiz-adv-x="549" 
d="M221 492h126v-16q0 -46 -18.5 -79.5t-67.5 -72.5q-51 -41 -71.5 -71.5t-20.5 -67.5q0 -39 29 -62t75 -23q48 0 80.5 27t32.5 72q0 19 -7 37l115 24q14 -30 14 -72q0 -79 -64.5 -140.5t-167.5 -61.5q-107 0 -169 52t-62 138q0 60 27 105.5t102 109.5q27 23 37 45.5
t10 55.5zM350 700v-138h-132v138h132z" />
    </font>
</defs>
</svg>
