<?xml version="1.0" standalone="no"?>
<!DOCTYPE svg PUBLIC "-//W3C//DTD SVG 1.1//EN" "http://www.w3.org/Graphics/SVG/1.1/DTD/svg11.dtd" >
<svg xmlns="http://www.w3.org/2000/svg" xmlns:xlink="http://www.w3.org/1999/xlink" version="1.1">
<metadata>
Created by FontForge 20170731 at Sun Aug 16 18:35:47 2015
 By Aleksey,,,
Copyright (c) 2014 by Richard Miller. All rights reserved.
</metadata>
<defs>
<font id="UniformMedium-Regular" horiz-adv-x="610" >
  <font-face 
    font-family="Uniform Medium Light"
    font-weight="400"
    font-stretch="normal"
    units-per-em="1000"
    panose-1="0 0 5 0 0 0 0 0 0 0"
    ascent="750"
    descent="-250"
    x-height="513"
    cap-height="700"
    bbox="-190 -215 1200 950"
    underline-thickness="50"
    underline-position="-200"
    unicode-range="U+0020-FB02"
  />
<missing-glyph horiz-adv-x="691" 
d="M20 700h651v-700h-651v700zM540 508l-36 36l-159 -158l-158 159l-36 -36l158 -159l-159 -159l36 -36l159 159l159 -159l36 36l-159 159z" />
    <glyph glyph-name="ellipsis" unicode="&#x2e;&#x2e;&#x2e;" horiz-adv-x="835" 
d="M122 135q30 0 51.5 -21t21.5 -51t-21.5 -51.5t-51.5 -21.5t-51 21.5t-21 51.5t21 51t51 21zM417 135q30 0 51.5 -21t21.5 -51t-21.5 -51.5t-51.5 -21.5t-51 21.5t-21 51.5t21 51t51 21zM712 135q30 0 51.5 -21t21.5 -51t-21.5 -51.5t-51.5 -21.5t-51 21.5t-21 51.5t21 51
t51 21z" />
    <glyph glyph-name="ff" unicode="ff" horiz-adv-x="780" 
d="M230 483h175v-89h-175v-394h-110v394h-100v89h100v47q0 86 46.5 133t128.5 47q36 0 66 -5t42 -11l12 -5l-14 -84q-30 14 -78 14q-44 0 -68.5 -25t-24.5 -72v-39zM585 483h175v-89h-175v-394h-110v515q0 94 47.5 144.5t132.5 50.5q35 0 64 -5t40 -11l11 -5l-14 -83
q-28 13 -76 13q-45 0 -70 -27.5t-25 -79.5v-29z" />
    <glyph glyph-name="ft" unicode="ft" horiz-adv-x="795" 
d="M230 483h175v-89h-175v-394h-110v394h-100v89h100v47q0 86 46.5 133t128.5 47q36 0 66 -5t42 -11l12 -5l-14 -84q-30 14 -78 14q-44 0 -68.5 -25t-24.5 -72v-39zM585 513h180v-91h-180v-245q0 -86 78 -86q20 0 42 3.5t34 6.5l12 3l14 -92q-49 -22 -127 -22
q-76 0 -119.5 42t-43.5 120v488h110v-127z" />
    <glyph glyph-name="rf" unicode="rf" horiz-adv-x="755" 
d="M560 483h175v-89h-175v-394h-110v515q0 94 47.5 144.5t132.5 50.5q35 0 64 -5t40 -11l11 -5l-14 -83q-28 13 -76 13q-45 0 -70 -27.5t-25 -79.5v-29zM70 513h98l7 -108q55 118 201 118l-2 -112h-22q-82 0 -127 -47.5t-45 -144.5v-219h-110v513z" />
    <glyph glyph-name="rt" unicode="rt" horiz-adv-x="770" 
d="M560 513h180v-91h-180v-245q0 -86 78 -86q20 0 42 3.5t34 6.5l12 3l14 -92q-49 -22 -127 -22q-76 0 -119.5 42t-43.5 120v488h110v-127zM70 513h98l7 -108q55 118 201 118l-2 -112h-22q-82 0 -127 -47.5t-45 -144.5v-219h-110v513z" />
    <glyph glyph-name="tf" unicode="tf" horiz-adv-x="785" 
d="M590 483h175v-89h-175v-394h-110v515q0 94 47.5 144.5t132.5 50.5q35 0 64 -5t40 -11l11 -5l-14 -83q-28 13 -76 13q-45 0 -70 -27.5t-25 -79.5v-29zM230 513h180v-89h-180v-247q0 -86 78 -86q20 0 42 3.5t34 6.5l12 3l14 -92q-49 -22 -127 -22q-76 0 -119.5 42
t-43.5 120v272h-100v89h100v127h110v-127z" />
    <glyph glyph-name="tt" unicode="tt" horiz-adv-x="800" 
d="M230 513h180v-89h-180v-247q0 -86 78 -86q20 0 42 3.5t34 6.5l12 3l14 -92q-49 -22 -127 -22q-76 0 -119.5 42t-43.5 120v272h-100v89h100v127h110v-127zM590 513h180v-89h-180v-247q0 -86 78 -86q20 0 42 3.5t34 6.5l12 3l14 -92q-49 -22 -127 -22q-76 0 -119.5 42
t-43.5 120v488h110v-127z" />
    <glyph glyph-name="rtf" unicode="rtf" horiz-adv-x="1116" 
d="M920 483h175v-89h-175v-394h-110v515q0 94 47.5 144.5t132.5 50.5q35 0 64 -5t40 -11l11 -5l-14 -83q-28 13 -76 13q-45 0 -70 -27.5t-25 -79.5v-29zM560 513h180v-91h-180v-245q0 -86 78 -86q20 0 42 3.5t34 6.5l12 3l14 -92q-49 -22 -127 -22q-76 0 -119.5 42
t-43.5 120v488h110v-127zM70 513h98l7 -108q55 118 201 118l-2 -112h-22q-82 0 -127 -47.5t-45 -144.5v-219h-110v513z" />
    <glyph glyph-name=".notdef" horiz-adv-x="691" 
d="M20 700h651v-700h-651v700zM540 508l-36 36l-159 -158l-158 159l-36 -36l158 -159l-159 -159l36 -36l159 159l159 -159l36 36l-159 159z" />
    <glyph glyph-name=".null" horiz-adv-x="0" 
 />
    <glyph glyph-name="nonmarkingreturn" horiz-adv-x="333" 
 />
    <glyph glyph-name="space" unicode=" " horiz-adv-x="262" 
 />
    <glyph glyph-name="exclam" unicode="!" horiz-adv-x="305" 
d="M85 700h135l-26 -475h-83zM152 135q30 0 51.5 -21t21.5 -51t-21.5 -51.5t-51.5 -21.5t-51 21.5t-21 51.5t21 51t51 21z" />
    <glyph glyph-name="quotedbl" unicode="&#x22;" horiz-adv-x="354" 
d="M50 430v270h87v-270h-87zM217 430v270h87v-270h-87z" />
    <glyph glyph-name="numbersign" unicode="#" 
d="M341 158h-130l-31 -158h-75l31 158h-96v68h110l29 147h-99v68h113l32 159h75l-32 -159h130l32 159h75l-32 -159h97v-68h-111l-29 -147h100v-68h-114l-31 -158h-75zM225 226h130l29 147h-130z" />
    <glyph glyph-name="dollar" unicode="$" horiz-adv-x="551" 
d="M239 323q-166 75 -166 203q0 71 50 120t129 58v96h68v-95q36 -4 68 -17t52 -29t34.5 -31t20.5 -25l6 -10l-80 -56q-2 3 -5.5 8.5t-16 18.5t-26.5 23t-37.5 18.5t-48.5 8.5q-46 0 -73.5 -24t-27.5 -58q0 -39 30 -67.5t100 -60.5q184 -83 184 -218q0 -77 -50 -128.5
t-130 -62.5v-95h-68v93q-43 3 -80.5 18t-60.5 34t-40 37t-24 30l-7 13l81 56q2 -4 6.5 -10.5t20 -22.5t32.5 -28.5t44.5 -23t56.5 -10.5q48 0 77.5 25.5t29.5 65.5q0 43 -34 76t-115 70z" />
    <glyph glyph-name="percent" unicode="%" horiz-adv-x="770" 
d="M45 460q0 65 43.5 107.5t108.5 42.5t108.5 -42t43.5 -107q0 -64 -44 -107t-109 -43t-108 42.5t-43 106.5zM552 600h78l-412 -600h-79zM120 461q0 -35 21.5 -57.5t55.5 -22.5q33 0 55 23t22 57t-22 56.5t-55 22.5q-34 0 -55.5 -22t-21.5 -57zM421 139q0 65 43.5 107.5
t108.5 42.5t108.5 -42t43.5 -107q0 -64 -44 -107t-109 -43t-108 42.5t-43 106.5zM496 140q0 -35 21.5 -57.5t55.5 -22.5q33 0 55 23t22 57t-22 56.5t-55 22.5q-34 0 -55.5 -22t-21.5 -57z" />
    <glyph glyph-name="ampersand" unicode="&#x26;" horiz-adv-x="725" 
d="M710 400l-174 -222l174 -178h-125l-107 106q-53 -61 -105.5 -88.5t-119.5 -27.5q-89 0 -151 56.5t-62 139.5q0 129 153 208q-78 88 -78 158q0 67 53 112.5t136 45.5q85 0 135.5 -46.5t50.5 -112.5q0 -106 -144 -179l125 -128l126 156h113zM217 549q0 -28 15.5 -53
t54.5 -64q57 24 82.5 50.5t25.5 62.5q0 34 -25 57.5t-64 23.5q-40 0 -64.5 -22t-24.5 -55zM263 83q79 0 149 87l1 2l-159 160q-109 -54 -109 -136q0 -48 33.5 -80.5t84.5 -32.5z" />
    <glyph glyph-name="quotesingle" unicode="'" horiz-adv-x="187" 
d="M50 430v270h87v-270h-87z" />
    <glyph glyph-name="parenleft" unicode="(" horiz-adv-x="429" 
d="M351 -100q-6 2 -16.5 7t-40.5 23t-57.5 40.5t-61.5 60.5t-58 81t-40.5 105t-16.5 131t16 131t41.5 106.5t56.5 82t62.5 61t57 40.5t41.5 24l16 7l48 -77q-9 -4 -25 -13t-56 -42t-70.5 -72t-55.5 -105.5t-25 -140.5t24 -139.5t58 -106.5t68 -71t58 -43l24 -12z" />
    <glyph glyph-name="parenright" unicode=")" horiz-adv-x="429" 
d="M78 800q6 -2 16.5 -7t40.5 -23t57.5 -40.5t61.5 -60.5t58 -81t40.5 -105t16.5 -131t-16 -131t-41.5 -106.5t-56.5 -82t-62.5 -61t-57 -40.5t-41.5 -24l-16 -7l-48 77q9 4 25 13t56 42t70.5 72t55.5 105.5t25 140.5t-24 139.5t-58 106.5t-68 71t-58 43l-24 12z" />
    <glyph glyph-name="asterisk" unicode="*" horiz-adv-x="496" 
d="M280 546l145 57l26 -81l-150 -39l98 -119l-68 -50l-83 129l-83 -129l-69 50l97 119l-148 39l26 81l143 -57l-9 154h86z" />
    <glyph glyph-name="plus" unicode="+" 
d="M349 399h211v-87h-211v-218h-89v218h-210v87h210v218h89v-218z" />
    <glyph glyph-name="comma" unicode="," horiz-adv-x="225" 
d="M40 -130l27 270h118l-58 -270h-87z" />
    <glyph glyph-name="hyphen" unicode="-" horiz-adv-x="420" 
d="M50 308v97h320v-97h-320z" />
    <glyph glyph-name="period" unicode="." horiz-adv-x="245" 
d="M122 135q30 0 51.5 -21t21.5 -51t-21.5 -51.5t-51.5 -21.5t-51 21.5t-21 51.5t21 51t51 21z" />
    <glyph glyph-name="slash" unicode="/" horiz-adv-x="505" 
d="M410 780h95l-410 -860h-95z" />
    <glyph glyph-name="zero" unicode="0" 
d="M65 463q0 115 67.5 181t174.5 66q106 0 172 -64.5t66 -178.5v-230q0 -115 -68 -181t-174 -66q-107 0 -172.5 64t-65.5 179v230zM175 225q0 -61 35.5 -97.5t94.5 -36.5q58 0 94 36.5t36 97.5v250q0 61 -36 97.5t-94 36.5q-59 0 -94.5 -36.5t-35.5 -97.5v-250z" />
    <glyph glyph-name="one" unicode="1" horiz-adv-x="470" 
d="M270 700h90v-700h-110v569l-176 -118l-54 74z" />
    <glyph glyph-name="two" unicode="2" horiz-adv-x="557" 
d="M307 340q47 47 66 82t19 75q0 49 -34 81.5t-86 32.5q-29 0 -54.5 -10t-41.5 -24t-28 -28t-17 -24l-5 -10l-81 50q2 6 7 15.5t24 34.5t43.5 44.5t68 35t94.5 15.5q94 0 157 -57.5t63 -142.5q0 -64 -28.5 -116t-93.5 -118l-180 -181h297v-95h-445v82z" />
    <glyph glyph-name="three" unicode="3" horiz-adv-x="555" 
d="M245 405q58 0 91.5 29t33.5 76q0 46 -33.5 75t-86.5 29q-40 0 -70 -16.5t-40 -33.5l-10 -16l-80 46q2 5 6.5 12.5t22 27.5t39 35.5t59.5 28t81 12.5q95 0 158.5 -52t63.5 -134q0 -52 -29.5 -93.5t-79.5 -64.5q59 -23 94 -69t35 -105q0 -89 -70.5 -145.5t-177.5 -56.5
q-47 0 -87.5 12.5t-65 31t-42.5 36.5t-25 30l-7 13l82 50q2 -3 5.5 -8.5t16 -18.5t27.5 -23t40.5 -18.5t54.5 -8.5q61 0 100 33.5t39 82.5q0 51 -39.5 84.5t-107.5 33.5h-68v85h70z" />
    <glyph glyph-name="four" unicode="4" 
d="M362 700h108v-443h100v-87h-100v-170h-105v170h-325v90zM365 257v310l-232 -310h232z" />
    <glyph glyph-name="five" unicode="5" horiz-adv-x="587" 
d="M82 700h415v-95h-316v-190q53 45 126 45q98 0 161.5 -65t63.5 -160q0 -106 -71.5 -175.5t-181.5 -69.5q-43 0 -82 12t-64 29t-43.5 34t-26.5 29l-8 12l82 59q2 -3 5.5 -8t16.5 -18t28 -22.5t39.5 -17.5t51.5 -8q64 0 104 39.5t40 101.5q0 56 -38 94t-98 38
q-36 0 -63.5 -15t-37.5 -28t-10 -16h-93v395z" />
    <glyph glyph-name="six" unicode="6" 
d="M310 700h124l-181 -260q34 20 76 20q94 0 160 -64t66 -159q0 -107 -73 -177t-179 -70q-104 0 -176 68.5t-72 171.5q0 96 59 181zM305 91q61 0 100.5 40.5t39.5 100.5q0 61 -39.5 101.5t-100.5 40.5t-100.5 -40.5t-39.5 -101.5q0 -60 39.5 -100.5t100.5 -40.5z" />
    <glyph glyph-name="seven" unicode="7" horiz-adv-x="530" 
d="M371 602h-336v98h460v-75l-295 -625h-119z" />
    <glyph glyph-name="eight" unicode="8" 
d="M307 710q95 0 157.5 -52.5t62.5 -134.5q0 -96 -92 -149q55 -24 87.5 -69.5t32.5 -101.5q0 -92 -72 -152.5t-180 -60.5t-178 58.5t-70 150.5q0 56 32 101.5t87 70.5q-92 51 -92 148q0 82 64.5 136.5t160.5 54.5zM305 410q49 0 82 29.5t33 73.5t-33 73.5t-82 29.5
q-50 0 -82.5 -29.5t-32.5 -73.5t32.5 -73.5t82.5 -29.5zM305 83q60 0 100 35t40 89t-40 89.5t-100 35.5q-61 0 -100.5 -35t-39.5 -90t39.5 -89.5t100.5 -34.5z" />
    <glyph glyph-name="nine" unicode="9" 
d="M300 0h-124l181 260q-34 -20 -76 -20q-94 0 -160 64t-66 159q0 107 73 177t179 70q104 0 176 -68.5t72 -171.5q0 -96 -59 -181zM305 609q-61 0 -100.5 -40.5t-39.5 -100.5q0 -61 39.5 -101.5t100.5 -40.5t100.5 40.5t39.5 101.5q0 60 -39.5 100.5t-100.5 40.5z" />
    <glyph glyph-name="colon" unicode=":" horiz-adv-x="245" 
d="M122 523q30 0 51.5 -21t21.5 -51t-21.5 -51.5t-51.5 -21.5t-51 21.5t-21 51.5t21 51t51 21zM122 135q30 0 51.5 -21t21.5 -51t-21.5 -51.5t-51.5 -21.5t-51 21.5t-21 51.5t21 51t51 21z" />
    <glyph glyph-name="semicolon" unicode=";" horiz-adv-x="245" 
d="M122 523q30 0 51.5 -21t21.5 -51t-21.5 -51.5t-51.5 -21.5t-51 21.5t-21 51.5t21 51t51 21zM40 -130l27 270h118l-58 -270h-87z" />
    <glyph glyph-name="less" unicode="&#x3c;" 
d="M153 356l407 -165v-101l-510 220v90l510 220v-98z" />
    <glyph glyph-name="equal" unicode="=" 
d="M50 405v87h510v-87h-510zM50 197v88h510v-88h-510z" />
    <glyph glyph-name="greater" unicode="&#x3e;" 
d="M457 353l-407 165v101l510 -220v-90l-510 -220v98z" />
    <glyph glyph-name="question" unicode="?" horiz-adv-x="540" 
d="M367 502q0 45 -30 74.5t-75 29.5q-27 0 -49.5 -9.5t-36.5 -22.5t-23.5 -26.5t-13.5 -23.5l-4 -9l-87 50q2 6 6 15.5t21.5 34.5t40.5 44.5t64 35t90 15.5q90 0 150 -55.5t60 -135.5q0 -44 -16 -80t-39.5 -61t-48 -47t-43.5 -49t-23 -57h-100q0 39 16 71.5t39 55.5
t46.5 44.5t39.5 48.5t16 57zM260 135q30 0 51.5 -21t21.5 -51t-21.5 -51.5t-51.5 -21.5t-51 21.5t-21 51.5t21 51t51 21z" />
    <glyph glyph-name="at" unicode="@" horiz-adv-x="986" 
d="M593 -131q-75 -14 -101 -14q-187 0 -314.5 121.5t-127.5 297.5q0 182 129 309t315 127t314 -126t128 -308q0 -127 -65.5 -213.5t-156.5 -86.5q-64 0 -98 42.5t-27 110.5q-57 -54 -142 -54q-92 0 -147.5 66t-42.5 159q12 88 74.5 140.5t145.5 52.5q98 0 146 -71l17 63h69
l10 -11l-48 -345q-5 -37 10.5 -58t45.5 -21q48 0 89.5 63.5t41.5 156.5q0 160 -104 263t-261 103q-153 0 -259 -105t-106 -256q0 -145 106 -246.5t259 -101.5q47 0 81 9zM483 407q-51 0 -87 -31t-43 -82q-8 -55 24.5 -94t88.5 -39q51 0 88.5 30.5t44.5 80.5q8 56 -26.5 95.5
t-89.5 39.5z" />
    <glyph glyph-name="A" unicode="A" horiz-adv-x="710" 
d="M705 0h-126l-71 175h-311l-71 -175h-121l293 700h115zM229 266h245l-122 302z" />
    <glyph glyph-name="B" unicode="B" horiz-adv-x="690" 
d="M390 700q96 0 154.5 -49.5t58.5 -126.5q0 -51 -27.5 -92.5t-75.5 -64.5q63 -19 99 -65.5t36 -109.5q0 -82 -64 -137t-164 -55h-317v700h300zM367 404q55 0 88 29.5t33 73.5q0 43 -33 73t-88 30h-162v-206h162zM205 90h183q60 0 96 33t36 82t-36 82t-96 33h-183v-230z" />
    <glyph glyph-name="C" unicode="C" horiz-adv-x="717" 
d="M50 348q0 152 106.5 257t260.5 105q50 0 95 -11.5t74.5 -27.5t52 -32t32.5 -27l10 -12l-84 -73q-3 3 -7.5 8.5t-22 18.5t-37 23t-50.5 18.5t-65 8.5q-106 0 -178 -73t-72 -181t72 -181t178 -73q35 0 68 9t54.5 21.5t38 25.5t24 21.5t7.5 9.5l80 -73q-4 -5 -11 -13
t-32.5 -28.5t-54.5 -36.5t-76.5 -29t-99.5 -13q-154 0 -258.5 103t-104.5 255z" />
    <glyph glyph-name="D" unicode="D" horiz-adv-x="760" 
d="M327 700q168 0 275.5 -99t107.5 -249t-109.5 -251t-277.5 -101h-233v700h237zM205 100h125q116 0 190.5 71t74.5 179q0 107 -75 178.5t-190 71.5h-125v-500z" />
    <glyph glyph-name="E" unicode="E" horiz-adv-x="650" 
d="M90 0v700h500v-100h-385v-191h335v-94h-335v-215h395v-100h-510z" />
    <glyph glyph-name="F" unicode="F" 
d="M205 280v-280h-115v700h490v-100h-375v-223h325v-97h-325z" />
    <glyph glyph-name="G" unicode="G" horiz-adv-x="807" 
d="M756 365q1 -13 1 -26q-1 -148 -99 -248.5t-245 -100.5q-155 0 -259 103t-104 255t106 257t261 105q50 0 95 -11t74 -26t51 -30.5t32 -26.5l10 -11l-80 -81q-3 3 -8 8.5t-22 19.5t-37 24.5t-51.5 19t-65.5 8.5q-107 0 -178.5 -73t-71.5 -182t71.5 -182t178.5 -73
q86 0 148 51t75 135h-227v85h345z" />
    <glyph glyph-name="H" unicode="H" horiz-adv-x="770" 
d="M565 315h-360v-315h-115v700h115v-283h360v283h115v-700h-115v315z" />
    <glyph glyph-name="I" unicode="I" horiz-adv-x="309" 
d="M95 700h119v-700h-119v700z" />
    <glyph glyph-name="J" unicode="J" horiz-adv-x="478" 
d="M280 700h118v-451q0 -118 -70.5 -188.5t-179.5 -70.5q-40 0 -73.5 7t-46.5 15l-13 7l33 99q32 -20 92 -20q62 0 101 41.5t39 115.5v445z" />
    <glyph glyph-name="K" unicode="K" horiz-adv-x="685" 
d="M205 344v-344h-115v700h115v-325l321 325h144l-346 -335l366 -365h-144z" />
    <glyph glyph-name="L" unicode="L" horiz-adv-x="590" 
d="M90 0v700h115v-598h365v-102h-480z" />
    <glyph glyph-name="M" unicode="M" horiz-adv-x="890" 
d="M202 502v-502h-112v700h119l239 -446l240 446h112v-700h-111v502l-213 -392h-61z" />
    <glyph glyph-name="N" unicode="N" horiz-adv-x="790" 
d="M203 529v-529h-113v700h120l378 -520v520h112v-700h-112z" />
    <glyph glyph-name="O" unicode="O" horiz-adv-x="830" 
d="M417 710q155 0 259 -103t104 -255t-106 -257t-261 -105q-154 0 -258.5 103t-104.5 255t106.5 257t260.5 105zM415 96q107 0 178.5 73t71.5 181t-71.5 181t-178.5 73q-106 0 -178 -73t-72 -181t72 -181t178 -73z" />
    <glyph glyph-name="P" unicode="P" horiz-adv-x="680" 
d="M90 700h293q113 0 182.5 -64t69.5 -165q0 -100 -71.5 -165.5t-184.5 -65.5h-174v-240h-115v700zM205 602v-267h166q67 0 108 37.5t41 95.5t-41 96t-108 38h-166z" />
    <glyph glyph-name="Q" unicode="Q" horiz-adv-x="830" 
d="M417 710q155 0 259 -103t104 -255q0 -103 -51.5 -187.5t-138.5 -129.5l124 -155h-134l-92 119q-36 -9 -75 -9q-154 0 -258.5 103t-104.5 255t106.5 257t260.5 105zM415 96q107 0 178.5 73t71.5 181t-71.5 181t-178.5 73q-106 0 -178 -73t-72 -181t72 -181t178 -73z" />
    <glyph glyph-name="R" unicode="R" horiz-adv-x="695" 
d="M90 700h302q108 0 175.5 -61.5t67.5 -158.5q0 -75 -43.5 -131.5t-117.5 -76.5l191 -272h-135l-177 257h-148v-257h-115v700zM205 602v-255h173q65 0 103.5 36t38.5 92t-38.5 91.5t-103.5 35.5h-173z" />
    <glyph glyph-name="S" unicode="S" horiz-adv-x="575" 
d="M319 408q206 -72 206 -216q0 -87 -66.5 -144.5t-176.5 -57.5q-47 0 -91 10.5t-73 25t-51 29t-32 25.5l-10 10l69 74q9 -9 24.5 -22t67 -35t104.5 -22q52 0 85 27t33 67q0 45 -37.5 77.5t-135.5 67.5q-175 65 -175 196q0 82 64.5 136t168.5 54q41 0 80 -9t64.5 -21
t45 -24.5t28.5 -21.5l9 -9l-69 -75q-7 7 -19.5 18t-53 29t-83.5 18q-55 0 -86 -26t-31 -59q0 -39 31.5 -66.5t109.5 -55.5z" />
    <glyph glyph-name="T" unicode="T" horiz-adv-x="590" 
d="M352 600v-600h-115v600h-217v100h550v-100h-218z" />
    <glyph glyph-name="U" unicode="U" horiz-adv-x="740" 
d="M660 700v-413q0 -132 -81.5 -214.5t-210.5 -82.5q-128 0 -208 80.5t-80 212.5v417h117v-414q0 -85 49 -137.5t126 -52.5q78 0 126.5 52t48.5 138v414h113z" />
    <glyph glyph-name="V" unicode="V" horiz-adv-x="700" 
d="M5 700h129l219 -553l219 553h123l-287 -700h-115z" />
    <glyph glyph-name="W" unicode="W" horiz-adv-x="995" 
d="M5 700h127l170 -525l158 525h82l157 -525l171 525h120l-237 -700h-102l-154 501l-153 -501h-101z" />
    <glyph glyph-name="X" unicode="X" horiz-adv-x="697" 
d="M345 273l-205 -273h-135l275 357l-262 343h140l193 -257l194 257h134l-263 -341l276 -359h-141z" />
    <glyph glyph-name="Y" unicode="Y" horiz-adv-x="680" 
d="M283 270l-278 430h135l203 -322l204 322h128l-277 -430v-270h-115v270z" />
    <glyph glyph-name="Z" unicode="Z" horiz-adv-x="670" 
d="M55 0v82l405 520h-385v98h540v-83l-405 -520h405v-97h-560z" />
    <glyph glyph-name="bracketleft" unicode="[" horiz-adv-x="435" 
d="M90 -80v860h305v-92h-198v-675h198v-93h-305z" />
    <glyph glyph-name="backslash" unicode="\" horiz-adv-x="505" 
d="M505 -80h-95l-410 860h95z" />
    <glyph glyph-name="bracketright" unicode="]" horiz-adv-x="435" 
d="M40 -80v93h198v675h-198v92h305v-860h-305z" />
    <glyph glyph-name="asciicircum" unicode="^" horiz-adv-x="580" 
d="M290 600l-134 -280h-106l197 380h85l198 -380h-106z" />
    <glyph glyph-name="underscore" unicode="_" horiz-adv-x="600" 
d="M0 -122v72h600v-72h-600z" />
    <glyph glyph-name="grave" unicode="`" horiz-adv-x="370" 
d="M285 575h-88l-102 165h117z" />
    <glyph glyph-name="a" unicode="a" horiz-adv-x="565" 
d="M247 308q91 0 148 -47v32q0 67 -37 102.5t-98 35.5q-39 0 -73.5 -11.5t-49.5 -23.5l-15 -11l-47 71q3 3 8.5 7.5t25 16t41.5 20.5t57 16t72 7q106 0 166 -60.5t60 -170.5v-292h-85l-10 50q-58 -60 -166 -60q-92 0 -145.5 44t-53.5 113t55.5 115t146.5 46zM274 66
q59 0 92.5 24t33.5 61t-33.5 61.5t-92.5 24.5q-55 0 -87 -24.5t-32 -61.5q0 -36 32 -60.5t87 -24.5z" />
    <glyph glyph-name="b" unicode="b" horiz-adv-x="652" 
d="M70 700h110v-269q66 92 181 92q104 0 177.5 -76t73.5 -188t-75 -190.5t-180 -78.5q-121 0 -186 97l-10 -87h-91v700zM339 91q70 0 116.5 47.5t46.5 118.5q0 70 -46.5 117.5t-116.5 47.5t-117 -47.5t-47 -117.5q0 -71 47 -118.5t117 -47.5z" />
    <glyph glyph-name="c" unicode="c" horiz-adv-x="542" 
d="M517 83q-3 -4 -8.5 -10t-24.5 -22t-40.5 -28.5t-57.5 -22.5t-74 -10q-117 0 -194.5 76t-77.5 189t79.5 190.5t196.5 77.5q37 0 70.5 -8.5t55.5 -21t39 -25t25 -20.5l7 -9l-75 -73q-5 6 -14 15.5t-41 25t-69 15.5q-70 0 -117 -47.5t-47 -117.5q0 -71 47 -118.5t117 -47.5
q25 0 47.5 6.5t36.5 15.5t24.5 18t15.5 15l4 7z" />
    <glyph glyph-name="d" unicode="d" horiz-adv-x="652" 
d="M582 0h-91l-11 91q-67 -101 -189 -101q-104 0 -177.5 76.5t-73.5 188.5t75 190t180 78q115 0 177 -88v265h110v-700zM313 422q-70 0 -116.5 -47.5t-46.5 -117.5q0 -71 46.5 -118.5t116.5 -47.5t117 47.5t47 118.5q0 70 -47 117.5t-117 47.5z" />
    <glyph glyph-name="e" unicode="e" horiz-adv-x="605" 
d="M150 240q5 -68 52 -111t117 -43q30 0 56.5 8t44 19t30.5 22.5t18 19.5l6 8l67 -61q-3 -5 -8.5 -12.5t-26 -26.5t-44.5 -34t-64.5 -27t-85.5 -12q-117 0 -194.5 75.5t-77.5 188.5t79 191t194 78q105 0 178.5 -73.5t73.5 -176.5l-5 -33h-410zM311 439q-60 0 -103 -34
t-55 -90h306q-9 55 -50.5 89.5t-97.5 34.5z" />
    <glyph glyph-name="f" unicode="f" horiz-adv-x="425" 
d="M230 483h175v-88h-175v-395h-110v395h-100v88h100v47q0 86 46.5 133t128.5 47q36 0 66 -5t42 -10l12 -5l-14 -85q-31 14 -79 14q-44 0 -68 -24.5t-24 -71.5v-40z" />
    <glyph glyph-name="g" unicode="g" horiz-adv-x="652" 
d="M90 -14q9 -7 26 -17.5t68.5 -27.5t102.5 -17q89 0 137 46.5t48 131.5v20q-62 -82 -178 -82q-107 0 -180.5 69.5t-73.5 170.5q0 103 73.5 173t184.5 70q118 0 184 -87l9 77h91v-388q0 -136 -75.5 -215.5t-211.5 -79.5q-68 0 -130 19t-90 37l-28 19zM313 430
q-70 0 -116.5 -43.5t-46.5 -107.5q0 -63 47 -106.5t116 -43.5q70 0 117 43.5t47 106.5q0 64 -47 107.5t-117 43.5z" />
    <glyph glyph-name="h" unicode="h" horiz-adv-x="615" 
d="M70 700h110v-271q55 94 173 94q85 0 141 -58t56 -164v-301h-110v266q0 78 -34.5 117t-88.5 39q-60 0 -98.5 -39t-38.5 -118v-265h-110v700z" />
    <glyph glyph-name="i" unicode="i" horiz-adv-x="262" 
d="M131 729q31 0 51.5 -20.5t20.5 -51.5q0 -30 -20.5 -50.5t-51.5 -20.5t-52 20.5t-21 50.5q0 31 21 51.5t52 20.5zM75 513h112v-513h-112v513z" />
    <glyph glyph-name="j" unicode="j" horiz-adv-x="262" 
d="M131 729q31 0 51.5 -20.5t20.5 -51.5q0 -30 -20.5 -50.5t-51.5 -20.5t-52 20.5t-21 50.5q0 31 21 51.5t52 20.5zM187 513v-491q0 -94 -46.5 -143t-128.5 -49q-18 0 -36.5 3t-27.5 7l-10 3l16 90q21 -7 45 -7q76 0 76 86v501h112z" />
    <glyph glyph-name="k" unicode="k" horiz-adv-x="560" 
d="M60 700h110v-414l236 227h139l-261 -234l281 -279h-141l-254 261v-261h-110v700z" />
    <glyph glyph-name="l" unicode="l" horiz-adv-x="262" 
d="M75 700h112v-700h-112v700z" />
    <glyph glyph-name="m" unicode="m" horiz-adv-x="965" 
d="M70 513h97l6 -87q55 97 175 97q59 0 105.5 -30.5t68.5 -89.5q25 59 74 89.5t112 30.5q83 0 137.5 -57t54.5 -162v-304h-110v268q0 77 -33 115.5t-85 38.5q-57 0 -94.5 -37.5t-37.5 -115.5v-269h-110v268q0 77 -33 115.5t-85 38.5q-57 0 -94.5 -37.5t-37.5 -115.5v-269
h-110v513z" />
    <glyph glyph-name="n" unicode="n" horiz-adv-x="615" 
d="M180 0h-110v513h97l7 -89q56 99 179 99q86 0 141.5 -58t55.5 -164v-301h-110v266q0 78 -34.5 117t-88.5 39q-61 0 -99 -41t-38 -125v-256z" />
    <glyph glyph-name="o" unicode="o" horiz-adv-x="628" 
d="M316 523q117 0 194.5 -75.5t77.5 -188.5t-79.5 -191t-196.5 -78t-194.5 76t-77.5 189t79.5 190.5t196.5 77.5zM314 91q70 0 117 47.5t47 118.5q0 70 -47 117.5t-117 47.5t-117 -47.5t-47 -117.5q0 -71 47 -118.5t117 -47.5z" />
    <glyph glyph-name="p" unicode="p" horiz-adv-x="652" 
d="M70 513h91l11 -91q30 47 79.5 74t109.5 27q104 0 177.5 -76t73.5 -188t-75 -190.5t-180 -78.5q-113 0 -177 88v-238h-110v673zM339 91q70 0 116.5 47.5t46.5 118.5q0 70 -46.5 117.5t-116.5 47.5t-117 -47.5t-47 -117.5q0 -71 47 -118.5t117 -47.5z" />
    <glyph glyph-name="q" unicode="q" horiz-adv-x="652" 
d="M582 -160h-110v242q-65 -92 -181 -92q-104 0 -177.5 76.5t-73.5 188.5t75 190t180 78q121 0 186 -97l10 87h91v-673zM313 422q-70 0 -116.5 -47.5t-46.5 -117.5q0 -71 46.5 -118.5t116.5 -47.5t117 47.5t47 118.5q0 70 -47 117.5t-117 47.5z" />
    <glyph glyph-name="r" unicode="r" horiz-adv-x="401" 
d="M70 513h98l7 -108q55 118 201 118l-2 -112h-22q-82 0 -127 -47.5t-45 -144.5v-219h-110v513z" />
    <glyph glyph-name="s" unicode="s" horiz-adv-x="457" 
d="M257 304q160 -46 160 -157q0 -68 -52.5 -112.5t-144.5 -44.5q-56 0 -106 17.5t-72 34.5l-22 18l48 72q7 -6 20.5 -16t53.5 -26t79 -16q41 0 64.5 18t23.5 44q0 29 -25 50t-97 42q-69 20 -107 59t-38 90q0 61 50 103.5t138 42.5q48 0 93 -15t66 -30l21 -15l-49 -73
q-6 5 -17 13.5t-44.5 22t-66.5 13.5q-39 0 -60.5 -16t-21.5 -38q0 -25 22.5 -44.5t83.5 -36.5z" />
    <glyph glyph-name="t" unicode="t" horiz-adv-x="440" 
d="M230 513h180v-88h-180v-247q0 -87 77 -87q20 0 42.5 3.5t34.5 6.5l12 3l14 -91q-49 -23 -128 -23q-76 0 -119 42t-43 121v272h-100v88h100v127h110v-127z" />
    <glyph glyph-name="u" unicode="u" horiz-adv-x="615" 
d="M435 513h110v-513h-97l-7 89q-55 -99 -179 -99q-86 0 -141.5 58t-55.5 164v301h110v-266q0 -78 34.5 -117t88.5 -39q61 0 99 41t38 125v256z" />
    <glyph glyph-name="v" unicode="v" horiz-adv-x="530" 
d="M0 513h122l145 -372l146 372h117l-212 -513h-107z" />
    <glyph glyph-name="w" unicode="w" horiz-adv-x="785" 
d="M0 513h120l120 -364l114 364h83l113 -361l121 361h114l-179 -513h-104l-110 342l-109 -342h-104z" />
    <glyph glyph-name="x" unicode="x" horiz-adv-x="560" 
d="M347 265l213 -265h-132l-150 189l-152 -189h-126l213 261l-203 252h132l140 -177l142 177h126z" />
    <glyph glyph-name="y" unicode="y" horiz-adv-x="530" 
d="M0 513h122l145 -383l146 383h117l-213 -518q-67 -165 -204 -165q-32 0 -60.5 7t-40.5 14l-12 7l35 89q24 -18 73 -18q68 0 101 76z" />
    <glyph glyph-name="z" unicode="z" horiz-adv-x="525" 
d="M329 419h-269v94h420v-79l-285 -341h285v-93h-435v78z" />
    <glyph glyph-name="braceleft" unicode="{" horiz-adv-x="475" 
d="M257 80q0 -37 17 -53.5t53 -16.5h108v-90h-133q-152 0 -152 153v181q0 30 -13 42.5t-42 12.5h-55v82h55q29 0 42 13t13 42v182q0 152 152 152h133v-90h-108q-36 0 -53 -16.5t-17 -53.5v-166q0 -99 -78 -104q36 -2 57 -27.5t21 -75.5v-167z" />
    <glyph glyph-name="bar" unicode="|" horiz-adv-x="330" 
d="M120 800h90v-900h-90v900z" />
    <glyph glyph-name="braceright" unicode="}" horiz-adv-x="475" 
d="M218 620q0 37 -17 53.5t-53 16.5h-108v90h133q152 0 152 -153v-181q0 -30 13 -42.5t42 -12.5h55v-82h-55q-29 0 -42 -13t-13 -42v-182q0 -152 -152 -152h-133v90h108q36 0 53 16.5t17 53.5v166q0 99 78 104q-36 2 -57 27.5t-21 75.5v167z" />
    <glyph glyph-name="asciitilde" unicode="~" 
d="M40 253q0 4 0.5 10.5t3.5 25.5t8 36.5t16.5 39t26.5 36.5t40 25.5t55 10.5q37 0 70.5 -18.5t54 -40.5t47.5 -40.5t53 -18.5q31 0 48.5 24.5t19.5 48.5l2 24l85 -10q0 -4 -0.5 -10.5t-3.5 -25.5t-8 -36.5t-16.5 -39t-27 -36.5t-40 -25.5t-55.5 -10.5q-38 0 -71.5 18.5
t-53.5 41t-47 41t-53 18.5q-31 0 -48.5 -24.5t-19.5 -48.5l-2 -24z" />
    <glyph glyph-name="exclamdown" unicode="&#xa1;" horiz-adv-x="305" 
d="M153 565q-30 0 -51.5 21t-21.5 51t21.5 51.5t51.5 21.5t51 -21.5t21 -51.5t-21 -51t-51 -21zM220 0h-135l26 475h83z" />
    <glyph glyph-name="cent" unicode="&#xa2;" horiz-adv-x="567" 
d="M280 182q-101 13 -165.5 85t-64.5 174q0 101 65 174.5t165 87.5v97h68v-94q52 -4 95.5 -24t61.5 -38l18 -18l-75 -73q-5 6 -14 15.5t-41 25t-69 15.5q-70 0 -117 -47.5t-47 -118.5q0 -70 47 -117.5t117 -47.5q25 0 47.5 6.5t36.5 15t24.5 17.5t15.5 15l4 7l75 -70
q-2 -3 -7 -8.5t-21.5 -19.5t-35.5 -25t-50 -21.5t-65 -13.5v-94h-68v95z" />
    <glyph glyph-name="sterling" unicode="&#xa3;" horiz-adv-x="605" 
d="M130 0v311h-90v67h90v95q0 110 65 173.5t167 63.5q42 0 78.5 -12t58 -29t37.5 -34t22 -29l7 -12l-90 -57q-1 3 -3 8t-11 17t-21 21.5t-33.5 17.5t-46.5 8q-54 0 -87 -33.5t-33 -90.5v-107h220v-67h-220v-216h305v-95h-415z" />
    <glyph glyph-name="currency" unicode="&#xa4;" horiz-adv-x="675" 
d="M50 593l47 47l96 -93q64 48 146 48t145 -46l94 91l47 -47l-93 -90q54 -65 54 -152q0 -88 -55 -154l94 -90l-47 -47l-95 92q-66 -47 -147 -47q-82 0 -145 46l-94 -91l-47 47l93 88q-54 67 -54 153q0 84 55 154zM338 196q64 0 108 44.5t44 109.5t-44 109.5t-108 44.5
q-65 0 -109 -44.5t-44 -109.5t44 -109.5t109 -44.5z" />
    <glyph glyph-name="yen" unicode="&#xa5;" horiz-adv-x="640" 
d="M262 181h-222v62h222v72l-10 16h-212v62h175l-195 307h134l169 -286l168 286h129l-196 -307h176v-62h-213l-10 -16v-72h223v-62h-223v-181h-115v181z" />
    <glyph glyph-name="brokenbar" unicode="&#xa6;" horiz-adv-x="330" 
d="M210 460h-90v340h90v-340zM120 240h90v-340h-90v340z" />
    <glyph glyph-name="section" unicode="&#xa7;" horiz-adv-x="640" 
d="M370 449q116 -36 168 -84t52 -110q0 -53 -36.5 -92t-101.5 -56q58 -48 58 -112q0 -72 -56.5 -118.5t-151.5 -46.5q-37 0 -70 7.5t-54.5 18t-37.5 21.5t-23 19l-7 7l68 68q5 -5 14.5 -13t41.5 -21.5t66 -13.5q45 0 68.5 19t23.5 47q0 63 -123 102q-117 37 -168 84.5
t-51 109.5q0 53 36 92t101 56q-57 48 -57 112q0 72 56.5 118.5t151.5 46.5q58 0 106 -18t67 -36l19 -18l-68 -69q-5 5 -14.5 13.5t-41.5 22t-66 13.5q-45 0 -69 -20t-24 -47q0 -63 123 -102zM377 159q45 5 72.5 26.5t27.5 53.5q0 39 -36.5 69t-133.5 57q-24 6 -45 15
q-45 -5 -72.5 -26t-27.5 -53q0 -36 36 -63.5t135 -61.5q35 -13 44 -17z" />
    <glyph glyph-name="dieresis" unicode="&#xa8;" horiz-adv-x="510" 
d="M151 720q27 0 44.5 -18t17.5 -44q0 -27 -18 -45t-45 -18q-26 0 -44 17.5t-18 44.5q0 26 18.5 44.5t44.5 18.5zM361 720q27 0 44.5 -18t17.5 -44q0 -27 -18 -45t-45 -18q-26 0 -44 17.5t-18 44.5q0 26 18.5 44.5t44.5 18.5z" />
    <glyph glyph-name="copyright" unicode="&#xa9;" horiz-adv-x="826" 
d="M415 710q154 0 257.5 -103t103.5 -255t-105.5 -257t-259.5 -105t-257.5 103t-103.5 255t105.5 257t259.5 105zM413 54q124 0 209.5 86t85.5 210q0 125 -85.5 211t-209.5 86t-209.5 -86t-85.5 -211q0 -124 85.5 -210t209.5 -86zM578 227q-2 -3 -6 -8t-18.5 -18t-31 -23
t-44 -18t-58.5 -8q-87 0 -142.5 56t-55.5 140t57 142t144 58q47 0 85 -17t52 -33l15 -17l-53 -46q-3 5 -10 12.5t-32 19.5t-55 12q-54 0 -91 -37t-37 -92t37 -92t91 -37q32 0 57.5 12.5t35.5 25.5l10 13z" />
    <glyph glyph-name="ordfeminine" unicode="&#xaa;" horiz-adv-x="402" 
d="M183 574q51 0 85 -24v13q0 38 -21.5 58.5t-56.5 20.5q-23 0 -45 -7t-33 -13l-10 -7l-31 49l16.5 11t44.5 18t70 11q67 0 106 -38t39 -104v-176h-62l-6 27q-36 -33 -98 -33q-57 0 -91.5 27t-34.5 69t35.5 70t92.5 28zM199 430q33 0 52.5 14t19.5 34t-19.5 34.5t-52.5 14.5
q-29 0 -47 -14.5t-18 -34.5t18 -34t47 -14zM65 328h282v-53h-282v53z" />
    <glyph glyph-name="guillemotleft" unicode="&#xab;" horiz-adv-x="764" 
d="M169 352l198 -193l-60 -64l-257 235v40l257 235l60 -60zM496 352l198 -193l-60 -64l-257 235v40l257 235l60 -60z" />
    <glyph glyph-name="logicalnot" unicode="&#xac;" 
d="M467 343h-417v87h510v-270h-93v183z" />
    <glyph glyph-name="registered" unicode="&#xae;" horiz-adv-x="536" 
d="M269 710q92 0 154.5 -62t62.5 -153t-63.5 -154t-155.5 -63t-154.5 62t-62.5 153t63.5 154t155.5 63zM268 323q72 0 121 49t49 122q0 74 -49 122.5t-121 48.5q-73 0 -121.5 -48.5t-48.5 -122.5q0 -73 48.5 -122t121.5 -49zM188 599h95q33 0 54.5 -19t21.5 -50
q0 -48 -46 -64l55 -77h-54l-49 72h-31v-72h-46v210zM234 560v-63h43q37 0 37 31q0 32 -37 32h-43z" />
    <glyph glyph-name="macron" unicode="&#xaf;" horiz-adv-x="460" 
d="M50 693h360v-66h-360v66z" />
    <glyph glyph-name="degree" unicode="&#xb0;" horiz-adv-x="420" 
d="M211 710q73 0 121 -47.5t48 -118.5t-49 -120t-122 -49t-121 48t-48 119t49 119.5t122 48.5zM210 442q43 0 70.5 28.5t27.5 72.5q0 43 -27.5 71.5t-70.5 28.5q-44 0 -71.5 -28.5t-27.5 -71.5q0 -44 27.5 -72.5t71.5 -28.5z" />
    <glyph glyph-name="plusminus" unicode="&#xb1;" 
d="M349 478h211v-87h-211v-186h-89v186h-210v87h210v187h89v-187zM50 35v87h510v-87h-510z" />
    <glyph glyph-name="uni00B2" unicode="&#xb2;" horiz-adv-x="353" 
d="M190 484q51 50 51 93q0 25 -18.5 42.5t-46.5 17.5q-26 0 -46.5 -13.5t-27.5 -26.5l-8 -13l-59 35q2 4 5 9.5t15.5 20.5t27.5 26.5t41.5 21t57.5 9.5q60 0 98 -34.5t38 -86.5q0 -39 -17.5 -71t-57.5 -69l-103 -98h175v-67h-276v59z" />
    <glyph glyph-name="uni00B3" unicode="&#xb3;" horiz-adv-x="349" 
d="M156 526q33 0 50.5 16t17.5 42q0 25 -17.5 40t-47.5 15q-22 0 -39 -9.5t-22 -18.5l-6 -9l-57 33q1 3 4 7.5t14 17t24.5 22t37 17t49.5 7.5q60 0 99 -31t39 -80q0 -63 -61 -96q73 -33 73 -104q0 -53 -43 -87t-110 -34q-45 0 -80 19t-48 37l-13 19l58 35q3 -5 8 -12.5
t26.5 -19.5t47.5 -12q35 0 55.5 17.5t20.5 45.5t-21.5 46.5t-59.5 18.5h-41v58h42z" />
    <glyph glyph-name="acute" unicode="&#xb4;" horiz-adv-x="370" 
d="M158 740h117l-102 -165h-88z" />
    <glyph glyph-name="paragraph" unicode="&#xb6;" horiz-adv-x="762" 
d="M302 285h-22q-107 0 -171 57.5t-64 148.5t66 150t173 59h368v-700h-100v610h-150v-610h-100v285z" />
    <glyph glyph-name="periodcentered" unicode="&#xb7;" horiz-adv-x="245" 
d="M122 423q30 0 51.5 -21t21.5 -51t-21.5 -51.5t-51.5 -21.5t-51 21.5t-21 51.5t21 51t51 21z" />
    <glyph glyph-name="cedilla" unicode="&#xb8;" horiz-adv-x="355" 
d="M224 42q3 -1 8.5 -3.5t19.5 -12t24.5 -21.5t19 -32t8.5 -43q0 -58 -43 -91.5t-104 -33.5q-28 0 -53.5 7t-37.5 14l-12 7l25 66q27 -19 72 -19q33 0 52 16.5t19 43.5q0 18 -9 33t-17 21l-9 6z" />
    <glyph glyph-name="uni00B9" unicode="&#xb9;" horiz-adv-x="290" 
d="M170 700h65v-420h-78v327l-93 -65l-39 53z" />
    <glyph glyph-name="ordmasculine" unicode="&#xba;" horiz-adv-x="452" 
d="M228 704q73 0 121 -45.5t48 -114.5t-49.5 -116.5t-123.5 -47.5q-73 0 -121 45.5t-48 114.5t49.5 116.5t123.5 47.5zM226 450q38 0 65 26.5t27 65.5t-26.5 65.5t-65.5 26.5t-65.5 -26t-26.5 -66q0 -39 26.5 -65.5t65.5 -26.5zM65 328h322v-53h-322v53z" />
    <glyph glyph-name="guillemotright" unicode="&#xbb;" horiz-adv-x="764" 
d="M268 348l-198 193l60 64l257 -235v-40l-257 -235l-60 60zM595 348l-198 193l60 64l257 -235v-40l-257 -235l-60 60z" />
    <glyph glyph-name="onequarter" unicode="&#xbc;" horiz-adv-x="827" 
d="M170 700h65v-420h-78v327l-93 -65l-39 53zM632 700h78l-503 -700h-77zM637 420h76v-262h64v-60h-64v-98h-72v98h-191v63zM641 158v174l-127 -174h127z" />
    <glyph glyph-name="onehalf" unicode="&#xbd;" horiz-adv-x="887" 
d="M170 700h65v-420h-78v327l-93 -65l-39 53zM632 700h78l-503 -700h-77zM704 204q51 50 51 93q0 25 -18.5 42.5t-46.5 17.5q-26 0 -46.5 -13.5t-27.5 -26.5l-8 -13l-59 35q2 4 5 9.5t15.5 20.5t27.5 26.5t41.5 21t57.5 9.5q60 0 98 -34.5t38 -86.5q0 -39 -17.5 -71
t-57.5 -69l-103 -98h175v-67h-276v59z" />
    <glyph glyph-name="threequarters" unicode="&#xbe;" horiz-adv-x="847" 
d="M156 526q33 0 50.5 16t17.5 42q0 25 -17.5 40t-47.5 15q-22 0 -39 -9.5t-22 -18.5l-6 -9l-57 33q1 3 4 7.5t14 17t24.5 22t37 17t49.5 7.5q60 0 99 -31t39 -80q0 -63 -61 -96q73 -33 73 -104q0 -53 -43 -87t-110 -34q-45 0 -80 19t-48 37l-13 19l58 35q3 -5 8 -12.5
t26.5 -19.5t47.5 -12q35 0 55.5 17.5t20.5 45.5t-21.5 46.5t-59.5 18.5h-41v58h42zM652 700h78l-503 -700h-77zM657 420h76v-262h64v-60h-64v-98h-72v98h-191v63zM661 158v174l-127 -174h127z" />
    <glyph glyph-name="questiondown" unicode="&#xbf;" horiz-adv-x="540" 
d="M280 565q-30 0 -51.5 21t-21.5 51t21.5 51.5t51.5 21.5t51 -21.5t21 -51.5t-21 -51t-51 -21zM173 198q0 -45 30 -74.5t75 -29.5q27 0 49.5 9.5t36.5 23t23.5 26.5t13.5 23l4 9l87 -50q-2 -6 -6 -15.5t-21.5 -34.5t-40.5 -44.5t-64 -35t-90 -15.5q-90 0 -150 55.5
t-60 135.5q0 44 16 80t39.5 61t48 47t43.5 49t23 57h100q0 -33 -11.5 -62t-29 -48.5t-38 -40t-38 -37.5t-29 -40t-11.5 -49z" />
    <glyph glyph-name="Agrave" unicode="&#xc0;" horiz-adv-x="710" 
d="M400 755h-88l-102 165h117zM705 0h-126l-71 175h-311l-71 -175h-121l293 700h115zM229 266h245l-122 302z" />
    <glyph glyph-name="Aacute" unicode="&#xc1;" horiz-adv-x="710" 
d="M393 920h117l-102 -165h-88zM705 0h-126l-71 175h-311l-71 -175h-121l293 700h115zM229 266h245l-122 302z" />
    <glyph glyph-name="Acircumflex" unicode="&#xc2;" horiz-adv-x="710" 
d="M305 920h100l145 -165h-97l-100 97l-99 -97h-94zM705 0h-126l-71 175h-311l-71 -175h-121l293 700h115zM229 266h245l-122 302z" />
    <glyph glyph-name="Atilde" unicode="&#xc3;" horiz-adv-x="710" 
d="M179 782q0 5 1 13.5t7 31t15.5 39t30.5 30.5t48 14t49.5 -12.5t35 -28t29.5 -28t34 -12.5t27.5 16.5t12.5 32.5l2 16l60 -6q0 -5 -1 -13.5t-7 -31t-15.5 -39t-30.5 -30.5t-48 -14t-49.5 12.5t-35 27.5t-30 27.5t-34.5 12.5q-16 0 -26 -16t-12 -32l-2 -16zM705 0h-126
l-71 175h-311l-71 -175h-121l293 700h115zM229 266h245l-122 302z" />
    <glyph glyph-name="Adieresis" unicode="&#xc4;" horiz-adv-x="710" 
d="M251 900q27 0 44.5 -18t17.5 -44q0 -27 -18 -45t-45 -18q-26 0 -44 17.5t-18 44.5q0 26 18.5 44.5t44.5 18.5zM461 900q27 0 44.5 -18t17.5 -44q0 -27 -18 -45t-45 -18q-26 0 -44 17.5t-18 44.5q0 26 18.5 44.5t44.5 18.5zM705 0h-126l-71 175h-311l-71 -175h-121
l293 700h115zM229 266h245l-122 302z" />
    <glyph glyph-name="Aring" unicode="&#xc5;" horiz-adv-x="710" 
d="M355 950q46 0 76.5 -29t30.5 -74q0 -44 -30.5 -73t-76.5 -29t-77 29t-31 73q0 45 31 74t77 29zM355 792q23 0 39 16t16 39t-16 39t-39 16t-39.5 -16t-16.5 -39t16.5 -39t39.5 -16zM705 0h-126l-71 175h-311l-71 -175h-121l293 700h115zM229 266h245l-122 302z" />
    <glyph glyph-name="AE" unicode="&#xc6;" horiz-adv-x="1060" 
d="M615 600v-191h335v-94h-335v-215h395v-100h-510v175h-265l-111 -175h-129l445 700h560v-100h-385zM500 266v338l-213 -338h213z" />
    <glyph glyph-name="Ccedilla" unicode="&#xc7;" horiz-adv-x="717" 
d="M50 348q0 152 106.5 257t260.5 105q50 0 95 -11.5t74.5 -27.5t52 -32t32.5 -27l10 -12l-84 -73q-3 3 -7.5 8.5t-22 18.5t-37 23t-50.5 18.5t-65 8.5q-106 0 -178 -73t-72 -181t72 -181t178 -73q35 0 68 9t54.5 21.5t38 25.5t24 21.5t7.5 9.5l80 -73q-3 -4 -9 -11
t-27.5 -25t-46 -33t-64.5 -29.5t-83 -18.5q19 -29 19 -63q0 -58 -43 -91.5t-104 -33.5q-28 0 -53.5 7t-37.5 14l-12 7l25 66q27 -19 72 -19q33 0 52 16.5t19 43.5q0 30 -25 53q-139 15 -229 115t-90 240z" />
    <glyph glyph-name="Egrave" unicode="&#xc8;" horiz-adv-x="650" 
d="M415 755h-88l-102 165h117zM90 0v700h500v-100h-385v-191h335v-94h-335v-215h395v-100h-510z" />
    <glyph glyph-name="Eacute" unicode="&#xc9;" horiz-adv-x="650" 
d="M368 920h117l-102 -165h-88zM90 0v700h500v-100h-385v-191h335v-94h-335v-215h395v-100h-510z" />
    <glyph glyph-name="Ecircumflex" unicode="&#xca;" horiz-adv-x="650" 
d="M295 920h100l145 -165h-97l-100 97l-99 -97h-94zM90 0v700h500v-100h-385v-191h335v-94h-335v-215h395v-100h-510z" />
    <glyph glyph-name="Edieresis" unicode="&#xcb;" horiz-adv-x="650" 
d="M241 900q27 0 44.5 -18t17.5 -44q0 -27 -18 -45t-45 -18q-26 0 -44 17.5t-18 44.5q0 26 18.5 44.5t44.5 18.5zM451 900q27 0 44.5 -18t17.5 -44q0 -27 -18 -45t-45 -18q-26 0 -44 17.5t-18 44.5q0 26 18.5 44.5t44.5 18.5zM90 0v700h500v-100h-385v-191h335v-94h-335
v-215h395v-100h-510z" />
    <glyph glyph-name="Igrave" unicode="&#xcc;" horiz-adv-x="309" 
d="M200 755h-88l-102 165h117zM95 700h119v-700h-119v700z" />
    <glyph glyph-name="Iacute" unicode="&#xcd;" horiz-adv-x="309" 
d="M182 920h117l-102 -165h-88zM95 700h119v-700h-119v700z" />
    <glyph glyph-name="Icircumflex" unicode="&#xce;" horiz-adv-x="309" 
d="M105 920h100l145 -165h-97l-100 97l-99 -97h-94zM95 700h119v-700h-119v700z" />
    <glyph glyph-name="Idieresis" unicode="&#xcf;" horiz-adv-x="309" 
d="M50 900q27 0 44.5 -18t17.5 -44q0 -27 -18 -45t-45 -18q-26 0 -44 17.5t-18 44.5q0 26 18.5 44.5t44.5 18.5zM260 900q27 0 44.5 -18t17.5 -44q0 -27 -18 -45t-45 -18q-26 0 -44 17.5t-18 44.5q0 26 18.5 44.5t44.5 18.5zM95 700h119v-700h-119v700z" />
    <glyph glyph-name="Eth" unicode="&#xd0;" horiz-adv-x="795" 
d="M125 325h-95v67h95v308h237q168 0 275.5 -99t107.5 -249t-109.5 -251t-277.5 -101h-233v325zM240 325v-225h125q116 0 190.5 71t74.5 179q0 107 -75 178.5t-190 71.5h-125v-208h200v-67h-200z" />
    <glyph glyph-name="Ntilde" unicode="&#xd1;" horiz-adv-x="790" 
d="M219 782q0 5 1 13.5t7 31t15.5 39t30.5 30.5t48 14t49.5 -12.5t35 -28t29.5 -28t34 -12.5t27.5 16.5t12.5 32.5l2 16l60 -6q0 -5 -1 -13.5t-7 -31t-15.5 -39t-30.5 -30.5t-48 -14t-49.5 12.5t-35 27.5t-30 27.5t-34.5 12.5q-16 0 -26 -16t-12 -32l-2 -16zM203 529v-529
h-113v700h120l378 -520v520h112v-700h-112z" />
    <glyph glyph-name="Ograve" unicode="&#xd2;" horiz-adv-x="830" 
d="M460 755h-88l-102 165h117zM417 710q155 0 259 -103t104 -255t-106 -257t-261 -105q-154 0 -258.5 103t-104.5 255t106.5 257t260.5 105zM415 96q107 0 178.5 73t71.5 181t-71.5 181t-178.5 73q-106 0 -178 -73t-72 -181t72 -181t178 -73z" />
    <glyph glyph-name="Oacute" unicode="&#xd3;" horiz-adv-x="830" 
d="M443 920h117l-102 -165h-88zM417 710q155 0 259 -103t104 -255t-106 -257t-261 -105q-154 0 -258.5 103t-104.5 255t106.5 257t260.5 105zM415 96q107 0 178.5 73t71.5 181t-71.5 181t-178.5 73q-106 0 -178 -73t-72 -181t72 -181t178 -73z" />
    <glyph glyph-name="Ocircumflex" unicode="&#xd4;" horiz-adv-x="830" 
d="M365 920h100l145 -165h-97l-100 97l-99 -97h-94zM417 710q155 0 259 -103t104 -255t-106 -257t-261 -105q-154 0 -258.5 103t-104.5 255t106.5 257t260.5 105zM415 96q107 0 178.5 73t71.5 181t-71.5 181t-178.5 73q-106 0 -178 -73t-72 -181t72 -181t178 -73z" />
    <glyph glyph-name="Otilde" unicode="&#xd5;" horiz-adv-x="830" 
d="M239 782q0 5 1 13.5t7 31t15.5 39t30.5 30.5t48 14t49.5 -12.5t35 -28t29.5 -28t34 -12.5t27.5 16.5t12.5 32.5l2 16l60 -6q0 -5 -1 -13.5t-7 -31t-15.5 -39t-30.5 -30.5t-48 -14t-49.5 12.5t-35 27.5t-30 27.5t-34.5 12.5q-16 0 -26 -16t-12 -32l-2 -16zM417 710
q155 0 259 -103t104 -255t-106 -257t-261 -105q-154 0 -258.5 103t-104.5 255t106.5 257t260.5 105zM415 96q107 0 178.5 73t71.5 181t-71.5 181t-178.5 73q-106 0 -178 -73t-72 -181t72 -181t178 -73z" />
    <glyph glyph-name="Odieresis" unicode="&#xd6;" horiz-adv-x="830" 
d="M310 900q27 0 44.5 -18t17.5 -44q0 -27 -18 -45t-45 -18q-26 0 -44 17.5t-18 44.5q0 26 18.5 44.5t44.5 18.5zM520 900q27 0 44.5 -18t17.5 -44q0 -27 -18 -45t-45 -18q-26 0 -44 17.5t-18 44.5q0 26 18.5 44.5t44.5 18.5zM417 710q155 0 259 -103t104 -255t-106 -257
t-261 -105q-154 0 -258.5 103t-104.5 255t106.5 257t260.5 105zM415 96q107 0 178.5 73t71.5 181t-71.5 181t-178.5 73q-106 0 -178 -73t-72 -181t72 -181t178 -73z" />
    <glyph glyph-name="multiply" unicode="&#xd7;" 
d="M305 290l-184 -186l-62 63l185 183l-185 183l62 62l184 -185l183 185l63 -62l-186 -183l186 -183l-63 -63z" />
    <glyph glyph-name="Oslash" unicode="&#xd8;" horiz-adv-x="830" 
d="M677 605q103 -103 103 -253q0 -152 -106.5 -257t-260.5 -105q-118 0 -212 65l-74 -85h-82l107 125q-102 102 -102 253q0 152 106 257t261 105q117 0 211 -65l74 85h83zM558 562q-64 45 -143 45q-108 0 -180.5 -73.5t-72.5 -183.5q0 -100 62 -170zM272 138q61 -44 143 -44
q108 0 180 73.5t72 182.5q0 100 -62 170z" />
    <glyph glyph-name="Ugrave" unicode="&#xd9;" horiz-adv-x="740" 
d="M435 755h-88l-102 165h117zM660 700v-413q0 -132 -81.5 -214.5t-210.5 -82.5q-128 0 -208 80.5t-80 212.5v417h117v-414q0 -85 49 -137.5t126 -52.5q78 0 126.5 52t48.5 138v414h113z" />
    <glyph glyph-name="Uacute" unicode="&#xda;" horiz-adv-x="740" 
d="M403 920h117l-102 -165h-88zM660 700v-413q0 -132 -81.5 -214.5t-210.5 -82.5q-128 0 -208 80.5t-80 212.5v417h117v-414q0 -85 49 -137.5t126 -52.5q78 0 126.5 52t48.5 138v414h113z" />
    <glyph glyph-name="Ucircumflex" unicode="&#xdb;" horiz-adv-x="740" 
d="M323 920h100l145 -165h-97l-100 97l-99 -97h-94zM660 700v-413q0 -132 -81.5 -214.5t-210.5 -82.5q-128 0 -208 80.5t-80 212.5v417h117v-414q0 -85 49 -137.5t126 -52.5q78 0 126.5 52t48.5 138v414h113z" />
    <glyph glyph-name="Udieresis" unicode="&#xdc;" horiz-adv-x="740" 
d="M269 900q27 0 44.5 -18t17.5 -44q0 -27 -18 -45t-45 -18q-26 0 -44 17.5t-18 44.5q0 26 18.5 44.5t44.5 18.5zM479 900q27 0 44.5 -18t17.5 -44q0 -27 -18 -45t-45 -18q-26 0 -44 17.5t-18 44.5q0 26 18.5 44.5t44.5 18.5zM660 700v-413q0 -132 -81.5 -214.5
t-210.5 -82.5q-128 0 -208 80.5t-80 212.5v417h117v-414q0 -85 49 -137.5t126 -52.5q78 0 126.5 52t48.5 138v414h113z" />
    <glyph glyph-name="Yacute" unicode="&#xdd;" horiz-adv-x="680" 
d="M383 920h117l-102 -165h-88zM283 270l-278 430h135l203 -322l204 322h128l-277 -430v-270h-115v270z" />
    <glyph glyph-name="Thorn" unicode="&#xde;" horiz-adv-x="675" 
d="M90 703h115v-112h175q109 0 177 -62.5t68 -159.5q0 -98 -70 -162t-179 -64h-171v-140h-115v700zM205 238h161q65 0 104.5 36t39.5 93t-39.5 93t-104.5 36h-161v-258z" />
    <glyph glyph-name="germandbls" unicode="&#xdf;" 
d="M180 0h-110v473q0 107 64.5 172t169.5 65q102 0 166.5 -53t64.5 -137q0 -99 -87 -147q59 -22 93 -68.5t34 -109.5q0 -89 -64 -147t-165 -58q-21 0 -39 2t-26 4l-8 3l12 91q26 -7 51 -7q58 0 93.5 33t35.5 85q0 51 -36 84.5t-95 33.5h-39v87h9q53 0 87 29.5t34 75.5
t-34 75.5t-87 29.5q-57 0 -90.5 -37.5t-33.5 -103.5v-475z" />
    <glyph glyph-name="agrave" unicode="&#xe0;" horiz-adv-x="565" 
d="M346 575h-88l-102 165h117zM247 308q91 0 148 -47v32q0 67 -37 102.5t-98 35.5q-39 0 -73.5 -11.5t-49.5 -23.5l-15 -11l-47 71q3 3 8.5 7.5t25 16t41.5 20.5t57 16t72 7q106 0 166 -60.5t60 -170.5v-292h-85l-10 50q-58 -60 -166 -60q-92 0 -145.5 44t-53.5 113
t55.5 115t146.5 46zM274 66q59 0 92.5 24t33.5 61t-33.5 61.5t-92.5 24.5q-55 0 -87 -24.5t-32 -61.5q0 -36 32 -60.5t87 -24.5z" />
    <glyph glyph-name="aacute" unicode="&#xe1;" horiz-adv-x="565" 
d="M320 740h117l-102 -165h-88zM247 308q91 0 148 -47v32q0 67 -37 102.5t-98 35.5q-39 0 -73.5 -11.5t-49.5 -23.5l-15 -11l-47 71q3 3 8.5 7.5t25 16t41.5 20.5t57 16t72 7q106 0 166 -60.5t60 -170.5v-292h-85l-10 50q-58 -60 -166 -60q-92 0 -145.5 44t-53.5 113
t55.5 115t146.5 46zM274 66q59 0 92.5 24t33.5 61t-33.5 61.5t-92.5 24.5q-55 0 -87 -24.5t-32 -61.5q0 -36 32 -60.5t87 -24.5z" />
    <glyph glyph-name="acircumflex" unicode="&#xe2;" horiz-adv-x="565" 
d="M242 740h100l145 -165h-97l-100 97l-99 -97h-94zM247 308q91 0 148 -47v32q0 67 -37 102.5t-98 35.5q-39 0 -73.5 -11.5t-49.5 -23.5l-15 -11l-47 71q3 3 8.5 7.5t25 16t41.5 20.5t57 16t72 7q106 0 166 -60.5t60 -170.5v-292h-85l-10 50q-58 -60 -166 -60
q-92 0 -145.5 44t-53.5 113t55.5 115t146.5 46zM274 66q59 0 92.5 24t33.5 61t-33.5 61.5t-92.5 24.5q-55 0 -87 -24.5t-32 -61.5q0 -36 32 -60.5t87 -24.5z" />
    <glyph glyph-name="atilde" unicode="&#xe3;" horiz-adv-x="565" 
d="M122 602q0 5 1 13.5t7 31t15.5 39t30.5 30.5t48 14t49.5 -12.5t35 -28t29.5 -28t34 -12.5t27.5 16.5t12.5 32.5l2 16l60 -6q0 -5 -1 -13.5t-7 -31t-15.5 -39t-30.5 -30.5t-48 -14t-49.5 12.5t-35 27.5t-30 27.5t-34.5 12.5q-16 0 -26 -16t-12 -32l-2 -16zM247 308
q91 0 148 -47v32q0 67 -37 102.5t-98 35.5q-39 0 -73.5 -11.5t-49.5 -23.5l-15 -11l-47 71q3 3 8.5 7.5t25 16t41.5 20.5t57 16t72 7q106 0 166 -60.5t60 -170.5v-292h-85l-10 50q-58 -60 -166 -60q-92 0 -145.5 44t-53.5 113t55.5 115t146.5 46zM274 66q59 0 92.5 24
t33.5 61t-33.5 61.5t-92.5 24.5q-55 0 -87 -24.5t-32 -61.5q0 -36 32 -60.5t87 -24.5z" />
    <glyph glyph-name="adieresis" unicode="&#xe4;" horiz-adv-x="565" 
d="M193 720q27 0 44.5 -18t17.5 -44q0 -27 -18 -45t-45 -18q-26 0 -44 17.5t-18 44.5q0 26 18.5 44.5t44.5 18.5zM403 720q27 0 44.5 -18t17.5 -44q0 -27 -18 -45t-45 -18q-26 0 -44 17.5t-18 44.5q0 26 18.5 44.5t44.5 18.5zM247 308q91 0 148 -47v32q0 67 -37 102.5
t-98 35.5q-39 0 -73.5 -11.5t-49.5 -23.5l-15 -11l-47 71q3 3 8.5 7.5t25 16t41.5 20.5t57 16t72 7q106 0 166 -60.5t60 -170.5v-292h-85l-10 50q-58 -60 -166 -60q-92 0 -145.5 44t-53.5 113t55.5 115t146.5 46zM274 66q59 0 92.5 24t33.5 61t-33.5 61.5t-92.5 24.5
q-55 0 -87 -24.5t-32 -61.5q0 -36 32 -60.5t87 -24.5z" />
    <glyph glyph-name="aring" unicode="&#xe5;" horiz-adv-x="565" 
d="M297 770q46 0 76.5 -29t30.5 -74q0 -44 -30.5 -73t-76.5 -29t-77 29t-31 73q0 45 31 74t77 29zM297 612q23 0 39 16t16 39t-16 39t-39 16t-39.5 -16t-16.5 -39t16.5 -39t39.5 -16zM247 308q91 0 148 -47v32q0 67 -37 102.5t-98 35.5q-39 0 -73.5 -11.5t-49.5 -23.5
l-15 -11l-47 71q3 3 8.5 7.5t25 16t41.5 20.5t57 16t72 7q106 0 166 -60.5t60 -170.5v-292h-85l-10 50q-58 -60 -166 -60q-92 0 -145.5 44t-53.5 113t55.5 115t146.5 46zM274 66q59 0 92.5 24t33.5 61t-33.5 61.5t-92.5 24.5q-55 0 -87 -24.5t-32 -61.5q0 -36 32 -60.5
t87 -24.5z" />
    <glyph glyph-name="ae" unicode="&#xe6;" horiz-adv-x="960" 
d="M247 307q91 0 148 -43v28q0 68 -36.5 103t-98.5 35q-39 0 -73.5 -11t-49.5 -22l-15 -11l-47 70q3 3 8.5 7.5t25 16t41.5 20.5t57 16t72 7q130 0 184 -96q76 96 205 96q105 0 178.5 -73.5t73.5 -176.5l-5 -33h-410q5 -68 52 -111t117 -43q30 0 56.5 8t44 19t30.5 22.5
t19 19.5l5 8l67 -61q-3 -5 -8.5 -12.5t-26 -26.5t-44.5 -34t-64.5 -27t-85.5 -12q-132 0 -207 96q-54 -96 -203 -96q-98 0 -155 43.5t-57 112.5t55.5 115t146.5 46zM666 439q-60 0 -103 -34t-55 -90h306q-9 55 -50.5 89.5t-97.5 34.5zM274 237q-55 0 -87 -24.5t-32 -61.5
t32 -61.5t87 -24.5q59 0 92.5 24.5t33.5 61.5t-33.5 61.5t-92.5 24.5z" />
    <glyph glyph-name="ccedilla" unicode="&#xe7;" horiz-adv-x="542" 
d="M517 83q-2 -3 -6.5 -8t-20 -18.5t-32.5 -25t-45.5 -23t-58.5 -15.5q19 -28 19 -63q0 -58 -43 -91.5t-104 -33.5q-28 0 -53.5 7t-37.5 14l-12 7l25 66q27 -19 72 -19q33 0 52 16.5t19 43.5q0 34 -27 54q-99 16 -161.5 88t-62.5 173q0 113 79.5 190.5t196.5 77.5
q37 0 70.5 -8.5t55.5 -21t39 -25t25 -20.5l7 -9l-75 -73q-5 6 -14 15.5t-41 25t-69 15.5q-70 0 -117 -47.5t-47 -117.5q0 -71 47 -118.5t117 -47.5q25 0 47.5 6.5t36.5 15.5t24.5 18t15.5 15l4 7z" />
    <glyph glyph-name="egrave" unicode="&#xe8;" horiz-adv-x="605" 
d="M365 575h-88l-102 165h117zM150 240q5 -68 52 -111t117 -43q30 0 56.5 8t44 19t30.5 22.5t18 19.5l6 8l67 -61q-3 -5 -8.5 -12.5t-26 -26.5t-44.5 -34t-64.5 -27t-85.5 -12q-117 0 -194.5 75.5t-77.5 188.5t79 191t194 78q105 0 178.5 -73.5t73.5 -176.5l-5 -33h-410z
M311 439q-60 0 -103 -34t-55 -90h306q-9 55 -50.5 89.5t-97.5 34.5z" />
    <glyph glyph-name="eacute" unicode="&#xe9;" horiz-adv-x="605" 
d="M343 740h117l-102 -165h-88zM150 240q5 -68 52 -111t117 -43q30 0 56.5 8t44 19t30.5 22.5t18 19.5l6 8l67 -61q-3 -5 -8.5 -12.5t-26 -26.5t-44.5 -34t-64.5 -27t-85.5 -12q-117 0 -194.5 75.5t-77.5 188.5t79 191t194 78q105 0 178.5 -73.5t73.5 -176.5l-5 -33h-410z
M311 439q-60 0 -103 -34t-55 -90h306q-9 55 -50.5 89.5t-97.5 34.5z" />
    <glyph glyph-name="ecircumflex" unicode="&#xea;" horiz-adv-x="605" 
d="M258 740h100l145 -165h-97l-100 97l-99 -97h-94zM150 240q5 -68 52 -111t117 -43q30 0 56.5 8t44 19t30.5 22.5t18 19.5l6 8l67 -61q-3 -5 -8.5 -12.5t-26 -26.5t-44.5 -34t-64.5 -27t-85.5 -12q-117 0 -194.5 75.5t-77.5 188.5t79 191t194 78q105 0 178.5 -73.5
t73.5 -176.5l-5 -33h-410zM311 439q-60 0 -103 -34t-55 -90h306q-9 55 -50.5 89.5t-97.5 34.5z" />
    <glyph glyph-name="edieresis" unicode="&#xeb;" horiz-adv-x="605" 
d="M206 720q27 0 44.5 -18t17.5 -44q0 -27 -18 -45t-45 -18q-26 0 -44 17.5t-18 44.5q0 26 18.5 44.5t44.5 18.5zM416 720q27 0 44.5 -18t17.5 -44q0 -27 -18 -45t-45 -18q-26 0 -44 17.5t-18 44.5q0 26 18.5 44.5t44.5 18.5zM150 240q5 -68 52 -111t117 -43q30 0 56.5 8
t44 19t30.5 22.5t18 19.5l6 8l67 -61q-3 -5 -8.5 -12.5t-26 -26.5t-44.5 -34t-64.5 -27t-85.5 -12q-117 0 -194.5 75.5t-77.5 188.5t79 191t194 78q105 0 178.5 -73.5t73.5 -176.5l-5 -33h-410zM311 439q-60 0 -103 -34t-55 -90h306q-9 55 -50.5 89.5t-97.5 34.5z" />
    <glyph glyph-name="igrave" unicode="&#xec;" horiz-adv-x="262" 
d="M175 575h-88l-102 165h117zM75 513h112v-513h-112v513z" />
    <glyph glyph-name="iacute" unicode="&#xed;" horiz-adv-x="262" 
d="M160 740h117l-102 -165h-88zM75 513h112v-513h-112v513z" />
    <glyph glyph-name="icircumflex" unicode="&#xee;" horiz-adv-x="262" 
d="M81 740h100l145 -165h-97l-100 97l-99 -97h-94zM75 513h112v-513h-112v513z" />
    <glyph glyph-name="idieresis" unicode="&#xef;" horiz-adv-x="262" 
d="M26 720q27 0 44.5 -18t17.5 -44q0 -27 -18 -45t-45 -18q-26 0 -44 17.5t-18 44.5q0 26 18.5 44.5t44.5 18.5zM236 720q27 0 44.5 -18t17.5 -44q0 -27 -18 -45t-45 -18q-26 0 -44 17.5t-18 44.5q0 26 18.5 44.5t44.5 18.5zM75 513h112v-513h-112v513z" />
    <glyph glyph-name="eth" unicode="&#xf0;" horiz-adv-x="628" 
d="M296 498q47 0 89 -25l-68 99l-173 -37v62l135 28l-52 75h123l34 -51l152 33v-62l-116 -25l103 -154q65 -97 65 -189q0 -110 -81.5 -186t-194.5 -76q-115 0 -193.5 73t-78.5 186q0 104 75.5 176.5t180.5 72.5zM314 91q70 0 117 46.5t47 113.5t-47 114t-117 47
q-69 0 -116.5 -47t-47.5 -114t47.5 -113.5t116.5 -46.5z" />
    <glyph glyph-name="ntilde" unicode="&#xf1;" horiz-adv-x="615" 
d="M132 602q0 5 1 13.5t7 31t15.5 39t30.5 30.5t48 14t49.5 -12.5t35 -28t29.5 -28t34 -12.5t27.5 16.5t12.5 32.5l2 16l60 -6q0 -5 -1 -13.5t-7 -31t-15.5 -39t-30.5 -30.5t-48 -14t-49.5 12.5t-35 27.5t-30 27.5t-34.5 12.5q-16 0 -26 -16t-12 -32l-2 -16zM180 0h-110v513
h97l7 -89q56 99 179 99q86 0 141.5 -58t55.5 -164v-301h-110v266q0 78 -34.5 117t-88.5 39q-61 0 -99 -41t-38 -125v-256z" />
    <glyph glyph-name="ograve" unicode="&#xf2;" horiz-adv-x="628" 
d="M365 575h-88l-102 165h117zM316 523q117 0 194.5 -75.5t77.5 -188.5t-79.5 -191t-196.5 -78t-194.5 76t-77.5 189t79.5 190.5t196.5 77.5zM314 91q70 0 117 47.5t47 118.5q0 70 -47 117.5t-117 47.5t-117 -47.5t-47 -117.5q0 -71 47 -118.5t117 -47.5z" />
    <glyph glyph-name="oacute" unicode="&#xf3;" horiz-adv-x="628" 
d="M336 740h117l-102 -165h-88zM316 523q117 0 194.5 -75.5t77.5 -188.5t-79.5 -191t-196.5 -78t-194.5 76t-77.5 189t79.5 190.5t196.5 77.5zM314 91q70 0 117 47.5t47 118.5q0 70 -47 117.5t-117 47.5t-117 -47.5t-47 -117.5q0 -71 47 -118.5t117 -47.5z" />
    <glyph glyph-name="ocircumflex" unicode="&#xf4;" horiz-adv-x="628" 
d="M264 740h100l145 -165h-97l-100 97l-99 -97h-94zM316 523q117 0 194.5 -75.5t77.5 -188.5t-79.5 -191t-196.5 -78t-194.5 76t-77.5 189t79.5 190.5t196.5 77.5zM314 91q70 0 117 47.5t47 118.5q0 70 -47 117.5t-117 47.5t-117 -47.5t-47 -117.5q0 -71 47 -118.5
t117 -47.5z" />
    <glyph glyph-name="otilde" unicode="&#xf5;" horiz-adv-x="628" 
d="M138 602q0 5 1 13.5t7 31t15.5 39t30.5 30.5t48 14t49.5 -12.5t35 -28t29.5 -28t34 -12.5t27.5 16.5t12.5 32.5l2 16l60 -6q0 -5 -1 -13.5t-7 -31t-15.5 -39t-30.5 -30.5t-48 -14t-49.5 12.5t-35 27.5t-30 27.5t-34.5 12.5q-16 0 -26 -16t-12 -32l-2 -16zM316 523
q117 0 194.5 -75.5t77.5 -188.5t-79.5 -191t-196.5 -78t-194.5 76t-77.5 189t79.5 190.5t196.5 77.5zM314 91q70 0 117 47.5t47 118.5q0 70 -47 117.5t-117 47.5t-117 -47.5t-47 -117.5q0 -71 47 -118.5t117 -47.5z" />
    <glyph glyph-name="odieresis" unicode="&#xf6;" horiz-adv-x="628" 
d="M210 720q27 0 44.5 -18t17.5 -44q0 -27 -18 -45t-45 -18q-26 0 -44 17.5t-18 44.5q0 26 18.5 44.5t44.5 18.5zM420 720q27 0 44.5 -18t17.5 -44q0 -27 -18 -45t-45 -18q-26 0 -44 17.5t-18 44.5q0 26 18.5 44.5t44.5 18.5zM316 523q117 0 194.5 -75.5t77.5 -188.5
t-79.5 -191t-196.5 -78t-194.5 76t-77.5 189t79.5 190.5t196.5 77.5zM314 91q70 0 117 47.5t47 118.5q0 70 -47 117.5t-117 47.5t-117 -47.5t-47 -117.5q0 -71 47 -118.5t117 -47.5z" />
    <glyph glyph-name="divide" unicode="&#xf7;" 
d="M305 634q28 0 47.5 -19.5t19.5 -47.5t-19.5 -47.5t-47.5 -19.5t-47.5 19.5t-19.5 47.5t19.5 47.5t47.5 19.5zM50 310v92h510v-92h-510zM305 212q28 0 47.5 -19.5t19.5 -47.5t-19.5 -47.5t-47.5 -19.5t-47.5 19.5t-19.5 47.5t19.5 47.5t47.5 19.5z" />
    <glyph glyph-name="oslash" unicode="&#xf8;" horiz-adv-x="628" 
d="M316 523q82 0 149 -43l55 63h78l-85 -99q75 -75 75 -186q0 -113 -79.5 -190.5t-196.5 -77.5q-86 0 -150 43l-55 -63h-77l84 98q-74 76 -74 186q0 113 79.5 191t196.5 78zM402 402q-38 27 -88 27q-73 0 -122.5 -49.5t-49.5 -123.5q0 -61 37 -108zM225 110q40 -27 89 -27
q73 0 122 49.5t49 123.5q0 61 -37 108z" />
    <glyph glyph-name="ugrave" unicode="&#xf9;" horiz-adv-x="615" 
d="M357 575h-88l-102 165h117zM435 513h110v-513h-97l-7 89q-55 -99 -179 -99q-86 0 -141.5 58t-55.5 164v301h110v-266q0 -78 34.5 -117t88.5 -39q61 0 99 41t38 125v256z" />
    <glyph glyph-name="uacute" unicode="&#xfa;" horiz-adv-x="615" 
d="M340 740h117l-102 -165h-88zM435 513h110v-513h-97l-7 89q-55 -99 -179 -99q-86 0 -141.5 58t-55.5 164v301h110v-266q0 -78 34.5 -117t88.5 -39q61 0 99 41t38 125v256z" />
    <glyph glyph-name="ucircumflex" unicode="&#xfb;" horiz-adv-x="615" 
d="M257 740h100l145 -165h-97l-100 97l-99 -97h-94zM435 513h110v-513h-97l-7 89q-55 -99 -179 -99q-86 0 -141.5 58t-55.5 164v301h110v-266q0 -78 34.5 -117t88.5 -39q61 0 99 41t38 125v256z" />
    <glyph glyph-name="udieresis" unicode="&#xfc;" horiz-adv-x="615" 
d="M203 720q27 0 44.5 -18t17.5 -44q0 -27 -18 -45t-45 -18q-26 0 -44 17.5t-18 44.5q0 26 18.5 44.5t44.5 18.5zM413 720q27 0 44.5 -18t17.5 -44q0 -27 -18 -45t-45 -18q-26 0 -44 17.5t-18 44.5q0 26 18.5 44.5t44.5 18.5zM435 513h110v-513h-97l-7 89q-55 -99 -179 -99
q-86 0 -141.5 58t-55.5 164v301h110v-266q0 -78 34.5 -117t88.5 -39q61 0 99 41t38 125v256z" />
    <glyph glyph-name="yacute" unicode="&#xfd;" horiz-adv-x="530" 
d="M306 740h117l-102 -165h-88zM0 513h122l145 -383l146 383h117l-213 -518q-67 -165 -204 -165q-32 0 -60.5 7t-40.5 14l-12 7l35 89q24 -18 73 -18q68 0 101 76z" />
    <glyph glyph-name="thorn" unicode="&#xfe;" horiz-adv-x="652" 
d="M70 700h110v-270q31 44 78 68.5t103 24.5q104 0 177.5 -76.5t73.5 -188.5t-75 -190t-180 -78q-114 0 -177 87v-237h-110v860zM339 91q70 0 116.5 47.5t46.5 117.5q0 71 -46.5 118.5t-116.5 47.5t-117 -47.5t-47 -118.5q0 -70 47 -117.5t117 -47.5z" />
    <glyph glyph-name="ydieresis" unicode="&#xff;" horiz-adv-x="530" 
d="M163 720q27 0 44.5 -18t17.5 -44q0 -27 -18 -45t-45 -18q-26 0 -44 17.5t-18 44.5q0 26 18.5 44.5t44.5 18.5zM373 720q27 0 44.5 -18t17.5 -44q0 -27 -18 -45t-45 -18q-26 0 -44 17.5t-18 44.5q0 26 18.5 44.5t44.5 18.5zM0 513h122l145 -383l146 383h117l-213 -518
q-67 -165 -204 -165q-32 0 -60.5 7t-40.5 14l-12 7l35 89q24 -18 73 -18q68 0 101 76z" />
    <glyph glyph-name="Amacron" unicode="&#x100;" horiz-adv-x="710" 
d="M175 860h360v-66h-360v66zM705 0h-126l-71 175h-311l-71 -175h-121l293 700h115zM229 266h245l-122 302z" />
    <glyph glyph-name="amacron" unicode="&#x101;" horiz-adv-x="565" 
d="M107 673h360v-66h-360v66zM247 308q91 0 148 -47v32q0 67 -37 102.5t-98 35.5q-39 0 -73.5 -11.5t-49.5 -23.5l-15 -11l-47 71q3 3 8.5 7.5t25 16t41.5 20.5t57 16t72 7q106 0 166 -60.5t60 -170.5v-292h-85l-10 50q-58 -60 -166 -60q-92 0 -145.5 44t-53.5 113t55.5 115
t146.5 46zM274 66q59 0 92.5 24t33.5 61t-33.5 61.5t-92.5 24.5q-55 0 -87 -24.5t-32 -61.5q0 -36 32 -60.5t87 -24.5z" />
    <glyph glyph-name="Abreve" unicode="&#x102;" horiz-adv-x="710" 
d="M268 920v-10q0 -39 24 -63t64 -24t63 24t23 63v10h79v-5q0 -70 -47 -115t-119 -45t-119 45t-47 115v5h79zM705 0h-126l-71 175h-311l-71 -175h-121l293 700h115zM229 266h245l-122 302z" />
    <glyph glyph-name="abreve" unicode="&#x103;" horiz-adv-x="565" 
d="M200 740v-10q0 -39 24 -63t64 -24t63 24t23 63v10h79v-5q0 -70 -47 -115t-119 -45t-119 45t-47 115v5h79zM247 308q91 0 148 -47v32q0 67 -37 102.5t-98 35.5q-39 0 -73.5 -11.5t-49.5 -23.5l-15 -11l-47 71q3 3 8.5 7.5t25 16t41.5 20.5t57 16t72 7q106 0 166 -60.5
t60 -170.5v-292h-85l-10 50q-58 -60 -166 -60q-92 0 -145.5 44t-53.5 113t55.5 115t146.5 46zM274 66q59 0 92.5 24t33.5 61t-33.5 61.5t-92.5 24.5q-55 0 -87 -24.5t-32 -61.5q0 -36 32 -60.5t87 -24.5z" />
    <glyph glyph-name="Aogonek" unicode="&#x104;" horiz-adv-x="710" 
d="M705 0h-53q-21 -13 -21 -49q0 -26 20.5 -43t51.5 -17q16 0 30 3.5t21 7.5l6 3l20 -64q-30 -25 -86 -25q-59 0 -99 34t-40 89q0 39 21 67l-68 169h-311l-71 -175h-121l293 700h115zM229 266h245l-122 302z" />
    <glyph glyph-name="aogonek" unicode="&#x105;" horiz-adv-x="565" 
d="M247 308q91 0 148 -47v32q0 67 -37 102.5t-98 35.5q-39 0 -73.5 -11.5t-49.5 -23.5l-15 -11l-47 71q3 3 8.5 7.5t25 16t41.5 20.5t57 16t72 7q106 0 166 -60.5t60 -170.5v-292h-33q-21 -13 -21 -49q0 -26 20.5 -43t51.5 -17q16 0 30 3.5t21 7.5l6 3l20 -64
q-30 -25 -86 -25q-59 0 -99 34t-40 89q0 51 40 87l-5 24q-58 -60 -166 -60q-92 0 -145.5 44t-53.5 113t55.5 115t146.5 46zM274 66q59 0 92.5 24t33.5 61t-33.5 61.5t-92.5 24.5q-55 0 -87 -24.5t-32 -61.5q0 -36 32 -60.5t87 -24.5z" />
    <glyph glyph-name="Cacute" unicode="&#x106;" horiz-adv-x="717" 
d="M456 920h117l-102 -165h-88zM50 348q0 152 106.5 257t260.5 105q50 0 95 -11.5t74.5 -27.5t52 -32t32.5 -27l10 -12l-84 -73q-3 3 -7.5 8.5t-22 18.5t-37 23t-50.5 18.5t-65 8.5q-106 0 -178 -73t-72 -181t72 -181t178 -73q35 0 68 9t54.5 21.5t38 25.5t24 21.5t7.5 9.5
l80 -73q-4 -5 -11 -13t-32.5 -28.5t-54.5 -36.5t-76.5 -29t-99.5 -13q-154 0 -258.5 103t-104.5 255z" />
    <glyph glyph-name="cacute" unicode="&#x107;" horiz-adv-x="542" 
d="M339 740h117l-102 -165h-88zM517 83q-3 -4 -8.5 -10t-24.5 -22t-40.5 -28.5t-57.5 -22.5t-74 -10q-117 0 -194.5 76t-77.5 189t79.5 190.5t196.5 77.5q37 0 70.5 -8.5t55.5 -21t39 -25t25 -20.5l7 -9l-75 -73q-5 6 -14 15.5t-41 25t-69 15.5q-70 0 -117 -47.5t-47 -117.5
q0 -71 47 -118.5t117 -47.5q25 0 47.5 6.5t36.5 15.5t24.5 18t15.5 15l4 7z" />
    <glyph glyph-name="Ccircumflex" unicode="&#x108;" horiz-adv-x="717" 
d="M358 920h100l145 -165h-97l-100 97l-99 -97h-94zM50 348q0 152 106.5 257t260.5 105q50 0 95 -11.5t74.5 -27.5t52 -32t32.5 -27l10 -12l-84 -73q-3 3 -7.5 8.5t-22 18.5t-37 23t-50.5 18.5t-65 8.5q-106 0 -178 -73t-72 -181t72 -181t178 -73q35 0 68 9t54.5 21.5
t38 25.5t24 21.5t7.5 9.5l80 -73q-4 -5 -11 -13t-32.5 -28.5t-54.5 -36.5t-76.5 -29t-99.5 -13q-154 0 -258.5 103t-104.5 255z" />
    <glyph glyph-name="ccircumflex" unicode="&#x109;" horiz-adv-x="542" 
d="M256 740h100l145 -165h-97l-100 97l-99 -97h-94zM517 83q-3 -4 -8.5 -10t-24.5 -22t-40.5 -28.5t-57.5 -22.5t-74 -10q-117 0 -194.5 76t-77.5 189t79.5 190.5t196.5 77.5q37 0 70.5 -8.5t55.5 -21t39 -25t25 -20.5l7 -9l-75 -73q-5 6 -14 15.5t-41 25t-69 15.5
q-70 0 -117 -47.5t-47 -117.5q0 -71 47 -118.5t117 -47.5q25 0 47.5 6.5t36.5 15.5t24.5 18t15.5 15l4 7z" />
    <glyph glyph-name="Cdotaccent" unicode="&#x10a;" horiz-adv-x="717" 
d="M408 902q27 0 44.5 -18t17.5 -44q0 -27 -18 -45t-45 -18q-26 0 -44 17.5t-18 44.5q0 26 18.5 44.5t44.5 18.5zM50 348q0 152 106.5 257t260.5 105q50 0 95 -11.5t74.5 -27.5t52 -32t32.5 -27l10 -12l-84 -73q-3 3 -7.5 8.5t-22 18.5t-37 23t-50.5 18.5t-65 8.5
q-106 0 -178 -73t-72 -181t72 -181t178 -73q35 0 68 9t54.5 21.5t38 25.5t24 21.5t7.5 9.5l80 -73q-4 -5 -11 -13t-32.5 -28.5t-54.5 -36.5t-76.5 -29t-99.5 -13q-154 0 -258.5 103t-104.5 255z" />
    <glyph glyph-name="cdotaccent" unicode="&#x10b;" horiz-adv-x="542" 
d="M306 722q27 0 44.5 -18t17.5 -44q0 -27 -18 -45t-45 -18q-26 0 -44 17.5t-18 44.5q0 26 18.5 44.5t44.5 18.5zM517 83q-3 -4 -8.5 -10t-24.5 -22t-40.5 -28.5t-57.5 -22.5t-74 -10q-117 0 -194.5 76t-77.5 189t79.5 190.5t196.5 77.5q37 0 70.5 -8.5t55.5 -21t39 -25
t25 -20.5l7 -9l-75 -73q-5 6 -14 15.5t-41 25t-69 15.5q-70 0 -117 -47.5t-47 -117.5q0 -71 47 -118.5t117 -47.5q25 0 47.5 6.5t36.5 15.5t24.5 18t15.5 15l4 7z" />
    <glyph glyph-name="Ccaron" unicode="&#x10c;" horiz-adv-x="717" 
d="M458 755h-100l-145 165h97l100 -97l99 97h94zM50 348q0 152 106.5 257t260.5 105q50 0 95 -11.5t74.5 -27.5t52 -32t32.5 -27l10 -12l-84 -73q-3 3 -7.5 8.5t-22 18.5t-37 23t-50.5 18.5t-65 8.5q-106 0 -178 -73t-72 -181t72 -181t178 -73q35 0 68 9t54.5 21.5t38 25.5
t24 21.5t7.5 9.5l80 -73q-4 -5 -11 -13t-32.5 -28.5t-54.5 -36.5t-76.5 -29t-99.5 -13q-154 0 -258.5 103t-104.5 255z" />
    <glyph glyph-name="ccaron" unicode="&#x10d;" horiz-adv-x="542" 
d="M361 575h-100l-145 165h97l100 -97l99 97h94zM517 83q-3 -4 -8.5 -10t-24.5 -22t-40.5 -28.5t-57.5 -22.5t-74 -10q-117 0 -194.5 76t-77.5 189t79.5 190.5t196.5 77.5q37 0 70.5 -8.5t55.5 -21t39 -25t25 -20.5l7 -9l-75 -73q-5 6 -14 15.5t-41 25t-69 15.5
q-70 0 -117 -47.5t-47 -117.5q0 -71 47 -118.5t117 -47.5q25 0 47.5 6.5t36.5 15.5t24.5 18t15.5 15l4 7z" />
    <glyph glyph-name="Dcaron" unicode="&#x10e;" horiz-adv-x="760" 
d="M400 755h-100l-145 165h97l100 -97l99 97h94zM327 700q168 0 275.5 -99t107.5 -249t-109.5 -251t-277.5 -101h-233v700h237zM205 100h125q116 0 190.5 71t74.5 179q0 107 -75 178.5t-190 71.5h-125v-500z" />
    <glyph glyph-name="dcaron" unicode="&#x10f;" horiz-adv-x="800" 
d="M582 0h-91l-11 91q-67 -101 -189 -101q-104 0 -177.5 76.5t-73.5 188.5t75 190t180 78q115 0 177 -88v265h110v-700zM653 455l35 245h112l-67 -245h-80zM313 422q-70 0 -116.5 -47.5t-46.5 -117.5q0 -71 46.5 -118.5t116.5 -47.5t117 47.5t47 118.5q0 70 -47 117.5
t-117 47.5z" />
    <glyph glyph-name="Dcroat" unicode="&#x110;" horiz-adv-x="795" 
d="M125 325h-95v67h95v308h237q168 0 275.5 -99t107.5 -249t-109.5 -251t-277.5 -101h-233v325zM240 325v-225h125q116 0 190.5 71t74.5 179q0 107 -75 178.5t-190 71.5h-125v-208h200v-67h-200z" />
    <glyph glyph-name="dcroat" unicode="&#x111;" horiz-adv-x="677" 
d="M582 642h75v-67h-75v-575h-91l-11 91q-66 -101 -189 -101q-104 0 -177.5 76t-73.5 188t75 190.5t180 78.5q114 0 177 -89v141h-147v67h147v58h110v-58zM313 422q-70 0 -116.5 -47.5t-46.5 -118.5q0 -70 46.5 -117.5t116.5 -47.5t117 47.5t47 117.5q0 71 -47 118.5
t-117 47.5z" />
    <glyph glyph-name="Emacron" unicode="&#x112;" horiz-adv-x="650" 
d="M165 860h360v-66h-360v66zM90 0v700h500v-100h-385v-191h335v-94h-335v-215h395v-100h-510z" />
    <glyph glyph-name="emacron" unicode="&#x113;" horiz-adv-x="605" 
d="M132 673h360v-66h-360v66zM150 240q5 -68 52 -111t117 -43q30 0 56.5 8t44 19t30.5 22.5t18 19.5l6 8l67 -61q-3 -5 -8.5 -12.5t-26 -26.5t-44.5 -34t-64.5 -27t-85.5 -12q-117 0 -194.5 75.5t-77.5 188.5t79 191t194 78q105 0 178.5 -73.5t73.5 -176.5l-5 -33h-410z
M311 439q-60 0 -103 -34t-55 -90h306q-9 55 -50.5 89.5t-97.5 34.5z" />
    <glyph glyph-name="Ebreve" unicode="&#x114;" horiz-adv-x="650" 
d="M258 920v-10q0 -39 24 -63t64 -24t63 24t23 63v10h79v-5q0 -70 -47 -115t-119 -45t-119 45t-47 115v5h79zM90 0v700h500v-100h-385v-191h335v-94h-335v-215h395v-100h-510z" />
    <glyph glyph-name="ebreve" unicode="&#x115;" horiz-adv-x="605" 
d="M225 740v-10q0 -39 24 -63t64 -24t63 24t23 63v10h79v-5q0 -70 -47 -115t-119 -45t-119 45t-47 115v5h79zM150 240q5 -68 52 -111t117 -43q30 0 56.5 8t44 19t30.5 22.5t18 19.5l6 8l67 -61q-3 -5 -8.5 -12.5t-26 -26.5t-44.5 -34t-64.5 -27t-85.5 -12
q-117 0 -194.5 75.5t-77.5 188.5t79 191t194 78q105 0 178.5 -73.5t73.5 -176.5l-5 -33h-410zM311 439q-60 0 -103 -34t-55 -90h306q-9 55 -50.5 89.5t-97.5 34.5z" />
    <glyph glyph-name="Edotaccent" unicode="&#x116;" horiz-adv-x="650" 
d="M345 902q27 0 44.5 -18t17.5 -44q0 -27 -18 -45t-45 -18q-26 0 -44 17.5t-18 44.5q0 26 18.5 44.5t44.5 18.5zM90 0v700h500v-100h-385v-191h335v-94h-335v-215h395v-100h-510z" />
    <glyph glyph-name="edotaccent" unicode="&#x117;" horiz-adv-x="605" 
d="M312 722q27 0 44.5 -18t17.5 -44q0 -27 -18 -45t-45 -18q-26 0 -44 17.5t-18 44.5q0 26 18.5 44.5t44.5 18.5zM150 240q5 -68 52 -111t117 -43q30 0 56.5 8t44 19t30.5 22.5t18 19.5l6 8l67 -61q-3 -5 -8.5 -12.5t-26 -26.5t-44.5 -34t-64.5 -27t-85.5 -12
q-117 0 -194.5 75.5t-77.5 188.5t79 191t194 78q105 0 178.5 -73.5t73.5 -176.5l-5 -33h-410zM311 439q-60 0 -103 -34t-55 -90h306q-9 55 -50.5 89.5t-97.5 34.5z" />
    <glyph glyph-name="Eogonek" unicode="&#x118;" horiz-adv-x="650" 
d="M487 0q-21 -13 -21 -49q0 -26 20 -43t52 -17q16 0 30 3.5t20 7.5l7 3l20 -64q-30 -25 -86 -25q-59 0 -99 34t-40 89q0 35 17 61h-317v700h500v-100h-385v-191h335v-94h-335v-215h395v-100h-113z" />
    <glyph glyph-name="eogonek" unicode="&#x119;" horiz-adv-x="605" 
d="M150 240q5 -68 52 -111t117 -43q30 0 56.5 8t44 19t30.5 22.5t18 19.5l6 8l67 -61q-6 -9 -17 -22.5t-51 -41t-88 -39.5q-19 -16 -19 -48q0 -26 20 -43t52 -17q16 0 30 3.5t20 7.5l7 3l20 -64q-30 -25 -86 -25q-59 0 -99 34t-40 89q0 27 12 51q-113 4 -187.5 79t-74.5 185
q0 113 79 191t194 78q105 0 178.5 -73.5t73.5 -176.5l-5 -33h-410zM311 439q-60 0 -103 -34t-55 -90h306q-9 55 -50.5 89.5t-97.5 34.5z" />
    <glyph glyph-name="Ecaron" unicode="&#x11a;" horiz-adv-x="650" 
d="M395 755h-100l-145 165h97l100 -97l99 97h94zM90 0v700h500v-100h-385v-191h335v-94h-335v-215h395v-100h-510z" />
    <glyph glyph-name="ecaron" unicode="&#x11b;" horiz-adv-x="605" 
d="M362 575h-100l-145 165h97l100 -97l99 97h94zM150 240q5 -68 52 -111t117 -43q30 0 56.5 8t44 19t30.5 22.5t18 19.5l6 8l67 -61q-3 -5 -8.5 -12.5t-26 -26.5t-44.5 -34t-64.5 -27t-85.5 -12q-117 0 -194.5 75.5t-77.5 188.5t79 191t194 78q105 0 178.5 -73.5
t73.5 -176.5l-5 -33h-410zM311 439q-60 0 -103 -34t-55 -90h306q-9 55 -50.5 89.5t-97.5 34.5z" />
    <glyph glyph-name="Gcircumflex" unicode="&#x11c;" horiz-adv-x="807" 
d="M358 920h100l145 -165h-97l-100 97l-99 -97h-94zM756 365q1 -13 1 -26q-1 -148 -99 -248.5t-245 -100.5q-155 0 -259 103t-104 255t106 257t261 105q50 0 95 -11t74 -26t51 -30.5t32 -26.5l10 -11l-80 -81q-3 3 -8 8.5t-22 19.5t-37 24.5t-51.5 19t-65.5 8.5
q-107 0 -178.5 -73t-71.5 -182t71.5 -182t178.5 -73q86 0 148 51t75 135h-227v85h345z" />
    <glyph glyph-name="gcircumflex" unicode="&#x11d;" horiz-adv-x="652" 
d="M276 740h100l145 -165h-97l-100 97l-99 -97h-94zM90 -14q9 -7 26 -17.5t68.5 -27.5t102.5 -17q89 0 137 46.5t48 131.5v20q-62 -82 -178 -82q-107 0 -180.5 69.5t-73.5 170.5q0 103 73.5 173t184.5 70q118 0 184 -87l9 77h91v-388q0 -136 -75.5 -215.5t-211.5 -79.5
q-68 0 -130 19t-90 37l-28 19zM313 430q-70 0 -116.5 -43.5t-46.5 -107.5q0 -63 47 -106.5t116 -43.5q70 0 117 43.5t47 106.5q0 64 -47 107.5t-117 43.5z" />
    <glyph glyph-name="Gbreve" unicode="&#x11e;" horiz-adv-x="807" 
d="M321 920v-10q0 -39 24 -63t64 -24t63 24t23 63v10h79v-5q0 -70 -47 -115t-119 -45t-119 45t-47 115v5h79zM756 365q1 -13 1 -26q-1 -148 -99 -248.5t-245 -100.5q-155 0 -259 103t-104 255t106 257t261 105q50 0 95 -11t74 -26t51 -30.5t32 -26.5l10 -11l-80 -81
q-3 3 -8 8.5t-22 19.5t-37 24.5t-51.5 19t-65.5 8.5q-107 0 -178.5 -73t-71.5 -182t71.5 -182t178.5 -73q86 0 148 51t75 135h-227v85h345z" />
    <glyph glyph-name="gbreve" unicode="&#x11f;" horiz-adv-x="652" 
d="M239 740v-10q0 -39 24 -63t64 -24t63 24t23 63v10h79v-5q0 -70 -47 -115t-119 -45t-119 45t-47 115v5h79zM90 -14q9 -7 26 -17.5t68.5 -27.5t102.5 -17q89 0 137 46.5t48 131.5v20q-62 -82 -178 -82q-107 0 -180.5 69.5t-73.5 170.5q0 103 73.5 173t184.5 70
q118 0 184 -87l9 77h91v-388q0 -136 -75.5 -215.5t-211.5 -79.5q-68 0 -130 19t-90 37l-28 19zM313 430q-70 0 -116.5 -43.5t-46.5 -107.5q0 -63 47 -106.5t116 -43.5q70 0 117 43.5t47 106.5q0 64 -47 107.5t-117 43.5z" />
    <glyph glyph-name="Gdotaccent" unicode="&#x120;" horiz-adv-x="807" 
d="M408 902q27 0 44.5 -18t17.5 -44q0 -27 -18 -45t-45 -18q-26 0 -44 17.5t-18 44.5q0 26 18.5 44.5t44.5 18.5zM756 365q1 -13 1 -26q-1 -148 -99 -248.5t-245 -100.5q-155 0 -259 103t-104 255t106 257t261 105q50 0 95 -11t74 -26t51 -30.5t32 -26.5l10 -11l-80 -81
q-3 3 -8 8.5t-22 19.5t-37 24.5t-51.5 19t-65.5 8.5q-107 0 -178.5 -73t-71.5 -182t71.5 -182t178.5 -73q86 0 148 51t75 135h-227v85h345z" />
    <glyph glyph-name="gdotaccent" unicode="&#x121;" horiz-adv-x="652" 
d="M326 722q27 0 44.5 -18t17.5 -44q0 -27 -18 -45t-45 -18q-26 0 -44 17.5t-18 44.5q0 26 18.5 44.5t44.5 18.5zM90 -14q9 -7 26 -17.5t68.5 -27.5t102.5 -17q89 0 137 46.5t48 131.5v20q-62 -82 -178 -82q-107 0 -180.5 69.5t-73.5 170.5q0 103 73.5 173t184.5 70
q118 0 184 -87l9 77h91v-388q0 -136 -75.5 -215.5t-211.5 -79.5q-68 0 -130 19t-90 37l-28 19zM313 430q-70 0 -116.5 -43.5t-46.5 -107.5q0 -63 47 -106.5t116 -43.5q70 0 117 43.5t47 106.5q0 64 -47 107.5t-117 43.5z" />
    <glyph glyph-name="Gcommaaccent" unicode="&#x122;" horiz-adv-x="807" 
d="M756 365q1 -13 1 -26q-1 -148 -99 -248.5t-245 -100.5q-155 0 -259 103t-104 255t106 257t261 105q50 0 95 -11t74 -26t51 -30.5t32 -26.5l10 -11l-80 -81q-3 3 -8 8.5t-22 19.5t-37 24.5t-51.5 19t-65.5 8.5q-107 0 -178.5 -73t-71.5 -182t71.5 -182t178.5 -73
q86 0 148 51t75 135h-227v85h345zM354 -50h117l-102 -165h-88z" />
    <glyph glyph-name="gcommaaccent" unicode="&#x123;" horiz-adv-x="652" 
d="M379 575h-117l102 165h88zM90 -14q9 -7 26 -17.5t68.5 -27.5t102.5 -17q89 0 137 46.5t48 131.5v20q-62 -82 -178 -82q-107 0 -180.5 69.5t-73.5 170.5q0 103 73.5 173t184.5 70q118 0 184 -87l9 77h91v-388q0 -136 -75.5 -215.5t-211.5 -79.5q-68 0 -130 19t-90 37
l-28 19zM313 430q-70 0 -116.5 -43.5t-46.5 -107.5q0 -63 47 -106.5t116 -43.5q70 0 117 43.5t47 106.5q0 64 -47 107.5t-117 43.5z" />
    <glyph glyph-name="Hcircumflex" unicode="&#x124;" horiz-adv-x="770" 
d="M335 920h100l145 -165h-97l-100 97l-99 -97h-94zM565 315h-360v-315h-115v700h115v-283h360v283h115v-700h-115v315z" />
    <glyph glyph-name="hcircumflex" unicode="&#x125;" horiz-adv-x="615" 
d="M257 920h100l145 -165h-97l-100 97l-99 -97h-94zM70 700h110v-271q55 94 173 94q85 0 141 -58t56 -164v-301h-110v266q0 78 -34.5 117t-88.5 39q-60 0 -98.5 -39t-38.5 -118v-265h-110v700z" />
    <glyph glyph-name="Hbar" unicode="&#x126;" horiz-adv-x="840" 
d="M125 523h-95v66h95v111h115v-111h360v111h115v-111h95v-66h-95v-523h-115v315h-360v-315h-115v523zM240 417h360v106h-360v-106z" />
    <glyph glyph-name="hbar" unicode="&#x127;" horiz-adv-x="640" 
d="M95 575h-75v67h75v58h110v-58h147v-67h-147v-146q56 94 173 94q84 0 140.5 -58.5t56.5 -163.5v-301h-110v265q0 79 -34.5 118t-88.5 39q-60 0 -98.5 -39t-38.5 -119v-264h-110v575z" />
    <glyph glyph-name="Itilde" unicode="&#x128;" horiz-adv-x="309" 
d="M-21 782q0 5 1 13.5t7 31t15.5 39t30.5 30.5t48 14t49.5 -12.5t35 -28t29.5 -28t34 -12.5t27.5 16.5t12.5 32.5l2 16l60 -6q0 -5 -1 -13.5t-7 -31t-15.5 -39t-30.5 -30.5t-48 -14t-49.5 12.5t-35 27.5t-30 27.5t-34.5 12.5q-16 0 -26 -16t-12 -32l-2 -16zM95 700h119
v-700h-119v700z" />
    <glyph glyph-name="itilde" unicode="&#x129;" horiz-adv-x="262" 
d="M-45 602q0 5 1 13.5t7 31t15.5 39t30.5 30.5t48 14t49.5 -12.5t35 -28t29.5 -28t34 -12.5t27.5 16.5t12.5 32.5l2 16l60 -6q0 -5 -1 -13.5t-7 -31t-15.5 -39t-30.5 -30.5t-48 -14t-49.5 12.5t-35 27.5t-30 27.5t-34.5 12.5q-16 0 -26 -16t-12 -32l-2 -16zM75 513h112
v-513h-112v513z" />
    <glyph glyph-name="Imacron" unicode="&#x12a;" horiz-adv-x="309" 
d="M-25 860h360v-66h-360v66zM95 700h119v-700h-119v700z" />
    <glyph glyph-name="imacron" unicode="&#x12b;" horiz-adv-x="262" 
d="M-49 673h360v-66h-360v66zM75 513h112v-513h-112v513z" />
    <glyph glyph-name="Ibreve" unicode="&#x12c;" horiz-adv-x="309" 
d="M68 920v-10q0 -39 24 -63t64 -24t63 24t23 63v10h79v-5q0 -70 -47 -115t-119 -45t-119 45t-47 115v5h79zM95 700h119v-700h-119v700z" />
    <glyph glyph-name="ibreve" unicode="&#x12d;" horiz-adv-x="262" 
d="M44 740v-10q0 -39 24 -63t64 -24t63 24t23 63v10h79v-5q0 -70 -47 -115t-119 -45t-119 45t-47 115v5h79zM75 513h112v-513h-112v513z" />
    <glyph glyph-name="Iogonek" unicode="&#x12e;" horiz-adv-x="309" 
d="M166 0q-21 -13 -21 -49q0 -26 20.5 -43t51.5 -17q16 0 30 3.5t21 7.5l6 3l20 -64q-30 -25 -86 -25q-59 0 -99 34t-40 89q0 41 26 73v688h119v-700h-48z" />
    <glyph glyph-name="iogonek" unicode="&#x12f;" horiz-adv-x="262" 
d="M131 729q31 0 51.5 -20.5t20.5 -51.5q0 -30 -20.5 -50.5t-51.5 -20.5t-52 20.5t-21 50.5q0 31 21 51.5t52 20.5zM134 0q-21 -13 -21 -49q0 -26 20.5 -43t51.5 -17q16 0 30 3.5t21 7.5l6 3l20 -64q-30 -25 -86 -25q-59 0 -99 34t-40 89q0 51 38 85v489h112v-513h-53z" />
    <glyph glyph-name="Idotaccent" unicode="&#x130;" horiz-adv-x="309" 
d="M154 903q27 0 44.5 -18t17.5 -44q0 -27 -18 -45t-45 -18q-26 0 -44 17.5t-18 44.5q0 26 18.5 44.5t44.5 18.5zM95 700h119v-700h-119v700z" />
    <glyph glyph-name="dotlessi" unicode="&#x131;" horiz-adv-x="262" 
d="M75 513h112v-513h-112v513z" />
    <glyph glyph-name="IJ" unicode="&#x132;" horiz-adv-x="787" 
d="M95 700h119v-700h-119v700zM589 700h118v-451q0 -118 -70.5 -188.5t-179.5 -70.5q-40 0 -73.5 7t-46.5 15l-13 7l33 99q32 -20 92 -20q62 0 101 41.5t39 115.5v445z" />
    <glyph glyph-name="ij" unicode="&#x133;" horiz-adv-x="524" 
d="M131 729q31 0 51.5 -20.5t20.5 -51.5q0 -30 -20.5 -50.5t-51.5 -20.5t-52 20.5t-21 50.5q0 31 21 51.5t52 20.5zM393 729q31 0 51.5 -20.5t20.5 -51.5q0 -30 -20.5 -50.5t-51.5 -20.5t-52 20.5t-21 50.5q0 31 21 51.5t52 20.5zM75 513h112v-513h-112v513zM449 513v-491
q0 -94 -46.5 -143t-128.5 -49q-18 0 -36.5 3t-27.5 7l-10 3l16 90q21 -7 45 -7q76 0 76 86v501h112z" />
    <glyph glyph-name="Jcircumflex" unicode="&#x134;" horiz-adv-x="478" 
d="M288 920h100l145 -165h-97l-100 97l-99 -97h-94zM280 700h118v-451q0 -118 -70.5 -188.5t-179.5 -70.5q-40 0 -73.5 7t-46.5 15l-13 7l33 99q32 -20 92 -20q62 0 101 41.5t39 115.5v445z" />
    <glyph glyph-name="jcircumflex" unicode="&#x135;" horiz-adv-x="262" 
d="M81 740h100l145 -165h-97l-100 97l-99 -97h-94zM187 513v-491q0 -94 -46.5 -143t-128.5 -49q-18 0 -36.5 3t-27.5 7l-10 3l16 90q21 -7 45 -7q76 0 76 86v501h112z" />
    <glyph glyph-name="Kcommaaccent" unicode="&#x136;" horiz-adv-x="685" 
d="M205 344v-344h-115v700h115v-325l321 325h144l-346 -335l366 -365h-144zM314 -50h117l-102 -165h-88z" />
    <glyph glyph-name="kcommaaccent" unicode="&#x137;" horiz-adv-x="560" 
d="M60 700h110v-414l236 227h139l-261 -234l281 -279h-141l-254 261v-261h-110v700zM234 -50h117l-102 -165h-88z" />
    <glyph glyph-name="Lacute" unicode="&#x139;" horiz-adv-x="590" 
d="M183 920h117l-102 -165h-88zM90 0v700h115v-598h365v-102h-480z" />
    <glyph glyph-name="lacute" unicode="&#x13a;" horiz-adv-x="262" 
d="M165 920h117l-102 -165h-88zM75 700h112v-700h-112v700z" />
    <glyph glyph-name="Lcommaaccent" unicode="&#x13b;" horiz-adv-x="590" 
d="M90 0v700h115v-598h365v-102h-480zM284 -50h117l-102 -165h-88z" />
    <glyph glyph-name="lcommaaccent" unicode="&#x13c;" horiz-adv-x="262" 
d="M75 700h112v-700h-112v700zM73 -50h117l-102 -165h-88z" />
    <glyph glyph-name="Lcaron" unicode="&#x13d;" horiz-adv-x="590" 
d="M90 0v700h115v-598h365v-102h-480zM374 455l35 245h112l-67 -245h-80z" />
    <glyph glyph-name="lcaron" unicode="&#x13e;" horiz-adv-x="404" 
d="M75 700h112v-700h-112v700zM257 455l35 245h112l-67 -245h-80z" />
    <glyph glyph-name="Ldot" unicode="&#x13f;" horiz-adv-x="590" 
d="M90 0v700h115v-598h365v-102h-480zM397 445q30 0 51.5 -21t21.5 -51t-21.5 -51.5t-51.5 -21.5t-51 21.5t-21 51.5t21 51t51 21z" />
    <glyph glyph-name="ldot" unicode="&#x140;" horiz-adv-x="432" 
d="M75 700h112v-700h-112v700zM334 423q30 0 51.5 -21t21.5 -51t-21.5 -51.5t-51.5 -21.5t-51 21.5t-21 51.5t21 51t51 21z" />
    <glyph glyph-name="Lslash" unicode="&#x141;" horiz-adv-x="625" 
d="M125 0v318l-95 -16v68l95 16v314h115v-297l255 44v-67l-255 -44v-234h365v-102h-480z" />
    <glyph glyph-name="lslash" unicode="&#x142;" horiz-adv-x="347" 
d="M112 325l-82 -18v68l82 18v307h112v-283l93 20v-67l-93 -21v-349h-112v325z" />
    <glyph glyph-name="Nacute" unicode="&#x143;" horiz-adv-x="790" 
d="M433 920h117l-102 -165h-88zM203 529v-529h-113v700h120l378 -520v520h112v-700h-112z" />
    <glyph glyph-name="nacute" unicode="&#x144;" horiz-adv-x="615" 
d="M325 740h117l-102 -165h-88zM180 0h-110v513h97l7 -89q56 99 179 99q86 0 141.5 -58t55.5 -164v-301h-110v266q0 78 -34.5 117t-88.5 39q-61 0 -99 -41t-38 -125v-256z" />
    <glyph glyph-name="Ncommaaccent" unicode="&#x145;" horiz-adv-x="790" 
d="M203 529v-529h-113v700h120l378 -520v520h112v-700h-112zM344 -50h117l-102 -165h-88z" />
    <glyph glyph-name="ncommaaccent" unicode="&#x146;" horiz-adv-x="615" 
d="M180 0h-110v513h97l7 -89q56 99 179 99q86 0 141.5 -58t55.5 -164v-301h-110v266q0 78 -34.5 117t-88.5 39q-61 0 -99 -41t-38 -125v-256zM254 -50h117l-102 -165h-88z" />
    <glyph glyph-name="Ncaron" unicode="&#x147;" horiz-adv-x="790" 
d="M445 755h-100l-145 165h97l100 -97l99 97h94zM203 529v-529h-113v700h120l378 -520v520h112v-700h-112z" />
    <glyph glyph-name="ncaron" unicode="&#x148;" horiz-adv-x="615" 
d="M357 575h-100l-145 165h97l100 -97l99 97h94zM180 0h-110v513h97l7 -89q56 99 179 99q86 0 141.5 -58t55.5 -164v-301h-110v266q0 78 -34.5 117t-88.5 39q-61 0 -99 -41t-38 -125v-256z" />
    <glyph glyph-name="Eng" unicode="&#x14a;" horiz-adv-x="790" 
d="M588 180v520h112v-666q0 -97 -52.5 -150.5t-139.5 -53.5q-30 0 -54.5 5t-33.5 11l-10 5l25 85q25 -13 62 -13q36 0 60.5 20t29.5 57l-384 529v-529h-113v700h120z" />
    <glyph glyph-name="eng" unicode="&#x14b;" horiz-adv-x="615" 
d="M70 513h97l7 -88q54 98 179 98q87 0 142 -58t55 -164v-279q0 -94 -47 -143t-130 -49q-15 0 -29.5 2t-21.5 4l-6 3l12 92q14 -5 35 -5q77 0 77 85v254q0 79 -33.5 118t-89.5 39q-62 0 -99.5 -39.5t-37.5 -120.5v-262h-110v513z" />
    <glyph glyph-name="Omacron" unicode="&#x14c;" horiz-adv-x="830" 
d="M235 860h360v-66h-360v66zM417 710q155 0 259 -103t104 -255t-106 -257t-261 -105q-154 0 -258.5 103t-104.5 255t106.5 257t260.5 105zM415 96q107 0 178.5 73t71.5 181t-71.5 181t-178.5 73q-106 0 -178 -73t-72 -181t72 -181t178 -73z" />
    <glyph glyph-name="omacron" unicode="&#x14d;" horiz-adv-x="628" 
d="M134 673h360v-66h-360v66zM316 523q117 0 194.5 -75.5t77.5 -188.5t-79.5 -191t-196.5 -78t-194.5 76t-77.5 189t79.5 190.5t196.5 77.5zM314 91q70 0 117 47.5t47 118.5q0 70 -47 117.5t-117 47.5t-117 -47.5t-47 -117.5q0 -71 47 -118.5t117 -47.5z" />
    <glyph glyph-name="Obreve" unicode="&#x14e;" horiz-adv-x="830" 
d="M328 920v-10q0 -39 24 -63t64 -24t63 24t23 63v10h79v-5q0 -70 -47 -115t-119 -45t-119 45t-47 115v5h79zM417 710q155 0 259 -103t104 -255t-106 -257t-261 -105q-154 0 -258.5 103t-104.5 255t106.5 257t260.5 105zM415 96q107 0 178.5 73t71.5 181t-71.5 181
t-178.5 73q-106 0 -178 -73t-72 -181t72 -181t178 -73z" />
    <glyph glyph-name="obreve" unicode="&#x14f;" horiz-adv-x="628" 
d="M227 740v-10q0 -39 24 -63t64 -24t63 24t23 63v10h79v-5q0 -70 -47 -115t-119 -45t-119 45t-47 115v5h79zM316 523q117 0 194.5 -75.5t77.5 -188.5t-79.5 -191t-196.5 -78t-194.5 76t-77.5 189t79.5 190.5t196.5 77.5zM314 91q70 0 117 47.5t47 118.5q0 70 -47 117.5
t-117 47.5t-117 -47.5t-47 -117.5q0 -71 47 -118.5t117 -47.5z" />
    <glyph glyph-name="Ohungarumlaut" unicode="&#x150;" horiz-adv-x="830" 
d="M328 920h115l-88 -165h-85zM525 920h115l-87 -165h-85zM417 710q155 0 259 -103t104 -255t-106 -257t-261 -105q-154 0 -258.5 103t-104.5 255t106.5 257t260.5 105zM415 96q107 0 178.5 73t71.5 181t-71.5 181t-178.5 73q-106 0 -178 -73t-72 -181t72 -181t178 -73z" />
    <glyph glyph-name="ohungarumlaut" unicode="&#x151;" horiz-adv-x="628" 
d="M227 740h115l-88 -165h-85zM424 740h115l-87 -165h-85zM316 523q117 0 194.5 -75.5t77.5 -188.5t-79.5 -191t-196.5 -78t-194.5 76t-77.5 189t79.5 190.5t196.5 77.5zM314 91q70 0 117 47.5t47 118.5q0 70 -47 117.5t-117 47.5t-117 -47.5t-47 -117.5q0 -71 47 -118.5
t117 -47.5z" />
    <glyph glyph-name="OE" unicode="&#x152;" horiz-adv-x="1095" 
d="M650 600v-190h335v-94h-335v-216h395v-100h-612q-168 0 -275.5 99t-107.5 249t109.5 251t277.5 101h598v-100h-385zM535 600h-105q-116 0 -190.5 -71t-74.5 -179q0 -107 75 -178.5t190 -71.5h105v500z" />
    <glyph glyph-name="oe" unicode="&#x153;" horiz-adv-x="1043" 
d="M588 240q5 -68 52 -111t117 -43q30 0 56.5 8t44 19t30.5 22.5t18 19.5l6 8l67 -61q-3 -5 -8.5 -12.5t-26 -26.5t-44.5 -34t-64.5 -27t-85.5 -12q-71 0 -128 29.5t-91 82.5q-35 -52 -92 -82t-127 -30q-117 0 -194.5 76t-77.5 189t79.5 190.5t196.5 77.5q70 0 126.5 -30
t91.5 -82q35 52 91.5 82t125.5 30q105 0 178.5 -73.5t73.5 -176.5l-5 -33h-410zM749 439q-60 0 -103 -34t-55 -90h306q-9 55 -50.5 89.5t-97.5 34.5zM314 91q70 0 117 47.5t47 118.5q0 70 -47 117.5t-117 47.5t-117 -47.5t-47 -117.5q0 -71 47 -118.5t117 -47.5z" />
    <glyph glyph-name="Racute" unicode="&#x154;" horiz-adv-x="695" 
d="M375 920h117l-102 -165h-88zM90 700h302q108 0 175.5 -61.5t67.5 -158.5q0 -75 -43.5 -131.5t-117.5 -76.5l191 -272h-135l-177 257h-148v-257h-115v700zM205 602v-255h173q65 0 103.5 36t38.5 92t-38.5 91.5t-103.5 35.5h-173z" />
    <glyph glyph-name="racute" unicode="&#x155;" horiz-adv-x="401" 
d="M268 740h117l-102 -165h-88zM70 513h98l7 -108q55 118 201 118l-2 -112h-22q-82 0 -127 -47.5t-45 -144.5v-219h-110v513z" />
    <glyph glyph-name="Rcommaaccent" unicode="&#x156;" horiz-adv-x="695" 
d="M90 700h302q108 0 175.5 -61.5t67.5 -158.5q0 -75 -43.5 -131.5t-117.5 -76.5l191 -272h-135l-177 257h-148v-257h-115v700zM205 602v-255h173q65 0 103.5 36t38.5 92t-38.5 91.5t-103.5 35.5h-173zM304 -50h117l-102 -165h-88z" />
    <glyph glyph-name="rcommaaccent" unicode="&#x157;" horiz-adv-x="401" 
d="M70 513h98l7 -108q55 118 201 118l-2 -112h-22q-82 0 -127 -47.5t-45 -144.5v-219h-110v513zM63 -50h117l-102 -165h-88z" />
    <glyph glyph-name="Rcaron" unicode="&#x158;" horiz-adv-x="695" 
d="M397 755h-100l-145 165h97l100 -97l99 97h94zM90 700h302q108 0 175.5 -61.5t67.5 -158.5q0 -75 -43.5 -131.5t-117.5 -76.5l191 -272h-135l-177 257h-148v-257h-115v700zM205 602v-255h173q65 0 103.5 36t38.5 92t-38.5 91.5t-103.5 35.5h-173z" />
    <glyph glyph-name="rcaron" unicode="&#x159;" horiz-adv-x="401" 
d="M281 575h-100l-145 165h97l100 -97l99 97h94zM70 513h98l7 -108q55 118 201 118l-2 -112h-22q-82 0 -127 -47.5t-45 -144.5v-219h-110v513z" />
    <glyph glyph-name="Sacute" unicode="&#x15a;" horiz-adv-x="575" 
d="M325 920h117l-102 -165h-88zM319 408q206 -72 206 -216q0 -87 -66.5 -144.5t-176.5 -57.5q-47 0 -91 10.5t-73 25t-51 29t-32 25.5l-10 10l69 74q9 -9 24.5 -22t67 -35t104.5 -22q52 0 85 27t33 67q0 45 -37.5 77.5t-135.5 67.5q-175 65 -175 196q0 82 64.5 136t168.5 54
q41 0 80 -9t64.5 -21t45 -24.5t28.5 -21.5l9 -9l-69 -75q-7 7 -19.5 18t-53 29t-83.5 18q-55 0 -86 -26t-31 -59q0 -39 31.5 -66.5t109.5 -55.5z" />
    <glyph glyph-name="sacute" unicode="&#x15b;" horiz-adv-x="457" 
d="M256 740h117l-102 -165h-88zM257 304q160 -46 160 -157q0 -68 -52.5 -112.5t-144.5 -44.5q-56 0 -106 17.5t-72 34.5l-22 18l48 72q7 -6 20.5 -16t53.5 -26t79 -16q41 0 64.5 18t23.5 44q0 29 -25 50t-97 42q-69 20 -107 59t-38 90q0 61 50 103.5t138 42.5q48 0 93 -15
t66 -30l21 -15l-49 -73q-6 5 -17 13.5t-44.5 22t-66.5 13.5q-39 0 -60.5 -16t-21.5 -38q0 -25 22.5 -44.5t83.5 -36.5z" />
    <glyph glyph-name="Scircumflex" unicode="&#x15c;" horiz-adv-x="575" 
d="M237 920h100l145 -165h-97l-100 97l-99 -97h-94zM319 408q206 -72 206 -216q0 -87 -66.5 -144.5t-176.5 -57.5q-47 0 -91 10.5t-73 25t-51 29t-32 25.5l-10 10l69 74q9 -9 24.5 -22t67 -35t104.5 -22q52 0 85 27t33 67q0 45 -37.5 77.5t-135.5 67.5q-175 65 -175 196
q0 82 64.5 136t168.5 54q41 0 80 -9t64.5 -21t45 -24.5t28.5 -21.5l9 -9l-69 -75q-7 7 -19.5 18t-53 29t-83.5 18q-55 0 -86 -26t-31 -59q0 -39 31.5 -66.5t109.5 -55.5z" />
    <glyph glyph-name="scircumflex" unicode="&#x15d;" horiz-adv-x="457" 
d="M179 740h100l145 -165h-97l-100 97l-99 -97h-94zM257 304q160 -46 160 -157q0 -68 -52.5 -112.5t-144.5 -44.5q-56 0 -106 17.5t-72 34.5l-22 18l48 72q7 -6 20.5 -16t53.5 -26t79 -16q41 0 64.5 18t23.5 44q0 29 -25 50t-97 42q-69 20 -107 59t-38 90q0 61 50 103.5
t138 42.5q48 0 93 -15t66 -30l21 -15l-49 -73q-6 5 -17 13.5t-44.5 22t-66.5 13.5q-39 0 -60.5 -16t-21.5 -38q0 -25 22.5 -44.5t83.5 -36.5z" />
    <glyph glyph-name="Scedilla" unicode="&#x15e;" horiz-adv-x="575" 
d="M319 408q206 -72 206 -216q0 -78 -54.5 -133.5t-147.5 -65.5q19 -29 19 -63q0 -58 -43 -91.5t-104 -33.5q-28 0 -53.5 7t-37.5 14l-12 7l25 66q27 -19 72 -19q33 0 52 16.5t19 43.5q0 32 -26 53q-61 7 -113.5 31.5t-74.5 45.5l-21 20l69 74q9 -9 24.5 -22t67 -35
t104.5 -22q52 0 85 27t33 67q0 45 -37.5 77.5t-135.5 67.5q-175 65 -175 196q0 82 64.5 136t168.5 54q41 0 80 -9t64.5 -21t45 -24.5t28.5 -21.5l9 -9l-69 -75q-7 7 -19.5 18t-53 29t-83.5 18q-55 0 -86 -26t-31 -59q0 -39 31.5 -66.5t109.5 -55.5z" />
    <glyph glyph-name="scedilla" unicode="&#x15f;" horiz-adv-x="457" 
d="M257 304q160 -46 160 -157q0 -60 -40 -102t-113 -52q19 -28 19 -63q0 -58 -43 -91.5t-104 -33.5q-28 0 -53.5 7t-37.5 14l-12 7l25 66q27 -19 72 -19q33 0 52 16.5t19 43.5q0 32 -26 53q-44 6 -82.5 22.5t-55.5 30.5l-17 14l48 72q7 -6 20.5 -16t53.5 -26t79 -16
q41 0 64.5 18t23.5 44q0 29 -25 50t-97 42q-69 20 -107 59t-38 90q0 61 50 103.5t138 42.5q48 0 93 -15t66 -30l21 -15l-49 -73q-6 5 -17 13.5t-44.5 22t-66.5 13.5q-39 0 -60.5 -16t-21.5 -38q0 -25 22.5 -44.5t83.5 -36.5z" />
    <glyph glyph-name="Scaron" unicode="&#x160;" horiz-adv-x="575" 
d="M345 755h-100l-145 165h97l100 -97l99 97h94zM319 408q206 -72 206 -216q0 -87 -66.5 -144.5t-176.5 -57.5q-47 0 -91 10.5t-73 25t-51 29t-32 25.5l-10 10l69 74q9 -9 24.5 -22t67 -35t104.5 -22q52 0 85 27t33 67q0 45 -37.5 77.5t-135.5 67.5q-175 65 -175 196
q0 82 64.5 136t168.5 54q41 0 80 -9t64.5 -21t45 -24.5t28.5 -21.5l9 -9l-69 -75q-7 7 -19.5 18t-53 29t-83.5 18q-55 0 -86 -26t-31 -59q0 -39 31.5 -66.5t109.5 -55.5z" />
    <glyph glyph-name="scaron" unicode="&#x161;" horiz-adv-x="480" 
d="M275 575h-100l-145 165h97l100 -97l99 97h94zM257 304q160 -46 160 -157q0 -68 -52.5 -112.5t-144.5 -44.5q-56 0 -106 17.5t-72 34.5l-22 18l48 72q7 -6 20.5 -16t53.5 -26t79 -16q41 0 64.5 18t23.5 44q0 29 -25 50t-97 42q-69 20 -107 59t-38 90q0 61 50 103.5
t138 42.5q48 0 93 -15t66 -30l21 -15l-49 -73q-6 5 -17 13.5t-44.5 22t-66.5 13.5q-39 0 -60.5 -16t-21.5 -38q0 -25 22.5 -44.5t83.5 -36.5z" />
    <glyph glyph-name="Tcaron" unicode="&#x164;" horiz-adv-x="590" 
d="M345 755h-100l-145 165h97l100 -97l99 97h94zM352 600v-600h-115v600h-217v100h550v-100h-218z" />
    <glyph glyph-name="tcaron" unicode="&#x165;" horiz-adv-x="440" 
d="M305 570l35 220h113l-68 -220h-80zM230 513h180v-89h-180v-247q0 -86 78 -86q20 0 42 3.5t34 6.5l12 3l14 -92q-49 -22 -127 -22q-76 0 -119.5 42t-43.5 120v272h-100v89h100v127h110v-127z" />
    <glyph glyph-name="Tbar" unicode="&#x166;" horiz-adv-x="590" 
d="M352 600v-211h193v-67h-193v-322h-115v322h-192v67h192v211h-217v100h550v-100h-218z" />
    <glyph glyph-name="tbar" unicode="&#x167;" horiz-adv-x="440" 
d="M230 513h180v-86h-180v-127h180v-66h-180v-59q0 -87 77 -87q20 0 42.5 3t34.5 7l12 3l14 -89q-49 -22 -128 -22q-76 0 -119 42t-43 120v82h-100v66h100v127h-100v86h100v127h110v-127z" />
    <glyph glyph-name="Utilde" unicode="&#x168;" horiz-adv-x="740" 
d="M194 782q0 5 1 13.5t7 31t15.5 39t30.5 30.5t48 14t49.5 -12.5t35 -28t29.5 -28t34 -12.5t27.5 16.5t12.5 32.5l2 16l60 -6q0 -5 -1 -13.5t-7 -31t-15.5 -39t-30.5 -30.5t-48 -14t-49.5 12.5t-35 27.5t-30 27.5t-34.5 12.5q-16 0 -26 -16t-12 -32l-2 -16zM660 700v-413
q0 -132 -81.5 -214.5t-210.5 -82.5q-128 0 -208 80.5t-80 212.5v417h117v-414q0 -85 49 -137.5t126 -52.5q78 0 126.5 52t48.5 138v414h113z" />
    <glyph glyph-name="utilde" unicode="&#x169;" horiz-adv-x="615" 
d="M131 602q0 5 1 13.5t7 31t15.5 39t30.5 30.5t48 14t49.5 -12.5t35 -28t29.5 -28t34 -12.5t27.5 16.5t12.5 32.5l2 16l60 -6q0 -5 -1 -13.5t-7 -31t-15.5 -39t-30.5 -30.5t-48 -14t-49.5 12.5t-35 27.5t-30 27.5t-34.5 12.5q-16 0 -26 -16t-12 -32l-2 -16zM435 513h110
v-513h-97l-7 89q-55 -99 -179 -99q-86 0 -141.5 58t-55.5 164v301h110v-266q0 -78 34.5 -117t88.5 -39q61 0 99 41t38 125v256z" />
    <glyph glyph-name="Umacron" unicode="&#x16a;" horiz-adv-x="740" 
d="M190 860h360v-66h-360v66zM660 700v-413q0 -132 -81.5 -214.5t-210.5 -82.5q-128 0 -208 80.5t-80 212.5v417h117v-414q0 -85 49 -137.5t126 -52.5q78 0 126.5 52t48.5 138v414h113z" />
    <glyph glyph-name="umacron" unicode="&#x16b;" horiz-adv-x="615" 
d="M127 673h360v-66h-360v66zM435 513h110v-513h-97l-7 89q-55 -99 -179 -99q-86 0 -141.5 58t-55.5 164v301h110v-266q0 -78 34.5 -117t88.5 -39q61 0 99 41t38 125v256z" />
    <glyph glyph-name="Ubreve" unicode="&#x16c;" horiz-adv-x="740" 
d="M283 920v-10q0 -39 24 -63t64 -24t63 24t23 63v10h79v-5q0 -70 -47 -115t-119 -45t-119 45t-47 115v5h79zM660 700v-413q0 -132 -81.5 -214.5t-210.5 -82.5q-128 0 -208 80.5t-80 212.5v417h117v-414q0 -85 49 -137.5t126 -52.5q78 0 126.5 52t48.5 138v414h113z" />
    <glyph glyph-name="ubreve" unicode="&#x16d;" horiz-adv-x="615" 
d="M220 740v-10q0 -39 24 -63t64 -24t63 24t23 63v10h79v-5q0 -70 -47 -115t-119 -45t-119 45t-47 115v5h79zM435 513h110v-513h-97l-7 89q-55 -99 -179 -99q-86 0 -141.5 58t-55.5 164v301h110v-266q0 -78 34.5 -117t88.5 -39q61 0 99 41t38 125v256z" />
    <glyph glyph-name="Uring" unicode="&#x16e;" horiz-adv-x="740" 
d="M370 950q46 0 76.5 -29t30.5 -74q0 -44 -30.5 -73t-76.5 -29t-77 29t-31 73q0 45 31 74t77 29zM370 792q23 0 39 16t16 39t-16 39t-39 16t-39.5 -16t-16.5 -39t16.5 -39t39.5 -16zM660 700v-413q0 -132 -81.5 -214.5t-210.5 -82.5q-128 0 -208 80.5t-80 212.5v417h117
v-414q0 -85 49 -137.5t126 -52.5q78 0 126.5 52t48.5 138v414h113z" />
    <glyph glyph-name="uring" unicode="&#x16f;" horiz-adv-x="615" 
d="M308 770q46 0 76.5 -29t30.5 -74q0 -44 -30.5 -73t-76.5 -29t-77 29t-31 73q0 45 31 74t77 29zM308 612q23 0 39 16t16 39t-16 39t-39 16t-39.5 -16t-16.5 -39t16.5 -39t39.5 -16zM435 513h110v-513h-97l-7 89q-55 -99 -179 -99q-86 0 -141.5 58t-55.5 164v301h110v-266
q0 -78 34.5 -117t88.5 -39q61 0 99 41t38 125v256z" />
    <glyph glyph-name="Uhungarumlaut" unicode="&#x170;" horiz-adv-x="740" 
d="M293 920h115l-88 -165h-85zM490 920h115l-87 -165h-85zM660 700v-413q0 -132 -81.5 -214.5t-210.5 -82.5q-128 0 -208 80.5t-80 212.5v417h117v-414q0 -85 49 -137.5t126 -52.5q78 0 126.5 52t48.5 138v414h113z" />
    <glyph glyph-name="uhungarumlaut" unicode="&#x171;" horiz-adv-x="615" 
d="M225 740h115l-88 -165h-85zM422 740h115l-87 -165h-85zM435 513h110v-513h-97l-7 89q-55 -99 -179 -99q-86 0 -141.5 58t-55.5 164v301h110v-266q0 -78 34.5 -117t88.5 -39q61 0 99 41t38 125v256z" />
    <glyph glyph-name="Uogonek" unicode="&#x172;" horiz-adv-x="740" 
d="M660 700v-413q0 -110 -58.5 -187t-155.5 -101q-20 -13 -20 -48q0 -26 20 -43t52 -17q16 0 30 3.5t20 7.5l7 3l20 -64q-30 -25 -86 -25q-59 0 -99 34t-40 89q0 27 12 51q-126 2 -204 82.5t-78 210.5v417h117v-414q0 -85 49 -137.5t126 -52.5q78 0 126.5 52t48.5 138v414
h113z" />
    <glyph glyph-name="uogonek" unicode="&#x173;" horiz-adv-x="615" 
d="M435 513h110v-513h-48q-21 -16 -21 -49q0 -26 20 -43t52 -17q16 0 30 3.5t20 7.5l7 3l20 -64q-30 -25 -86 -25q-59 0 -99 34t-40 89t45 91l-4 59q-55 -99 -179 -99q-86 0 -141.5 58t-55.5 164v301h110v-266q0 -78 34.5 -117t88.5 -39q61 0 99 41t38 125v256z" />
    <glyph glyph-name="Wcircumflex" unicode="&#x174;" horiz-adv-x="995" 
d="M447 920h100l145 -165h-97l-100 97l-99 -97h-94zM5 700h127l170 -525l158 525h82l157 -525l171 525h120l-237 -700h-102l-154 501l-153 -501h-101z" />
    <glyph glyph-name="wcircumflex" unicode="&#x175;" horiz-adv-x="785" 
d="M342 740h100l145 -165h-97l-100 97l-99 -97h-94zM0 513h120l120 -364l114 364h83l113 -361l121 361h114l-179 -513h-104l-110 342l-109 -342h-104z" />
    <glyph glyph-name="Ycircumflex" unicode="&#x176;" horiz-adv-x="680" 
d="M293 920h100l145 -165h-97l-100 97l-99 -97h-94zM283 270l-278 430h135l203 -322l204 322h128l-277 -430v-270h-115v270z" />
    <glyph glyph-name="ycircumflex" unicode="&#x177;" horiz-adv-x="530" 
d="M217 740h100l145 -165h-97l-100 97l-99 -97h-94zM0 513h122l145 -383l146 383h117l-213 -518q-67 -165 -204 -165q-32 0 -60.5 7t-40.5 14l-12 7l35 89q24 -18 73 -18q68 0 101 76z" />
    <glyph glyph-name="Ydieresis" unicode="&#x178;" horiz-adv-x="680" 
d="M239 900q27 0 44.5 -18t17.5 -44q0 -27 -18 -45t-45 -18q-26 0 -44 17.5t-18 44.5q0 26 18.5 44.5t44.5 18.5zM449 900q27 0 44.5 -18t17.5 -44q0 -27 -18 -45t-45 -18q-26 0 -44 17.5t-18 44.5q0 26 18.5 44.5t44.5 18.5zM283 270l-278 430h135l203 -322l204 322h128
l-277 -430v-270h-115v270z" />
    <glyph glyph-name="Zacute" unicode="&#x179;" horiz-adv-x="670" 
d="M363 920h117l-102 -165h-88zM55 0v82l405 520h-385v98h540v-83l-405 -520h405v-97h-560z" />
    <glyph glyph-name="zacute" unicode="&#x17a;" horiz-adv-x="525" 
d="M280 740h117l-102 -165h-88zM329 419h-269v94h420v-79l-285 -341h285v-93h-435v78z" />
    <glyph glyph-name="Zdotaccent" unicode="&#x17b;" horiz-adv-x="670" 
d="M355 902q27 0 44.5 -18t17.5 -44q0 -27 -18 -45t-45 -18q-26 0 -44 17.5t-18 44.5q0 26 18.5 44.5t44.5 18.5zM55 0v82l405 520h-385v98h540v-83l-405 -520h405v-97h-560z" />
    <glyph glyph-name="zdotaccent" unicode="&#x17c;" horiz-adv-x="525" 
d="M277 722q27 0 44.5 -18t17.5 -44q0 -27 -18 -45t-45 -18q-26 0 -44 17.5t-18 44.5q0 26 18.5 44.5t44.5 18.5zM329 419h-269v94h420v-79l-285 -341h285v-93h-435v78z" />
    <glyph glyph-name="Zcaron" unicode="&#x17d;" horiz-adv-x="670" 
d="M395 755h-100l-145 165h97l100 -97l99 97h94zM55 0v82l405 520h-385v98h540v-83l-405 -520h405v-97h-560z" />
    <glyph glyph-name="zcaron" unicode="&#x17e;" horiz-adv-x="525" 
d="M321 575h-100l-145 165h97l100 -97l99 97h94zM329 419h-269v94h420v-79l-285 -341h285v-93h-435v78z" />
    <glyph glyph-name="florin" unicode="&#x192;" 
d="M130 -160l36 459h-126v69h132l10 131q8 101 64.5 156t147.5 55q40 0 74 -12.5t53.5 -30t33.5 -34.5t19 -29l6 -13l-82 -51l-2.5 7.5t-9.5 16.5t-18 21t-29 16.5t-42 7.5q-46 0 -73 -28t-32 -79l-11 -134h199v-69h-204l-36 -459h-110z" />
    <glyph glyph-name="Aringacute" unicode="&#x1fa;" horiz-adv-x="710" 
d="M433 831q29 -29 29 -72q0 -51 -40 -81l283 -678h-126l-71 175h-311l-71 -175h-121l283 677q-41 30 -41 82q0 43 28.5 72t72.5 31l30 68h117zM355 704q23 0 39 16t16 39t-16 39t-39 16t-39.5 -16t-16.5 -39t16.5 -39t39.5 -16zM229 266h245l-122 302z" />
    <glyph glyph-name="aringacute" unicode="&#x1fb;" horiz-adv-x="565" 
d="M247 308q91 0 148 -47v32q0 67 -37 102.5t-98 35.5q-39 0 -73.5 -11.5t-49.5 -23.5l-15 -11l-47 71q43 40 123 58q-23 26 -23 65q0 42 26.5 70t68.5 32l31 69h117l-60 -97q32 -29 32 -74q0 -40 -26 -68q67 -21 104 -77.5t37 -141.5v-292h-85l-10 50q-58 -60 -166 -60
q-92 0 -145.5 44t-53.5 113t55.5 115t146.5 46zM283 524q23 0 39 16t16 39t-16 39t-39 16t-39.5 -16t-16.5 -39t16.5 -39t39.5 -16zM274 66q59 0 92.5 24t33.5 61t-33.5 61.5t-92.5 24.5q-55 0 -87 -24.5t-32 -61.5q0 -36 32 -60.5t87 -24.5z" />
    <glyph glyph-name="AEacute" unicode="&#x1fc;" horiz-adv-x="1060" 
d="M748 920h117l-102 -165h-88zM615 600v-191h335v-94h-335v-215h395v-100h-510v175h-265l-111 -175h-129l445 700h560v-100h-385zM500 266v338l-213 -338h213z" />
    <glyph glyph-name="aeacute" unicode="&#x1fd;" horiz-adv-x="960" 
d="M518 740h117l-102 -165h-88zM247 307q91 0 148 -43v28q0 68 -36.5 103t-98.5 35q-39 0 -73.5 -11t-49.5 -22l-15 -11l-47 70q3 3 8.5 7.5t25 16t41.5 20.5t57 16t72 7q130 0 184 -96q76 96 205 96q105 0 178.5 -73.5t73.5 -176.5l-5 -33h-410q5 -68 52 -111t117 -43
q30 0 56.5 8t44 19t30.5 22.5t19 19.5l5 8l67 -61q-3 -5 -8.5 -12.5t-26 -26.5t-44.5 -34t-64.5 -27t-85.5 -12q-132 0 -207 96q-54 -96 -203 -96q-98 0 -155 43.5t-57 112.5t55.5 115t146.5 46zM666 439q-60 0 -103 -34t-55 -90h306q-9 55 -50.5 89.5t-97.5 34.5zM274 237
q-55 0 -87 -24.5t-32 -61.5t32 -61.5t87 -24.5q59 0 92.5 24.5t33.5 61.5t-33.5 61.5t-92.5 24.5z" />
    <glyph glyph-name="Oslashacute" unicode="&#x1fe;" horiz-adv-x="830" 
d="M443 920h117l-102 -165h-88zM677 605q103 -103 103 -253q0 -152 -106.5 -257t-260.5 -105q-118 0 -212 65l-74 -85h-82l107 125q-102 102 -102 253q0 152 106 257t261 105q117 0 211 -65l74 85h83zM558 562q-64 45 -143 45q-108 0 -180.5 -73.5t-72.5 -183.5
q0 -100 62 -170zM272 138q61 -44 143 -44q108 0 180 73.5t72 182.5q0 100 -62 170z" />
    <glyph glyph-name="oslashacute" unicode="&#x1ff;" horiz-adv-x="628" 
d="M336 740h117l-102 -165h-88zM316 523q82 0 149 -43l55 63h78l-85 -99q75 -75 75 -186q0 -113 -79.5 -190.5t-196.5 -77.5q-86 0 -150 43l-55 -63h-77l84 98q-74 76 -74 186q0 113 79.5 191t196.5 78zM402 402q-38 27 -88 27q-73 0 -122.5 -49.5t-49.5 -123.5
q0 -61 37 -108zM225 110q40 -27 89 -27q73 0 122 49.5t49 123.5q0 61 -37 108z" />
    <glyph glyph-name="Scommaaccent" unicode="&#x218;" horiz-adv-x="575" 
d="M319 408q206 -72 206 -216q0 -87 -66.5 -144.5t-176.5 -57.5q-47 0 -91 10.5t-73 25t-51 29t-32 25.5l-10 10l69 74q9 -9 24.5 -22t67 -35t104.5 -22q52 0 85 27t33 67q0 45 -37.5 77.5t-135.5 67.5q-175 65 -175 196q0 82 64.5 136t168.5 54q41 0 80 -9t64.5 -21
t45 -24.5t28.5 -21.5l9 -9l-69 -75q-7 7 -19.5 18t-53 29t-83.5 18q-55 0 -86 -26t-31 -59q0 -39 31.5 -66.5t109.5 -55.5zM224 -50h117l-102 -165h-88z" />
    <glyph glyph-name="scommaaccent" unicode="&#x219;" horiz-adv-x="457" 
d="M257 304q160 -46 160 -157q0 -68 -52.5 -112.5t-144.5 -44.5q-56 0 -106 17.5t-72 34.5l-22 18l48 72q7 -6 20.5 -16t53.5 -26t79 -16q41 0 64.5 18t23.5 44q0 29 -25 50t-97 42q-69 20 -107 59t-38 90q0 61 50 103.5t138 42.5q48 0 93 -15t66 -30l21 -15l-49 -73
q-6 5 -17 13.5t-44.5 22t-66.5 13.5q-39 0 -60.5 -16t-21.5 -38q0 -25 22.5 -44.5t83.5 -36.5zM164 -50h117l-102 -165h-88z" />
    <glyph glyph-name="uni021A" unicode="&#x21a;" horiz-adv-x="590" 
d="M352 600v-600h-115v600h-217v100h550v-100h-218zM237 -50h117l-102 -165h-88z" />
    <glyph glyph-name="uni021B" unicode="&#x21b;" horiz-adv-x="440" 
d="M230 513h180v-88h-180v-247q0 -87 77 -87q20 0 42.5 3.5t34.5 6.5l12 3l14 -91q-49 -23 -128 -23q-76 0 -119 42t-43 121v272h-100v88h100v127h110v-127zM211 -50h117l-102 -165h-88z" />
    <glyph glyph-name="circumflex" unicode="&#x2c6;" horiz-adv-x="530" 
d="M215 740h100l145 -165h-97l-100 97l-99 -97h-94z" />
    <glyph glyph-name="caron" unicode="&#x2c7;" horiz-adv-x="530" 
d="M315 575h-100l-145 165h97l100 -97l99 97h94z" />
    <glyph glyph-name="breve" unicode="&#x2d8;" horiz-adv-x="452" 
d="M139 740v-10q0 -39 24 -63t64 -24t63 24t23 63v10h79v-5q0 -70 -47 -115t-119 -45t-119 45t-47 115v5h79z" />
    <glyph glyph-name="dotaccent" unicode="&#x2d9;" horiz-adv-x="279" 
d="M140 722q27 0 44.5 -18t17.5 -44q0 -27 -18 -45t-45 -18q-26 0 -44 17.5t-18 44.5q0 26 18.5 44.5t44.5 18.5z" />
    <glyph glyph-name="ring" unicode="&#x2da;" horiz-adv-x="320" 
d="M160 770q46 0 76.5 -29t30.5 -74q0 -44 -30.5 -73t-76.5 -29t-77 29t-31 73q0 45 31 74t77 29zM160 612q23 0 39 16t16 39t-16 39t-39 16t-39.5 -16t-16.5 -39t16.5 -39t39.5 -16z" />
    <glyph glyph-name="ogonek" unicode="&#x2db;" horiz-adv-x="345" 
d="M154 1q-23 -14 -23 -50q0 -26 20.5 -43t51.5 -17q16 0 30 3.5t21 7.5l6 3l20 -64q-30 -25 -86 -25q-59 0 -99 34t-40 89q0 22 7 40.5t17.5 30.5t21 20.5t17.5 11.5l7 4z" />
    <glyph glyph-name="tilde" unicode="&#x2dc;" horiz-adv-x="467" 
d="M58 602q0 5 1 13.5t7 31t15.5 39t30.5 30.5t48 14t49.5 -12.5t35 -28t29.5 -28t34 -12.5t27.5 16.5t12.5 32.5l2 16l60 -6q0 -5 -1 -13.5t-7 -31t-15.5 -39t-30.5 -30.5t-48 -14t-49.5 12.5t-35 27.5t-30 27.5t-34.5 12.5q-16 0 -26 -16t-12 -32l-2 -16z" />
    <glyph glyph-name="hungarumlaut" unicode="&#x2dd;" horiz-adv-x="570" 
d="M158 740h115l-88 -165h-85zM355 740h115l-87 -165h-85z" />
    <glyph glyph-name="uni0394" unicode="&#x394;" horiz-adv-x="720" 
d="M302 700h115l298 -700h-710zM162 102h388l-193 469z" />
    <glyph glyph-name="uni03BC" unicode="&#x3bc;" horiz-adv-x="620" 
d="M70 513h110v-266q0 -79 33.5 -117.5t89.5 -38.5q61 0 99 38.5t38 118.5v265h110v-513h-98l-6 86q-56 -96 -174 -96q-49 0 -92 24v-174h-110v673z" />
    <glyph glyph-name="pi" unicode="&#x3c0;" horiz-adv-x="700" 
d="M20 513h650v-91h-140v-267q0 -67 62 -67q16 0 31 3t22 5l7 3l18 -87q-33 -22 -106 -22q-67 0 -105.5 36.5t-38.5 105.5v290h-180v-422h-110v422h-110v91z" />
    <glyph glyph-name="Wgrave" unicode="&#x1e80;" horiz-adv-x="995" 
d="M532 755h-88l-102 165h117zM5 700h127l170 -525l158 525h82l157 -525l171 525h120l-237 -700h-102l-154 501l-153 -501h-101z" />
    <glyph glyph-name="wgrave" unicode="&#x1e81;" horiz-adv-x="785" 
d="M427 575h-88l-102 165h117zM0 513h120l120 -364l114 364h83l113 -361l121 361h114l-179 -513h-104l-110 342l-109 -342h-104z" />
    <glyph glyph-name="Wacute" unicode="&#x1e82;" horiz-adv-x="995" 
d="M545 920h117l-102 -165h-88zM5 700h127l170 -525l158 525h82l157 -525l171 525h120l-237 -700h-102l-154 501l-153 -501h-101z" />
    <glyph glyph-name="wacute" unicode="&#x1e83;" horiz-adv-x="785" 
d="M440 740h117l-102 -165h-88zM0 513h120l120 -364l114 364h83l113 -361l121 361h114l-179 -513h-104l-110 342l-109 -342h-104z" />
    <glyph glyph-name="Wdieresis" unicode="&#x1e84;" horiz-adv-x="995" 
d="M393 900q27 0 44.5 -18t17.5 -44q0 -27 -18 -45t-45 -18q-26 0 -44 17.5t-18 44.5q0 26 18.5 44.5t44.5 18.5zM603 900q27 0 44.5 -18t17.5 -44q0 -27 -18 -45t-45 -18q-26 0 -44 17.5t-18 44.5q0 26 18.5 44.5t44.5 18.5zM5 700h127l170 -525l158 525h82l157 -525
l171 525h120l-237 -700h-102l-154 501l-153 -501h-101z" />
    <glyph glyph-name="wdieresis" unicode="&#x1e85;" horiz-adv-x="785" 
d="M288 720q27 0 44.5 -18t17.5 -44q0 -27 -18 -45t-45 -18q-26 0 -44 17.5t-18 44.5q0 26 18.5 44.5t44.5 18.5zM498 720q27 0 44.5 -18t17.5 -44q0 -27 -18 -45t-45 -18q-26 0 -44 17.5t-18 44.5q0 26 18.5 44.5t44.5 18.5zM0 513h120l120 -364l114 364h83l113 -361
l121 361h114l-179 -513h-104l-110 342l-109 -342h-104z" />
    <glyph glyph-name="uni1E9E" unicode="&#x1e9e;" horiz-adv-x="715" 
d="M474 437q87 -15 141.5 -74.5t54.5 -142.5q0 -98 -72.5 -164t-184.5 -66q-26 0 -50 3t-35 5l-11 3l18 97q28 -8 67 -8q69 0 111 38t42 96q0 56 -43 94.5t-111 38.5h-46v72l135 141q-49 39 -120 39q-78 0 -126.5 -53t-48.5 -142v-414h-115v408q0 135 81.5 218.5t210.5 83.5
q46 0 89.5 -11t73 -26t52 -30.5t33.5 -26.5l10 -11z" />
    <glyph glyph-name="Ygrave" unicode="&#x1ef2;" horiz-adv-x="680" 
d="M395 755h-88l-102 165h117zM283 270l-278 430h135l203 -322l204 322h128l-277 -430v-270h-115v270z" />
    <glyph glyph-name="ygrave" unicode="&#x1ef3;" horiz-adv-x="530" 
d="M320 575h-88l-102 165h117zM0 513h122l145 -383l146 383h117l-213 -518q-67 -165 -204 -165q-32 0 -60.5 7t-40.5 14l-12 7l35 89q24 -18 73 -18q68 0 101 76z" />
    <glyph glyph-name="endash" unicode="&#x2013;" horiz-adv-x="570" 
d="M50 308v97h470v-97h-470z" />
    <glyph glyph-name="emdash" unicode="&#x2014;" horiz-adv-x="900" 
d="M50 308v97h800v-97h-800z" />
    <glyph glyph-name="quoteleft" unicode="&#x2018;" horiz-adv-x="225" 
d="M185 700l-27 -270h-118l58 270h87z" />
    <glyph glyph-name="quoteright" unicode="&#x2019;" horiz-adv-x="225" 
d="M40 430l27 270h118l-58 -270h-87z" />
    <glyph glyph-name="quotesinglbase" unicode="&#x201a;" horiz-adv-x="225" 
d="M40 -130l27 270h118l-58 -270h-87z" />
    <glyph glyph-name="quotedblleft" unicode="&#x201c;" horiz-adv-x="415" 
d="M185 700l-27 -270h-118l58 270h87zM375 700l-27 -270h-118l58 270h87z" />
    <glyph glyph-name="quotedblright" unicode="&#x201d;" horiz-adv-x="415" 
d="M40 430l27 270h118l-58 -270h-87zM230 430l27 270h118l-58 -270h-87z" />
    <glyph glyph-name="quotedblbase" unicode="&#x201e;" horiz-adv-x="415" 
d="M40 -130l27 270h118l-58 -270h-87zM230 -130l27 270h118l-58 -270h-87z" />
    <glyph glyph-name="dagger" unicode="&#x2020;" horiz-adv-x="410" 
d="M245 500v-240h-80v240h-125v73h125v127h80v-127h125v-73h-125z" />
    <glyph glyph-name="daggerdbl" unicode="&#x2021;" horiz-adv-x="410" 
d="M245 500v-150h125v-72h-125v-128h-80v128h-125v72h125v150h-125v73h125v127h80v-127h125v-73h-125z" />
    <glyph glyph-name="bullet" unicode="&#x2022;" horiz-adv-x="365" 
d="M183 478q55 0 91 -36t36 -91t-37 -91.5t-92 -36.5q-54 0 -90 36t-36 90q0 55 36.5 92t91.5 37z" />
    <glyph glyph-name="perthousand" unicode="&#x2030;" horiz-adv-x="1120" 
d="M45 460q0 65 43.5 107.5t108.5 42.5t108.5 -42t43.5 -107q0 -64 -44 -107t-109 -43t-108 42.5t-43 106.5zM552 600h78l-412 -600h-79zM120 461q0 -35 21.5 -57.5t55.5 -22.5q33 0 55 23t22 57t-22 56.5t-55 22.5q-34 0 -55.5 -22t-21.5 -57zM421 139q0 65 43.5 107.5
t108.5 42.5t108.5 -42t43.5 -107q0 -64 -44 -107t-109 -43t-108 42.5t-43 106.5zM771 139q0 65 43.5 107.5t108.5 42.5t108.5 -42t43.5 -107q0 -64 -44 -107t-109 -43t-108 42.5t-43 106.5zM496 140q0 -35 21.5 -57.5t55.5 -22.5q33 0 55 23t22 57t-22 56.5t-55 22.5
q-34 0 -55.5 -22t-21.5 -57zM846 140q0 -35 21.5 -57.5t55.5 -22.5q33 0 55 23t22 57t-22 56.5t-55 22.5q-34 0 -55.5 -22t-21.5 -57z" />
    <glyph glyph-name="guilsinglleft" unicode="&#x2039;" horiz-adv-x="437" 
d="M169 352l198 -193l-60 -64l-257 235v40l257 235l60 -60z" />
    <glyph glyph-name="guilsinglright" unicode="&#x203a;" horiz-adv-x="437" 
d="M268 348l-198 193l60 64l257 -235v-40l-257 -235l-60 60z" />
    <glyph glyph-name="fraction" unicode="&#x2044;" horiz-adv-x="200" 
d="M312 700h78l-503 -700h-77z" />
    <glyph glyph-name="uni2070" unicode="&#x2070;" horiz-adv-x="387" 
d="M45 554q0 70 42 111t108 41t106.5 -39.5t40.5 -109.5v-131q0 -70 -42 -111t-108 -41t-106.5 39.5t-40.5 109.5v131zM122 419q0 -34 19.5 -54.5t51.5 -20.5q33 0 52 20t19 55v141q0 35 -19 55t-52 20q-32 0 -51.5 -20.5t-19.5 -54.5v-141z" />
    <glyph glyph-name="uni2074" unicode="&#x2074;" horiz-adv-x="377" 
d="M212 700h76v-262h64v-60h-64v-98h-72v98h-191v63zM216 438v174l-127 -174h127z" />
    <glyph glyph-name="uni2075" unicode="&#x2075;" horiz-adv-x="365" 
d="M51 700h258v-67h-188v-102q29 25 72 25q59 0 98 -39t39 -96q0 -64 -44 -105.5t-112 -41.5q-42 0 -77 18t-49 36l-13 17l55 43q3 -5 9 -12.5t27.5 -19.5t46.5 -12q35 0 57.5 21t22.5 54q0 30 -21 50.5t-54 20.5q-7 0 -14 -1t-12.5 -3t-10.5 -4.5t-8.5 -5t-6.5 -5t-5 -5.5
t-3.5 -4.5t-2.5 -3.5l-1 -1h-63v243z" />
    <glyph glyph-name="uni2076" unicode="&#x2076;" horiz-adv-x="379" 
d="M206 556q57 0 97.5 -38t40.5 -96q0 -64 -45 -106t-111 -42q-64 0 -108.5 41t-44.5 103q0 56 36 108l117 174h85l-106 -151q19 7 39 7zM189 343q34 0 55.5 22t21.5 54q0 33 -21 54.5t-56 21.5q-34 0 -55.5 -21.5t-21.5 -54.5q0 -32 21.5 -54t55.5 -22z" />
    <glyph glyph-name="uni2077" unicode="&#x2077;" horiz-adv-x="334" 
d="M222 631h-195v69h280v-55l-177 -365h-82z" />
    <glyph glyph-name="uni2078" unicode="&#x2078;" horiz-adv-x="379" 
d="M191 706q59 0 97.5 -32t38.5 -81q0 -55 -53 -88q70 -35 70 -102q0 -55 -44.5 -92t-111.5 -37t-110 35.5t-43 90.5q0 69 68 103q-52 31 -52 87q0 50 40 83t100 33zM189 529q28 0 45.5 17t17.5 40q0 24 -17.5 40.5t-45.5 16.5t-45.5 -16.5t-17.5 -40.5q0 -23 17.5 -40
t45.5 -17zM189 336q34 0 56 20.5t22 49.5q0 30 -22 50t-56 20t-56 -20.5t-22 -49.5t22 -49.5t56 -20.5z" />
    <glyph glyph-name="uni2079" unicode="&#x2079;" horiz-adv-x="379" 
d="M173 424q-57 0 -97.5 38t-40.5 96q0 64 45 106t111 42q65 0 109 -41t44 -103q0 -56 -36 -108l-117 -174h-85l106 151q-19 -7 -39 -7zM190 637q-34 0 -55.5 -22t-21.5 -54q0 -33 21 -54.5t56 -21.5q34 0 55.5 21.5t21.5 54.5q0 32 -21.5 54t-55.5 22z" />
    <glyph glyph-name="uni2080" unicode="&#x2080;" horiz-adv-x="387" 
d="M45 274q0 70 42 111t108 41t106.5 -39.5t40.5 -109.5v-131q0 -70 -42 -111t-108 -41t-106.5 39.5t-40.5 109.5v131zM122 139q0 -34 19.5 -54.5t51.5 -20.5q33 0 52 20t19 55v141q0 35 -19 55t-52 20q-32 0 -51.5 -20.5t-19.5 -54.5v-141z" />
    <glyph glyph-name="uni2081" unicode="&#x2081;" horiz-adv-x="290" 
d="M170 420h65v-420h-78v327l-93 -65l-39 53z" />
    <glyph glyph-name="uni2082" unicode="&#x2082;" horiz-adv-x="353" 
d="M190 204q51 50 51 93q0 25 -18.5 42.5t-46.5 17.5q-26 0 -46.5 -13.5t-27.5 -26.5l-8 -13l-59 35q2 4 5 9.5t15.5 20.5t27.5 26.5t41.5 21t57.5 9.5q60 0 98 -34.5t38 -86.5q0 -39 -17.5 -71t-57.5 -69l-103 -98h175v-67h-276v59z" />
    <glyph glyph-name="uni2083" unicode="&#x2083;" horiz-adv-x="349" 
d="M156 246q33 0 50.5 16t17.5 42q0 25 -17.5 40t-47.5 15q-22 0 -39 -9.5t-22 -18.5l-6 -9l-57 33q1 3 4 7.5t14 17t24.5 22t37 17t49.5 7.5q60 0 99 -31t39 -80q0 -63 -61 -96q73 -33 73 -104q0 -53 -43 -87t-110 -34q-28 0 -53 7.5t-40.5 19t-27 22.5t-16.5 19l-4 7
l58 35q3 -5 8 -12.5t26.5 -19.5t47.5 -12q35 0 55.5 17.5t20.5 45.5t-21.5 46.5t-59.5 18.5h-41v58h42z" />
    <glyph glyph-name="uni2084" unicode="&#x2084;" horiz-adv-x="377" 
d="M212 420h76v-262h64v-60h-64v-98h-72v98h-191v63zM216 158v174l-127 -174h127z" />
    <glyph glyph-name="uni2085" unicode="&#x2085;" horiz-adv-x="365" 
d="M51 420h258v-67h-188v-102q29 25 72 25q59 0 98 -39t39 -96q0 -64 -44 -105.5t-112 -41.5q-27 0 -51 7.5t-39.5 17.5t-27 20.5t-16.5 18.5l-5 7l55 43q3 -5 9 -12.5t27.5 -19.5t46.5 -12q35 0 57.5 21t22.5 54q0 30 -21 50.5t-54 20.5q-7 0 -14 -1t-12.5 -3t-10.5 -4.5
t-8.5 -5t-6.5 -5t-5 -5.5t-3.5 -4.5t-2.5 -3.5l-1 -1h-63v243z" />
    <glyph glyph-name="uni2086" unicode="&#x2086;" horiz-adv-x="379" 
d="M206 276q57 0 97.5 -38t40.5 -96q0 -64 -45 -106t-111 -42q-64 0 -108.5 41t-44.5 103q0 56 36 108l117 174h85l-106 -151q19 7 39 7zM189 63q34 0 55.5 22t21.5 54q0 33 -21 54.5t-56 21.5q-34 0 -55.5 -21.5t-21.5 -54.5q0 -32 21.5 -54t55.5 -22z" />
    <glyph glyph-name="uni2087" unicode="&#x2087;" horiz-adv-x="334" 
d="M222 351h-195v69h280v-55l-177 -365h-82z" />
    <glyph glyph-name="uni2088" unicode="&#x2088;" horiz-adv-x="379" 
d="M191 426q59 0 97.5 -32t38.5 -81q0 -55 -53 -88q70 -35 70 -102q0 -55 -44.5 -92t-111.5 -37t-110 35.5t-43 90.5q0 69 68 103q-52 31 -52 87q0 50 40 83t100 33zM189 249q28 0 45.5 17t17.5 40q0 24 -17.5 40.5t-45.5 16.5t-45.5 -16.5t-17.5 -40.5q0 -23 17.5 -40
t45.5 -17zM189 56q34 0 56 20.5t22 49.5q0 30 -22 50t-56 20t-56 -20.5t-22 -49.5t22 -49.5t56 -20.5z" />
    <glyph glyph-name="uni2089" unicode="&#x2089;" horiz-adv-x="379" 
d="M173 144q-57 0 -97.5 38t-40.5 96q0 64 45 106t111 42q65 0 109 -41t44 -103q0 -56 -36 -108l-117 -174h-85l106 151q-19 -7 -39 -7zM190 357q-34 0 -55.5 -22t-21.5 -54q0 -33 21 -54.5t56 -21.5q34 0 55.5 21.5t21.5 54.5q0 32 -21.5 54t-55.5 22z" />
    <glyph glyph-name="Euro" unicode="&#x20ac;" 
d="M238 243v-18q0 -63 36 -100t96 -37q26 0 48 7t35 17t22 20.5t13 17.5l3 7l89 -47q-2 -5 -6 -13t-21 -28.5t-38.5 -36.5t-60 -29t-83.5 -13q-108 0 -174.5 63t-66.5 175v15h-90v61h90v91h-90v62h90v11q0 112 68.5 177t176.5 65q45 0 83 -12.5t59.5 -30t36.5 -35t20 -30.5
l6 -12l-89 -48q-1 3 -3.5 7.5t-12 16.5t-22 21t-35 16.5t-48.5 7.5q-60 0 -96 -37t-36 -99v-18h262v-62h-262v-91h242v-61h-242z" />
    <glyph glyph-name="trademark" unicode="&#x2122;" horiz-adv-x="778" 
d="M222 639v-254h-69v254h-98v61h265v-61h-98zM446 592v-207h-67v315h71l102 -181l103 181h68v-315h-68v206l-87 -154h-34z" />
    <glyph glyph-name="minus" unicode="&#x2212;" 
d="M50 307v98h510v-98h-510z" />
    <glyph glyph-name="fi" unicode="&#xfb01;" horiz-adv-x="687" 
d="M556 729q31 0 51.5 -20.5t20.5 -51.5q0 -30 -20.5 -50.5t-51.5 -20.5t-52 20.5t-21 50.5q0 31 21 51.5t52 20.5zM230 483h175v-88h-175v-395h-110v395h-100v88h100v47q0 86 46.5 133t128.5 47q36 0 66 -5t42 -10l12 -5l-14 -85q-31 14 -79 14q-44 0 -68 -24.5t-24 -71.5
v-40zM500 513h112v-513h-112v513z" />
    <glyph glyph-name="fl" unicode="&#xfb02;" horiz-adv-x="687" 
d="M230 483h175v-88h-175v-395h-110v395h-100v88h100v47q0 86 46.5 133t128.5 47q36 0 66 -5t42 -10l12 -5l-14 -85q-31 14 -79 14q-44 0 -68 -24.5t-24 -71.5v-40zM500 700h112v-700h-112v700z" />
    <glyph glyph-name="one.onum" horiz-adv-x="450" 
d="M262 640h88v-640h-108v509l-168 -113l-54 74z" />
    <glyph glyph-name="two.onum" horiz-adv-x="517" 
d="M290 312q41 39 58 69.5t17 65.5q0 47 -32 77t-81 30q-27 0 -51.5 -9.5t-39 -22.5t-25.5 -26t-16 -22l-4 -10l-81 41q2 6 6.5 15.5t22.5 34.5t41 44.5t65 35t92 15.5q90 0 150 -54.5t60 -136.5q0 -57 -27.5 -104.5t-89.5 -105.5l-167 -157h279v-92h-425v80z" />
    <glyph glyph-name="three.onum" horiz-adv-x="525" 
d="M235 368q54 0 85.5 27t31.5 70t-30 69t-80 26q-23 0 -42 -7t-30.5 -16.5t-20 -19t-11.5 -16.5l-3 -7l-85 35q2 5 6 13t20 29t36.5 37t56.5 29t79 13q91 0 151.5 -47.5t60.5 -124.5q0 -48 -27 -85.5t-73 -58.5q55 -20 87.5 -61t32.5 -97q0 -82 -67.5 -134t-170.5 -52
q-46 0 -85.5 13t-62.5 32t-39.5 38t-22.5 32l-7 13l87 40q1 -3 4 -8.5t14.5 -19t25 -23.5t37 -18.5t50.5 -8.5q58 0 93.5 29.5t35.5 75.5t-37.5 76.5t-101.5 30.5h-58v76h60z" />
    <glyph glyph-name="four.onum" horiz-adv-x="570" 
d="M335 640h105v-413h100v-80h-100v-147h-103v147h-307v83zM337 227v287l-217 -287h217z" />
    <glyph glyph-name="five.onum" horiz-adv-x="547" 
d="M72 640h395v-93h-299v-166q49 41 119 41q94 0 154.5 -58t60.5 -145q0 -101 -68.5 -165t-174.5 -64q-42 0 -79.5 12t-61 29t-41 34t-25.5 29l-7 12l80 52q2 -3 5.5 -8t16 -18t27 -23t38 -18t48.5 -8q60 0 97.5 36t37.5 93q0 53 -36.5 87.5t-91.5 34.5q-22 0 -41 -6
t-30 -13.5t-20 -17t-12 -13.5t-4 -7h-88v363z" />
    <glyph glyph-name="six.onum" horiz-adv-x="570" 
d="M290 640h121l-173 -228q36 18 74 18q88 0 150.5 -59t62.5 -149q0 -101 -71 -166.5t-171 -65.5q-98 0 -168 64t-70 161q0 86 64 175zM285 89q58 0 95 36t37 92t-37 92t-95 36t-95.5 -36t-37.5 -92t37.5 -92t95.5 -36z" />
    <glyph glyph-name="seven.onum" horiz-adv-x="490" 
d="M344 545h-319v95h440v-73l-263 -567h-116z" />
    <glyph glyph-name="eight.onum" horiz-adv-x="570" 
d="M287 650q92 0 151 -48t59 -123q0 -42 -23 -77.5t-62 -57.5q52 -23 82.5 -64t30.5 -93q0 -85 -69 -141t-173 -56q-105 0 -171.5 54t-66.5 139q0 51 30.5 92.5t82.5 65.5q-40 21 -63 56.5t-23 77.5q0 76 61.5 125.5t153.5 49.5zM285 377q47 0 77 27t30 66t-30 65.5
t-77 26.5t-77.5 -26.5t-30.5 -65.5q0 -40 30.5 -66.5t77.5 -26.5zM285 77q58 0 95 32t37 82q0 49 -37.5 81.5t-94.5 32.5q-58 0 -95.5 -32.5t-37.5 -81.5q0 -50 37.5 -82t95.5 -32z" />
    <glyph glyph-name="nine.onum" horiz-adv-x="570" 
d="M280 0h-121l173 228q-36 -18 -74 -18q-88 0 -150.5 59t-62.5 149q0 101 71 166.5t171 65.5q98 0 168 -64t70 -161q0 -86 -64 -175zM285 551q-58 0 -95 -36t-37 -92t37 -92t95 -36t95.5 36t37.5 92t-37.5 92t-95.5 36z" />
    <glyph glyph-name="zero.onum" horiz-adv-x="570" 
d="M55 413q0 110 65 173.5t167 63.5t165 -61.5t63 -171.5v-190q0 -110 -65 -173.5t-167 -63.5t-165 61t-63 172v190zM162 215q0 -58 34 -92.5t89 -34.5t88.5 34.5t33.5 92.5v210q0 57 -33.5 91.5t-88.5 34.5t-89 -34.5t-34 -91.5v-210z" />
    <glyph glyph-name="numbersign.onum" horiz-adv-x="600" 
d="M335 143h-130l-30 -143h-75l30 143h-95v68h110l29 137h-99v68h114l31 144h75l-31 -144h130l31 144h75l-31 -144h96v-68h-111l-29 -137h100v-68h-115l-30 -143h-75zM220 211h130l29 137h-130z" />
    <glyph glyph-name="cent.onum" horiz-adv-x="527" 
d="M260 142q-96 14 -158 83.5t-62 165.5q0 95 62.5 166t157.5 86v97h68v-94q50 -4 91.5 -23.5t57.5 -36.5l16 -18l-72 -69q-4 6 -12.5 14.5t-38.5 23t-66 14.5q-67 0 -112 -45.5t-45 -112.5q0 -66 45.5 -112t111.5 -46q39 0 69 14.5t41 28.5l11 15l72 -66q-2 -3 -6.5 -8
t-20 -19t-33 -25t-47.5 -21t-62 -13v-94h-68v95z" />
    <glyph glyph-name="dollar.onum" horiz-adv-x="509" 
d="M226 287q-75 32 -120 80.5t-45 109.5q0 67 47 113t121 54v96h68v-95q34 -4 64 -16t49 -26t33 -28t20 -23l6 -9l-76 -53q-2 3 -5.5 7.5t-15.5 17t-25.5 22t-36 17t-46.5 7.5q-45 0 -70.5 -21.5t-25.5 -52.5q0 -36 27 -61.5t91 -52.5q182 -77 182 -199q0 -71 -47.5 -119.5
t-123.5 -59.5v-95h-68v93q-40 3 -75 17t-56.5 31t-38 33.5t-23.5 27.5l-6 11l77 53q2 -4 6 -9.5t18.5 -20.5t31 -26.5t42.5 -21t54 -9.5q46 0 74 23t28 59q0 39 -29.5 66.5t-105.5 59.5z" />
    <glyph glyph-name="sterling.onum" horiz-adv-x="565" 
d="M120 0v281h-90v67h90v75q0 106 62 166.5t160 60.5q41 0 76 -11.5t55.5 -28t35.5 -32.5t21 -28l5 -11l-87 -54l-2.5 7.5t-10 15.5t-19 20t-31 16t-45.5 7q-51 0 -82 -31.5t-31 -84.5v-87h203v-67h-203v-189h288v-92h-395z" />
    <glyph glyph-name="Euro.onum" horiz-adv-x="580" 
d="M225 221v-11q0 -59 34 -94t91 -35q25 0 46 7t32.5 17t20 20.5t11.5 17.5l3 7l87 -39q-2 -5 -6 -13t-20 -29t-36.5 -37t-58 -29t-81.5 -13q-102 0 -165 60.5t-63 165.5v5h-90v59h90v81h-90v59h90v1q0 105 65 167t167 62q44 0 81 -12.5t57.5 -30t35 -34.5t19.5 -29l5 -13
l-87 -41q-1 3 -3 7.5t-10.5 16.5t-20 21t-33 16.5t-46.5 7.5q-57 0 -91 -35t-34 -94v-10h245v-59h-245v-81h225v-59h-225z" />
    <glyph glyph-name="yen.onum" horiz-adv-x="615" 
d="M252 136h-212v62h212v72l-10 16h-202v62h166l-186 292h132l158 -271l159 271h126l-186 -292h166v-62h-203l-10 -16v-72h213v-62h-213v-136h-110v136z" />
    <glyph glyph-name="florin.onum" horiz-adv-x="580" 
d="M122 -160l33 401h-125v70h131l11 131q8 100 62 154t140 54q39 0 71.5 -12t51 -29t31.5 -34t18 -29l4 -12l-82 -49q0 3 -1.5 7.5t-8 15.5t-15.5 20t-26.5 16t-39.5 7q-42 0 -67 -27.5t-30 -78.5l-12 -134h194v-70h-199l-33 -401h-108z" />
    <glyph glyph-name="percent.onum" horiz-adv-x="770" 
d="M45 421q0 64 43.5 106.5t107.5 42.5q65 0 107.5 -41.5t42.5 -105.5q0 -63 -43.5 -105.5t-108.5 -42.5q-64 0 -106.5 41.5t-42.5 104.5zM552 560h78l-412 -560h-79zM119 422q0 -34 21.5 -56t54.5 -22t55 22t22 56t-22 56.5t-55 22.5t-54.5 -22.5t-21.5 -56.5zM424 136
q0 64 43.5 106.5t107.5 42.5q65 0 107.5 -41.5t42.5 -105.5q0 -63 -43.5 -105.5t-108.5 -42.5q-64 0 -106.5 41.5t-42.5 104.5zM498 137q0 -34 21.5 -56t54.5 -22t55 22t22 56t-22 56.5t-55 22.5t-54.5 -22.5t-21.5 -56.5z" />
    <glyph glyph-name="perthousand.onum" horiz-adv-x="1120" 
d="M45 421q0 64 43.5 106.5t107.5 42.5q65 0 107.5 -41.5t42.5 -105.5q0 -63 -43.5 -105.5t-108.5 -42.5q-64 0 -106.5 41.5t-42.5 104.5zM552 560h78l-412 -560h-79zM119 422q0 -34 21.5 -56t54.5 -22t55 22t22 56t-22 56.5t-55 22.5t-54.5 -22.5t-21.5 -56.5zM424 136
q0 64 43.5 106.5t107.5 42.5q65 0 107.5 -41.5t42.5 -105.5q0 -63 -43.5 -105.5t-108.5 -42.5q-64 0 -106.5 41.5t-42.5 104.5zM774 136q0 64 43.5 106.5t107.5 42.5q65 0 107.5 -41.5t42.5 -105.5q0 -63 -43.5 -105.5t-108.5 -42.5q-64 0 -106.5 41.5t-42.5 104.5zM498 137
q0 -34 21.5 -56t54.5 -22t55 22t22 56t-22 56.5t-55 22.5t-54.5 -22.5t-21.5 -56.5zM848 137q0 -34 21.5 -56t54.5 -22t55 22t22 56t-22 56.5t-55 22.5t-54.5 -22.5t-21.5 -56.5z" />
    <glyph glyph-name="one.lnum" 
d="M82 0v90h202v479l-165 -113l-54 74l239 170h90v-610h173v-90h-485z" />
    <glyph glyph-name="two.lnum" 
d="M325 325q52 50 73.5 88t21.5 80q0 50 -36.5 84.5t-93.5 34.5q-29 0 -54.5 -10t-41.5 -24t-28 -28.5t-17 -24.5l-5 -10l-81 50q2 6 7 15.5t24 34.5t43.5 44.5t68 35t94.5 15.5q99 0 164.5 -59.5t65.5 -145.5q0 -68 -31.5 -122.5t-103.5 -123.5l-172 -164h302v-95h-455v83z
" />
    <glyph glyph-name="three.lnum" 
d="M279 405q65 0 100 29t35 76q0 46 -35 75t-95 29q-27 0 -50 -7.5t-37 -19t-24 -22.5t-14 -19l-4 -7l-80 46q2 5 7 13.5t23.5 30t41 38t61.5 30t84 13.5q101 0 166.5 -51.5t65.5 -133.5q0 -53 -30.5 -94.5t-82.5 -64.5q62 -23 97.5 -68.5t35.5 -105.5q0 -89 -72.5 -145.5
t-184.5 -56.5q-48 0 -90 13.5t-68 33t-45 39.5t-26 34l-8 13l82 51q2 -4 6 -9.5t17.5 -21t29.5 -27t43 -21t57 -9.5q68 0 108.5 33t40.5 83q0 51 -41.5 84.5t-114.5 33.5h-69v85h70z" />
    <glyph glyph-name="four.lnum" 
d="M362 700h108v-443h100v-87h-100v-170h-105v170h-325v90zM365 257v310l-232 -310h232z" />
    <glyph glyph-name="five.lnum" 
d="M90 700h425v-95h-327v-191q56 46 132 46q99 0 164.5 -65t65.5 -159q0 -106 -73 -176t-185 -70q-43 0 -83 12t-65 29t-44.5 34t-27.5 29l-9 12l81 59q6 -8 17 -20.5t49 -33t81 -20.5q66 0 107.5 40t41.5 102q0 55 -40 93t-101 38q-36 0 -65.5 -15.5t-38.5 -26.5t-12 -17
h-93v395z" />
    <glyph glyph-name="six.lnum" 
d="M310 700h124l-181 -260q34 20 76 20q94 0 160 -64t66 -159q0 -107 -73 -177t-179 -70q-104 0 -176 68.5t-72 171.5q0 96 59 181zM305 91q61 0 100.5 40.5t39.5 100.5q0 61 -39.5 101.5t-100.5 40.5t-100.5 -40.5t-39.5 -101.5q0 -60 39.5 -100.5t100.5 -40.5z" />
    <glyph glyph-name="seven.lnum" 
d="M440 603h-385v97h510v-75l-325 -625h-118z" />
    <glyph glyph-name="eight.lnum" 
d="M307 710q95 0 157.5 -52.5t62.5 -134.5q0 -96 -92 -149q55 -24 87.5 -69.5t32.5 -101.5q0 -92 -72 -152.5t-180 -60.5t-178 58.5t-70 150.5q0 56 32 101.5t87 70.5q-92 51 -92 148q0 82 64.5 136.5t160.5 54.5zM305 410q49 0 82 29.5t33 73.5t-33 73.5t-82 29.5
q-50 0 -82.5 -29.5t-32.5 -73.5t32.5 -73.5t82.5 -29.5zM305 83q60 0 100 35t40 89t-40 89.5t-100 35.5q-61 0 -100.5 -35t-39.5 -90t39.5 -89.5t100.5 -34.5z" />
    <glyph glyph-name="nine.lnum" 
d="M305 0h-124l181 260q-34 -20 -76 -20q-94 0 -160 64t-66 159q0 107 73 177t179 70q104 0 176 -68.5t72 -171.5q0 -96 -59 -181zM310 609q-61 0 -100.5 -40.5t-39.5 -100.5q0 -61 39.5 -101.5t100.5 -40.5t100.5 40.5t39.5 101.5q0 60 -39.5 100.5t-100.5 40.5z" />
    <glyph glyph-name="zero.lnum" 
d="M65 463q0 115 67.5 181t174.5 66q106 0 172 -64.5t66 -178.5v-230q0 -115 -68 -181t-174 -66q-107 0 -172.5 64t-65.5 179v230zM175 225q0 -61 35.5 -97.5t94.5 -36.5q58 0 94 36.5t36 97.5v250q0 61 -36 97.5t-94 36.5q-59 0 -94.5 -36.5t-35.5 -97.5v-250z" />
    <glyph glyph-name="numbersign.lnum" 
d="M345 204h-130l-34 -204h-75l34 204h-100v68h112l26 157h-98v68h111l34 203h75l-35 -203h130l35 203h75l-35 -203h100v-68h-112l-27 -157h99v-68h-110l-35 -204h-75zM226 272h130l28 157h-131z" />
    <glyph glyph-name="cent.lnum" 
d="M300 162q-109 13 -177 87t-68 183q0 107 68 182.5t177 89.5v96h68v-94q52 -4 97 -24t64 -38l19 -18l-75 -73q-5 6 -15 15.5t-43.5 25t-71.5 15.5q-79 0 -128.5 -49t-49.5 -126t49.5 -126.5t128.5 -49.5q40 0 73.5 15t47.5 29l13 15l75 -70q-7 -9 -21 -21.5t-61.5 -36.5
t-101.5 -28v-94h-68v95z" />
    <glyph glyph-name="dollar.lnum" 
d="M268 324q-165 76 -165 202q0 71 50 120.5t129 58.5v95h67v-95q36 -4 68.5 -17t52 -28.5t34.5 -30.5t21 -25l6 -10l-80 -57q-2 3 -5.5 8.5t-16 18.5t-27 23t-37.5 18.5t-48 8.5q-46 0 -74 -23.5t-28 -57.5q0 -39 30.5 -68t100.5 -61q184 -83 184 -217q0 -77 -50 -128.5
t-131 -62.5v-96h-67v94q-43 3 -80.5 17.5t-60.5 33.5t-40 37t-24 30l-7 13l81 57q2 -4 6.5 -10.5t20 -23t32.5 -29t44.5 -23t56.5 -10.5q47 0 77 26t30 65q0 43 -34 76t-116 71z" />
    <glyph glyph-name="sterling.lnum" 
d="M130 0v312h-90v67h90v94q0 111 64.5 174t166.5 63q42 0 78.5 -12t58.5 -29t37.5 -34t22.5 -29l6 -12l-89 -56q-1 3 -3 7.5t-11.5 17t-21 22t-33 17t-47.5 7.5q-54 0 -87 -33.5t-33 -90.5v-106h220v-67h-220v-217h305v-95h-414z" />
    <glyph glyph-name="Euro.lnum" 
d="M238 243v-18q0 -63 36 -100t96 -37q26 0 48 7t35 17t22 20.5t13 17.5l3 7l89 -47q-2 -5 -6 -13t-21 -28.5t-38.5 -36.5t-60 -29t-83.5 -13q-108 0 -174.5 63t-66.5 175v15h-90v61h90v91h-90v62h90v11q0 112 68.5 177t176.5 65q45 0 83 -12.5t59.5 -30t36.5 -35t20 -30.5
l6 -12l-89 -48q-1 3 -3.5 7.5t-12 16.5t-22 21t-35 16.5t-48.5 7.5q-60 0 -96 -37t-36 -99v-18h262v-62h-262v-91h242v-61h-242z" />
    <glyph glyph-name="yen.lnum" 
d="M248 182h-202v62h202v71l-9 17h-193v62h159l-179 306h132l151 -277l150 277h126l-179 -306h159v-62h-193l-9 -17v-71h202v-62h-202v-182h-115v182z" />
    <glyph glyph-name="florin.lnum" 
d="M130 -160l36 459h-126v69h132l10 131q8 101 64.5 156t147.5 55q40 0 74 -12.5t53.5 -30t33.5 -34.5t19 -29l6 -13l-82 -51l-2.5 7.5t-9.5 16.5t-18 21t-29 16.5t-42 7.5q-46 0 -73 -28t-32 -79l-11 -134h199v-69h-204l-36 -459h-110z" />
    <glyph glyph-name="percent.lnum" horiz-adv-x="850" 
d="M45 539q0 73 50 122t124 49t122.5 -48t48.5 -121t-49.5 -121.5t-123.5 -48.5t-123 47.5t-49 120.5zM627 700h81l-485 -700h-81zM123 540q0 -41 27 -69t68 -28q40 0 67.5 28t27.5 69q0 42 -27 69.5t-68 27.5t-68 -27.5t-27 -69.5zM460 158q0 73 50 122t124 49t122.5 -48
t48.5 -121t-49.5 -121.5t-123.5 -48.5t-123 47.5t-49 120.5zM538 159q0 -41 27 -69t68 -28q40 0 67.5 28t27.5 69q0 42 -27 69.5t-68 27.5t-68 -27.5t-27 -69.5z" />
    <glyph glyph-name="perthousand.lnum" horiz-adv-x="1245" 
d="M45 539q0 73 50 122t124 49t122.5 -48t48.5 -121t-49.5 -121.5t-123.5 -48.5t-123 47.5t-49 120.5zM627 700h81l-485 -700h-81zM123 540q0 -41 27 -69t68 -28q40 0 67.5 28t27.5 69q0 42 -27 69.5t-68 27.5t-68 -27.5t-27 -69.5zM460 158q0 73 50 122t124 49t122.5 -48
t48.5 -121t-49.5 -121.5t-123.5 -48.5t-123 47.5t-49 120.5zM1029 329q74 0 122.5 -48t48.5 -121t-49.5 -121.5t-123.5 -48.5t-123 47.5t-49 120.5t50 122t124 49zM538 159q0 -41 27 -69t68 -28q40 0 67.5 28t27.5 69q0 42 -27 69.5t-68 27.5t-68 -27.5t-27 -69.5zM1028 256
q-41 0 -68 -27.5t-27 -69.5q0 -41 27 -69t68 -28q40 0 67.5 28t27.5 69q0 42 -27 69.5t-68 27.5z" />
    <glyph glyph-name="numbersignsuperior" horiz-adv-x="378" 
d="M207 398h-69l-20 -118h-52l20 118h-56v48h65l14 87h-55v48h64l20 119h52l-20 -119h69l20 119h52l-20 -119h57v-48h-66l-14 -87h56v-48h-65l-20 -118h-52zM147 446h69l14 87h-69z" />
    <glyph glyph-name="centsuperior" horiz-adv-x="343" 
d="M173 390q-61 8 -99.5 50.5t-38.5 104.5q0 60 39 103.5t99 53.5v58h49v-57q30 -3 56 -15t36 -22l11 -11l-48 -50q-26 30 -73 30q-40 0 -66 -25t-26 -64t26 -64t66 -25q22 0 41 8.5t27 16.5l7 8l49 -49q-4 -5 -12 -12.5t-35.5 -22t-58.5 -17.5v-57h-49v58z" />
    <glyph glyph-name="dollarsuperior" horiz-adv-x="349" 
d="M149 470q-102 46 -102 125q0 42 30 71.5t78 35.5v58h49v-58q34 -4 61.5 -21t38.5 -31l10 -15l-58 -40q-3 5 -8.5 12.5t-25 20.5t-42.5 13q-26 0 -40.5 -12t-14.5 -30q0 -21 17 -37.5t57 -35.5q113 -51 113 -134q0 -45 -30 -75.5t-78 -38.5v-58h-49v56q-40 4 -72.5 24
t-44.5 38l-13 18l59 40q4 -6 11 -15.5t30.5 -25.5t50.5 -16t42.5 13t15.5 34q0 24 -19 43.5t-66 40.5z" />
    <glyph glyph-name="sterlingsuperior" horiz-adv-x="380" 
d="M87 280v182h-52v49h52v52q0 67 40.5 105t103.5 38q40 0 71 -17.5t42 -34.5l11 -18l-61 -36q-2 4 -5.5 10t-20 15.5t-38.5 9.5q-31 0 -48.5 -18t-17.5 -49v-57h128v-49h-128v-119h179v-63h-256z" />
    <glyph glyph-name="Eurosuperior" horiz-adv-x="388" 
d="M162 422v-8q0 -34 19 -53.5t54 -19.5q24 0 40.5 9.5t20.5 18.5l5 9l62 -32q-1 -3 -3.5 -8t-13 -17t-24 -21.5t-37 -17.5t-50.5 -8q-66 0 -107 37t-41 105v6h-52v43h52v49h-52v44h52v2q0 68 42.5 107t108.5 39q27 0 50 -7.5t36.5 -18t22.5 -21t13 -17.5l3 -8l-62 -33l-1 1
q0 1 -1 3.5t-3 5t-5 6t-6.5 6.5t-8.5 6t-11 5t-13.5 3.5t-16.5 1.5q-34 0 -53.5 -19.5t-19.5 -53.5v-8h156v-44h-156v-49h144v-43h-144z" />
    <glyph glyph-name="yensuperior" horiz-adv-x="401" 
d="M160 384h-133v44h133v41l-6 10h-127v44h100l-112 177h89l99 -165l96 165h87l-113 -177h101v-44h-128l-5 -10v-41h133v-44h-133v-104h-81v104z" />
    <glyph glyph-name="florinsuperior" horiz-adv-x="374" 
d="M77 184l21 271h-73v51h77l6 73q5 61 40 94t92 33q38 0 66.5 -18t37.5 -36l10 -17l-58 -34q-2 4 -5 9.5t-17 15t-32 9.5q-52 0 -57 -56l-6 -73h115v-51h-119l-21 -271h-77z" />
    <glyph glyph-name="percentsuperior" horiz-adv-x="536" 
d="M35 603q0 44 30.5 73.5t75.5 29.5t75 -28.5t30 -73.5q0 -44 -30.5 -73.5t-75.5 -29.5t-75 29t-30 73zM387 700h57l-296 -420h-57zM88 604q0 -23 15.5 -38t36.5 -15t36.5 15t15.5 38q0 22 -15.5 37t-36.5 15t-36.5 -15t-15.5 -37zM290 376q0 44 30.5 73.5t75.5 29.5
t75 -28.5t30 -73.5q0 -44 -30.5 -73.5t-75.5 -29.5t-75 29t-30 73zM343 377q0 -23 15.5 -38t36.5 -15t36.5 15t15.5 38q0 22 -15.5 37t-36.5 15t-36.5 -15t-15.5 -37z" />
    <glyph glyph-name="perthousandsuperior" horiz-adv-x="776" 
d="M35 603q0 44 30.5 73.5t75.5 29.5t75 -28.5t30 -73.5q0 -44 -30.5 -73.5t-75.5 -29.5t-75 29t-30 73zM387 700h57l-296 -420h-57zM88 604q0 -23 15.5 -38t36.5 -15t36.5 15t15.5 38q0 22 -15.5 37t-36.5 15t-36.5 -15t-15.5 -37zM290 376q0 44 30.5 73.5t75.5 29.5
t75 -28.5t30 -73.5q0 -44 -30.5 -73.5t-75.5 -29.5t-75 29t-30 73zM636 479q45 0 75 -28.5t30 -73.5q0 -44 -30.5 -73.5t-75.5 -29.5t-75 29t-30 73t30.5 73.5t75.5 29.5zM343 377q0 -23 15.5 -38t36.5 -15t36.5 15t15.5 38q0 22 -15.5 37t-36.5 15t-36.5 -15t-15.5 -37z
M635 429q-21 0 -36.5 -15t-15.5 -37q0 -23 15.5 -38t36.5 -15t36.5 15t15.5 38q0 22 -15.5 37t-36.5 15z" />
    <glyph glyph-name="G.ss01" horiz-adv-x="775" 
d="M413 -10q-154 0 -258.5 103t-104.5 255t106.5 257t260.5 105q50 0 95 -11t74.5 -26.5t51.5 -31t32 -26.5l10 -11l-80 -80q-3 3 -8 8.5t-22 19.5t-37 24.5t-52 19t-66 8.5q-107 0 -178.5 -73t-71.5 -182t71.5 -182.5t178.5 -73.5q38 0 71.5 7.5t54.5 18.5t37 22t23 19l7 7
v113h-198v85h305v-248q-4 -5 -12 -13.5t-35.5 -30.5t-60 -39t-85 -30.5t-109.5 -13.5z" />
    <glyph glyph-name="Gbreve.ss01" horiz-adv-x="775" 
d="M321 920v-10q0 -39 24 -63t64 -24t63 24t23 63v10h79v-5q0 -70 -47 -115t-119 -45t-119 45t-47 115v5h79zM413 -10q-154 0 -258.5 103t-104.5 255t106.5 257t260.5 105q50 0 95 -11t74.5 -26.5t51.5 -31t32 -26.5l10 -11l-80 -80q-3 3 -8 8.5t-22 19.5t-37 24.5t-52 19
t-66 8.5q-107 0 -178.5 -73t-71.5 -182t71.5 -182.5t178.5 -73.5q38 0 71.5 7.5t54.5 18.5t37 22t23 19l7 7v113h-198v85h305v-248q-4 -5 -12 -13.5t-35.5 -30.5t-60 -39t-85 -30.5t-109.5 -13.5z" />
    <glyph glyph-name="Gcommaaccent.ss01" horiz-adv-x="807" 
d="M413 -10q-154 0 -258.5 103t-104.5 255t106.5 257t260.5 105q50 0 95 -11t74.5 -26.5t51.5 -31t32 -26.5l10 -11l-80 -80q-3 3 -8 8.5t-22 19.5t-37 24.5t-52 19t-66 8.5q-107 0 -178.5 -73t-71.5 -182t71.5 -182.5t178.5 -73.5q38 0 71.5 7.5t54.5 18.5t37 22t23 19l7 7
v113h-198v85h305v-248q-4 -5 -12 -13.5t-35.5 -30.5t-60 -39t-85 -30.5t-109.5 -13.5zM354 -50h117l-102 -165h-88z" />
    <glyph glyph-name="Gdotaccent.ss01" horiz-adv-x="807" 
d="M408 902q27 0 44.5 -18t17.5 -44q0 -27 -18 -45t-45 -18q-26 0 -44 17.5t-18 44.5q0 26 18.5 44.5t44.5 18.5zM413 -10q-154 0 -258.5 103t-104.5 255t106.5 257t260.5 105q50 0 95 -11t74.5 -26.5t51.5 -31t32 -26.5l10 -11l-80 -80q-3 3 -8 8.5t-22 19.5t-37 24.5
t-52 19t-66 8.5q-107 0 -178.5 -73t-71.5 -182t71.5 -182.5t178.5 -73.5q38 0 71.5 7.5t54.5 18.5t37 22t23 19l7 7v113h-198v85h305v-248q-4 -5 -12 -13.5t-35.5 -30.5t-60 -39t-85 -30.5t-109.5 -13.5z" />
    <glyph glyph-name="Gcircumflex.ss01" horiz-adv-x="807" 
d="M358 920h100l145 -165h-97l-100 97l-99 -97h-94zM413 -10q-154 0 -258.5 103t-104.5 255t106.5 257t260.5 105q50 0 95 -11t74.5 -26.5t51.5 -31t32 -26.5l10 -11l-80 -80q-3 3 -8 8.5t-22 19.5t-37 24.5t-52 19t-66 8.5q-107 0 -178.5 -73t-71.5 -182t71.5 -182.5
t178.5 -73.5q38 0 71.5 7.5t54.5 18.5t37 22t23 19l7 7v113h-198v85h305v-248q-4 -5 -12 -13.5t-35.5 -30.5t-60 -39t-85 -30.5t-109.5 -13.5z" />
    <glyph glyph-name="a.ss01" horiz-adv-x="652" 
d="M582 0h-91l-11 91q-67 -101 -189 -101q-104 0 -177.5 76.5t-73.5 188.5t75 190t180 78q121 0 186 -97l10 87h91v-513zM313 422q-70 0 -116.5 -47.5t-46.5 -117.5q0 -71 46.5 -118.5t116.5 -47.5t117 47.5t47 118.5q0 70 -47 117.5t-117 47.5z" />
    <glyph glyph-name="agrave.ss01" horiz-adv-x="652" 
d="M355 575h-88l-102 165h117zM582 0h-91l-11 91q-67 -101 -189 -101q-104 0 -177.5 76.5t-73.5 188.5t75 190t180 78q121 0 186 -97l10 87h91v-513zM313 422q-70 0 -116.5 -47.5t-46.5 -117.5q0 -71 46.5 -118.5t116.5 -47.5t117 47.5t47 118.5q0 70 -47 117.5t-117 47.5z
" />
    <glyph glyph-name="aacute.ss01" horiz-adv-x="652" 
d="M328 740h117l-102 -165h-88zM582 0h-91l-11 91q-67 -101 -189 -101q-104 0 -177.5 76.5t-73.5 188.5t75 190t180 78q121 0 186 -97l10 87h91v-513zM313 422q-70 0 -116.5 -47.5t-46.5 -117.5q0 -71 46.5 -118.5t116.5 -47.5t117 47.5t47 118.5q0 70 -47 117.5t-117 47.5z
" />
    <glyph glyph-name="acircumflex.ss01" horiz-adv-x="652" 
d="M275 740h100l145 -165h-97l-100 97l-99 -97h-94zM582 0h-91l-11 91q-67 -101 -189 -101q-104 0 -177.5 76.5t-73.5 188.5t75 190t180 78q121 0 186 -97l10 87h91v-513zM313 422q-70 0 -116.5 -47.5t-46.5 -117.5q0 -71 46.5 -118.5t116.5 -47.5t117 47.5t47 118.5
q0 70 -47 117.5t-117 47.5z" />
    <glyph glyph-name="atilde.ss01" horiz-adv-x="652" 
d="M148 602q0 5 1 13.5t7 31t15.5 39t30.5 30.5t48 14t49.5 -12.5t35 -28t29.5 -28t34 -12.5t27.5 16.5t12.5 32.5l2 16l60 -6q0 -5 -1 -13.5t-7 -31t-15.5 -39t-30.5 -30.5t-48 -14t-49.5 12.5t-35 27.5t-30 27.5t-34.5 12.5q-16 0 -26 -16t-12 -32l-2 -16zM582 0h-91
l-11 91q-67 -101 -189 -101q-104 0 -177.5 76.5t-73.5 188.5t75 190t180 78q121 0 186 -97l10 87h91v-513zM313 422q-70 0 -116.5 -47.5t-46.5 -117.5q0 -71 46.5 -118.5t116.5 -47.5t117 47.5t47 118.5q0 70 -47 117.5t-117 47.5z" />
    <glyph glyph-name="adieresis.ss01" horiz-adv-x="652" 
d="M211 720q27 0 44.5 -18t17.5 -44q0 -27 -18 -45t-45 -18q-26 0 -44 17.5t-18 44.5q0 26 18.5 44.5t44.5 18.5zM421 720q27 0 44.5 -18t17.5 -44q0 -27 -18 -45t-45 -18q-26 0 -44 17.5t-18 44.5q0 26 18.5 44.5t44.5 18.5zM582 0h-91l-11 91q-67 -101 -189 -101
q-104 0 -177.5 76.5t-73.5 188.5t75 190t180 78q121 0 186 -97l10 87h91v-513zM313 422q-70 0 -116.5 -47.5t-46.5 -117.5q0 -71 46.5 -118.5t116.5 -47.5t117 47.5t47 118.5q0 70 -47 117.5t-117 47.5z" />
    <glyph glyph-name="aring.ss01" horiz-adv-x="652" 
d="M320 770q46 0 76.5 -29t30.5 -74q0 -44 -30.5 -73t-76.5 -29t-77 29t-31 73q0 45 31 74t77 29zM320 612q23 0 39 16t16 39t-16 39t-39 16t-39.5 -16t-16.5 -39t16.5 -39t39.5 -16zM582 0h-91l-11 91q-67 -101 -189 -101q-104 0 -177.5 76.5t-73.5 188.5t75 190t180 78
q121 0 186 -97l10 87h91v-513zM313 422q-70 0 -116.5 -47.5t-46.5 -117.5q0 -71 46.5 -118.5t116.5 -47.5t117 47.5t47 118.5q0 70 -47 117.5t-117 47.5z" />
    <glyph glyph-name="abreve.ss01" horiz-adv-x="652" 
d="M229 740v-10q0 -39 24 -63t64 -24t63 24t23 63v10h79v-5q0 -70 -47 -115t-119 -45t-119 45t-47 115v5h79zM582 0h-91l-11 91q-67 -101 -189 -101q-104 0 -177.5 76.5t-73.5 188.5t75 190t180 78q121 0 186 -97l10 87h91v-513zM313 422q-70 0 -116.5 -47.5t-46.5 -117.5
q0 -71 46.5 -118.5t116.5 -47.5t117 47.5t47 118.5q0 70 -47 117.5t-117 47.5z" />
    <glyph glyph-name="amacron.ss01" horiz-adv-x="652" 
d="M140 673h360v-66h-360v66zM582 0h-91l-11 91q-67 -101 -189 -101q-104 0 -177.5 76.5t-73.5 188.5t75 190t180 78q121 0 186 -97l10 87h91v-513zM313 422q-70 0 -116.5 -47.5t-46.5 -117.5q0 -71 46.5 -118.5t116.5 -47.5t117 47.5t47 118.5q0 70 -47 117.5t-117 47.5z
" />
    <glyph glyph-name="aogonek.ss01" horiz-adv-x="652" 
d="M582 0h-48q-21 -13 -21 -49q0 -26 20.5 -43t51.5 -17q16 0 30 3.5t21 7.5l6 3l20 -64q-30 -25 -86 -25q-59 0 -99 34t-40 89q0 59 50 95l-7 57q-67 -101 -189 -101q-104 0 -177.5 76.5t-73.5 188.5t75 190t180 78q121 0 186 -97l10 87h91v-513zM313 422
q-70 0 -116.5 -47.5t-46.5 -117.5q0 -71 46.5 -118.5t116.5 -47.5t117 47.5t47 118.5q0 70 -47 117.5t-117 47.5z" />
    <glyph glyph-name="aringacute.ss01" horiz-adv-x="652" 
d="M582 0h-91l-11 91q-67 -101 -189 -101q-104 0 -177.5 76.5t-73.5 188.5q0 98 58.5 171.5t146.5 91.5q-20 25 -20 61q0 42 26.5 70t68.5 32l31 69h117l-59 -97q31 -29 31 -74q0 -52 -40 -81q48 -25 81 -72l10 87h91v-513zM333 524q23 0 39 16t16 39t-16 39t-39 16
t-39.5 -16t-16.5 -39t16.5 -39t39.5 -16zM313 422q-70 0 -116.5 -47.5t-46.5 -117.5q0 -71 46.5 -118.5t116.5 -47.5t117 47.5t47 118.5q0 70 -47 117.5t-117 47.5z" />
    <glyph glyph-name="K.ss01" horiz-adv-x="710" 
d="M310 320l-105 -101v-219h-115v700h115v-353l347 353h143l-302 -307l322 -393h-144z" />
    <glyph glyph-name="Kcommaaccent.ss01" horiz-adv-x="710" 
d="M310 320l-105 -101v-219h-115v700h115v-353l347 353h143l-302 -307l322 -393h-144zM324 -50h117l-102 -165h-88z" />
    <glyph glyph-name="k.ss01" horiz-adv-x="585" 
d="M263 235l-93 -78v-157h-110v700h110v-423l264 236h146l-237 -210l247 -303h-138z" />
    <glyph glyph-name="kcommaaccent.ss01" horiz-adv-x="585" 
d="M263 235l-93 -78v-157h-110v700h110v-423l264 236h146l-237 -210l247 -303h-138zM254 -50h117l-102 -165h-88z" />
    <glyph glyph-name="Sarcasm" horiz-adv-x="619" 
d="M45 667l128 43l115 -473l-78 -26zM409 211l-78 26l115 473l128 -43zM237 66q0 30 21 51.5t51 21.5t51.5 -21.5t21.5 -51.5t-21.5 -51t-51.5 -21t-51 21t-21 51z" />
    </font>
</defs>
</svg>
